<svg width="50" height="46" viewBox="0 0 50 46" fill="none" xmlns="http://www.w3.org/2000/svg">
<path d="M42.8808 22.3027C43.3278 21.2759 43.5766 19.9851 43.5766 18.4608C43.5766 12.5384 39.8279 5.25575 35.2461 2.27737C32.9856 0.807766 30.9282 0.650423 29.4234 1.57861C29.3902 1.59904 29.3571 1.61997 29.3245 1.64158L24.1647 4.92283C23.9884 4.78693 23.81 4.65896 23.6294 4.54163C22.0458 3.51215 20.6057 3.40883 19.5578 4.07095L16.1736 6.24269C15.6585 5.74095 15.1205 5.30133 14.5667 4.9414C12.7612 3.76774 11.1174 3.63893 9.91304 4.37534V4.37449L9.87686 4.39745C9.86451 4.40522 9.85215 4.41299 9.83994 4.42092L3.1416 8.68084C4.33378 8.02547 5.92781 8.18433 7.67267 9.31865C8.86023 10.0907 9.97707 11.225 10.9456 12.5653C10.9773 8.5034 13.5697 6.86092 16.7353 8.91871C17.956 9.71235 19.0909 10.9463 20.0274 12.3971C20.0238 12.2666 20.0214 12.1365 20.0214 12.0072C20.0214 6.08484 23.7702 3.67624 28.3519 6.65462C32.9336 9.63317 36.6824 16.9157 36.6824 22.838C36.6824 24.3623 36.4335 25.6531 35.9867 26.6799C39.417 29.412 42.1058 34.9484 42.1058 39.511C42.1058 41.7248 41.4729 43.3453 40.4293 44.2298L46.9375 40.1336C48.2087 39.3412 49.0001 37.6084 49.0001 35.1336C49.0001 30.571 46.3112 25.0346 42.8809 22.3025L42.8808 22.3027Z" fill="#DBD6FF" stroke="#0F2B46" stroke-width="0.6"/>
<path d="M35.9864 26.6819C36.4334 25.6551 36.6822 24.3643 36.6822 22.84C36.6822 16.9176 32.9335 9.63494 28.3517 6.65656C23.77 3.67801 20.0212 6.08661 20.0212 12.0091C20.0212 12.1384 20.0236 12.2686 20.0272 12.3991C19.0906 10.9482 17.9558 9.71429 16.735 8.92065C13.5694 6.86286 10.9772 8.50518 10.9454 12.5672C9.97668 11.2269 8.85999 10.0926 7.67243 9.32059C5.92757 8.18627 4.33354 8.02741 3.14136 8.68278C1.8262 9.40568 1 11.1196 1 13.6079C1 18.3516 4.0027 24.185 7.67258 26.5706C7.81596 26.6638 7.958 26.7496 8.09915 26.8298L35.2114 43.9425C37.2906 45.2941 39.1623 45.3053 40.429 44.2316C41.4726 43.3471 42.1056 41.7267 42.1056 39.5128C42.1056 34.9502 39.4167 29.4139 35.9864 26.6819Z" fill="#EBE8FF" stroke="#0F2B46" stroke-width="0.6"/>
</svg>
