<svg width="42" height="50" viewBox="0 0 42 50" fill="none" xmlns="http://www.w3.org/2000/svg">
<path fill-rule="evenodd" clip-rule="evenodd" d="M25.287 22.6641L16.8398 17.7871L25.287 22.6641Z" fill="#A6E9FF"/>
<path d="M25.287 22.6641V22.6641ZM25.287 22.6641L16.8398 17.7871M16.8398 17.7871V17.7871Z" stroke="#0F2B46" stroke-width="0.6"/>
<path fill-rule="evenodd" clip-rule="evenodd" d="M41.3352 30.5891L9.44715 48.9996L1 44.1227L32.888 25.7121L41.3352 30.5891Z" fill="#A6E9FF" stroke="#0F2B46" stroke-width="0.6"/>
<path fill-rule="evenodd" clip-rule="evenodd" d="M41.3339 30.5889L32.8867 25.7119L41.3339 30.5889Z" fill="#A6E9FF"/>
<path d="M41.3339 30.5889V30.5889ZM41.3339 30.5889L32.8867 25.7119M32.8867 25.7119V25.7119Z" stroke="#0F2B46" stroke-width="0.6"/>
<path fill-rule="evenodd" clip-rule="evenodd" d="M25.287 22.6645C29.0775 20.476 32.1503 15.1538 32.1503 10.7769L23.7032 5.8999C23.7032 10.2768 20.6303 15.5991 16.8398 17.7875L25.287 22.6645Z" fill="#A6E9FF" stroke="#0F2B46" stroke-width="0.6"/>
<path fill-rule="evenodd" clip-rule="evenodd" d="M32.1466 10.7771C32.1466 8.67622 31.4386 7.175 30.2831 6.42384L21.8359 1.54688C22.9914 2.29804 23.6994 3.79926 23.6994 5.90016L32.1466 10.7771Z" fill="#A6E9FF" stroke="#0F2B46" stroke-width="0.6"/>
<path fill-rule="evenodd" clip-rule="evenodd" d="M36.8495 22.8496C39.7969 24.5125 41.333 27.8 41.333 30.5896L32.8858 25.7126C32.8858 22.923 31.3498 19.6356 28.4023 17.9727L36.8495 22.8496Z" fill="#A6E9FF" stroke="#0F2B46" stroke-width="0.6"/>
<path fill-rule="evenodd" clip-rule="evenodd" d="M20.287 23.0548C21.5388 23.8686 23.3158 23.8021 25.2868 22.6641L16.8397 17.7871C14.8686 18.9251 13.0916 18.9916 11.8398 18.1779L20.287 23.0548Z" fill="#A6E9FF" stroke="#0F2B46" stroke-width="0.6"/>
<path d="M36.8519 22.8499C34.1312 21.3149 30.2079 21.1642 25.1802 24.0669L25.1797 24.0667C14.7054 30.1142 9.44715 43.8792 9.44715 49L1 44.123C1 39.0022 6.25833 25.237 16.7328 19.1895L16.7333 19.1898C21.7609 16.2872 25.6841 16.438 28.4047 17.973L36.8519 22.8499Z" fill="#A6E9FF" stroke="#0F2B46" stroke-width="0.6"/>
<path d="M30.2867 6.42358C30.1904 6.36098 30.091 6.3036 29.9887 6.2515L30.2867 6.42358Z" fill="#A6E9FF"/>
<path d="M18.4237 18.7018C18.4237 14.325 21.4964 9.00281 25.2868 6.8143C27.1063 5.76384 28.7604 5.6264 29.9887 6.2515L21.8396 1.54661C20.5878 0.732882 18.8109 0.799369 16.8399 1.93724C13.0495 4.12569 9.97656 9.44793 9.97656 13.8248C9.97656 15.9257 10.6845 17.4273 11.84 18.1784L20.2872 23.0554C19.1317 22.3042 18.4237 20.8027 18.4237 18.7018Z" fill="#A6E9FF"/>
<path d="M29.9887 6.2515C30.091 6.30359 30.1904 6.36098 30.2867 6.42358L29.9887 6.2515ZM29.9887 6.2515C28.7604 5.6264 27.1063 5.76385 25.2868 6.8143C21.4964 9.00281 18.4237 14.325 18.4237 18.7018M29.9887 6.2515L21.8396 1.54661C20.5878 0.732882 18.8109 0.799369 16.8399 1.93724C13.0495 4.12569 9.97656 9.44793 9.97656 13.8248M18.4199 18.6996L18.4237 18.7018M18.4237 18.7018C18.4237 20.8027 19.1317 22.3042 20.2872 23.0554L11.84 18.1784C10.6845 17.4273 9.97656 15.9257 9.97656 13.8248M9.97656 13.8248L9.98041 13.827" stroke="#0F2B46" stroke-width="0.6"/>
<path d="M25.2837 22.664C29.0742 20.4755 32.147 15.1532 32.147 10.7764C32.147 6.39948 29.0742 4.62539 25.2837 6.81383C21.4932 9.00227 18.4204 14.3246 18.4204 18.7014C18.4204 23.0783 21.4932 24.8524 25.2837 22.664ZM41.3333 30.589L9.44531 48.9996C9.44531 43.8788 14.7036 30.1135 25.1781 24.0661C35.6526 18.0187 41.3333 25.2244 41.3333 30.589Z" fill="#DEF5FF" stroke="#0F2B46" stroke-width="0.6"/>
</svg>
