<svg width="46" height="46" viewBox="0 0 46 46" fill="none" xmlns="http://www.w3.org/2000/svg">
<circle cx="22.9719" cy="22.9999" r="21.9719" fill="#D1FFCD" stroke="#0F2B46" stroke-width="0.6" stroke-linejoin="round"/>
<path d="M7.43739 10.3012L7.62724 10.5335L7.43739 10.3012ZM22.9739 5.04108V4.74108V5.04108ZM38.5104 10.3012L38.7003 10.0689L38.5104 10.3012ZM38.5078 32.0065L38.6583 32.266L38.5078 32.0065ZM22.9724 35.7369V36.0369V35.7369ZM7.43704 32.0065L7.5875 31.7469L7.43704 32.0065ZM22.9722 5.04021L22.8218 4.78067L22.9722 5.04021ZM22.9718 5.04021L22.8214 5.29975L22.9718 5.04021ZM7.62724 10.5335C11.8568 7.07641 17.4101 5.34109 22.9739 5.34108V4.74108C17.2914 4.74109 11.5986 6.51252 7.24753 10.0689L7.62724 10.5335ZM22.9739 5.34108C28.5377 5.34107 34.091 7.0764 38.3205 10.5335L38.7003 10.0689C34.3492 6.5125 28.6563 4.74107 22.9739 4.74108V5.34108ZM1.30195 23.0003C1.30195 18.5019 3.40046 13.9883 7.62724 10.5335L7.24753 10.0689C2.89373 13.6276 0.701953 18.3064 0.701953 23.0003H1.30195ZM38.3205 10.5335C42.5473 13.9883 44.6458 18.5019 44.6458 23.0003H45.2458C45.2458 18.3064 43.0541 13.6276 38.7003 10.0689L38.3205 10.5335ZM38.3574 31.7469C34.1238 34.2012 28.5563 35.4369 22.9724 35.4369V36.0369C28.634 36.0369 34.3119 34.7857 38.6583 32.266L38.3574 31.7469ZM22.9724 35.4369C17.3886 35.4369 11.821 34.2012 7.5875 31.7469L7.28658 32.266C11.633 34.7857 17.3108 36.0369 22.9724 36.0369V35.4369ZM7.5875 31.7469C3.35244 29.2918 1.30207 26.1156 1.30207 23.0004H0.702066C0.702066 26.4043 2.94167 29.7472 7.28658 32.266L7.5875 31.7469ZM44.6428 23.0004C44.6428 26.1156 42.5924 29.2918 38.3574 31.7469L38.6583 32.266C43.0032 29.7472 45.2428 26.4043 45.2428 23.0004H44.6428ZM7.78242 31.979C7.78242 27.0845 9.49551 21.6409 12.2793 16.7994C15.0632 11.9579 18.9016 7.74672 23.1227 5.29975L22.8218 4.78067C18.488 7.29299 14.5815 11.5919 11.7592 16.5003C8.93684 21.4088 7.18242 26.9549 7.18242 31.979H7.78242ZM12.1993 41.8055C9.50457 40.2607 7.78242 36.8936 7.78242 31.979H7.18242C7.18242 37.0192 8.95321 40.6363 11.9009 42.326L12.1993 41.8055ZM23.1227 5.29975C27.3287 2.86145 31.0681 2.65993 33.743 4.19206L34.0412 3.67142C31.1152 1.99545 27.1369 2.27915 22.8218 4.78067L23.1227 5.29975ZM22.8214 5.29975C27.0424 7.74672 30.8808 11.9579 33.6647 16.7994C36.4485 21.6409 38.1616 27.0845 38.1616 31.979H38.7616C38.7616 26.9549 37.0072 21.4088 34.1848 16.5003C31.3625 11.5919 27.456 7.29299 23.1223 4.78067L22.8214 5.29975ZM12.2018 4.19164C14.8766 2.65997 18.6157 2.86168 22.8214 5.29975L23.1223 4.78067C18.8076 2.27938 14.8296 1.99551 11.9037 3.67096L12.2018 4.19164ZM38.1616 31.979C38.1616 36.8952 36.4384 40.2628 33.7422 41.8069L34.0404 42.3276C36.9897 40.6385 38.7616 37.0208 38.7616 31.979H38.1616ZM22.6727 1V45H23.2727V1H22.6727Z" fill="#0F2B46"/>
</svg>
