<svg width="37" height="37" viewBox="0 0 37 37" fill="none" xmlns="http://www.w3.org/2000/svg">
<path d="M20.3633 6.43137C26.2069 4.8658 29.6832 8.35667 28.1272 14.2306C26.5711 20.1045 20.5725 26.134 14.7289 27.6996C8.88542 29.2652 5.41043 25.7729 6.96601 19.9004C8.52159 14.0278 14.5207 7.99693 20.3633 6.43137Z" fill="#FFA600"/>
<path d="M21.2865 7.35455C27.13 5.78899 30.6063 9.27987 29.0503 15.1538C27.4943 21.0277 21.4942 27.0559 15.6521 28.6228C9.80992 30.1897 6.33356 26.6961 7.88914 20.8236C9.44472 14.951 15.4439 8.92012 21.2865 7.35455Z" fill="#FFCA00" stroke="#1D296F" stroke-width="0.481173" stroke-miterlimit="10"/>
<path d="M18.7456 12.7735C21.1141 12.1388 22.5282 13.5374 21.9021 15.8982C21.6621 16.8042 21.1586 17.7178 20.4935 18.5371L19.035 17.4416L17.5479 18.9286L19.0083 19.997C18.2193 20.6162 17.3461 21.0876 16.4809 21.3194C14.1124 21.9541 12.6961 20.5568 13.3212 18.1978C13.9464 15.8388 16.3762 13.4081 18.7456 12.7735Z" fill="#FFCA00"/>
<path d="M23.0199 11.809C22.2365 10.9593 20.8891 10.6572 19.1852 11.1136C15.8939 11.9959 12.5219 15.3661 11.6545 18.6442C11.2217 20.2783 11.493 21.5794 12.281 22.3655L12.2733 22.3578L12.9552 23.0442C13.75 23.839 15.0678 24.1126 16.7237 23.6689C18.1023 23.2992 19.4982 22.4912 20.7154 21.4356L21.7665 22.2081L24.2698 21.5467L23.7059 20.8921L22.2514 19.8568C23.1978 18.7036 23.9168 17.413 24.2548 16.1369C24.6862 14.5087 24.4186 13.2103 23.6365 12.4237L22.9523 11.7396C22.9768 11.7605 22.9982 11.7854 23.0199 11.809ZM21.9021 15.8983C21.6621 16.8042 21.16 17.7174 20.4935 18.5372L19.0355 17.442L17.5294 18.9536L18.2316 19.6123L18.8835 20.0891C18.1286 20.6625 17.3012 21.0971 16.4819 21.3167C15.5287 21.5721 14.7299 21.4982 14.1542 21.1665C13.8293 20.6004 13.7559 19.8174 14.0031 18.8824C14.6287 16.522 17.0571 14.0945 19.4261 13.4594C20.3792 13.204 21.1772 13.2788 21.7506 13.6118C22.0768 14.1794 22.1503 14.9624 21.9021 15.8983ZM21.4507 13.2176C21.4326 13.1995 21.414 13.1809 21.3959 13.1627C21.4135 13.1831 21.4335 13.2004 21.4507 13.2176ZM20.954 12.8633C20.9299 12.8511 20.9041 12.8406 20.8791 12.8293C20.905 12.8415 20.9309 12.852 20.9549 12.8642L20.954 12.8633ZM21.3382 13.1142C21.3201 13.096 21.2979 13.082 21.2774 13.0661C21.2997 13.0838 21.3205 13.0992 21.3401 13.116L21.3382 13.1142ZM21.2185 13.0207C21.1971 13.0057 21.1745 12.9921 21.1527 12.9776C21.1763 12.994 21.1999 13.0067 21.2203 13.0225L21.2185 13.0207ZM21.0901 12.9368C21.0674 12.9232 21.0434 12.9109 21.0198 12.8982C21.0452 12.9127 21.0692 12.925 21.0933 12.94L21.0901 12.9368ZM20.8106 12.7989C20.7843 12.7889 20.7567 12.7794 20.7299 12.7698C20.7567 12.7794 20.7843 12.7889 20.8106 12.7989ZM20.6559 12.7422C20.6287 12.7331 20.5997 12.7258 20.5716 12.7177C20.6015 12.7277 20.6305 12.7349 20.6559 12.7422ZM20.4958 12.6964C20.4672 12.6896 20.4368 12.6846 20.4073 12.6778C20.4391 12.6868 20.469 12.6914 20.4976 12.6982L20.4958 12.6964ZM20.3284 12.6614C20.298 12.6564 20.2667 12.6533 20.2359 12.6487C20.2685 12.6551 20.2998 12.6582 20.3302 12.6632L20.3284 12.6614ZM20.1533 12.6369C20.1215 12.6333 20.0884 12.6319 20.0558 12.6301C20.0902 12.6338 20.1256 12.6374 20.1551 12.6387L20.1533 12.6369ZM19.9714 12.6229C19.9374 12.6215 19.9024 12.622 19.8679 12.621C19.9042 12.6238 19.9392 12.6233 19.9732 12.6247L19.9714 12.6229ZM19.7827 12.6201C19.7473 12.6201 19.7105 12.6224 19.6738 12.6238C19.7123 12.6242 19.7491 12.622 19.7845 12.622L19.7827 12.6201ZM18.9634 12.719C18.8894 12.7358 18.8164 12.7535 18.7438 12.7717C18.8191 12.7544 18.8926 12.7363 18.9652 12.7209L18.9634 12.719ZM19.5889 12.6297C19.5522 12.6319 19.5145 12.636 19.4773 12.6396C19.5145 12.636 19.5536 12.6306 19.5889 12.6297ZM19.3893 12.6478C19.3499 12.6528 19.3099 12.6592 19.2696 12.6651C19.309 12.6582 19.3476 12.6533 19.3893 12.6478ZM19.1793 12.6764C19.133 12.6846 19.0849 12.6945 19.0378 12.7045C19.0845 12.6968 19.1326 12.6868 19.1779 12.6778L19.1793 12.6764ZM13.2704 18.4147C13.2655 18.436 13.2623 18.4573 13.2582 18.4786C13.2614 18.4582 13.2645 18.4369 13.2704 18.4147ZM13.2287 18.627C13.2242 18.6542 13.221 18.681 13.2183 18.7073C13.221 18.681 13.2242 18.6542 13.2287 18.627ZM13.1992 18.8325C13.196 18.862 13.1942 18.8901 13.1933 18.9173C13.1942 18.8901 13.196 18.862 13.1992 18.8325ZM13.1811 19.0321C13.1788 19.0616 13.1788 19.0897 13.1774 19.1192C13.1793 19.0902 13.1793 19.062 13.1838 19.0348L13.1811 19.0321ZM13.1743 19.2258C13.1743 19.2548 13.1756 19.2825 13.1779 19.3129C13.1756 19.2825 13.1743 19.2548 13.1743 19.2258ZM13.4197 20.384C13.4306 20.4058 13.4437 20.4271 13.4555 20.4489C13.4437 20.4271 13.4306 20.4058 13.4197 20.384ZM13.1788 19.4118C13.1802 19.4404 13.1833 19.4671 13.1856 19.4957C13.1829 19.4676 13.1797 19.4408 13.1788 19.4118ZM13.1938 19.5919C13.197 19.6196 13.201 19.6463 13.2042 19.6722C13.2006 19.6468 13.1965 19.62 13.1933 19.5924L13.1938 19.5919ZM13.2187 19.7647C13.2233 19.792 13.2301 19.8178 13.2355 19.8441C13.2296 19.8183 13.2228 19.7924 13.2183 19.7652L13.2187 19.7647ZM13.2541 19.9308C13.2605 19.9562 13.2682 19.9811 13.2754 20.0065C13.2677 19.9816 13.26 19.9566 13.2537 19.9312L13.2541 19.9308ZM13.2999 20.0891C13.3072 20.1136 13.3167 20.1367 13.3253 20.1608C13.3163 20.1372 13.3067 20.1141 13.2995 20.0896L13.2999 20.0891ZM13.3548 20.2402C13.3644 20.2633 13.3757 20.2855 13.3861 20.3087C13.3752 20.286 13.3639 20.2638 13.3544 20.2406L13.3548 20.2402ZM13.7209 20.8177C13.7041 20.8009 13.6869 20.7837 13.6697 20.7664C13.6874 20.7832 13.7041 20.8009 13.7205 20.8181L13.7209 20.8177ZM13.6238 20.7034C13.6066 20.6861 13.593 20.6653 13.5789 20.6457C13.5925 20.6657 13.608 20.6848 13.6234 20.7038L13.6238 20.7034ZM13.5349 20.58C13.5218 20.5595 13.5073 20.5396 13.4946 20.5187C13.5068 20.54 13.5213 20.56 13.5327 20.5822L13.5349 20.58ZM14.4767 23.1921C14.5171 23.1926 14.5566 23.1948 14.5978 23.1944C14.557 23.1962 14.5166 23.193 14.4763 23.1926L14.4767 23.1921ZM12.3609 22.4372C12.3849 22.4613 12.409 22.4853 12.4362 22.5062C12.409 22.4853 12.3863 22.4635 12.3595 22.4386L12.3609 22.4372ZM12.5224 22.5733C12.5496 22.5942 12.5754 22.6155 12.6031 22.6359C12.5736 22.6173 12.55 22.5937 12.521 22.5747L12.5224 22.5733ZM12.6957 22.6967C12.7242 22.7153 12.7501 22.733 12.7814 22.7525C12.7497 22.7353 12.7229 22.7167 12.6952 22.699L12.6957 22.6967ZM12.8803 22.807C12.9112 22.8233 12.9388 22.8392 12.9715 22.8564C12.9393 22.8423 12.9098 22.8246 12.8789 22.8083L12.8803 22.807ZM13.0758 22.9036C13.1085 22.9181 13.1384 22.9317 13.1725 22.9467C13.1384 22.9344 13.1085 22.9208 13.0745 22.9049L13.0758 22.9036ZM13.2827 22.9871C13.3167 22.9993 13.3489 23.0116 13.3848 23.0238C13.3485 23.0138 13.3176 22.9984 13.2813 22.9884L13.2827 22.9871ZM13.5009 23.0565C13.5363 23.0664 13.5708 23.0773 13.6075 23.086C13.5699 23.0791 13.5349 23.0678 13.4995 23.0578L13.5009 23.0565ZM13.73 23.1123C13.7667 23.12 13.8035 23.1295 13.8421 23.1336C13.8012 23.13 13.7654 23.1213 13.7305 23.1154L13.73 23.1123ZM13.9695 23.1531C14.0076 23.1585 14.0466 23.1667 14.0834 23.169C14.043 23.1658 14.0063 23.1599 13.9682 23.1545L13.9695 23.1531ZM14.2199 23.1803C14.2585 23.1826 14.2966 23.1871 14.3361 23.1885C14.2939 23.1871 14.2571 23.1839 14.2186 23.1817L14.2199 23.1803ZM15.7356 23.0574C15.7007 23.0651 15.6671 23.0705 15.6331 23.0773C15.6671 23.0705 15.7007 23.0651 15.7356 23.0574ZM15.438 23.1154C15.3981 23.1227 15.3591 23.1272 15.3201 23.1327C15.3595 23.1268 15.3981 23.1227 15.438 23.1154ZM15.149 23.1576C15.1077 23.1626 15.0665 23.1658 15.0265 23.1694C15.0674 23.1649 15.1077 23.1626 15.149 23.1576ZM14.8687 23.1839C14.8265 23.1871 14.7857 23.1871 14.7439 23.1889C14.7857 23.1871 14.8265 23.1871 14.8687 23.1839ZM23.6455 15.1484C23.624 15.2479 23.5997 15.3487 23.5725 15.4509C23.5991 15.3487 23.6234 15.2479 23.6455 15.1484ZM23.7721 14.1707C23.7744 14.1213 23.7794 14.0727 23.7775 14.0219C23.7775 14.0709 23.7744 14.1213 23.7721 14.1707ZM23.6655 15.044C23.6782 14.9805 23.6913 14.9165 23.7022 14.8539C23.6913 14.9165 23.6791 14.9814 23.6655 15.044ZM23.7177 14.7451C23.7263 14.6856 23.7358 14.6262 23.7431 14.5681C23.7358 14.6262 23.7263 14.6856 23.7177 14.7451ZM23.753 14.4538C23.7585 14.3994 23.7644 14.3445 23.7698 14.2891C23.7644 14.3445 23.7585 14.3994 23.753 14.4538ZM23.088 11.8834C23.1111 11.9111 23.1329 11.9401 23.1551 11.9687C23.1329 11.9401 23.1111 11.9111 23.088 11.8834ZM23.2168 12.0485C23.2381 12.078 23.2577 12.1093 23.2781 12.1397C23.2577 12.1093 23.2381 12.078 23.2168 12.0485ZM23.3339 12.2255C23.3525 12.2568 23.3702 12.2899 23.3874 12.3225C23.3702 12.2899 23.3529 12.2563 23.3339 12.2255ZM23.4359 12.4119C23.4532 12.4455 23.4677 12.4809 23.4831 12.5153C23.4691 12.4822 23.4536 12.4478 23.4359 12.4119ZM23.5276 12.6124C23.5416 12.6483 23.5543 12.6855 23.5679 12.7227C23.5548 12.685 23.5421 12.6478 23.5276 12.6124ZM23.6042 12.8225C23.6165 12.8601 23.6269 12.8996 23.6378 12.9386C23.6274 12.8991 23.6169 12.8597 23.6047 12.822L23.6042 12.8225ZM23.6673 13.0425C23.6773 13.0824 23.6854 13.1242 23.6936 13.165C23.6859 13.1237 23.6777 13.082 23.6678 13.042L23.6673 13.0425ZM23.7163 13.273C23.7236 13.3156 23.729 13.3591 23.7353 13.4027C23.7295 13.3587 23.7245 13.3147 23.7172 13.272L23.7163 13.273ZM23.7494 13.512C23.7544 13.556 23.7576 13.6019 23.7608 13.6468C23.7598 13.6023 23.7567 13.5565 23.7517 13.5125L23.7494 13.512ZM23.7707 13.7629C23.7735 13.8092 23.7735 13.8564 23.7739 13.904C23.7739 13.8568 23.7748 13.8087 23.7712 13.7634L23.7707 13.7629Z" fill="#FFA600" stroke="#1D296F" stroke-width="0.481173" stroke-miterlimit="10"/>
<path d="M21.482 19.277L23.5879 20.8594L21.0846 21.5208L20.0335 20.7473C18.8164 21.8039 17.4205 22.6119 16.0423 22.9811C12.751 23.8635 10.7867 21.92 11.655 18.6428C12.5233 15.3656 15.8944 11.9945 19.1856 11.1122C22.4769 10.2298 24.4417 12.171 23.5729 15.4505C23.2241 16.7665 22.4697 18.0962 21.482 19.277ZM20.4999 18.4999C21.1654 17.6811 21.6635 16.8028 21.9035 15.8969C22.5295 13.536 21.1155 12.1374 18.747 12.7721C16.3784 13.4068 13.9482 15.8352 13.3226 18.1964C12.697 20.5577 14.1138 21.9527 16.4823 21.318C17.3483 21.0871 18.2207 20.6149 19.0096 19.9956L17.5493 18.9273L19.0364 17.4402L20.4999 18.4999Z" fill="#FFDE63" stroke="#1D296F" stroke-width="0.481173" stroke-miterlimit="45"/>
<path d="M28.3835 6.29028L30.4299 8.34851C32.0168 9.94446 32.5598 12.5797 31.6847 15.8837C29.9231 22.5338 23.0811 29.3767 16.4024 31.166C13.0404 32.0683 10.3638 31.5157 8.75654 29.8994L6.71011 27.8411C8.3174 29.4575 10.9958 30.0082 14.356 29.1077C21.0347 27.3185 27.8763 20.4761 29.6383 13.8255C30.5115 10.5233 29.9703 7.88623 28.3835 6.29028Z" fill="#FFA600" stroke="#1D296F" stroke-width="0.481173" stroke-miterlimit="10"/>
<path d="M20.7351 5.02434C27.4138 3.23513 31.3992 7.17603 29.6372 13.8266C27.8752 20.4772 21.0337 27.3197 14.3549 29.1089C7.67625 30.8981 3.69225 26.9567 5.45289 20.3075C7.21352 13.6583 14.0574 6.81356 20.7351 5.02434ZM14.7279 27.7007C20.5714 26.1352 26.5705 20.1043 28.1261 14.2317C29.6817 8.35916 26.2035 4.86919 20.3622 6.43249C14.521 7.99578 8.52004 14.0294 6.96446 19.901C5.40888 25.7727 8.88478 29.2658 14.7274 27.7003" fill="#FFDE63"/>
<path d="M14.7279 27.7007C20.5714 26.1352 26.5705 20.1043 28.1261 14.2317C29.6817 8.35916 26.2035 4.86919 20.3622 6.43249C14.521 7.99578 8.52004 14.0294 6.96446 19.901C5.40888 25.7727 8.88478 29.2658 14.7274 27.7003M20.7351 5.02434C27.4138 3.23513 31.3992 7.17603 29.6372 13.8266C27.8752 20.4772 21.0336 27.3196 14.3549 29.1089C7.67625 30.8981 3.69225 26.9567 5.45289 20.3075C7.21352 13.6583 14.0573 6.81356 20.7351 5.02434Z" stroke="#0D2875" stroke-width="0.481173" stroke-miterlimit="10"/>
</svg>