<svg width="72" height="98" viewBox="0 0 72 98" fill="none" xmlns="http://www.w3.org/2000/svg">
<g clip-path="url(#clip0_1_2)">
<path d="M67.8512 54.255C68.1874 54.4537 68.1895 54.7807 67.8512 54.9794L29.3127 77.9915C29.1237 78.0895 28.9149 78.1406 28.7032 78.1406C28.4914 78.1406 28.2826 78.0895 28.0936 77.9915L4.0873 63.7526C3.75109 63.5527 3.75003 63.2269 4.0873 63.027L42.6269 40.015C42.8157 39.917 43.0243 39.8659 43.2358 39.8659C43.4474 39.8659 43.656 39.917 43.8448 40.015L67.8512 54.255Z" stroke="#0D2875" stroke-width="0.422908" stroke-miterlimit="10"/>
<g filter="url(#filter0_f_1_2)">
<path d="M67.8512 68.389C68.1874 68.5878 68.1895 68.9148 67.8512 69.1135L29.3127 92.1256C29.1237 92.2236 28.9149 92.2747 28.7032 92.2747C28.4914 92.2747 28.2826 92.2236 28.0936 92.1256L4.0873 77.8867C3.75109 77.6868 3.75003 77.361 4.0873 77.1611L42.6269 54.1491C42.8157 54.051 43.0243 54 43.2358 54C43.4474 54 43.656 54.051 43.8448 54.1491L67.8512 68.389Z" fill="#242424" fill-opacity="0.12"/>
</g>
<path d="M68.105 53.6423V54.4124C68.0985 54.4897 68.0719 54.5639 68.028 54.6271C67.9841 54.6903 67.9246 54.7403 67.8555 54.7719V54.0018C67.9246 53.9702 67.9841 53.9202 68.028 53.857C68.0719 53.7938 68.0985 53.7196 68.105 53.6423Z" fill="#3B765E"/>
<path d="M4.08778 62.7743V63.5433C3.97365 63.4852 3.88631 63.3834 3.8446 63.2598V62.4897C3.88618 62.6137 3.97351 62.7159 4.08778 62.7743Z" fill="#44886C"/>
<path d="M3.84419 62.4899V63.26C3.83738 63.2334 3.83418 63.206 3.83467 63.1785V62.4095C3.83471 62.4366 3.8379 62.4636 3.84419 62.4899Z" fill="#428468"/>
<path d="M67.8554 54.0017L67.8533 54.7718L29.3105 77.7827L29.3127 77.0137L67.8554 54.0017Z" fill="#39725B"/>
<path d="M28.0937 77.014L28.0916 77.7841L4.08524 63.5442L4.08735 62.7751L28.0937 77.014Z" fill="#489173"/>
<path d="M28.7744 77.162C28.7079 77.1669 28.6411 77.1669 28.5746 77.162C28.5145 77.1568 28.4549 77.1478 28.3959 77.1348C28.3332 77.1209 28.2716 77.1017 28.212 77.0773C28.1713 77.0604 28.1317 77.0408 28.0935 77.0186V77.7887C28.1312 77.8089 28.17 77.8267 28.2098 77.842C28.2697 77.8659 28.3312 77.8851 28.3938 77.8995C28.4528 77.9119 28.5125 77.921 28.5725 77.9267C28.639 77.931 28.7058 77.931 28.7723 77.9267C28.9605 77.9218 29.1449 77.8711 29.3105 77.779V77.0099C29.1458 77.1029 28.9622 77.1549 28.7744 77.162Z" fill="#44886C"/>
<path d="M67.8512 53.2775C68.1874 53.4763 68.1895 53.8033 67.8512 54.002L29.3127 77.0141C29.1237 77.1121 28.9149 77.1632 28.7032 77.1632C28.4914 77.1632 28.2826 77.1121 28.0936 77.0141L4.0873 62.7752C3.75109 62.5753 3.75003 62.2495 4.0873 62.0496L42.6269 39.0376C42.8157 38.9395 43.0243 38.8885 43.2358 38.8885C43.4474 38.8885 43.656 38.9395 43.8448 39.0376L67.8512 53.2775Z" fill="#2DDD98" stroke="#0D2875" stroke-width="0.422908" stroke-miterlimit="10"/>
<path d="M24.1156 60.3948V60.7207C24.1111 60.7718 24.0935 60.8208 24.0645 60.8626C24.0355 60.9044 23.9962 60.9375 23.9507 60.9585V60.6327C23.9964 60.6114 24.0358 60.5781 24.065 60.5362C24.0941 60.4942 24.112 60.445 24.1166 60.3937" fill="#856900"/>
<path d="M11.3889 61.6435V61.9693C11.3425 61.9482 11.3024 61.9147 11.2729 61.8723C11.2433 61.8299 11.2253 61.7802 11.2208 61.7282V61.4024C11.2253 61.4543 11.2431 61.5041 11.2725 61.5467C11.3018 61.5892 11.3416 61.623 11.3879 61.6446" fill="#856900"/>
<path d="M23.9491 60.6341V60.9632L17.2439 64.9669L17.245 64.6367L23.9491 60.6341Z" fill="#866A00"/>
<path d="M16.4372 64.6367L16.4362 64.9669L11.3888 61.9723L11.3898 61.6432L16.4372 64.6367Z" fill="#8C6F00"/>
<path d="M23.948 60.1528C24.171 60.2854 24.1721 60.5015 23.948 60.634L17.2438 64.6366C17.1187 64.702 16.9803 64.736 16.8399 64.736C16.6996 64.736 16.5612 64.702 16.4361 64.6366L11.3897 61.6431C11.1677 61.5106 11.1666 61.2944 11.3897 61.163L18.0949 57.1593C18.22 57.0945 18.3582 57.0607 18.4983 57.0607C18.6384 57.0607 18.7765 57.0945 18.9016 57.1593L23.948 60.1528Z" fill="#FEC900"/>
<path d="M17.2453 64.6368V64.9627C17.1201 65.0275 16.9817 65.0613 16.8415 65.0613C16.7012 65.0613 16.5629 65.0275 16.4376 64.9627V64.6368C16.5627 64.7022 16.7011 64.7362 16.8415 64.7362C16.9818 64.7362 17.1202 64.7022 17.2453 64.6368Z" fill="#856900"/>
<path d="M54.356 49.9406V50.2665C54.3175 50.2487 54.2843 50.2207 54.2597 50.1854C54.2352 50.1501 54.2203 50.1087 54.2165 50.0655V49.7396C54.2203 49.7829 54.2352 49.8242 54.2597 49.8596C54.2843 49.8949 54.3175 49.9228 54.356 49.9406Z" fill="#6F7272"/>
<path d="M57.4962 50.1229V50.4488C57.4922 50.4914 57.4774 50.5322 57.4533 50.567C57.4292 50.6019 57.3966 50.6297 57.3587 50.6476V50.3217C57.3968 50.3041 57.4296 50.2764 57.4537 50.2415C57.4779 50.2065 57.4925 50.1656 57.4962 50.1229Z" fill="#6F7272"/>
<path d="M57.3635 50.322L57.3624 50.6522L56.5176 51.1562L56.5187 50.826L57.3635 50.322Z" fill="#717373"/>
<path d="M55.8479 50.8256L55.8468 51.1558L54.355 50.2706L54.3561 49.9404L55.8479 50.8256Z" fill="#757878"/>
<path d="M57.361 49.9267C57.546 50.0353 57.546 50.2156 57.361 50.3253L56.5152 50.8293C56.4114 50.8835 56.2965 50.9117 56.1801 50.9117C56.0636 50.9117 55.9487 50.8835 55.8449 50.8293L54.3531 49.9441C54.1681 49.8354 54.167 49.6551 54.3531 49.5454L55.1989 49.0414C55.3029 48.9871 55.4179 48.9587 55.5346 48.9587C55.6513 48.9587 55.7663 48.9871 55.8703 49.0414L57.361 49.9267Z" fill="#D5DADA"/>
<path d="M56.5188 50.826V51.1518C56.4149 51.206 56.3001 51.2343 56.1836 51.2343C56.0672 51.2343 55.9523 51.206 55.8485 51.1518V50.826C55.9523 50.8802 56.0672 50.9084 56.1836 50.9084C56.3001 50.9084 56.4149 50.8802 56.5188 50.826Z" fill="#6F7272"/>
<path d="M52.4375 51.0864V51.4123C52.3989 51.3949 52.3656 51.3671 52.341 51.332C52.3165 51.2968 52.3016 51.2555 52.2979 51.2124V50.8865C52.3017 50.9297 52.3167 50.9711 52.3412 51.0064C52.3657 51.0418 52.3989 51.0697 52.4375 51.0875" fill="#6F7272"/>
<path d="M55.5817 51.2685V51.5943C55.5781 51.6367 55.5635 51.6774 55.5396 51.7121C55.5156 51.7469 55.4831 51.7744 55.4453 51.792V51.4661C55.4831 51.4486 55.5156 51.421 55.5396 51.3863C55.5635 51.3515 55.5781 51.3109 55.5817 51.2685Z" fill="#6F7272"/>
<path d="M55.4453 51.4665L55.4442 51.7967L54.5995 52.3007L54.6005 51.9705L55.4453 51.4665Z" fill="#717373"/>
<path d="M53.9294 51.9719V52.301L52.4365 51.4157L52.4376 51.0866L53.9294 51.9719Z" fill="#757878"/>
<path d="M55.4422 51.0681C55.6272 51.1767 55.6283 51.357 55.4422 51.4667L54.5964 51.9707C54.4924 52.0251 54.3774 52.0534 54.2607 52.0534C54.144 52.0534 54.029 52.0251 53.925 51.9707L52.4332 51.0854C52.2482 50.9768 52.2482 50.7954 52.4332 50.6857L53.279 50.1817C53.3829 50.1275 53.4977 50.0993 53.6142 50.0993C53.7306 50.0993 53.8455 50.1275 53.9493 50.1817L55.4422 51.0681Z" fill="#D5DADA"/>
<path d="M54.6007 51.971V52.2968C54.4968 52.351 54.382 52.3792 54.2655 52.3792C54.1491 52.3792 54.0342 52.351 53.9304 52.2968V51.971C54.0344 52.0253 54.1494 52.0537 54.2661 52.0537C54.3827 52.0537 54.4978 52.0253 54.6017 51.971" fill="#6F7272"/>
<path d="M50.518 52.2312V52.5571C50.4795 52.5393 50.4463 52.5113 50.4217 52.476C50.3972 52.4407 50.3823 52.3993 50.3785 52.3561V52.0303C50.3823 52.0735 50.3972 52.1149 50.4217 52.1502C50.4463 52.1855 50.4795 52.2135 50.518 52.2312Z" fill="#6F7272"/>
<path d="M53.6633 52.4144V52.7403C53.6597 52.7827 53.6452 52.8234 53.6212 52.8581C53.5972 52.8928 53.5647 52.9204 53.5269 52.938V52.6121C53.5649 52.5944 53.5976 52.5667 53.6218 52.5318C53.6459 52.4969 53.6606 52.456 53.6644 52.4133" fill="#6F7272"/>
<path d="M53.5259 52.6126V52.9417L52.6801 53.4468L52.6812 53.1166L53.5259 52.6126Z" fill="#717373"/>
<path d="M52.0109 53.1169L52.0098 53.4471L50.518 52.5618L50.5191 52.2316L52.0109 53.1169Z" fill="#757878"/>
<path d="M53.5245 52.2132C53.7095 52.3219 53.7106 52.5033 53.5245 52.613L52.6787 53.117C52.5749 53.1711 52.46 53.1994 52.3436 53.1994C52.2271 53.1994 52.1123 53.1711 52.0084 53.117L50.5187 52.2317C50.3337 52.1231 50.3326 51.9428 50.5187 51.8331L51.3645 51.328C51.4684 51.2738 51.5832 51.2456 51.6997 51.2456C51.8162 51.2456 51.931 51.2738 52.0348 51.328L53.5245 52.2132Z" fill="#D5DADA"/>
<path d="M52.6811 53.1164V53.4422C52.5772 53.4964 52.4624 53.5247 52.3459 53.5247C52.2294 53.5247 52.1146 53.4964 52.0107 53.4422V53.1164C52.1146 53.1706 52.2294 53.1988 52.3459 53.1988C52.4624 53.1988 52.5772 53.1706 52.6811 53.1164Z" fill="#6F7272"/>
<path d="M48.602 53.3758V53.7017C48.5635 53.6839 48.5302 53.656 48.5057 53.6206C48.4812 53.5853 48.4662 53.5439 48.4624 53.5007V53.1749C48.466 53.2182 48.4809 53.2596 48.5054 53.295C48.53 53.3303 48.5633 53.3583 48.602 53.3758Z" fill="#6F7272"/>
<path d="M51.7459 53.5594V53.8853C51.7423 53.9279 51.7276 53.9687 51.7035 54.0034C51.6793 54.0382 51.6465 54.0657 51.6085 54.083V53.7571C51.6465 53.7398 51.6793 53.7123 51.7035 53.6776C51.7276 53.6428 51.7423 53.602 51.7459 53.5594Z" fill="#6F7272"/>
<path d="M51.6087 53.7574L51.6077 54.0865L50.7629 54.5916L50.764 54.2614L51.6087 53.7574Z" fill="#717373"/>
<path d="M50.093 54.2611L50.092 54.5913L48.6002 53.706L48.6012 53.3758L50.093 54.2611Z" fill="#757878"/>
<path d="M51.6065 53.359C51.7915 53.4676 51.7926 53.6479 51.6065 53.7576L50.7607 54.2616C50.6569 54.3158 50.542 54.344 50.4256 54.344C50.3091 54.344 50.1943 54.3158 50.0904 54.2616L48.5986 53.3763C48.4136 53.2677 48.4125 53.0874 48.5986 52.9777L49.4444 52.4737C49.5483 52.4195 49.6631 52.3913 49.7796 52.3913C49.896 52.3913 50.0109 52.4195 50.1147 52.4737L51.6065 53.359Z" fill="#D5DADA"/>
<path d="M50.7641 54.2616V54.5875C50.6602 54.6417 50.5454 54.6699 50.4289 54.6699C50.3124 54.6699 50.1976 54.6417 50.0938 54.5875V54.2616C50.1976 54.3158 50.3124 54.3441 50.4289 54.3441C50.5454 54.3441 50.6602 54.3158 50.7641 54.2616Z" fill="#6F7272"/>
<path d="M45.8013 55.0477V55.3736C45.7628 55.3559 45.7296 55.328 45.7052 55.2926C45.6808 55.2573 45.6662 55.2158 45.6628 55.1726V54.8468C45.6666 54.89 45.6816 54.9314 45.7061 54.9667C45.7306 55.002 45.7638 55.03 45.8024 55.0477" fill="#6F7272"/>
<path d="M48.9466 55.2316V55.5575C48.9426 55.6001 48.9278 55.6409 48.9037 55.6757C48.8796 55.7106 48.847 55.7384 48.8091 55.7563V55.4304C48.847 55.4129 48.8797 55.3854 48.9038 55.3506C48.928 55.3159 48.9427 55.2752 48.9466 55.2327" fill="#6F7272"/>
<path d="M48.8092 55.4289L48.8082 55.7591L47.9634 56.2631L47.9645 55.9328L48.8092 55.4289Z" fill="#717373"/>
<path d="M47.2938 55.9329L47.2927 56.2631L45.7998 55.3779L45.8009 55.0477L47.2938 55.9329Z" fill="#757878"/>
<path d="M48.8069 55.0312C48.9919 55.1398 48.993 55.3201 48.8069 55.4298L47.9611 55.9338C47.8572 55.988 47.7424 56.0162 47.6259 56.0162C47.5094 56.0162 47.3946 55.988 47.2908 55.9338L45.7979 55.0485C45.6129 54.9399 45.6118 54.7596 45.7979 54.6499L46.6437 54.1459C46.7476 54.0917 46.8624 54.0635 46.9789 54.0635C47.0953 54.0635 47.2102 54.0917 47.314 54.1459L48.8069 55.0312Z" fill="#D5DADA"/>
<path d="M47.9646 55.9324V56.2583C47.8607 56.3125 47.7459 56.3407 47.6294 56.3407C47.5129 56.3407 47.3981 56.3125 47.2943 56.2583V55.9324C47.3981 55.9866 47.5129 56.0149 47.6294 56.0149C47.7459 56.0149 47.8607 55.9866 47.9646 55.9324Z" fill="#6F7272"/>
<path d="M43.8828 56.1932V56.5191C43.8443 56.5013 43.811 56.4733 43.7865 56.438C43.762 56.4027 43.747 56.3613 43.7432 56.3181V55.9922C43.747 56.0355 43.762 56.0768 43.7865 56.1122C43.811 56.1475 43.8443 56.1754 43.8828 56.1932Z" fill="#6F7272"/>
<path d="M47.0289 56.3765V56.7023C47.0255 56.745 47.011 56.7858 46.987 56.8208C46.963 56.8557 46.9304 56.8835 46.8925 56.9011V56.5753C46.9303 56.5577 46.9628 56.5301 46.9868 56.4954C47.0107 56.4607 47.0253 56.42 47.0289 56.3776" fill="#6F7272"/>
<path d="M46.8906 56.5741L46.8896 56.9043L46.0448 57.4083L46.0459 57.0792L46.8906 56.5741Z" fill="#717373"/>
<path d="M45.3753 57.0793L45.3742 57.4084L43.8813 56.5231L43.8824 56.194L45.3753 57.0793Z" fill="#757878"/>
<path d="M46.8886 56.1756C47.0736 56.2843 47.0736 56.4646 46.8886 56.5743L46.0427 57.0793C45.9389 57.1335 45.8241 57.1618 45.7076 57.1618C45.5911 57.1618 45.4763 57.1335 45.3724 57.0793L43.8796 56.1941C43.6946 56.0855 43.6935 55.9041 43.8796 55.7944L44.7254 55.2904C44.8292 55.2362 44.9441 55.208 45.0605 55.208C45.177 55.208 45.2919 55.2362 45.3957 55.2904L46.8886 56.1756Z" fill="#D5DADA"/>
<path d="M46.0459 57.0796V57.4055C45.942 57.4597 45.8272 57.4879 45.7107 57.4879C45.5943 57.4879 45.4794 57.4597 45.3756 57.4055V57.0796C45.4794 57.1338 45.5943 57.1621 45.7107 57.1621C45.8272 57.1621 45.942 57.1338 46.0459 57.0796Z" fill="#6F7272"/>
<path d="M41.9647 57.3382V57.6641C41.9261 57.6467 41.8928 57.619 41.8682 57.5838C41.8437 57.5486 41.8288 57.5073 41.8251 57.4642V57.1384C41.8289 57.1816 41.8439 57.223 41.8684 57.2583C41.8929 57.2936 41.9262 57.3216 41.9647 57.3393" fill="#6F7272"/>
<path d="M45.1098 57.5206V57.8465C45.1062 57.8891 45.0915 57.9299 45.0674 57.9646C45.0432 57.9994 45.0104 58.0269 44.9724 58.0442V57.7183C45.0104 57.7007 45.0432 57.673 45.0673 57.6381C45.0915 57.6032 45.1061 57.5622 45.1098 57.5195" fill="#6F7272"/>
<path d="M44.9722 57.7198L44.9711 58.049L44.1274 58.5529V58.2238L44.9722 57.7198Z" fill="#717373"/>
<path d="M43.4579 58.2237L43.4569 58.5528L41.964 57.6676L41.9651 57.3385L43.4579 58.2237Z" fill="#757878"/>
<path d="M44.97 57.3211C45.155 57.4298 45.1561 57.6101 44.97 57.7198L44.1242 58.2238C44.0205 58.2778 43.9058 58.3059 43.7896 58.3059C43.6733 58.3059 43.5586 58.2778 43.4549 58.2238L41.9621 57.3385C41.777 57.2299 41.776 57.0496 41.9621 56.9399L42.8079 56.4359C42.9117 56.3817 43.0266 56.3535 43.143 56.3535C43.2595 56.3535 43.3743 56.3817 43.4782 56.4359L44.97 57.3211Z" fill="#D5DADA"/>
<path d="M44.1274 58.2243V58.5501C44.0236 58.6043 43.9087 58.6326 43.7922 58.6326C43.6758 58.6326 43.5609 58.6043 43.4571 58.5501V58.2243C43.5608 58.2783 43.6754 58.3064 43.7917 58.3064C43.908 58.3064 44.0226 58.2783 44.1263 58.2243" fill="#6F7272"/>
<path d="M40.0513 58.4829V58.8087C40.0129 58.7909 39.9798 58.7629 39.9555 58.7276C39.9311 58.6922 39.9164 58.6509 39.9128 58.6078V58.2819C39.916 58.325 39.9306 58.3664 39.955 58.4016C39.9794 58.4368 40.0127 58.4645 40.0513 58.4818" fill="#6F7272"/>
<path d="M43.1911 58.6668V58.9926C43.1871 59.0352 43.1723 59.076 43.1482 59.1109C43.1241 59.1458 43.0915 59.1735 43.0536 59.1914V58.8656C43.0914 58.8479 43.1239 58.8203 43.1481 58.7856C43.1722 58.7509 43.187 58.7103 43.1911 58.6679" fill="#6F7272"/>
<path d="M43.0537 58.8645L43.0526 59.1948L42.2079 59.6987L42.2089 59.3685L43.0537 58.8645Z" fill="#717373"/>
<path d="M41.5389 59.3686L41.5378 59.6988L40.045 58.8136L40.046 58.4834L41.5389 59.3686Z" fill="#757878"/>
<path d="M43.052 58.4663C43.237 58.575 43.238 58.7553 43.052 58.865L42.2061 59.369C42.1023 59.4232 41.9875 59.4514 41.871 59.4514C41.7545 59.4514 41.6397 59.4232 41.5358 59.369L40.0514 58.4837C39.8664 58.3751 39.8664 58.1948 40.0514 58.0851L40.8972 57.5811C41.0011 57.5269 41.1159 57.4987 41.2324 57.4987C41.3489 57.4987 41.4637 57.5269 41.5675 57.5811L43.052 58.4663Z" fill="#D5DADA"/>
<path d="M42.2089 59.3688V59.6946C42.1051 59.7488 41.9902 59.7771 41.8738 59.7771C41.7573 59.7771 41.6425 59.7488 41.5386 59.6946V59.3688C41.6425 59.423 41.7573 59.4512 41.8738 59.4512C41.9902 59.4512 42.1051 59.423 42.2089 59.3688Z" fill="#6F7272"/>
<path d="M37.246 60.1551V60.481C37.2075 60.4632 37.1742 60.4353 37.1497 60.4C37.1252 60.3646 37.1103 60.3233 37.1064 60.2801V59.9542C37.1101 59.9973 37.125 60.0386 37.1496 60.0738C37.1741 60.109 37.2074 60.1367 37.246 60.1541" fill="#6F7272"/>
<path d="M40.3906 60.3377V60.6636C40.3864 60.7061 40.3716 60.7468 40.3475 60.7816C40.3234 60.8165 40.2909 60.8443 40.2531 60.8623V60.5365C40.2909 60.5189 40.3234 60.4913 40.3474 60.4566C40.3714 60.4219 40.3859 60.3812 40.3895 60.3388" fill="#6F7272"/>
<path d="M40.254 60.5365L40.2529 60.8667L39.4071 61.3707L39.4082 61.0416L40.254 60.5365Z" fill="#717373"/>
<path d="M38.738 61.0415V61.3706L37.2451 60.4853L37.2462 60.1551L38.738 61.0415Z" fill="#757878"/>
<path d="M40.2524 60.1364C40.4374 60.2451 40.4374 60.4254 40.2524 60.5351L39.4066 61.0391C39.3029 61.0931 39.1882 61.1212 39.0719 61.1212C38.9557 61.1212 38.841 61.0931 38.7373 61.0391L37.2444 60.1538C37.0594 60.0452 37.0584 59.8649 37.2444 59.7552L38.0903 59.2512C38.1941 59.197 38.3089 59.1688 38.4254 59.1688C38.5419 59.1688 38.6567 59.197 38.7606 59.2512L40.2524 60.1364Z" fill="#D5DADA"/>
<path d="M39.4079 61.0412V61.367C39.3041 61.4212 39.1892 61.4494 39.0728 61.4494C38.9563 61.4494 38.8415 61.4212 38.7376 61.367V61.0412C38.8413 61.0952 38.956 61.1233 39.0722 61.1233C39.1885 61.1233 39.3031 61.0952 39.4069 61.0412" fill="#6F7272"/>
<path d="M35.3285 61.3007V61.6266C35.2899 61.6092 35.2566 61.5815 35.2321 61.5463C35.2075 61.5111 35.1926 61.4698 35.189 61.4267V61.1009C35.1928 61.1441 35.2077 61.1855 35.2322 61.2208C35.2568 61.2561 35.29 61.2841 35.3285 61.3018" fill="#6F7272"/>
<path d="M38.4727 61.4835V61.8094C38.4691 61.8518 38.4546 61.8924 38.4306 61.9272C38.4066 61.9619 38.3741 61.9895 38.3364 62.0071V61.6812C38.3744 61.6639 38.4072 61.6364 38.4314 61.6016C38.4555 61.5669 38.4702 61.5261 38.4738 61.4835" fill="#6F7272"/>
<path d="M38.3353 61.6815V62.0117L37.4894 62.5157L37.4905 62.1866L38.3353 61.6815Z" fill="#717373"/>
<path d="M36.8201 62.1866V62.5157L35.3272 61.6305L35.3283 61.3014L36.8201 62.1866Z" fill="#757878"/>
<path d="M38.3333 61.2829C38.5183 61.3915 38.5194 61.5718 38.3333 61.6815L37.4875 62.1866C37.3836 62.2408 37.2688 62.269 37.1523 62.269C37.0358 62.269 36.921 62.2408 36.8172 62.1866L35.3254 61.3014C35.1403 61.1928 35.1393 61.0124 35.3254 60.9027L36.1712 60.3977C36.275 60.3435 36.3898 60.3152 36.5063 60.3152C36.6228 60.3152 36.7376 60.3435 36.8415 60.3977L38.3333 61.2829Z" fill="#D5DADA"/>
<path d="M37.4906 62.1863V62.5122C37.3869 62.5662 37.2722 62.5943 37.156 62.5943C37.0397 62.5943 36.9251 62.5662 36.8214 62.5122V62.1863C36.9252 62.2405 37.04 62.2688 37.1565 62.2688C37.273 62.2688 37.3878 62.2405 37.4917 62.1863" fill="#6F7272"/>
<path d="M33.4104 62.446V62.7719C33.3718 62.7541 33.3386 62.7261 33.3141 62.6908C33.2896 62.6555 33.2746 62.6141 33.2708 62.5709V62.245C33.2746 62.2883 33.2896 62.3296 33.3141 62.365C33.3386 62.4003 33.3718 62.4282 33.4104 62.446Z" fill="#6F7272"/>
<path d="M36.555 62.6284V62.9542C36.5514 62.9968 36.5367 63.0376 36.5125 63.0723C36.4884 63.1071 36.4556 63.1346 36.4175 63.1519V62.826C36.4555 62.8084 36.4882 62.7806 36.5124 62.7457C36.5365 62.7108 36.5512 62.6699 36.555 62.6273" fill="#6F7272"/>
<path d="M36.4179 62.8274V63.1565L35.5721 63.6616L35.5731 63.3313L36.4179 62.8274Z" fill="#717373"/>
<path d="M34.9024 63.3314L34.9014 63.6616L33.4095 62.7764L33.4106 62.4462L34.9024 63.3314Z" fill="#757878"/>
<path d="M36.4154 62.4276C36.6005 62.5362 36.6015 62.7176 36.4154 62.8273L35.5696 63.3313C35.4658 63.3855 35.3509 63.4137 35.2345 63.4137C35.118 63.4137 35.0032 63.3855 34.8993 63.3313L33.4075 62.4461C33.2225 62.3374 33.2214 62.1571 33.4075 62.0474L34.2533 61.5423C34.3572 61.4882 34.472 61.4599 34.5885 61.4599C34.7049 61.4599 34.8198 61.4882 34.9236 61.5423L36.4154 62.4276Z" fill="#D5DADA"/>
<path d="M35.5729 63.3301V63.656C35.4691 63.7101 35.3542 63.7384 35.2378 63.7384C35.1213 63.7384 35.0065 63.7101 34.9026 63.656V63.3301C35.0065 63.3843 35.1213 63.4125 35.2378 63.4125C35.3542 63.4125 35.4691 63.3843 35.5729 63.3301Z" fill="#6F7272"/>
<path d="M31.4882 63.5901V63.9159C31.4496 63.8982 31.4164 63.8702 31.3919 63.8349C31.3673 63.7996 31.3524 63.7582 31.3486 63.715V63.3891C31.3521 63.4324 31.3669 63.474 31.3915 63.5093C31.416 63.5447 31.4494 63.5726 31.4882 63.5901Z" fill="#6F7272"/>
<path d="M34.6374 63.7732V64.099C34.6335 64.1417 34.6188 64.1825 34.5946 64.2174C34.5705 64.2523 34.5378 64.28 34.4999 64.2978V63.972C34.5378 63.9541 34.5704 63.9263 34.5945 63.8914C34.6186 63.8566 34.6334 63.8158 34.6374 63.7732Z" fill="#6F7272"/>
<path d="M34.5006 63.9714L34.4996 64.3016L33.6548 64.8056L33.6559 64.4754L34.5006 63.9714Z" fill="#717373"/>
<path d="M32.9851 64.4757L32.984 64.8059L31.4922 63.9206L31.4932 63.5904L32.9851 64.4757Z" fill="#757878"/>
<path d="M34.4984 63.573C34.6834 63.6816 34.6834 63.8619 34.4984 63.9716L33.6526 64.4756C33.5488 64.5298 33.4339 64.5581 33.3174 64.5581C33.201 64.5581 33.0861 64.5298 32.9823 64.4756L31.4884 63.5904C31.3044 63.4818 31.3034 63.3015 31.4884 63.1917L32.3342 62.6878C32.438 62.6336 32.5529 62.6053 32.6693 62.6053C32.7858 62.6053 32.9007 62.6336 33.0045 62.6878L34.4984 63.573Z" fill="#D5DADA"/>
<path d="M33.6546 64.4818V64.8077C33.5508 64.8618 33.4359 64.8901 33.3195 64.8901C33.203 64.8901 33.0882 64.8618 32.9843 64.8077V64.4818C33.0882 64.536 33.203 64.5642 33.3195 64.5642C33.4359 64.5642 33.5508 64.536 33.6546 64.4818Z" fill="#6F7272"/>
<path d="M28.6927 65.2626V65.5884C28.6541 65.5708 28.6209 65.5428 28.5966 65.5075C28.5722 65.4721 28.5576 65.4307 28.5542 65.3875V65.0616C28.558 65.1048 28.5729 65.1462 28.5974 65.1815C28.622 65.2168 28.6552 65.2448 28.6937 65.2626" fill="#6F7272"/>
<path d="M31.8368 65.4458V65.7717C31.8332 65.8143 31.8185 65.8551 31.7943 65.8898C31.7702 65.9246 31.7374 65.9521 31.6993 65.9694V65.6435C31.7374 65.6262 31.7702 65.5987 31.7943 65.564C31.8185 65.5292 31.8332 65.4884 31.8368 65.4458Z" fill="#6F7272"/>
<path d="M31.6996 65.6435L31.6985 65.9737L30.8548 66.4777L30.8559 66.1475L31.6996 65.6435Z" fill="#717373"/>
<path d="M30.1851 66.1476L30.184 66.4778L28.6912 65.5925L28.6922 65.2623L30.1851 66.1476Z" fill="#757878"/>
<path d="M31.6989 65.2417C31.884 65.3503 31.885 65.5306 31.6989 65.6404L30.8531 66.1443C30.7493 66.1985 30.6344 66.2268 30.518 66.2268C30.4015 66.2268 30.2867 66.1985 30.1828 66.1443L28.6899 65.2591C28.5049 65.1505 28.5039 64.9702 28.6899 64.8605L29.5358 64.3565C29.6396 64.3023 29.7544 64.274 29.8709 64.274C29.9874 64.274 30.1022 64.3023 30.2061 64.3565L31.6989 65.2417Z" fill="#D5DADA"/>
<path d="M30.8533 66.1471V66.4729C30.7495 66.5271 30.6346 66.5554 30.5182 66.5554C30.4017 66.5554 30.2869 66.5271 30.183 66.4729V66.1471C30.2869 66.2013 30.4017 66.2295 30.5182 66.2295C30.6346 66.2295 30.7495 66.2013 30.8533 66.1471Z" fill="#6F7272"/>
<path d="M26.7735 66.4078V66.7337C26.735 66.7159 26.7018 66.688 26.6772 66.6526C26.6527 66.6173 26.6378 66.5759 26.634 66.5327V66.2069C26.6378 66.2499 26.6526 66.2912 26.6769 66.3265C26.7012 66.3618 26.7342 66.3898 26.7725 66.4078" fill="#6F7272"/>
<path d="M29.9185 66.5911V66.917C29.9149 66.9596 29.9003 67.0004 29.8761 67.0351C29.8519 67.0699 29.8191 67.0974 29.7811 67.1147V66.7888C29.819 66.7713 29.8517 66.7438 29.8758 66.7091C29.9 66.6743 29.9147 66.6336 29.9185 66.5911Z" fill="#6F7272"/>
<path d="M29.7812 66.7895L29.7801 67.1187L28.9364 67.6226L28.9375 67.2935L29.7812 66.7895Z" fill="#717373"/>
<path d="M28.2663 67.2932L28.2653 67.6234L26.7735 66.7382V66.408L28.2663 67.2932Z" fill="#757878"/>
<path d="M29.7792 66.3897C29.9642 66.4983 29.9653 66.6786 29.7792 66.7883L28.9334 67.2934C28.8294 67.3478 28.7144 67.3761 28.5977 67.3761C28.481 67.3761 28.366 67.3478 28.262 67.2934L26.7691 66.4082C26.5841 66.2996 26.5841 66.1182 26.7691 66.0085L27.615 65.5045C27.7187 65.4505 27.8333 65.4223 27.9496 65.4223C28.0659 65.4223 28.1805 65.4505 28.2842 65.5045L29.7792 66.3897Z" fill="#D5DADA"/>
<path d="M28.9376 67.2931V67.619C28.8337 67.6734 28.7186 67.7017 28.6019 67.7017C28.4853 67.7017 28.3703 67.6734 28.2663 67.619V67.2931C28.3703 67.3475 28.4853 67.3758 28.6019 67.3758C28.7186 67.3758 28.8337 67.3475 28.9376 67.2931Z" fill="#6F7272"/>
<path d="M24.8561 67.5523V67.8782C24.8175 67.8606 24.7843 67.8326 24.76 67.7973C24.7356 67.7619 24.7209 67.7204 24.7176 67.6773V67.3514C24.7214 67.3946 24.7363 67.436 24.7608 67.4713C24.7854 67.5066 24.8186 67.5346 24.8571 67.5523" fill="#6F7272"/>
<path d="M27.999 67.7399V68.0658C27.9952 68.1083 27.9804 68.149 27.9563 68.1837C27.9321 68.2185 27.8995 68.246 27.8616 68.2635V67.9376C27.8995 67.9201 27.9321 67.8926 27.9563 67.8579C27.9804 67.8231 27.9952 67.7824 27.999 67.7399Z" fill="#6F7272"/>
<path d="M27.8636 67.9343L27.8626 68.2634L27.0178 68.7685L27.0189 68.4383L27.8636 67.9343Z" fill="#717373"/>
<path d="M26.3483 68.438L26.3472 68.7682L24.8544 67.8829L24.8554 67.5527L26.3483 68.438Z" fill="#757878"/>
<path d="M27.8612 67.5359C28.0463 67.6445 28.0473 67.8248 27.8612 67.9345L27.0154 68.4385C26.9116 68.4927 26.7967 68.521 26.6803 68.521C26.5638 68.521 26.4489 68.4927 26.3451 68.4385L24.8522 67.5533C24.6672 67.4447 24.6662 67.2644 24.8522 67.1547L25.6981 66.6507C25.8019 66.5965 25.9167 66.5682 26.0332 66.5682C26.1497 66.5682 26.2645 66.5965 26.3684 66.6507L27.8612 67.5359Z" fill="#D5DADA"/>
<path d="M27.019 68.4383V68.7642C26.9151 68.8184 26.8003 68.8466 26.6838 68.8466C26.5673 68.8466 26.4525 68.8184 26.3487 68.7642V68.4383C26.4525 68.4925 26.5673 68.5208 26.6838 68.5208C26.8003 68.5208 26.9151 68.4925 27.019 68.4383Z" fill="#6F7272"/>
<path d="M22.9368 68.6977V69.0236C22.8985 69.0062 22.8653 68.9788 22.8406 68.9441C22.8159 68.9094 22.8006 68.8686 22.7961 68.8259V68.5C22.7998 68.5431 22.8147 68.5844 22.8393 68.6196C22.8638 68.6548 22.8971 68.6825 22.9357 68.6999" fill="#6F7272"/>
<path d="M26.0827 68.8818V69.2077C26.0787 69.2503 26.0639 69.291 26.0398 69.3259C26.0157 69.3608 25.9831 69.3886 25.9452 69.4064V69.0806C25.983 69.0629 26.0156 69.0353 26.0397 69.0006C26.0638 68.9659 26.0786 68.9253 26.0827 68.8829" fill="#6F7272"/>
<path d="M25.9452 69.0791L25.9441 69.4093L25.0994 69.9133L25.1004 69.5842L25.9452 69.0791Z" fill="#717373"/>
<path d="M24.4297 69.5841L24.4287 69.9132L22.9358 69.028L22.9369 68.6978L24.4297 69.5841Z" fill="#757878"/>
<path d="M25.9431 68.6805C26.1281 68.7891 26.1291 68.9694 25.9431 69.0791L25.0973 69.5831C24.9934 69.6373 24.8786 69.6656 24.7621 69.6656C24.6456 69.6656 24.5308 69.6373 24.4269 69.5831L22.9341 68.6979C22.7491 68.5892 22.748 68.4089 22.9341 68.2992L23.7799 67.7952C23.8837 67.741 23.9986 67.7128 24.1151 67.7128C24.2315 67.7128 24.3464 67.741 24.4502 67.7952L25.9431 68.6805Z" fill="#D5DADA"/>
<path d="M25.1004 69.5861V69.912C24.9965 69.9661 24.8817 69.9944 24.7652 69.9944C24.6487 69.9944 24.5339 69.9661 24.4301 69.912V69.5861C24.5339 69.6403 24.6487 69.6685 24.7652 69.6685C24.8817 69.6685 24.9965 69.6403 25.1004 69.5861Z" fill="#6F7272"/>
<path d="M49.1028 58.1822V58.508C49.0739 58.4956 49.0489 58.4755 49.0303 58.4497C49.0117 58.4238 49.0002 58.3933 48.9971 58.3614V58.0355C49.0004 58.0673 49.0119 58.0976 49.0305 58.1232C49.0491 58.1488 49.0741 58.1688 49.1028 58.1811" fill="#6F7272"/>
<path d="M51.6699 58.346V58.6718C51.6672 58.7028 51.6566 58.7325 51.6391 58.7578C51.6217 58.7832 51.598 58.8034 51.5705 58.8163V58.4905C51.5979 58.4774 51.6216 58.4572 51.639 58.4319C51.6565 58.4065 51.6671 58.3769 51.6699 58.346Z" fill="#6F7272"/>
<path d="M51.5706 58.4899L51.5695 58.8201L50.84 59.2546L50.8411 58.9255L51.5706 58.4899Z" fill="#717373"/>
<path d="M50.3528 58.9253L50.3518 59.2545L49.1021 58.5137L49.1031 58.1835L50.3528 58.9253Z" fill="#757878"/>
<path d="M51.5689 58.199C51.7043 58.2793 51.7043 58.4162 51.5689 58.4901L50.8394 58.9246C50.7636 58.9636 50.68 58.984 50.5952 58.984C50.5104 58.984 50.4268 58.9636 50.351 58.9246L49.1034 58.1816C49.0739 58.1713 49.0483 58.1518 49.0302 58.1258C49.012 58.0998 49.0023 58.0686 49.0023 58.0366C49.0023 58.0046 49.012 57.9734 49.0302 57.9474C49.0483 57.9214 49.0739 57.9019 49.1034 57.8916L49.8318 57.4571C49.9076 57.4178 49.9912 57.3973 50.0761 57.3973C50.1609 57.3973 50.2446 57.4178 50.3203 57.4571L51.5689 58.199Z" fill="#D5DADA"/>
<path d="M50.8415 58.9262V59.252C50.7659 59.2917 50.6822 59.3124 50.5973 59.3124C50.5124 59.3124 50.4287 59.2917 50.3531 59.252V58.9262C50.4289 58.9653 50.5125 58.9856 50.5973 58.9856C50.6821 58.9856 50.7657 58.9653 50.8415 58.9262Z" fill="#6F7272"/>
<path d="M47.7525 58.99V59.3159C47.7234 59.3039 47.6981 59.2839 47.6794 59.258C47.6607 59.2321 47.6494 59.2014 47.6468 59.1693V58.8434C47.6498 58.8752 47.6613 58.9056 47.6799 58.9313C47.6986 58.9569 47.7236 58.9769 47.7525 58.9889" fill="#6F7272"/>
<path d="M50.3206 59.1509V59.4768C50.3172 59.5084 50.3056 59.5385 50.287 59.5639C50.2684 59.5893 50.2435 59.6091 50.2148 59.6212V59.2954C50.2433 59.2831 50.2682 59.2632 50.2867 59.2378C50.3053 59.2125 50.317 59.1825 50.3206 59.1509Z" fill="#6F7272"/>
<path d="M50.2202 59.2957L50.2192 59.6259L49.4897 60.0604L49.4907 59.7313L50.2202 59.2957Z" fill="#717373"/>
<path d="M49.0022 59.7311L49.0011 60.0602L47.7514 59.3194L47.7525 58.9892L49.0022 59.7311Z" fill="#757878"/>
<path d="M50.2184 59.0044C50.3538 59.0848 50.3548 59.2151 50.2184 59.2955L49.4889 59.73C49.4131 59.769 49.3295 59.7894 49.2447 59.7894C49.1599 59.7894 49.0762 59.769 49.0005 59.73L47.7508 58.9881C47.7213 58.9778 47.6957 58.9583 47.6775 58.9323C47.6594 58.9063 47.6497 58.8751 47.6497 58.8431C47.6497 58.8111 47.6594 58.7799 47.6775 58.7539C47.6957 58.7279 47.7213 58.7084 47.7508 58.6981L48.4792 58.2636C48.5548 58.2239 48.6385 58.2033 48.7235 58.2033C48.8084 58.2033 48.8921 58.2239 48.9677 58.2636L50.2184 59.0044Z" fill="#D5DADA"/>
<path d="M49.4903 59.7314V60.0573C49.4146 60.0969 49.3309 60.1176 49.246 60.1176C49.1611 60.1176 49.0774 60.0969 49.0018 60.0573V59.7314C49.0776 59.7705 49.1612 59.7908 49.246 59.7908C49.3308 59.7908 49.4145 59.7705 49.4903 59.7314Z" fill="#6F7272"/>
<path d="M47.3726 58.971L48.7365 60.2201L48.5673 60.3211L47.2034 59.072L47.3726 58.971Z" fill="#D5DADA"/>
<path d="M48.7363 60.2203L48.7353 60.5505L48.5661 60.6516L48.5672 60.3214L48.7363 60.2203Z" fill="#717373"/>
<path d="M48.5674 60.3209L48.5663 60.6511L47.2025 59.402L47.2035 59.0718L48.5674 60.3209Z" fill="#737676"/>
<path d="M45.7436 60.2561V60.582C45.7148 60.5699 45.6897 60.5499 45.671 60.5243C45.6524 60.4987 45.641 60.4683 45.6379 60.4364V60.1106C45.641 60.1425 45.6525 60.173 45.6711 60.1989C45.6897 60.2247 45.7148 60.2448 45.7436 60.2572" fill="#6F7272"/>
<path d="M48.3116 60.4189V60.7447C48.3092 60.7758 48.2987 60.8056 48.2813 60.831C48.2638 60.8565 48.2399 60.8766 48.2122 60.8892V60.5633C48.2408 60.5512 48.2657 60.5314 48.2843 60.506C48.303 60.4806 48.3145 60.4505 48.3179 60.4189" fill="#6F7272"/>
<path d="M48.2113 60.5635L48.2102 60.8926L47.4818 61.3281L47.4828 60.9979L48.2113 60.5635Z" fill="#717373"/>
<path d="M46.9944 60.9976L46.9934 61.3278L45.7437 60.5859V60.2568L46.9944 60.9976Z" fill="#757878"/>
<path d="M48.2108 60.2722C48.3462 60.3525 48.3462 60.4829 48.2108 60.5633L47.4824 60.9977C47.4068 61.0374 47.3231 61.0581 47.2382 61.0581C47.1533 61.0581 47.0696 61.0374 46.9939 60.9977L45.7432 60.257C45.7138 60.2464 45.6884 60.2267 45.6704 60.2006C45.6524 60.1745 45.6427 60.1434 45.6427 60.1114C45.6427 60.0794 45.6524 60.0483 45.6704 60.0222C45.6884 59.9961 45.7138 59.9764 45.7432 59.9659L46.4716 59.5314C46.5471 59.492 46.6307 59.4714 46.7153 59.4714C46.8 59.4714 46.8835 59.492 46.959 59.5314L48.2108 60.2722Z" fill="#D5DADA"/>
<path d="M47.4831 60.998V61.3239C47.4075 61.3635 47.3238 61.3842 47.2389 61.3842C47.154 61.3842 47.0703 61.3635 46.9947 61.3239V60.998C47.0703 61.0377 47.154 61.0584 47.2389 61.0584C47.3238 61.0584 47.4075 61.0377 47.4831 60.998Z" fill="#6F7272"/>
<path d="M44.3943 61.0637V61.3895C44.3654 61.3776 44.3402 61.3576 44.3216 61.332C44.303 61.3063 44.2915 61.2759 44.2886 61.244V60.9181C44.2919 60.9499 44.3034 60.9802 44.322 61.0058C44.3406 61.0314 44.3656 61.0514 44.3943 61.0637Z" fill="#6F7272"/>
<path d="M46.9612 61.2218V61.5476C46.9587 61.5785 46.9481 61.6081 46.9306 61.6333C46.9131 61.6585 46.8894 61.6784 46.8618 61.691V61.3651C46.8893 61.3522 46.913 61.332 46.9305 61.3067C46.9479 61.2813 46.9585 61.2516 46.9612 61.2207" fill="#6F7272"/>
<path d="M46.8611 61.3693V61.6984L46.1316 62.1339L46.1327 61.8037L46.8611 61.3693Z" fill="#717373"/>
<path d="M45.6442 61.8038L45.6432 62.134L44.3935 61.3921L44.3946 61.063L45.6442 61.8038Z" fill="#757878"/>
<path d="M46.8608 61.0781C46.9961 61.1584 46.9961 61.2888 46.8608 61.3692L46.1312 61.8036C46.0556 61.8433 45.9719 61.864 45.887 61.864C45.8021 61.864 45.7184 61.8433 45.6428 61.8036L44.3931 61.0629C44.2578 60.9825 44.2578 60.8521 44.3931 60.7717L45.1216 60.3373C45.1973 60.2979 45.2809 60.2775 45.3658 60.2775C45.4506 60.2775 45.5343 60.2979 45.61 60.3373L46.8608 61.0781Z" fill="#D5DADA"/>
<path d="M46.1329 61.8036V62.1295C46.0572 62.1688 45.9735 62.1893 45.8887 62.1893C45.8038 62.1893 45.7202 62.1688 45.6444 62.1295V61.8036C45.7201 61.8433 45.8038 61.864 45.8887 61.864C45.9736 61.864 46.0573 61.8433 46.1329 61.8036Z" fill="#6F7272"/>
<path d="M41.5311 62.7633V63.0891C41.5023 63.0767 41.4772 63.0566 41.4586 63.0308C41.44 63.005 41.4285 62.9745 41.4254 62.9425V62.6166C41.4285 62.6486 41.44 62.6791 41.4586 62.7049C41.4772 62.7307 41.5023 62.7509 41.5311 62.7633Z" fill="#6F7272"/>
<path d="M44.1016 62.9258V63.2517C44.0985 63.2826 44.0876 63.3123 44.07 63.3376C44.0524 63.3629 44.0286 63.3831 44.0011 63.3961V63.0703C44.0286 63.0574 44.0523 63.0372 44.0698 63.0118C44.0872 62.9864 44.0978 62.9568 44.1005 62.9258" fill="#6F7272"/>
<path d="M44.0018 63.07L44.0008 63.4002L43.2713 63.8346L43.2723 63.5055L44.0018 63.07Z" fill="#717373"/>
<path d="M42.7839 63.5054L42.7829 63.8345L41.5332 63.0937L41.5342 62.7635L42.7839 63.5054Z" fill="#757878"/>
<path d="M44.0005 62.7787C44.1358 62.8591 44.1368 62.9894 44.0005 63.0698L43.2709 63.5043C43.1951 63.5433 43.1115 63.5637 43.0267 63.5637C42.9419 63.5637 42.8583 63.5433 42.7825 63.5043L41.5317 62.7635C41.5024 62.7529 41.4769 62.7332 41.4589 62.7071C41.4409 62.6811 41.4313 62.6499 41.4313 62.6179C41.4313 62.586 41.4409 62.5548 41.4589 62.5287C41.4769 62.5026 41.5024 62.4829 41.5317 62.4724L42.2612 62.0379C42.3369 61.9982 42.4206 61.9775 42.5055 61.9775C42.5904 61.9775 42.6741 61.9982 42.7497 62.0379L44.0005 62.7787Z" fill="#D5DADA"/>
<path d="M43.2727 63.5039V63.8298C43.197 63.8694 43.1133 63.8901 43.0284 63.8901C42.9435 63.8901 42.8598 63.8694 42.7842 63.8298V63.5039C42.86 63.543 42.9436 63.5633 43.0284 63.5633C43.1132 63.5633 43.1969 63.543 43.2727 63.5039Z" fill="#6F7272"/>
<path d="M40.1372 63.5979V63.9237C40.1084 63.9116 40.0833 63.8917 40.0646 63.866C40.046 63.8404 40.0345 63.81 40.0315 63.7782V63.4523C40.0337 63.4838 40.0442 63.5141 40.0619 63.54C40.0796 63.5658 40.1038 63.5862 40.1319 63.599" fill="#6F7272"/>
<path d="M42.7049 63.7593V64.0852C42.7024 64.116 42.6919 64.1456 42.6744 64.1708C42.6569 64.1961 42.6331 64.216 42.6056 64.2285V63.9027C42.6342 63.8906 42.6591 63.8708 42.6777 63.8454C42.6963 63.82 42.7079 63.7899 42.7113 63.7582" fill="#6F7272"/>
<path d="M42.6049 63.9032V64.2324L41.8753 64.6679L41.8764 64.3377L42.6049 63.9032Z" fill="#717373"/>
<path d="M41.3879 64.3384L41.3869 64.6686L40.1372 63.9268L40.1382 63.5976L41.3879 64.3384Z" fill="#757878"/>
<path d="M42.6047 63.6125C42.7401 63.6929 42.7401 63.8232 42.6047 63.9036L41.8763 64.3381C41.8007 64.3778 41.717 64.3984 41.6321 64.3984C41.5472 64.3984 41.4635 64.3778 41.3878 64.3381L40.1371 63.5973C40.0028 63.5169 40.0018 63.3866 40.1371 63.3062L40.8655 62.8717C40.9415 62.8326 41.0253 62.8123 41.1103 62.8123C41.1953 62.8123 41.2791 62.8326 41.3551 62.8717L42.6047 63.6125Z" fill="#D5DADA"/>
<path d="M41.8766 64.3386V64.6644C41.801 64.7041 41.7173 64.7248 41.6324 64.7248C41.5475 64.7248 41.4638 64.7041 41.3882 64.6644V64.3386C41.4638 64.3782 41.5475 64.3989 41.6324 64.3989C41.7173 64.3989 41.801 64.3782 41.8766 64.3386Z" fill="#6F7272"/>
<path d="M38.7409 64.4314V64.7573C38.7121 64.7449 38.687 64.7247 38.6684 64.6989C38.6498 64.6731 38.6383 64.6426 38.6352 64.6107V64.2848C38.6383 64.3168 38.6498 64.3473 38.6684 64.3731C38.687 64.3989 38.7121 64.4191 38.7409 64.4314Z" fill="#6F7272"/>
<path d="M41.3075 64.5896V64.9154C41.3048 64.9464 41.2942 64.976 41.2768 65.0014C41.2593 65.0268 41.2356 65.047 41.2081 65.0599V64.734C41.2356 64.7211 41.2593 64.7009 41.2768 64.6756C41.2942 64.6502 41.3048 64.6205 41.3075 64.5896Z" fill="#6F7272"/>
<path d="M41.2075 64.7377V65.0679L40.4779 65.5024L40.479 65.1733L41.2075 64.7377Z" fill="#717373"/>
<path d="M39.9906 65.1736L39.9895 65.5027L38.7398 64.7619L38.7409 64.4317L39.9906 65.1736Z" fill="#757878"/>
<path d="M41.2074 64.4465C41.3427 64.5268 41.3427 64.6572 41.2074 64.7376L40.4779 65.172C40.4021 65.2111 40.3184 65.2315 40.2336 65.2315C40.1488 65.2315 40.0652 65.2111 39.9894 65.172L38.7397 64.4302C38.7103 64.4196 38.6849 64.3999 38.6669 64.3738C38.6489 64.3478 38.6393 64.3166 38.6393 64.2846C38.6393 64.2526 38.6489 64.2215 38.6669 64.1954C38.6849 64.1693 38.7103 64.1496 38.7397 64.1391L39.4692 63.7046C39.5448 63.6649 39.6285 63.6442 39.7134 63.6442C39.7984 63.6442 39.8821 63.6649 39.9577 63.7046L41.2074 64.4465Z" fill="#D5DADA"/>
<path d="M40.4748 65.1736V65.4994C40.3992 65.5391 40.3155 65.5598 40.2306 65.5598C40.1456 65.5598 40.062 65.5391 39.9863 65.4994V65.1736C40.0621 65.2126 40.1458 65.233 40.2306 65.233C40.3154 65.233 40.399 65.2126 40.4748 65.1736Z" fill="#6F7272"/>
<path d="M37.3945 65.2337V65.5596C37.3663 65.5468 37.3421 65.5264 37.3244 65.5006C37.3067 65.4748 37.2962 65.4445 37.294 65.413V65.0871C37.297 65.119 37.3084 65.1494 37.3271 65.1751C37.3457 65.2008 37.3709 65.2207 37.3998 65.2327" fill="#6F7272"/>
<path d="M39.9626 65.3969V65.7228C39.9597 65.7538 39.9489 65.7835 39.9312 65.8089C39.9136 65.8343 39.8898 65.8544 39.8621 65.8673V65.5414C39.8898 65.5289 39.9137 65.509 39.9314 65.4838C39.9491 65.4586 39.9598 65.429 39.9626 65.398" fill="#6F7272"/>
<path d="M39.8623 65.54L39.8612 65.8702L39.1328 66.3058L39.1338 65.9756L39.8623 65.54Z" fill="#717373"/>
<path d="M38.6454 65.9761L38.6443 66.3063L37.3936 65.5644L37.3946 65.2342L38.6454 65.9761Z" fill="#757878"/>
<path d="M39.8612 65.2507C39.9955 65.3311 39.9966 65.4614 39.8612 65.5407L39.1328 65.9752C39.0571 66.0145 38.9734 66.035 38.8886 66.035C38.8037 66.035 38.7201 66.0145 38.6443 65.9752L37.3936 65.2333C37.3641 65.223 37.3385 65.2035 37.3204 65.1775C37.3022 65.1515 37.2925 65.1203 37.2925 65.0883C37.2925 65.0563 37.3022 65.0251 37.3204 64.9991C37.3385 64.9731 37.3641 64.9536 37.3936 64.9433L38.122 64.5088C38.1978 64.4695 38.2814 64.449 38.3663 64.449C38.4511 64.449 38.5348 64.4695 38.6105 64.5088L39.8612 65.2507Z" fill="#D5DADA"/>
<path d="M39.134 65.9761V66.3019C39.0583 66.3413 38.9746 66.3618 38.8898 66.3618C38.8049 66.3618 38.7213 66.3413 38.6455 66.3019V65.9761C38.7213 66.0154 38.8049 66.0359 38.8898 66.0359C38.9746 66.0359 39.0583 66.0154 39.134 65.9761Z" fill="#6F7272"/>
<path d="M35.9984 66.0682V66.394C35.9695 66.3817 35.9445 66.3615 35.9258 66.3357C35.9072 66.3099 35.8958 66.2794 35.8926 66.2474V65.9216C35.8958 65.9535 35.9072 65.984 35.9258 66.0098C35.9445 66.0356 35.9695 66.0558 35.9984 66.0682Z" fill="#6F7272"/>
<path d="M38.5652 66.2308V66.5566C38.5625 66.5876 38.5519 66.6173 38.5345 66.6426C38.517 66.668 38.4933 66.6882 38.4658 66.7011V66.3752C38.4935 66.3626 38.5174 66.3425 38.5349 66.3171C38.5524 66.2916 38.5629 66.2618 38.5652 66.2308Z" fill="#6F7272"/>
<path d="M38.466 66.3752L38.4649 66.7054L37.7365 67.141V66.8108L38.466 66.3752Z" fill="#717373"/>
<path d="M37.2482 66.8104L37.2471 67.1406L35.9974 66.3988L35.9985 66.0685L37.2482 66.8104Z" fill="#757878"/>
<path d="M38.4659 66.0847C38.4954 66.095 38.521 66.1145 38.5391 66.1405C38.5572 66.1665 38.567 66.1977 38.567 66.2297C38.567 66.2617 38.5572 66.2929 38.5391 66.3189C38.521 66.3449 38.4954 66.3644 38.4659 66.3747L37.7364 66.8092C37.6608 66.8489 37.5771 66.8695 37.4921 66.8695C37.4072 66.8695 37.3235 66.8489 37.2479 66.8092L35.9982 66.0673C35.864 65.988 35.8618 65.8566 35.9982 65.7773L36.7277 65.3428C36.8035 65.3038 36.8872 65.2834 36.972 65.2834C37.0568 65.2834 37.1404 65.3038 37.2162 65.3428L38.4659 66.0847Z" fill="#D5DADA"/>
<path d="M37.7367 66.8106V67.1365C37.6609 67.1756 37.5773 67.1959 37.4925 67.1959C37.4077 67.1959 37.324 67.1756 37.2482 67.1365V66.8106C37.3239 66.8503 37.4076 66.871 37.4925 66.871C37.5774 66.871 37.6611 66.8503 37.7367 66.8106Z" fill="#6F7272"/>
<path d="M34.6002 66.9033V67.2292C34.5714 67.2168 34.5463 67.1966 34.5277 67.1708C34.5091 67.145 34.4976 67.1145 34.4945 67.0825V66.7567C34.4976 66.7886 34.5091 66.8191 34.5277 66.8449C34.5463 66.8708 34.5714 66.8909 34.6002 66.9033Z" fill="#6F7272"/>
<path d="M37.1685 67.0658V67.3916C37.1652 67.4233 37.1537 67.4535 37.135 67.4789C37.1164 67.5043 37.0914 67.5241 37.0627 67.5361V67.2103C37.0912 67.1982 37.1161 67.1786 37.1346 67.1534C37.1532 67.1282 37.1649 67.0983 37.1685 67.0669" fill="#6F7272"/>
<path d="M37.068 67.2099L37.067 67.5391L36.3385 67.9746V67.6444L37.068 67.2099Z" fill="#717373"/>
<path d="M35.85 67.6445L35.8489 67.9747L34.5992 67.2329L34.6003 66.9026L35.85 67.6445Z" fill="#757878"/>
<path d="M37.0664 66.9188C37.2018 66.9992 37.2028 67.1295 37.0664 67.2088L36.3369 67.6433C36.2613 67.6829 36.1776 67.7036 36.0927 67.7036C36.0078 67.7036 35.9241 67.6829 35.8484 67.6433L34.5988 66.9025C34.4645 66.8221 34.4634 66.6907 34.5988 66.6114L35.3283 66.1769C35.404 66.1376 35.4876 66.1171 35.5725 66.1171C35.6573 66.1171 35.741 66.1376 35.8167 66.1769L37.0664 66.9188Z" fill="#D5DADA"/>
<path d="M36.3387 67.6445V67.9704C36.263 68.0097 36.1793 68.0302 36.0945 68.0302C36.0096 68.0302 35.9259 68.0097 35.8502 67.9704V67.6445C35.9258 67.6842 36.0095 67.7049 36.0945 67.7049C36.1794 67.7049 36.2631 67.6842 36.3387 67.6445Z" fill="#6F7272"/>
<path d="M33.2039 67.7401V68.066C33.1751 68.0536 33.15 68.0334 33.1314 68.0076C33.1128 67.9818 33.1013 67.9513 33.0982 67.9194V67.5935C33.1015 67.6253 33.1131 67.6555 33.1317 67.6812C33.1503 67.7068 33.1752 67.7268 33.2039 67.739" fill="#6F7272"/>
<path d="M35.7707 67.8981V68.2239C35.7683 68.2549 35.7578 68.2847 35.7403 68.3101C35.7228 68.3355 35.699 68.3556 35.6714 68.3684V68.0425C35.6989 68.0297 35.7227 68.0095 35.7401 67.9841C35.7576 67.9588 35.7682 67.929 35.7707 67.8981Z" fill="#6F7272"/>
<path d="M35.6716 68.0428L35.6706 68.373L34.941 68.8086L34.9421 68.4784L35.6716 68.0428Z" fill="#717373"/>
<path d="M34.4537 68.4789L34.4526 68.8091L33.2029 68.0672L33.204 67.737L34.4537 68.4789Z" fill="#757878"/>
<path d="M35.6696 67.7528C35.6991 67.7631 35.7247 67.7827 35.7428 67.8087C35.761 67.8347 35.7707 67.8659 35.7707 67.8978C35.7707 67.9298 35.761 67.961 35.7428 67.987C35.7247 68.013 35.6991 68.0326 35.6696 68.0429L34.9401 68.4773C34.8645 68.517 34.7808 68.5377 34.6959 68.5377C34.611 68.5377 34.5273 68.517 34.4516 68.4773L33.2041 67.7398C33.0698 67.6605 33.0677 67.5291 33.2041 67.4498L33.9336 67.0153C34.0094 66.9762 34.093 66.9559 34.1778 66.9559C34.2626 66.9559 34.3462 66.9762 34.422 67.0153L35.6696 67.7528Z" fill="#D5DADA"/>
<path d="M34.9417 68.4784V68.8042C34.8659 68.8433 34.7822 68.8637 34.6974 68.8637C34.6126 68.8637 34.529 68.8433 34.4532 68.8042V68.4784C34.5288 68.518 34.6125 68.5387 34.6974 68.5387C34.7824 68.5387 34.8661 68.518 34.9417 68.4784Z" fill="#6F7272"/>
<path d="M31.4719 68.7705V69.0964C31.443 69.084 31.418 69.0638 31.3993 69.038C31.3807 69.0122 31.3693 68.9817 31.3661 68.9497V68.6239C31.3693 68.6558 31.3807 68.6863 31.3993 68.7122C31.418 68.738 31.443 68.7581 31.4719 68.7705Z" fill="#6F7272"/>
<path d="M34.0388 68.9346V69.2604C34.036 69.2915 34.0253 69.3212 34.0076 69.3466C33.99 69.372 33.9661 69.3921 33.9384 69.4049V69.079C33.966 69.0665 33.99 69.0466 34.0076 69.0214C34.0253 68.9962 34.0361 68.9666 34.0388 68.9356" fill="#6F7272"/>
<path d="M33.9384 69.0779L33.9374 69.407L33.2089 69.8425L33.21 69.5123L33.9384 69.0779Z" fill="#717373"/>
<path d="M32.7216 69.5124L32.7206 69.8426L31.4709 69.1008L31.4719 68.7706L32.7216 69.5124Z" fill="#757878"/>
<path d="M33.9376 68.7871C34.0719 68.8675 34.0729 68.9978 33.9376 69.0771L33.2091 69.5116C33.1335 69.5513 33.0498 69.572 32.9649 69.572C32.88 69.572 32.7963 69.5513 32.7207 69.5116L31.471 68.7697C31.3367 68.6904 31.3346 68.559 31.471 68.4797L32.1994 68.0452C32.2752 68.0059 32.3588 67.9854 32.4437 67.9854C32.5285 67.9854 32.6122 68.0059 32.6879 68.0452L33.9376 68.7871Z" fill="#D5DADA"/>
<path d="M33.2097 69.5126V69.8384C33.134 69.8777 33.0504 69.8982 32.9655 69.8982C32.8807 69.8982 32.797 69.8777 32.7213 69.8384V69.5126C32.7969 69.5522 32.8806 69.5729 32.9655 69.5729C33.0504 69.5729 33.1341 69.5522 33.2097 69.5126Z" fill="#6F7272"/>
<path d="M30.074 69.6048V69.9306C30.0452 69.9183 30.0201 69.8981 30.0015 69.8723C29.9829 69.8465 29.9714 69.816 29.9683 69.784V69.4582C29.9716 69.4899 29.9831 69.5202 30.0017 69.5458C30.0203 69.5714 30.0453 69.5914 30.074 69.6037" fill="#6F7272"/>
<path d="M32.6423 69.7667V70.0926C32.639 70.1242 32.6274 70.1543 32.6088 70.1797C32.5901 70.2051 32.5652 70.2249 32.5366 70.237V69.9112C32.5642 69.8983 32.5881 69.8782 32.6057 69.8528C32.6233 69.8275 32.6342 69.7978 32.637 69.7667" fill="#6F7272"/>
<path d="M32.5417 69.9113L32.5407 70.2415L31.8112 70.6771L31.8122 70.3469L32.5417 69.9113Z" fill="#717373"/>
<path d="M31.3239 70.3467L31.3229 70.6769L30.0732 69.935L30.0742 69.6048L31.3239 70.3467Z" fill="#757878"/>
<path d="M32.5451 69.621C32.6805 69.7003 32.6815 69.8317 32.5451 69.911L31.8156 70.3455C31.74 70.3851 31.6563 70.4058 31.5714 70.4058C31.4865 70.4058 31.4028 70.3851 31.3272 70.3455L30.0775 69.6036C29.9432 69.5243 29.9422 69.3929 30.0775 69.3136L30.807 68.8791C30.8827 68.8398 30.9664 68.8193 31.0512 68.8193C31.1361 68.8193 31.2197 68.8398 31.2955 68.8791L32.5451 69.621Z" fill="#D5DADA"/>
<path d="M31.8125 70.3467V70.6726C31.7367 70.7116 31.6531 70.732 31.5683 70.732C31.4835 70.732 31.3999 70.7116 31.3241 70.6726V70.3467C31.3997 70.3864 31.4834 70.4071 31.5683 70.4071C31.6532 70.4071 31.7369 70.3864 31.8125 70.3467Z" fill="#6F7272"/>
<path d="M28.6778 70.4396V70.7655C28.6489 70.7531 28.6239 70.7329 28.6053 70.7071C28.5866 70.6813 28.5752 70.6508 28.5721 70.6188V70.293C28.5749 70.325 28.5863 70.3556 28.605 70.3815C28.6236 70.4073 28.6488 70.4274 28.6778 70.4396Z" fill="#6F7272"/>
<path d="M31.2446 70.6021V70.9279C31.2419 70.9589 31.2312 70.9885 31.2138 71.0138C31.1963 71.0392 31.1727 71.0594 31.1453 71.0724V70.7466C31.1727 70.7338 31.1963 70.7138 31.2138 70.6887C31.2312 70.6635 31.2419 70.634 31.2446 70.6032" fill="#6F7272"/>
<path d="M31.1455 70.7455L31.1444 71.0757L30.4149 71.5113L30.416 71.1811L31.1455 70.7455Z" fill="#717373"/>
<path d="M29.9275 71.1813L29.9265 71.5115L28.6768 70.7697L28.6778 70.4395L29.9275 71.1813Z" fill="#757878"/>
<path d="M31.1433 70.4554C31.2787 70.5358 31.2797 70.6661 31.1433 70.7454L30.4128 71.1799C30.3373 71.2195 30.2538 71.2402 30.1691 71.2402C30.0843 71.2402 30.0008 71.2195 29.9253 71.1799L28.6757 70.438C28.5414 70.3587 28.5393 70.2273 28.6757 70.148L29.4052 69.7135C29.4808 69.6745 29.5642 69.6541 29.6489 69.6541C29.7335 69.6541 29.817 69.6745 29.8926 69.7135L31.1433 70.4554Z" fill="#D5DADA"/>
<path d="M30.4145 71.1813V71.5072C30.3387 71.5463 30.2551 71.5666 30.1703 71.5666C30.0855 71.5666 30.0018 71.5463 29.926 71.5072V71.1813C30.0015 71.221 30.085 71.2417 30.1697 71.2417C30.2545 71.2417 30.338 71.221 30.4134 71.1813" fill="#6F7272"/>
<path d="M27.2798 71.2733V71.5991C27.2509 71.5868 27.2259 71.5666 27.2073 71.5408C27.1887 71.515 27.1772 71.4845 27.1741 71.4525V71.1266C27.1771 71.1585 27.1886 71.1889 27.2072 71.2145C27.2259 71.2402 27.251 71.2601 27.2798 71.2722" fill="#6F7272"/>
<path d="M29.8469 71.433V71.7589C29.8433 71.7904 29.8316 71.8204 29.8131 71.8458C29.7945 71.8712 29.7697 71.8911 29.7412 71.9033V71.5775C29.7687 71.5649 29.7925 71.545 29.81 71.5198C29.8275 71.4946 29.838 71.465 29.8406 71.4341" fill="#6F7272"/>
<path d="M29.7474 71.5791L29.7464 71.9093L29.0168 72.3449L29.0179 72.0147L29.7474 71.5791Z" fill="#717373"/>
<path d="M28.5296 72.0152L28.5285 72.3454L27.2788 71.6035L27.2799 71.2733L28.5296 72.0152Z" fill="#757878"/>
<path d="M29.7459 71.2899C29.8812 71.3692 29.8823 71.5006 29.7459 71.5799L29.0164 72.0144C28.9408 72.054 28.8571 72.0747 28.7721 72.0747C28.6872 72.0747 28.6035 72.054 28.5279 72.0144L27.2782 71.2725C27.144 71.1932 27.1418 71.0629 27.2782 70.9825L28.0077 70.548C28.0835 70.5087 28.1671 70.4882 28.252 70.4882C28.3368 70.4882 28.4205 70.5087 28.4962 70.548L29.7459 71.2899Z" fill="#D5DADA"/>
<path d="M29.0182 72.0156V72.3415C28.9424 72.3805 28.8588 72.4009 28.774 72.4009C28.6892 72.4009 28.6055 72.3805 28.5298 72.3415V72.0156C28.6054 72.0553 28.6891 72.076 28.774 72.076C28.8589 72.076 28.9426 72.0553 29.0182 72.0156Z" fill="#6F7272"/>
<path d="M56.8268 53.0416V53.3066C56.8049 53.3954 56.7939 53.4866 56.794 53.5782V53.312C56.7948 53.2208 56.8061 53.13 56.8278 53.0416" fill="#846200"/>
<path d="M60.5128 54.9364V55.2014C60.5128 54.7105 60.1956 54.2184 59.5676 53.8448C58.8191 53.4005 57.7956 53.2213 56.8272 53.3017V53.0366C57.7956 52.9508 58.818 53.1301 59.5666 53.5797C60.2009 53.9545 60.5181 54.4487 60.5128 54.9375" fill="#07153D"/>
<path d="M60.5128 54.9364V55.2014C60.5128 54.7105 60.1956 54.2184 59.5676 53.8448C58.8191 53.4005 57.7956 53.2213 56.8272 53.3017V53.0366C57.7956 52.9508 58.818 53.1301 59.5666 53.5797C60.2009 53.9545 60.5181 54.4487 60.5128 54.9375" fill="#07153D"/>
<path d="M60.5127 54.9371V55.2021C60.5123 55.2937 60.5013 55.3848 60.4799 55.4737V55.2076C60.5022 55.1192 60.5135 55.0284 60.5138 54.9371" fill="#07413D"/>
<path d="M62.2539 51.9722C63.5099 52.7173 63.5162 53.9273 62.2687 54.6692C61.7151 54.9822 61.1017 55.1675 60.4713 55.2123C60.6119 54.6366 60.3074 54.0273 59.5589 53.583C58.8103 53.1388 57.7879 52.9595 56.8195 53.0399C56.9136 52.6489 57.2128 52.272 57.7171 51.9711C58.9763 51.2292 61.002 51.2292 62.2539 51.9722Z" fill="#0D2875"/>
<path d="M63.2053 53.3306V53.5967C63.2053 54.0812 62.8945 54.5656 62.2739 54.936C61.7219 55.2483 61.1104 55.4336 60.4818 55.4791V55.213C61.1122 55.1682 61.7256 54.9829 62.2792 54.6699C62.8987 54.2995 63.2096 53.8161 63.2106 53.3306" fill="#07153D"/>
<path d="M60.479 55.207V55.4731C59.5105 55.5589 58.4871 55.3786 57.7396 54.93C57.1052 54.5552 56.788 54.061 56.7933 53.5722V53.3061C56.7933 53.7971 57.1105 54.2891 57.7396 54.6639C58.4881 55.1081 59.5105 55.2873 60.479 55.207Z" fill="#07413D"/>
<path d="M59.5663 53.5789C60.3148 54.0221 60.6235 54.6315 60.4787 55.2082C59.5102 55.294 58.4879 55.1148 57.7393 54.6651C56.9908 54.2154 56.682 53.6137 56.8269 53.0358C57.7954 52.9555 58.8177 53.1347 59.5663 53.5789Z" fill="#0D7D75"/>
<path d="M60.4789 55.207V55.4731C60.3838 55.8641 60.0846 56.241 59.5802 56.5419C58.3327 57.2871 56.3027 57.2871 55.0477 56.5419C54.4134 56.1672 54.0962 55.673 54.0962 55.1842V54.9224C54.0962 55.4134 54.4134 55.9 55.0477 56.2802C56.3038 57.0253 58.3327 57.0253 59.5802 56.2802C60.0846 55.9793 60.3838 55.6034 60.4779 55.2113" fill="#846200"/>
<path d="M60.4786 55.2073C60.3845 55.5994 60.0853 55.9752 59.581 56.2761C58.3334 57.0212 56.3034 57.0212 55.0484 56.2761C53.7935 55.531 53.7861 54.3209 55.0336 53.5791C55.5873 53.2661 56.2006 53.0807 56.831 53.036C56.6904 53.6127 56.9949 54.2199 57.7434 54.6653C58.492 55.1106 59.5101 55.2931 60.4786 55.2073Z" fill="#FDBC00"/>
<path d="M48.909 48.571C49.4038 48.8654 49.4059 49.3454 48.9142 49.6387L32.904 59.1972C32.4124 59.4905 31.6046 59.4905 31.1067 59.1972L28.2774 57.519C27.7826 57.2247 27.7794 56.7446 28.2711 56.4513L44.2824 46.8928C44.774 46.5996 45.5807 46.5996 46.0797 46.8928L48.909 48.571Z" fill="#0B2265"/>
<path d="M32.9497 58.1458C33.0789 58.1041 33.2101 58.0697 33.343 58.0426C33.9171 57.7645 34.4468 57.3409 34.9405 56.9749C35.7985 56.3446 36.6968 55.7741 37.6291 55.2674C40.8179 53.5001 43.7793 51.3354 47.0134 49.6637C46.9321 48.9987 46.7861 48.3437 46.5779 47.7086C45.0681 43.1466 40.7629 41.7084 36.9704 44.4989C33.178 47.2893 31.3204 53.2525 32.8302 57.8156C32.8682 57.9264 32.9095 58.0361 32.9497 58.1458Z" fill="#FFA600"/>
<path d="M32.1722 58.5553L32.9493 58.1458L45.9538 50.2361C45.9538 50.2361 45.7423 48.2517 45.441 47.3262C43.9301 42.7642 39.626 41.3261 35.8325 44.1176C32.039 46.9091 30.1825 52.8712 31.6933 57.4343C31.7737 57.6776 31.8952 58.0947 31.9756 58.375C32.0158 58.5075 32.0718 58.6487 32.1722 58.5553Z" fill="#FFCA00" stroke="#1D296F" stroke-width="0.288634" stroke-miterlimit="10"/>
<path d="M37.1742 55.4147C37.3212 55.33 40.9804 53.1456 42.6477 52.1029C42.661 51.6052 42.5895 51.1089 42.4363 50.6365C41.8294 48.803 40.0881 48.235 38.5497 49.3668C37.9785 49.8006 37.5176 50.3695 37.206 51.0254L38.8289 51.3512L38.3658 52.8241L36.7312 52.4798C36.5882 53.231 36.6329 54.0072 36.8613 54.7358C36.9399 54.9737 37.0449 55.2015 37.1742 55.4147Z" fill="#FFCA00"/>
<path d="M34.7752 52.1681C34.5651 53.2285 34.6234 54.3265 34.9443 55.3572C35.0825 55.784 35.2829 56.1868 35.5385 56.552C36.0735 56.1848 36.6201 55.847 37.1857 55.5223C37.0569 55.3089 36.9523 55.0812 36.8738 54.8434C36.6459 54.1147 36.6015 53.3385 36.7449 52.5874L38.3783 52.9306L38.8435 51.4338L37.9977 51.1764L37.2735 51.0309C37.5817 50.4177 38.023 49.8855 38.5634 49.4754C39.1829 49.0203 39.8321 48.84 40.4326 48.9074C40.9464 49.2093 41.3651 49.7361 41.6051 50.4628C41.8404 51.2193 41.8794 52.0257 41.7182 52.8024C42.416 52.368 43.1128 51.9237 43.8148 51.499C43.791 50.9726 43.6964 50.452 43.5336 49.9523C43.1107 48.6836 42.3029 47.8505 41.3302 47.529H41.3397L40.4939 47.2466C39.5128 46.9207 38.3656 47.1108 37.2904 47.8983C36.3949 48.5565 35.6886 49.5276 35.2351 50.6192L34.0647 50.3835L32.4386 51.5707L33.1787 51.8651L34.7752 52.1681Z" fill="#FFA600" stroke="#1D296F" stroke-width="0.288634" stroke-miterlimit="10"/>
<path d="M42.3886 50.5765C42.3824 50.5607 42.3752 50.5459 42.3691 50.5301C42.3773 50.5406 42.3824 50.5554 42.3886 50.5765Z" fill="#FFA600" stroke="#1D296F" stroke-width="0.288634" stroke-miterlimit="10"/>
<path d="M42.3213 50.4111C42.313 50.3912 42.3028 50.3723 42.2935 50.3524C42.3028 50.3723 42.313 50.3912 42.3213 50.4111Z" fill="#FFA600" stroke="#1D296F" stroke-width="0.288634" stroke-miterlimit="10"/>
<path d="M42.2496 50.2587C42.2393 50.2378 42.228 50.2178 42.2167 50.1979C42.228 50.2178 42.2393 50.2378 42.2496 50.2587Z" fill="#FFA600" stroke="#1D296F" stroke-width="0.288634" stroke-miterlimit="10"/>
<path d="M42.1713 50.1133L42.1343 50.0535L42.1713 50.1133Z" fill="#FFA600" stroke="#1D296F" stroke-width="0.288634" stroke-miterlimit="10"/>
<path d="M42.0873 49.9767L42.0472 49.9187L42.0873 49.9767Z" fill="#FFA600" stroke="#1D296F" stroke-width="0.288634" stroke-miterlimit="10"/>
<path d="M41.3615 49.2376C41.343 49.225 41.3246 49.2145 41.3061 49.203C41.3246 49.2145 41.343 49.225 41.3615 49.2376Z" fill="#FFA600" stroke="#1D296F" stroke-width="0.288634" stroke-miterlimit="10"/>
<path d="M41.9973 49.8465C41.9839 49.8275 41.9685 49.8106 41.9551 49.7916C41.9685 49.8106 41.9839 49.8275 41.9973 49.8465Z" fill="#FFA600" stroke="#1D296F" stroke-width="0.288634" stroke-miterlimit="10"/>
<path d="M41.9033 49.7251L41.857 49.6734L41.9033 49.7251Z" fill="#FFA600" stroke="#1D296F" stroke-width="0.288634" stroke-miterlimit="10"/>
<path d="M41.8037 49.6122L41.7554 49.5626L41.8037 49.6122Z" fill="#FFA600" stroke="#1D296F" stroke-width="0.288634" stroke-miterlimit="10"/>
<path d="M41.6988 49.5056L41.6495 49.4602L41.6988 49.5056Z" fill="#FFA600" stroke="#1D296F" stroke-width="0.288634" stroke-miterlimit="10"/>
<path d="M41.5914 49.4077L41.539 49.3667L41.5914 49.4077Z" fill="#FFA600" stroke="#1D296F" stroke-width="0.288634" stroke-miterlimit="10"/>
<path d="M41.4781 49.3188C41.4606 49.3052 41.4422 49.2936 41.4247 49.2811C41.4422 49.2936 41.4606 49.3052 41.4781 49.3188Z" fill="#FFA600" stroke="#1D296F" stroke-width="0.288634" stroke-miterlimit="10"/>
<path d="M40.9297 49.0215C40.9502 49.0288 40.9708 49.0352 40.9903 49.0436C40.9708 49.0352 40.9502 49.0288 40.9297 49.0215Z" fill="#FFA600" stroke="#1D296F" stroke-width="0.288634" stroke-miterlimit="10"/>
<path d="M41.0577 49.0734L41.1173 49.0996L41.0577 49.0734Z" fill="#FFA600" stroke="#1D296F" stroke-width="0.288634" stroke-miterlimit="10"/>
<path d="M41.1837 49.1348C41.2032 49.1442 41.2228 49.1537 41.2413 49.1642C41.2228 49.1537 41.2032 49.1442 41.1837 49.1348Z" fill="#FFA600" stroke="#1D296F" stroke-width="0.288634" stroke-miterlimit="10"/>
<path d="M39.2479 47.578L39.1538 47.6115L39.2479 47.578Z" fill="#FFA600" stroke="#1D296F" stroke-width="0.288634" stroke-miterlimit="10"/>
<path d="M41.2344 47.4917C41.2037 47.483 41.1741 47.4733 41.1435 47.4657C41.1741 47.4733 41.2037 47.483 41.2344 47.4917Z" fill="#FFA600" stroke="#1D296F" stroke-width="0.288634" stroke-miterlimit="10"/>
<path d="M41.046 47.4426C41.0153 47.4362 40.9857 47.4288 40.9551 47.4235C40.9857 47.4278 41.0153 47.4362 41.046 47.4426Z" fill="#FFA600" stroke="#1D296F" stroke-width="0.288634" stroke-miterlimit="10"/>
<path d="M40.855 47.4071L40.763 47.3933L40.855 47.4071Z" fill="#FFA600" stroke="#1D296F" stroke-width="0.288634" stroke-miterlimit="10"/>
<path d="M40.6612 47.3834L40.5681 47.376L40.6612 47.3834Z" fill="#FFA600" stroke="#1D296F" stroke-width="0.288634" stroke-miterlimit="10"/>
<path d="M40.4654 47.3729H40.3702H40.4654Z" fill="#FFA600" stroke="#1D296F" stroke-width="0.288634" stroke-miterlimit="10"/>
<path d="M40.2628 47.3748H40.1666H40.2628Z" fill="#FFA600" stroke="#1D296F" stroke-width="0.288634" stroke-miterlimit="10"/>
<path d="M40.066 47.3891C40.0343 47.3891 40.0015 47.3944 39.9698 47.3986C40.0015 47.3944 40.0343 47.3923 40.066 47.3891Z" fill="#FFA600" stroke="#1D296F" stroke-width="0.288634" stroke-miterlimit="10"/>
<path d="M39.8631 47.4161L39.7669 47.432L39.8631 47.4161Z" fill="#FFA600" stroke="#1D296F" stroke-width="0.288634" stroke-miterlimit="10"/>
<path d="M39.6592 47.4577C39.6275 47.4653 39.5958 47.4708 39.5641 47.4794C39.5958 47.4708 39.6285 47.4653 39.6592 47.4577Z" fill="#FFA600" stroke="#1D296F" stroke-width="0.288634" stroke-miterlimit="10"/>
<path d="M39.4528 47.5115L39.3587 47.5385L39.4528 47.5115Z" fill="#FFA600" stroke="#1D296F" stroke-width="0.288634" stroke-miterlimit="10"/>
<path d="M38.3374 48.0371C38.36 48.0212 38.3826 48.0086 38.4052 47.9938C38.3826 48.0086 38.3589 48.0212 38.3374 48.0371Z" fill="#FFA600" stroke="#1D296F" stroke-width="0.288634" stroke-miterlimit="10"/>
<path d="M38.5401 47.9118L38.6226 47.8651L38.5401 47.9118Z" fill="#FFA600" stroke="#1D296F" stroke-width="0.288634" stroke-miterlimit="10"/>
<path d="M38.7445 47.7972L38.8333 47.754L38.7445 47.7972Z" fill="#FFA600" stroke="#1D296F" stroke-width="0.288634" stroke-miterlimit="10"/>
<path d="M38.9483 47.6973L39.0424 47.6584L38.9483 47.6973Z" fill="#FFA600" stroke="#1D296F" stroke-width="0.288634" stroke-miterlimit="10"/>
<path d="M35.8729 55.8699C35.8433 55.7939 35.8158 55.7157 35.7894 55.6364C35.8158 55.7157 35.8433 55.7917 35.8729 55.8699Z" fill="#FFA600" stroke="#1D296F" stroke-width="0.288634" stroke-miterlimit="10"/>
<path d="M35.7891 55.6363C35.8558 55.837 35.9353 56.0329 36.027 56.2228C36.4055 55.9774 36.7904 55.7449 37.1847 55.519C37.0564 55.3051 36.9522 55.077 36.8739 54.839C36.6501 54.1182 36.61 53.3504 36.7576 52.6091L38.3794 52.9273L38.8425 51.4545L37.2196 51.1286C37.5306 50.4727 37.9912 49.9036 38.5623 49.47C40.1017 48.3382 41.8399 48.9063 42.4489 50.7387C42.6026 51.2113 42.6742 51.708 42.6603 52.2061C43.0452 51.965 43.4328 51.7257 43.8233 51.4881C43.7986 50.9621 43.7036 50.442 43.541 49.9425C42.6952 47.3965 40.2815 46.6057 38.1489 48.1774C37.2534 48.8357 36.5472 49.8067 36.0936 50.8994L34.9232 50.6626L33.2929 51.8575L35.6527 52.3538C35.418 53.4639 35.4508 54.6142 35.7891 55.6363Z" fill="#FFDE63" stroke="#1D296F" stroke-width="0.288634" stroke-miterlimit="45"/>
<path d="M40.5737 41.2238C38.5839 40.558 36.2569 40.949 34.0747 42.5544C29.8615 45.6511 27.7311 52.1281 29.1763 57.231C29.3719 57.3266 31.1196 58.3976 31.7434 58.7777C31.8396 58.8364 31.9231 58.6843 31.9178 58.6691C30.2072 53.5021 32.2689 46.595 36.6079 43.4049C38.7912 41.7995 41.1171 41.4085 43.108 42.0743L40.5737 41.2238Z" fill="#FFA600" stroke="#1D296F" stroke-width="0.288634" stroke-miterlimit="10"/>
<path d="M47.5577 46.983C45.8481 41.816 40.9445 40.2117 36.6055 43.3986C32.2665 46.5855 30.1276 53.5643 31.9281 58.6998C32.0487 58.6379 32.8744 58.1828 32.9473 58.1426C31.5454 53.5436 33.1715 47.2807 36.965 44.4924C40.7584 41.7042 45.0626 43.139 46.5724 47.7021C46.7806 48.3373 46.9266 48.9922 47.008 49.6572C47.3484 49.4813 47.692 49.3129 48.0399 49.1489C47.9486 48.4125 47.7871 47.687 47.5577 46.983Z" fill="#FFDE63" stroke="#0D2875" stroke-width="0.288634" stroke-miterlimit="10"/>
<path d="M44.6211 31.9564C41.2632 34.4546 37.4317 33.2348 36.0657 29.2322C34.6997 25.2296 36.3131 19.9605 39.671 17.4622C43.0289 14.964 46.8604 16.1849 48.2264 20.1864C49.5924 24.1879 47.9811 29.4592 44.6211 31.9564Z" fill="#FFA600"/>
<path d="M43.606 31.6347C40.2481 34.133 36.4166 32.9143 35.0506 28.9117C33.6846 24.909 35.2969 19.6388 38.6559 17.1406C42.0148 14.6424 45.8453 15.8632 47.2102 19.8648C48.5752 23.8663 46.9628 29.1376 43.606 31.6347Z" fill="#FFCA00" stroke="#1D296F" stroke-width="0.281234" stroke-miterlimit="10"/>
<path d="M43.1032 27.6507C41.7415 28.6631 40.1926 28.1808 39.6439 26.5722C39.4369 25.9324 39.3928 25.2488 39.5159 24.5866L40.9697 24.8723L41.3736 23.5688L39.9293 23.2995C40.2039 22.7175 40.6103 22.2116 41.1145 21.8244C42.4752 20.8121 44.0252 21.2933 44.575 22.9008C45.1247 24.5084 44.465 26.6384 43.1032 27.6507Z" fill="#FFCA00"/>
<path d="M40.5721 29.3664C41.4623 29.6803 42.51 29.5098 43.4891 28.782C45.3805 27.3754 46.2961 24.4242 45.5328 22.1899C45.1522 21.0766 44.4269 20.3521 43.561 20.0795H43.5694L42.8177 19.8383C41.9444 19.5603 40.9263 19.7416 39.9747 20.4498C39.1693 21.0727 38.5433 21.9083 38.1636 22.8677L37.1222 22.6722L35.6801 23.7367L36.3377 23.9887L37.764 24.2385C37.5843 25.1737 37.6441 26.1408 37.9374 27.0452C38.3159 28.1553 39.038 28.8787 39.8996 29.1535L40.6514 29.3935L40.5721 29.3664ZM39.6438 26.5727C39.4362 25.933 39.3922 25.2493 39.5159 24.5871L40.9696 24.8728L41.3745 23.5487L40.6207 23.3315L39.9768 23.2055C40.2473 22.6633 40.6346 22.1915 41.1092 21.826C41.6579 21.4187 42.2362 21.2536 42.768 21.3058C43.2248 21.5665 43.6001 22.0259 43.8179 22.6635C44.3677 24.2722 43.7122 26.3967 42.3462 27.4102C41.7985 27.8175 41.2212 27.9826 40.6905 27.9294C40.2359 27.6687 39.8616 27.2092 39.6438 26.5727ZM41.0626 28.0934L41.124 28.1108L41.0626 28.0934ZM41.1821 28.127C41.2022 28.127 41.2233 28.1357 41.2434 28.1401C41.2233 28.1336 41.2022 28.1303 41.1821 28.1249V28.127ZM41.3026 28.152L41.3661 28.1618L41.3026 28.152ZM41.4253 28.1705H41.4898H41.4253ZM41.6769 28.1814H41.7435H41.6769ZM41.8038 28.1748L41.8715 28.1672L41.8038 28.1748ZM41.9328 28.1607L42.0015 28.1488L41.9328 28.1607ZM42.0618 28.1379L42.1305 28.1216L42.0618 28.1379ZM42.1918 28.1064L42.2616 28.0858L42.1918 28.1064ZM42.3229 28.0673L42.3948 28.0412L42.3229 28.0673ZM42.454 28.0195L42.5259 27.988L42.454 28.0195ZM42.9742 27.7425C43.0175 27.7143 43.0598 27.6839 43.1032 27.6524C43.0598 27.6817 43.0175 27.7121 42.9742 27.7404V27.7425ZM42.5841 27.9598C42.6084 27.9489 42.6327 27.9359 42.6559 27.9239C42.6327 27.937 42.6084 27.95 42.5893 27.9609L42.5841 27.9598ZM42.7152 27.8946L42.7892 27.8533L42.7152 27.8946ZM42.8452 27.8218L42.9308 27.7675L42.8452 27.8218ZM44.5199 22.7547C44.5136 22.7406 44.5072 22.7265 44.5019 22.7124C44.5072 22.7276 44.5136 22.7417 44.5199 22.7558V22.7547ZM44.4596 22.6146L44.4343 22.5614L44.4596 22.6146ZM44.3952 22.481C44.3846 22.4626 44.374 22.4452 44.3645 22.4267C44.374 22.4452 44.3867 22.4636 44.3952 22.4821V22.481ZM44.3243 22.3539C44.3137 22.3355 44.3021 22.3181 44.2905 22.2996C44.3021 22.3192 44.3137 22.3366 44.3243 22.355V22.3539ZM44.2492 22.2345C44.2376 22.216 44.2249 22.1997 44.2122 22.1823C44.2249 22.2008 44.2376 22.2171 44.2492 22.2355V22.2345ZM43.6011 21.5903L43.5493 21.5599L43.6011 21.5903ZM44.1689 22.1215C44.1562 22.1041 44.1425 22.0878 44.1298 22.0715C44.1425 22.0889 44.1562 22.1052 44.1689 22.1193V22.1215ZM44.0843 22.0129C44.0706 21.9966 44.0568 21.9814 44.042 21.9662C44.0568 21.9846 44.0695 21.9998 44.0843 22.0161V22.0129ZM43.9955 21.914L43.9511 21.8695L43.9955 21.914ZM43.9025 21.8217L43.8559 21.7804L43.9025 21.8217ZM43.8052 21.737C43.7904 21.7239 43.7735 21.712 43.7576 21.7001C43.7735 21.7153 43.7904 21.7272 43.8052 21.7402V21.737ZM43.6995 21.6588C43.6836 21.6468 43.6667 21.636 43.6498 21.6251C43.672 21.6392 43.6889 21.6501 43.7048 21.662L43.6995 21.6588ZM43.2089 21.4014L43.2649 21.422L43.2089 21.4014ZM43.3241 21.4459L43.3781 21.4698L43.3241 21.4459ZM43.4299 21.498L43.4827 21.5252L43.4299 21.498ZM41.7023 20.149L41.6177 20.1794L41.7023 20.149ZM43.4658 20.0523C43.4394 20.0447 43.413 20.036 43.3855 20.0295C43.4235 20.0393 43.45 20.048 43.4764 20.0556L43.4658 20.0523ZM43.2988 20.011C43.2713 20.0056 43.2448 19.9991 43.2174 19.9947C43.2554 20.0023 43.2818 20.0089 43.3093 20.0143L43.2988 20.011ZM43.1285 19.9817L43.0461 19.9697L43.1285 19.9817ZM42.9562 19.9632L42.8737 19.9567L42.9562 19.9632ZM42.7818 19.9556C42.7543 19.9556 42.7257 19.9556 42.6982 19.9556C42.7363 19.9567 42.7648 19.9589 42.7923 19.9589L42.7818 19.9556ZM42.6062 19.9556H42.5206H42.6062ZM42.4276 19.9708L42.3419 19.9806L42.4276 19.9708ZM42.2478 19.9969C42.2193 20.0023 42.1907 20.0056 42.1622 20.0121C42.2013 20.0121 42.2299 20.0089 42.2584 20.0034L42.2478 19.9969ZM42.066 20.0349L41.9814 20.0556L42.066 20.0349ZM41.8831 20.0849C41.8556 20.0925 41.8281 20.1001 41.7996 20.1099C41.8387 20.1066 41.8662 20.099 41.8937 20.0914L41.8831 20.0849ZM40.8945 20.5606L40.9569 20.5204L40.8945 20.5606ZM41.0743 20.452C41.0986 20.4368 41.124 20.4238 41.1483 20.4097C41.1345 20.4249 41.1092 20.4379 41.0848 20.4531L41.0743 20.452ZM41.2551 20.3499C41.2815 20.3358 41.3079 20.3238 41.3344 20.3108C41.3206 20.3249 41.2921 20.3369 41.2656 20.351L41.2551 20.3499ZM41.4369 20.2598L41.5194 20.2239L41.4369 20.2598ZM38.7483 27.4884C38.7218 27.4221 38.6965 27.3537 38.6732 27.2842C38.707 27.3548 38.7324 27.4232 38.7589 27.4894L38.7483 27.4884ZM39.0655 28.1194C39.0845 28.1509 39.1035 28.1824 39.1236 28.2118C39.1151 28.1835 39.1004 28.152 39.0771 28.1205L39.0655 28.1194ZM38.7768 27.5568C38.7948 27.5992 38.8117 27.6426 38.8307 27.6828C38.8233 27.6437 38.8064 27.6002 38.7885 27.5579L38.7768 27.5568ZM38.8656 27.7545C38.8836 27.7925 38.9016 27.8316 38.9217 27.8685C38.9132 27.8327 38.8952 27.7936 38.8773 27.7556L38.8656 27.7545ZM38.9608 27.9413C38.9798 27.9761 38.9988 28.0119 39.0189 28.0499C39.0105 28.013 38.9946 27.9771 38.9724 27.9424L38.9608 27.9413ZM40.4833 29.3381L40.4008 29.3034L40.4833 29.3381ZM40.3257 29.2719L40.2464 29.2317L40.3257 29.2719ZM40.1724 29.1937C40.146 29.1796 40.1206 29.1644 40.0952 29.1491C40.1322 29.1654 40.1576 29.1796 40.184 29.1948L40.1724 29.1937ZM40.0233 29.1068L39.9483 29.0557L40.0233 29.1068ZM39.8796 29.009L39.8055 28.9525L39.8796 29.009ZM39.74 28.9004C39.7157 28.8809 39.6924 28.8591 39.6681 28.8385C39.704 28.8602 39.7273 28.8819 39.7516 28.9015L39.74 28.9004ZM39.6047 28.7831L39.5359 28.7147L39.6047 28.7831ZM39.4757 28.6549L39.4091 28.5811L39.4757 28.6549ZM39.352 28.517L39.2885 28.4377L39.352 28.517ZM39.2346 28.3693L39.1744 28.2845L39.2346 28.3693Z" fill="#FFA600" stroke="#1D296F" stroke-width="0.281234" stroke-miterlimit="10"/>
<path d="M38.5315 24.3931L36.4318 23.9804L37.8749 22.9159L38.9153 23.1114C39.2951 22.152 39.921 21.3164 40.7264 20.6935C42.6178 19.2869 44.7704 19.9571 45.5327 22.1903C46.295 24.4235 45.3805 27.3758 43.4901 28.7824C41.5997 30.189 39.4471 29.5199 38.6837 27.2856C38.3839 26.3525 38.3313 25.3541 38.5315 24.3931ZM39.5274 24.6103C39.4 25.2639 39.4401 25.9402 39.6437 26.5731C40.1925 28.1817 41.7414 28.664 43.1031 27.6517C44.4649 26.6393 45.1267 24.5093 44.5748 22.9028C44.023 21.2964 42.4751 20.8163 41.1144 21.8264C40.6102 22.2136 40.2037 22.7195 39.9292 23.3015L41.3734 23.5709L40.9696 24.8743L39.5274 24.6103Z" fill="#FFDE63" stroke="#1D296F" stroke-width="0.281234" stroke-miterlimit="45"/>
<path d="M39.1814 34.1569L36.9252 33.4378C35.1754 32.8795 33.7111 31.411 32.9414 29.1593C31.3936 24.6266 33.2491 18.6439 37.0912 15.7829C39.0218 14.3469 41.0866 13.9776 42.8586 14.5424L45.1148 15.2626C43.3428 14.6967 41.278 15.066 39.3474 16.503C35.5095 19.3575 33.654 25.3468 35.2019 29.8784C35.9673 32.13 37.4316 33.5986 39.1814 34.1569Z" fill="#FFA600" stroke="#1D296F" stroke-width="0.281234" stroke-miterlimit="10"/>
<path d="M44.9489 32.9162C41.1121 35.7707 36.7456 34.4108 35.1978 29.8749C33.6499 25.339 35.5054 19.3573 39.3433 16.5028C43.1812 13.6483 47.5467 15.0082 49.0945 19.5441C50.6423 24.0801 48.7868 30.0617 44.9489 32.9162ZM39.6711 17.4619C36.3132 19.9601 34.7019 25.2303 36.0658 29.2319C37.4297 33.2334 41.2633 34.4543 44.6212 31.956C47.9791 29.4578 49.5904 24.1887 48.2265 20.1861C46.8626 16.1835 43.029 14.9648 39.6711 17.4619Z" fill="#FFDE63" stroke="#0D2875" stroke-width="0.281234" stroke-miterlimit="10"/>
<path d="M64.108 16.9061C61.0852 19.1546 57.6385 18.0564 56.4079 14.4546C55.1772 10.8528 56.6299 6.10941 59.6526 3.861C62.6753 1.61258 66.121 2.71072 67.3516 6.31362C68.5823 9.91651 67.1296 14.6577 64.108 16.9061Z" fill="#FFA600"/>
<path d="M63.1931 16.6171C60.1715 18.8644 56.7237 17.7673 55.493 14.1655C54.2624 10.5637 55.7161 5.82031 58.7378 3.57189C61.7595 1.32347 65.2072 2.42161 66.4368 6.02342C67.6664 9.62523 66.2148 14.3686 63.1931 16.6171Z" fill="#FFCA00" stroke="#1D296F" stroke-width="0.252687" stroke-miterlimit="10"/>
<path d="M62.741 13.0311C61.5156 13.9424 60.1221 13.5079 59.6273 12.06C59.4409 11.4843 59.4012 10.8692 59.5121 10.2732L60.821 10.5307L61.1836 9.35866L59.8842 9.11753C60.1311 8.59359 60.4969 8.13835 60.951 7.7902C62.1753 6.8778 63.5709 7.31119 64.0647 8.75908C64.5584 10.207 63.9663 12.1198 62.741 13.0311Z" fill="#FFCA00"/>
<path d="M60.4625 14.5764C61.2639 14.8578 62.207 14.7046 63.0888 14.0496C64.792 12.7788 65.6146 10.1274 64.9274 8.11686C64.5848 7.11431 63.9325 6.46259 63.1533 6.21711H63.1607L62.484 5.99988C61.6974 5.74897 60.7818 5.91298 59.9254 6.55058C59.2006 7.10976 58.6372 7.86058 58.2951 8.72296L57.3584 8.54699L56.0601 9.50501L56.6511 9.73745L57.9346 9.9623C57.7717 10.8026 57.8238 11.672 58.0858 12.4855C58.4262 13.4837 59.0765 14.1354 59.8514 14.3831L60.5281 14.6003L60.4625 14.5764ZM59.6273 12.0597C59.4404 11.4841 59.4007 10.8688 59.512 10.2729L60.8199 10.5304L61.1846 9.33557L60.5069 9.13897L59.9265 9.03035C60.1708 8.5404 60.5213 8.11456 60.951 7.78557C61.4437 7.41844 61.9639 7.26963 62.4428 7.31743C62.8949 7.59118 63.2318 8.02788 63.388 8.54264C63.8828 9.99054 63.2886 11.9033 62.0632 12.8146C61.5705 13.1818 61.0504 13.3295 60.5725 13.2828C60.1212 13.009 59.7845 12.5733 59.6273 12.0597ZM60.9045 13.4305L60.9594 13.4457L60.9045 13.4305ZM61.0112 13.4598C61.0297 13.4648 61.0484 13.4688 61.0673 13.4718C61.0484 13.4681 61.0297 13.4634 61.0112 13.4577V13.4598ZM61.117 13.4826C61.1358 13.4866 61.1549 13.4895 61.1741 13.4913L61.117 13.4826ZM61.228 13.4989H61.2861H61.228ZM61.4532 13.5087H61.5145H61.4532ZM61.5684 13.5087L61.6298 13.5022L61.5684 13.5087ZM61.6837 13.4957L61.7461 13.4848L61.6837 13.4957ZM61.801 13.475L61.8623 13.4609L61.801 13.475ZM61.9173 13.4468L61.9808 13.4283L61.9173 13.4468ZM62.0357 13.412L62.1002 13.3881L62.0357 13.412ZM62.1531 13.3686L62.2186 13.3403L62.1531 13.3686ZM62.6215 13.1198C62.6606 13.0938 62.6987 13.0666 62.7378 13.0384C62.7018 13.059 62.6638 13.0862 62.6246 13.1122L62.6215 13.1198ZM62.2705 13.3186L62.336 13.286L62.2705 13.3186ZM62.3878 13.26C62.4111 13.248 62.4333 13.235 62.4555 13.222C62.4365 13.2274 62.4142 13.2404 62.391 13.2524L62.3878 13.26ZM62.5052 13.1937L62.5823 13.1448L62.5052 13.1937ZM64.0128 8.63172C64.0128 8.61868 64.0012 8.60674 63.9959 8.5937C64.0044 8.6013 64.0107 8.61325 64.016 8.62629L64.0128 8.63172ZM63.9589 8.50571C63.9515 8.48942 63.9431 8.47422 63.9357 8.45793C63.9462 8.46879 63.9547 8.484 63.9621 8.50029L63.9589 8.50571ZM63.8997 8.38515C63.8912 8.36886 63.8817 8.35257 63.8722 8.33627C63.8849 8.34714 63.8944 8.36343 63.9029 8.37972L63.8997 8.38515ZM63.8363 8.27109C63.8268 8.2548 63.8162 8.23852 63.8056 8.22222C63.8194 8.23309 63.8299 8.24938 63.8405 8.26567L63.8363 8.27109ZM63.7686 8.16248C63.758 8.14619 63.7475 8.13098 63.7358 8.11578C63.7506 8.12664 63.7612 8.14184 63.7718 8.15813L63.7686 8.16248ZM63.1861 7.58246L63.1395 7.5553L63.1861 7.58246ZM63.6967 8.06038L63.6618 8.01584L63.6967 8.06038ZM63.6206 7.9648C63.609 7.94959 63.5952 7.93655 63.5825 7.92243C63.5984 7.93221 63.6121 7.94525 63.629 7.96045L63.6206 7.9648ZM63.5402 7.87573L63.5011 7.83554L63.5402 7.87573ZM63.4567 7.79209L63.4155 7.75625L63.4567 7.79209ZM63.37 7.71606C63.3563 7.70411 63.3415 7.69434 63.3267 7.68239C63.3446 7.68999 63.3594 7.69977 63.3732 7.71171L63.37 7.71606ZM63.2791 7.64654L63.2347 7.61613L63.2791 7.64654ZM62.8382 7.41518L62.8879 7.43256L62.8382 7.41518ZM62.9439 7.45429L62.9936 7.47601L62.9439 7.45429ZM63.0497 7.50208C63.0655 7.50968 63.0824 7.51729 63.0972 7.52598C63.0771 7.51294 63.0602 7.50534 63.0444 7.49773L63.0497 7.50208ZM61.4944 6.28663C61.469 6.29641 61.4447 6.30401 61.4194 6.31487L61.4944 6.28663ZM63.0803 6.19974C63.056 6.19322 63.0317 6.18562 63.0074 6.18018C63.0285 6.18127 63.0528 6.18887 63.0772 6.19539L63.0803 6.19974ZM62.9291 6.16281L62.8562 6.14869L62.9291 6.16281ZM62.7769 6.13674L62.7029 6.12588L62.7769 6.13674ZM62.6215 6.11936L62.5464 6.11393L62.6215 6.11936ZM62.3064 6.11284H62.2292H62.3064ZM62.1457 6.12588L62.0685 6.13456L62.1457 6.12588ZM61.9829 6.14977L61.9068 6.16389L61.9829 6.14977ZM61.8201 6.18453L61.7439 6.20191L61.8201 6.18453ZM61.6551 6.22906C61.6308 6.23667 61.6054 6.24318 61.5811 6.25187C61.6023 6.2421 61.6276 6.23558 61.652 6.22798L61.6551 6.22906ZM60.766 6.65702L60.822 6.62118L60.766 6.65702ZM60.9277 6.55383L60.9943 6.5169L60.9277 6.55383ZM61.0905 6.4626C61.1138 6.44956 61.1381 6.4387 61.1614 6.42675C61.1349 6.43761 61.1106 6.44847 61.0916 6.46151L61.0905 6.4626ZM61.2534 6.38113L61.3284 6.34963L61.2534 6.38113ZM58.8312 12.8874C58.8068 12.8277 58.7846 12.7657 58.7635 12.7038C58.7846 12.7647 58.8068 12.8266 58.8312 12.8874ZM59.1177 13.4555C59.1346 13.4837 59.1515 13.512 59.1695 13.538C59.1515 13.5109 59.1346 13.4826 59.1177 13.4544V13.4555ZM58.8576 12.9493C58.8735 12.9873 58.8893 13.0254 58.9062 13.0579C58.8893 13.0243 58.8713 12.9862 58.8576 12.9482V12.9493ZM58.9369 13.1264C58.9538 13.1611 58.9697 13.1959 58.9876 13.2296C58.9697 13.1948 58.9538 13.16 58.9369 13.1253V13.1264ZM59.0236 13.2947C59.0405 13.3262 59.0574 13.3577 59.0754 13.3881C59.0574 13.3566 59.0405 13.3219 59.0236 13.2936V13.2947ZM60.3927 14.5525L60.3198 14.521L60.3927 14.5525ZM60.2521 14.4917C60.2278 14.4808 60.2035 14.4678 60.1802 14.4559C60.2035 14.4667 60.2278 14.4798 60.2521 14.4906V14.4917ZM60.1136 14.4222L60.0439 14.382L60.1136 14.4222ZM59.9794 14.344L59.9117 14.2973L59.9794 14.344ZM59.8493 14.256L59.7838 14.205L59.8493 14.256ZM59.7235 14.1582L59.6601 14.1029L59.7235 14.1582ZM59.603 14.0496L59.5406 13.9888L59.603 14.0496ZM59.4867 13.9345C59.4666 13.9139 59.4465 13.89 59.4264 13.8682C59.4465 13.891 59.4666 13.9149 59.4867 13.9356V13.9345ZM59.3757 13.8107C59.3556 13.7879 59.3376 13.7629 59.3186 13.739C59.3376 13.764 59.3556 13.7889 59.3757 13.8118V13.8107ZM59.2699 13.6782C59.2509 13.6532 59.2329 13.6271 59.215 13.601C59.2329 13.6282 59.2509 13.6543 59.2699 13.6792V13.6782Z" fill="#FFA600" stroke="#1D296F" stroke-width="0.252687" stroke-miterlimit="10"/>
<path d="M58.6266 10.0989L56.7362 9.72747L58.0346 8.76945L58.9713 8.94541C59.3141 8.0835 59.8774 7.33287 60.6016 6.77303C62.3028 5.50762 64.2407 6.11154 64.9269 8.12099C65.6131 10.1304 64.7895 12.7916 63.0883 14.0538C61.3872 15.3159 59.4502 14.7174 58.763 12.7069C58.4925 11.8655 58.4455 10.9652 58.6266 10.0989ZM59.5221 10.2934C59.4077 10.8815 59.4441 11.4902 59.6279 12.0595C60.1227 13.5074 61.5161 13.9419 62.7415 13.0306C63.9669 12.1193 64.56 10.2065 64.0652 8.75859C63.5704 7.31069 62.1759 6.87839 60.9516 7.7897C60.4975 8.13785 60.1316 8.59309 59.8848 9.11703L61.1842 9.35816L60.8215 10.5302L59.5221 10.2934Z" fill="#FFDE63" stroke="#1D296F" stroke-width="0.252687" stroke-miterlimit="45"/>
<path d="M59.2104 18.8863L57.1804 18.2346C55.6051 17.7328 54.2877 16.4109 53.5952 14.3841C52.2017 10.3054 53.8722 4.91574 57.3263 2.34581C59.0644 1.05325 60.921 0.716525 62.5175 1.22921L64.5474 1.88092C62.9531 1.37367 61.0912 1.70496 59.3573 3.00296C55.9032 5.57289 54.2327 10.9626 55.6262 15.0412C56.3177 17.0626 57.6361 18.3845 59.2104 18.8863Z" fill="#FFA600" stroke="#1D296F" stroke-width="0.252687" stroke-miterlimit="10"/>
<path d="M64.4029 17.775C60.9488 20.345 57.0189 19.1197 55.6276 15.0411C54.2362 10.9625 55.9035 5.56735 59.3576 3.00285C62.8117 0.438352 66.7395 1.65815 68.133 5.73679C69.5264 9.81544 67.8581 15.2008 64.4029 17.775ZM59.6526 3.8718C56.6299 6.12022 55.1772 10.8636 56.4078 14.4654C57.6385 18.0672 61.0852 19.1545 64.1079 16.9061C67.1307 14.6577 68.5823 9.91537 67.3516 6.31356C66.121 2.71175 62.6774 1.61361 59.6526 3.86094" fill="#FFDE63"/>
<path d="M59.6526 3.8718C56.6299 6.12022 55.1772 10.8636 56.4078 14.4654C57.6385 18.0672 61.0852 19.1545 64.1079 16.9061C67.1307 14.6577 68.5823 9.91537 67.3516 6.31356C66.121 2.71175 62.6774 1.61361 59.6526 3.86094V3.8718ZM64.4029 17.775C60.9488 20.345 57.0189 19.1197 55.6276 15.0411C54.2362 10.9625 55.9035 5.56735 59.3576 3.00285C62.8117 0.438352 66.7395 1.65815 68.133 5.73679C69.5264 9.81544 67.8581 15.2008 64.4029 17.775Z" stroke="#0D2875" stroke-width="0.252687" stroke-miterlimit="10"/>
</g>
<defs>
<filter id="filter0_f_1_2" x="-0.165257" y="50" width="72.2694" height="46.2747" filterUnits="userSpaceOnUse" color-interpolation-filters="sRGB">
<feFlood flood-opacity="0" result="BackgroundImageFix"/>
<feBlend mode="normal" in="SourceGraphic" in2="BackgroundImageFix" result="shape"/>
<feGaussianBlur stdDeviation="2" result="effect1_foregroundBlur_1_2"/>
</filter>
<clipPath id="clip0_1_2">
<rect width="72" height="98" fill="white"/>
</clipPath>
</defs>
</svg>