<svg viewBox="0 0 192 192" xmlns="http://www.w3.org/2000/svg"><path d="M42.462 164c-4.041 0-7.462-1.4-10.262-4.2-2.8-2.8-4.2-6.221-4.2-10.262V42.462C28 38.421 29.4 35 32.2 32.2 35 29.4 38.421 28 42.462 28h107.076c4.041 0 7.462 1.4 10.262 4.2s4.2 6.221 4.2 10.262v107.076c0 4.041-1.4 7.462-4.2 10.262s-6.221 4.2-10.262 4.2H42.462zm0-12h107.076c.615 0 1.18-.256 1.693-.769.513-.513.769-1.077.769-1.693V42.462c0-.615-.256-1.18-.769-1.693-.513-.513-1.077-.769-1.693-.769H42.462c-.615 0-1.18.256-1.693.769-.513.513-.769 1.077-.769 1.693v107.076c0 .615.256 1.18.769 1.693.513.513 1.077.769 1.693.769zM40 40v112V40z"/><path d="M80 118.5c-6.25 0-11.563-2.189-15.938-6.568-4.375-4.378-6.562-9.695-6.562-15.95 0-6.255 2.187-11.566 6.562-15.932C68.437 75.683 73.75 73.5 80 73.5h4c1.589 0 2.903.521 3.942 1.562 1.039 1.041 1.558 2.358 1.558 3.95s-.519 2.905-1.558 3.938C86.903 83.983 85.589 84.5 84 84.5h-4c-3.194 0-5.91 1.119-8.146 3.356-2.236 2.237-3.354 4.954-3.354 8.15 0 3.196 1.118 5.911 3.354 8.144 2.236 2.233 4.951 3.35 8.146 3.35h4c1.589 0 2.903.521 3.942 1.562 1.039 1.041 1.558 2.358 1.558 3.95s-.519 2.905-1.558 3.938c-1.039 1.033-2.353 1.55-3.942 1.55h-4zm32 0h-4c-1.589 0-2.903-.521-3.942-1.562-1.039-1.041-1.558-2.358-1.558-3.95s.519-2.905 1.558-3.938c1.039-1.033 2.353-1.55 3.942-1.55h4c3.194 0 5.91-1.119 8.146-3.356 2.236-2.237 3.354-4.954 3.354-8.15 0-3.196-1.118-5.911-3.354-8.144-2.236-2.233-4.951-3.35-8.146-3.35h-4c-1.589 0-2.903-.521-3.942-1.562-1.039-1.041-1.558-2.358-1.558-3.95s.519-2.905 1.558-3.938c1.039-1.033 2.353-1.55 3.942-1.55h4c6.25 0 11.563 2.189 15.938 6.568 4.375 4.378 6.562 9.695 6.562 15.95 0 6.255-2.187 11.566-6.562 15.932-4.375 4.367-9.688 6.55-15.938 6.55z"/><path d="M106 101.5H86c-1.589 0-2.903-.521-3.942-1.562-1.039-1.041-1.558-2.358-1.558-3.95s.519-2.905 1.558-3.938c1.039-1.033 2.353-1.55 3.942-1.55h20c1.589 0 2.903.521 3.942 1.562 1.039 1.041 1.558 2.358 1.558 3.95s-.519 2.905-1.558 3.938c-1.039 1.033-2.353 1.55-3.942 1.55z"/></svg>