<svg viewBox="0 0 192 192" xmlns="http://www.w3.org/2000/svg"><path d="M96 116.107c-1.703 0-3.128-.574-4.277-1.723-1.148-1.148-1.723-2.574-1.723-4.276V27.861L79.338 38.523c-1.108 1.108-2.467 1.661-4.077 1.661-1.61 0-3.036-.62-4.277-1.861-1.159-1.241-1.739-2.667-1.739-4.277 0-1.61.58-2.995 1.739-4.154L90.939 9.939a6.808 6.808 0 012.308-1.523 7.342 7.342 0 012.754-.523c.964 0 1.882.174 2.754.523a6.808 6.808 0 012.308 1.523l20.031 20.031c1.19 1.19 1.785 2.61 1.785 4.261s-.621 3.056-1.862 4.215c-1.241 1.159-2.667 1.738-4.277 1.738-1.61 0-2.995-.579-4.154-1.738L102 27.861v82.246c0 1.703-.574 3.128-1.723 4.277s-2.574 1.723-4.277 1.723zm-45.538 51c-4.041 0-7.462-1.4-10.262-4.2-2.8-2.8-4.2-6.221-4.2-10.262V69.569c0-4.041 1.4-7.462 4.2-10.262 2.8-2.8 6.221-4.2 10.262-4.2h14.461c1.703 0 3.128.574 4.277 1.723s1.723 2.574 1.723 4.277c0 1.703-.574 3.128-1.723 4.277s-2.574 1.723-4.277 1.723H50.462c-.615 0-1.18.256-1.693.769-.513.514-.769 1.078-.769 1.693v83.076c0 .615.256 1.18.769 1.693.513.513 1.077.769 1.693.769h91.076c.615 0 1.18-.256 1.693-.769.513-.513.769-1.077.769-1.693V69.569c0-.615-.256-1.18-.769-1.693-.513-.513-1.077-.769-1.693-.769h-14.461c-1.703 0-3.128-.574-4.277-1.723s-1.723-2.574-1.723-4.277c0-1.703.574-3.128 1.723-4.277s2.574-1.723 4.277-1.723h14.461c4.041 0 7.462 1.4 10.262 4.2 2.8 2.8 4.2 6.221 4.2 10.262v83.076c0 4.041-1.4 7.462-4.2 10.262-2.8 2.8-6.221 4.2-10.262 4.2H50.462z"/></svg>