<svg viewBox="0 0 192 192" xmlns="http://www.w3.org/2000/svg"><path d="M95.95 115.7c-2.067 0-3.833-.733-5.3-2.2s-2.2-3.233-2.2-5.3V29.1l-7.8 7.8c-1.467 1.467-3.2 2.167-5.2 2.1s-3.733-.833-5.2-2.3c-1.467-1.533-2.2-3.317-2.2-5.35s.724-3.774 2.172-5.222l20.54-20.54a6.963 6.963 0 012.357-1.538 7.523 7.523 0 012.83-.55 7.52 7.52 0 012.83.55c.913.367 1.7.88 2.36 1.541L121.75 26.2c1.467 1.478 2.2 3.264 2.2 5.359 0 2.094-.733 3.841-2.2 5.241-1.533 1.467-3.317 2.2-5.35 2.2-2.033 0-3.783-.733-5.25-2.2l-7.7-7.7v79.1c0 2.067-.733 3.833-2.2 5.3-1.467 1.467-3.233 2.2-5.3 2.2zm-47.2 51.8c-4.125 0-7.656-1.469-10.594-4.406-2.937-2.937-4.406-6.469-4.406-10.594V65.8c0-4.125 1.469-7.656 4.406-10.594S44.625 50.8 48.75 50.8h17.2c2.067 0 3.833.733 5.3 2.2s2.2 3.233 2.2 5.3-.733 3.833-2.2 5.3-3.233 2.2-5.3 2.2h-17.2v86.7h94.5V65.8h-17.3c-2.067 0-3.833-.733-5.3-2.2-1.467-1.467-2.2-3.233-2.2-5.3s.733-3.833 2.2-5.3c1.467-1.467 3.233-2.2 5.3-2.2h17.3c4.125 0 7.656 1.469 10.594 4.406 2.937 2.937 4.406 6.469 4.406 10.594v86.7c0 4.125-1.469 7.656-4.406 10.594-2.937 2.937-6.469 4.406-10.594 4.406h-94.5z"/></svg>