<svg width="48" height="48" viewBox="0 0 192 192" xmlns="http://www.w3.org/2000/svg"><path d="M178.5 96c0-45.564-36.936-82.5-82.5-82.5S13.5 50.436 13.5 96s36.936 82.5 82.5 82.5 82.5-36.936 82.5-82.5z" fill="none" stroke="#80d07f" stroke-width="11.344" stroke-miterlimit="10"/><path d="M107.436 83.714c-1.473-2.087-3.689-3.48-7.746-3.48h-7.103v34.79h7.103c4.057 0 6.273-1.393 7.746-3.478 1.293-1.74 1.754-3.392 1.754-13.918 0-10.436-.461-12.174-1.754-13.914zm14.67 34.44c-4.521 6.872-11.441 10.438-21.309 10.438H76.444V66.667h24.353c9.868 0 16.788 3.566 21.309 10.436 3.227 4.956 3.227 9.827 3.227 20.525 0 10.699 0 15.568-3.227 20.526" fill="#80d07f"/></svg>