<svg width="48" height="48" viewBox="0 0 192 192" xmlns="http://www.w3.org/2000/svg"><g fill="#38F"><path d="M75.13 62.39c10.601 0 19.167-12.163 19.167-27.203C94.297 20.16 85.731 8 75.13 8 64.542 8 55.953 20.16 55.953 35.187c0 15.04 8.59 27.203 19.177 27.203m45.656 1.8c14.175 1.83 23.286-13.245 25.097-24.67 1.847-11.407-7.297-24.667-17.327-26.945-10.056-2.297-22.608 13.755-23.75 24.223-1.366 12.794 1.84 25.572 15.98 27.391m-81.288 36.554c19.193-4.113 16.583-26.98 16.01-31.983-.946-7.708-10.037-21.172-22.385-20.11C17.588 50.038 15.32 72.41 15.32 72.41c-2.103 10.345 5.028 32.445 24.18 28.333m137.461-17.37c0-5.462-4.55-21.926-21.446-21.926-16.927 0-19.187 15.535-19.187 26.517 0 10.484.886 25.116 21.907 24.65 21.028-.459 18.726-23.744 18.726-29.24M59.88 140.52c-.562 1.608-1.818 5.721-.734 9.303 2.15 8.031 9.147 8.394 9.147 8.394h10.05V133.72H67.574c-4.835 1.44-7.172 5.19-7.695 6.801"/><path d="M136.312 167.895H107.6c-11.124-2.86-11.653-10.74-11.653-10.74v-31.658l11.653-.188v28.456c.711 3.03 4.492 3.58 4.492 3.58h11.834v-31.848h12.387v42.398zm-46.475.172H64.89c-10.776-2.139-15.068-9.474-15.613-10.723-.536-1.268-3.583-7.16-1.967-17.182 4.658-15.024 17.94-16.105 17.94-16.105h13.282v-16.273l11.306.171v60.112zm65.677-36.71s-21.926-16.91-34.728-35.186C103.44 69.223 78.791 80.19 70.55 93.892c-8.206 13.704-20.998 22.372-22.822 24.666-1.837 2.262-26.477 15.52-21.008 39.742 5.47 24.21 24.68 23.741 24.68 23.741s14.158 1.391 30.588-2.275c16.424-3.63 30.577.906 30.577.906s38.38 12.814 48.877-11.856c10.494-24.665-5.927-37.459-5.927-37.459z"/></g></svg>