<svg width="48" height="48" viewBox="0 0 192 192" xmlns="http://www.w3.org/2000/svg"><linearGradient id="a" gradientUnits="userSpaceOnUse" x1="55.728" y1="155.539" x2="70.74" y2="146.872" gradientTransform="matrix(5.5556 0 0 -5.5556 -210 958.667)"><stop offset="0" stop-color="#37BDFF"/><stop offset=".183" stop-color="#33BFFD"/><stop offset=".358" stop-color="#28C5F5"/><stop offset=".528" stop-color="#15D0E9"/><stop offset=".547" stop-color="#12D1E7"/><stop offset=".59" stop-color="#1CD2E5"/><stop offset=".768" stop-color="#42D8DC"/><stop offset=".911" stop-color="#59DBD6"/><stop offset="1" stop-color="#62DCD4"/></linearGradient><path d="M155.963 120.988c0 1.745-.095 3.483-.282 5.196-1.129 10.435-5.647 19.877-12.448 27.177a21.72 21.72 0 002.306-3.069c.521-.832.986-1.698 1.379-2.603.143-.297.271-.605.378-.913.132-.297.238-.609.334-.917.106-.282.202-.583.286-.88.081-.308.165-.616.235-.924.015-.037.026-.073.037-.11.073-.308.128-.616.191-.924.059-.323.121-.645.165-.964v-.022c.048-.297.084-.594.11-.906.07-.7.106-1.401.106-2.116 0-4.015-1.107-7.788-3.043-10.996a19.083 19.083 0 00-1.463-2.138 20.12 20.12 0 00-2.042-2.27 21.268 21.268 0 00-6.336-4.246 19.922 19.922 0 00-3.186-1.093c-.011 0-.033-.015-.048-.015l-.378-.128-5.54-1.903v-.011l-14.491-4.983c-.048-.011-.106-.011-.143-.022l-.906-.334a13.443 13.443 0 01-6.835-6.002L99.06 91.38l-6.065-15.455-1.166-2.985-.297-.609a6.867 6.867 0 01-.513-2.603c0-.235 0-.473.026-.689.345-3.399 3.234-6.065 6.728-6.065a6.72 6.72 0 012.629.535l27.005 13.849 5.324 2.721a46.87 46.87 0 017.847 5.874c8.701 7.99 14.41 19.188 15.264 31.709.073 1.104.121 2.208.121 3.326z" fill="url(#a)"/><linearGradient id="b" gradientUnits="userSpaceOnUse" x1="46.462" y1="145.369" x2="68.309" y2="145.369" gradientTransform="matrix(5.5556 0 0 -5.5556 -210 958.667)"><stop offset="0" stop-color="#39D2FF"/><stop offset=".15" stop-color="#38CEFE"/><stop offset=".293" stop-color="#35C3FA"/><stop offset=".433" stop-color="#2FB0F3"/><stop offset=".547" stop-color="#299AEB"/><stop offset=".583" stop-color="#2692EC"/><stop offset=".763" stop-color="#1A6CF1"/><stop offset=".909" stop-color="#1355F4"/><stop offset="1" stop-color="#104CF5"/></linearGradient><path d="M148.747 139.014c0 1.379-.128 2.71-.37 4.008-.07.345-.139.689-.224 1.034-.154.616-.319 1.21-.521 1.804-.11.312-.216.62-.334.917-.121.308-.249.605-.378.913a19.622 19.622 0 01-1.382 2.603 21.493 21.493 0 01-2.306 3.069c-3.934 4.352-17.299 12.111-22.224 15.264l-10.93 6.681c-8.012 4.939-15.587 8.43-25.135 8.668-.451.015-.891.026-1.331.026-.616 0-1.225-.011-1.83-.033-16.17-.62-30.268-9.299-38.401-22.125a46.978 46.978 0 01-7.014-19.818c1.749 9.878 10.358 17.369 20.735 17.369 3.641 0 7.051-.917 10.036-2.534.022-.015.048-.026.073-.037l1.067-.642 4.352-2.567 5.54-3.282v-.154l.715-.429 49.566-29.363 3.813-2.259.381.128c.011 0 .033.015.048.015 1.093.271 2.163.642 3.183 1.093a21.217 21.217 0 016.336 4.246 20.73 20.73 0 012.046 2.27 18.704 18.704 0 011.459 2.138 21.353 21.353 0 013.03 10.997z" fill="url(#b)"/><linearGradient id="c" gradientUnits="userSpaceOnUse" x1="48.08" y1="139.804" x2="48.08" y2="169.018" gradientTransform="matrix(5.5556 0 0 -5.5556 -210 958.667)"><stop offset="0" stop-color="#1B48EF"/><stop offset=".122" stop-color="#1C51F0"/><stop offset=".321" stop-color="#1E69F5"/><stop offset=".568" stop-color="#2190FB"/><stop offset="1" stop-color="#26B8F4"/></linearGradient><path d="M78.185 41.015l-.018 109.314-5.54 3.282-4.356 2.567-1.071.649c-.018 0-.048.018-.066.033a21.082 21.082 0 01-10.039 2.534c-10.38 0-18.975-7.487-20.731-17.369a19.812 19.812 0 01-.198-1.379 50.46 50.46 0 01-.128-2.57V15.051a7.056 7.056 0 0111-5.848l21.556 14.084c.117.099.242.183.378.26a21.094 21.094 0 019.213 17.468z" fill="url(#c)"/><linearGradient id="d" gradientUnits="userSpaceOnUse" x1="47.564" y1="139.574" x2="61.047" y2="153.056" gradientTransform="matrix(5.5556 0 0 -5.5556 -210 958.667)"><stop offset="0" stop-color="#FFF"/><stop offset=".373" stop-color="#FDFDFD"/><stop offset=".507" stop-color="#F6F6F6"/><stop offset=".603" stop-color="#EBEBEB"/><stop offset=".68" stop-color="#DADADA"/><stop offset=".746" stop-color="#C4C4C4"/><stop offset=".805" stop-color="#A8A8A8"/><stop offset=".858" stop-color="#888"/><stop offset=".907" stop-color="#626262"/><stop offset=".952" stop-color="#373737"/><stop offset=".993" stop-color="#090909"/><stop offset="1"/></linearGradient><path d="M148.747 139.014c0 1.379-.128 2.71-.37 4.008-.07.345-.139.689-.224 1.034-.154.616-.319 1.21-.521 1.804-.11.312-.216.62-.334.917-.121.308-.249.605-.378.913a19.622 19.622 0 01-1.382 2.603 21.198 21.198 0 01-2.306 3.069c-3.934 4.352-17.299 12.111-22.224 15.264l-10.93 6.681c-8.012 4.939-15.587 8.43-25.135 8.668-.451.015-.891.026-1.331.026-.616 0-1.225-.011-1.83-.033-16.17-.62-30.268-9.299-38.401-22.125a46.978 46.978 0 01-7.014-19.818c1.749 9.878 10.358 17.369 20.735 17.369 3.641 0 7.051-.917 10.036-2.534.022-.015.048-.026.073-.037l1.067-.642 4.352-2.567 5.54-3.282v-.154l.715-.429 49.566-29.363 3.813-2.259.381.128c.011 0 .033.015.048.015 1.093.271 2.163.642 3.183 1.093a21.217 21.217 0 016.336 4.246 20.73 20.73 0 012.046 2.27 18.704 18.704 0 011.459 2.138 21.353 21.353 0 013.03 10.997z" fill="url(#d)" fill-opacity=".15"/><linearGradient id="e" gradientUnits="userSpaceOnUse" x1="48.08" y1="169.536" x2="48.08" y2="140.105" gradientTransform="matrix(5.5556 0 0 -5.5556 -210 958.667)"><stop offset="0" stop-color="#FFF"/><stop offset=".373" stop-color="#FDFDFD"/><stop offset=".507" stop-color="#F6F6F6"/><stop offset=".603" stop-color="#EBEBEB"/><stop offset=".68" stop-color="#DADADA"/><stop offset=".746" stop-color="#C4C4C4"/><stop offset=".805" stop-color="#A8A8A8"/><stop offset=".858" stop-color="#888"/><stop offset=".907" stop-color="#626262"/><stop offset=".952" stop-color="#373737"/><stop offset=".993" stop-color="#090909"/><stop offset="1"/></linearGradient><path d="M78.185 41.015l-.018 109.314-5.54 3.282-4.356 2.567-1.071.649c-.018 0-.048.018-.066.033a21.082 21.082 0 01-10.039 2.534c-10.38 0-18.975-7.487-20.731-17.369a19.812 19.812 0 01-.198-1.379 50.46 50.46 0 01-.128-2.57V15.051a7.056 7.056 0 0111-5.848l21.556 14.084c.117.099.242.183.378.26a21.094 21.094 0 019.213 17.468z" fill="url(#e)" fill-opacity=".1"/></svg>