<svg width="48" height="48" viewBox="0 0 192 192" xmlns="http://www.w3.org/2000/svg"><path fill="#b3c0ca" d="M96.041 184c-10.763-8.552-26.648 1.074-37.237-9.392-14.969-7.383-13.03-24.767-18.66-37.652-8.498-11.12-6.174-26.072 3.63-35.539 13.863-18.188 38.74-24.65 60.625-21.734 17.458 3.567 33.086 13.114 47.454 23.242 10.968 8.018 9.346 22.184 1.05 31.327-6.165 12.852-9.904 29.01-22.979 36.748-10.873-1.543-32.998-11.051-30.185 9.661-.538 1.688-1.997 2.977-3.698 3.339zM27.69 102.318C6.376 89.095 1.97 54.828 20.802 37.637c12.182-5.022 21.425 8.496 24.216 18.681 6.819 11.538 8.322 27.108-2.094 37.075-4.003 4.433-9.339 7.759-15.234 8.925zm128.729-1.677c-10.719-6.032-25.886-17.819-18.828-31.664 6.908-10.744 12.21-27.704 26.673-29.366 13.344-.976 18.99 13.668 18.838 24.757-.327 13.462-5.643 28.878-18.076 35.565-2.691 1.145-5.768 1.527-8.607.708zM66.217 77.875C50.356 68.309 49.44 47.622 48.158 31.168c-.253-15.859 23.291-30.085 32.68-13.319 6.477 13.817 14.19 30.062 8.244 45.395-3.759 9.108-13.839 13.049-22.865 14.631zm57.843-.073c-18.832.559-28.628-21.42-23.76-37.57.112-12.946 4.835-35.416 22.167-31.854 18.707 7.234 22.68 32.698 13.77 48.972-4.479 6.583-4.099 16.597-12.177 20.452z"/></svg>