<svg width="48" height="48" viewBox="0 0 192 192" xmlns="http://www.w3.org/2000/svg"><path d="M88.815 184.778c0-.056.619-1.947 1.376-4.203s1.376-4.25 1.376-4.432c0-.182-1.66-1.563-3.686-3.07l-3.686-2.74 4.67-.153 4.67-.153 1.368-4.28 1.368-4.28 1.368 4.356 1.368 4.356h9.482l-3.723 2.785c-2.048 1.532-3.723 2.955-3.723 3.162s.28 1.19.622 2.182c1.348 3.912 2.08 6.58 1.729 6.305-.2-.157-1.74-1.287-3.422-2.512a434.398 434.398 0 01-3.395-2.489c-.21-.163-.847.123-1.681.756-2.877 2.186-6.081 4.507-6.081 4.41zm-37.297-12.093c0-.13.619-2.083 1.376-4.339.757-2.256 1.376-4.185 1.376-4.286 0-.1-1.685-1.414-3.745-2.917l-3.745-2.733 4.68-.153 4.682-.153 1.392-4.259 1.392-4.259.73 2.272c.4 1.25 1.01 3.201 1.353 4.336l.624 2.064h9.56l-3.723 2.785c-2.18 1.63-3.723 3-3.723 3.3 0 .282.61 2.333 1.357 4.558l1.357 4.045-.975-.679c-.78-.543-4.53-3.314-6.198-4.578-.202-.153-1.782.818-4.051 2.49-2.045 1.51-3.72 2.637-3.72 2.506zm75.001-.491c.455-1.187 2.646-8.233 2.577-8.289-.044-.036-1.783-1.32-3.866-2.856l-3.787-2.79h9.526l1.292-4.128c.71-2.27 1.372-4.127 1.47-4.127.098 0 .746 1.823 1.44 4.051l1.262 4.051 4.677.153 4.677.153-3.646 2.721a2190.05 2190.05 0 01-3.718 2.773c-.04.03.537 1.964 1.283 4.301.746 2.337 1.303 4.302 1.238 4.366-.065.065-1.708-1.065-3.653-2.51l-3.535-2.63-3.51 2.597c-1.93 1.428-3.595 2.597-3.7 2.597s-.118-.196-.027-.433zM22.83 145.411c.817-2.174 2.799-8.555 2.689-8.654-.077-.069-1.84-1.378-3.916-2.909l-3.776-2.783 4.835-.085 4.835-.085 1.244-3.883c.684-2.136 1.319-3.958 1.41-4.05.093-.092.754 1.686 1.469 3.952l1.3 4.12 4.729.083 4.728.084-3.685 2.74c-2.027 1.507-3.685 2.957-3.685 3.223s.61 2.303 1.356 4.527c.746 2.224 1.193 3.948.994 3.83-.2-.118-1.826-1.29-3.615-2.605-1.79-1.315-3.385-2.39-3.547-2.39-.162 0-1.175.66-2.251 1.464-4.12 3.084-5.277 3.857-5.113 3.421zm131.715.235c0-.056.619-1.947 1.376-4.203.757-2.256 1.376-4.255 1.376-4.443 0-.187-1.681-1.569-3.735-3.07l-3.735-2.729 4.72-.153 4.72-.153 1.357-4.28 1.357-4.28 1.376 4.35 1.376 4.348 4.675.084 4.675.084-3.654 2.75c-2.01 1.513-3.653 2.888-3.652 3.057.002.17.605 2.2 1.34 4.511l1.338 4.204-1.57-1.135a344.882 344.882 0 01-3.702-2.73l-2.132-1.597-1.536 1.104c-.845.607-2.534 1.841-3.753 2.743-1.22.902-2.217 1.594-2.217 1.538z" fill="#ebc14a"/><path d="M78.95 55.545c-10.708-.01-20.724.08-20.843.271-.095.153-.08 17.143.034 37.756l.203 37.478h13.612l.998-1.758c1.306-2.3 3.95-4.875 6.283-6.115 1.028-.547 1.993-.993 2.146-.993.153 0 2.403 1.993 5 4.428l4.726 4.426 23.082-.013c20.114-.012 22.963-.07 22.164-.446a303.198 303.198 0 00-4.127-1.847c-5.284-2.33-11.493-6.689-15.344-10.772-3.017-3.2-3.033-3.258-1.093-4.079 6.756-2.859 14.147-8.006 17.667-12.304 3.916-4.78 5.785-10.862 5.396-17.549-.194-3.33-.79-6.113-2.013-9.386-4.347-11.624-14.751-17.566-32.891-18.786-2.891-.196-14.292-.302-25-.31zm11.806 10.393c1.982-.023 3.96.131 5.396.468 7.657 1.8 14.204 8.225 16.237 15.941.802 3.044.869 7.916.149 10.946-1.768 7.442-7.592 13.62-15.163 16.083-2.883.938-8.8 1.09-11.89.304-3.908-.993-7.162-2.867-10.127-5.833-4.33-4.33-6.323-8.7-6.637-14.54-.574-10.668 6.34-20.145 16.614-22.773 1.453-.37 3.439-.573 5.42-.596z" fill="#0c4da2"/><path d="M88.189 105.667c-6.878-1.059-13.003-6.737-14.64-13.57-.496-2.074-.434-6.4.122-8.514 1.71-6.502 7.039-11.515 13.7-12.89 2.88-.596 4.352-.6 7.1-.023 3.37.707 6.354 2.346 8.854 4.861 2.5 2.515 3.903 4.966 4.759 8.313 1.433 5.603.046 11.302-3.875 15.926-3.617 4.265-10.403 6.763-16.02 5.897zM13.93 103.64c.829-2.472 1.474-4.518 1.434-4.547l-3.718-2.773L8 93.6l4.577-.085 4.577-.084 1.348-4.12c.74-2.266 1.422-4.118 1.513-4.116.09.002.729 1.825 1.417 4.051l1.25 4.047 4.652.153 4.65.153-3.676 2.733c-3.363 2.5-3.661 2.8-3.484 3.516.106.43.72 2.354 1.364 4.276.644 1.921 1.115 3.55 1.047 3.617-.068.068-1.73-1.065-3.692-2.517l-3.57-2.64-2.801 2.093a228.334 228.334 0 01-3.776 2.776l-.974.682 1.508-4.495zm151.942 0c.828-2.472 1.473-4.518 1.433-4.547l-3.718-2.773-3.645-2.72 4.577-.085 4.577-.084 1.348-4.12c.74-2.266 1.422-4.117 1.513-4.115.09.003.737 1.826 1.434 4.051l1.269 4.046 4.67.153 4.67.153-3.646 2.721a2190.05 2190.05 0 01-3.718 2.773c-.04.03.537 1.964 1.283 4.301.746 2.337 1.308 4.297 1.25 4.355-.06.06-1.712-1.082-3.674-2.534l-3.568-2.64-2.806 2.097a231.762 231.762 0 01-3.78 2.78l-.974.681 1.505-4.493zM34.398 68.207a221.11 221.11 0 00-3.715-2.749l-1.116-.79-3.573 2.643c-1.965 1.454-3.621 2.595-3.68 2.536-.06-.059.502-1.96 1.247-4.228.745-2.266 1.355-4.209 1.357-4.316.002-.108-1.668-1.445-3.71-2.973l-3.711-2.777 4.648-.085 4.648-.085 1.409-4.28 1.409-4.28 1.374 4.35 1.374 4.348 4.589.084 4.589.084-3.57 2.68c-1.962 1.474-3.568 2.858-3.568 3.076 0 .218.417 1.626.926 3.13.984 2.902 1.832 5.651 1.733 5.613-.035-.014-1.231-.904-2.66-1.98zm121.684-2.457c.832-2.483 1.479-4.537 1.439-4.566l-3.718-2.773-3.645-2.72 4.577-.085 4.577-.084 1.347-4.118c.74-2.265 1.444-4.015 1.562-3.89.118.125.76 1.947 1.426 4.05l1.212 3.82 4.642.153 4.642.153-3.686 2.74c-2.027 1.507-3.686 2.82-3.686 2.917 0 .097.618 2.02 1.373 4.27.755 2.251 1.319 4.146 1.253 4.212-.066.066-1.721-1.066-3.68-2.515l-3.56-2.634-2.813 2.055a509.433 509.433 0 00-3.795 2.792l-.981.737 1.514-4.514zm-25.995-24.656c0-.057.619-1.95 1.376-4.206.757-2.256 1.376-4.208 1.376-4.339 0-.13-1.606-1.443-3.57-2.917l-3.568-2.68 4.463-.085 4.463-.085 1.459-4.348 1.459-4.348 1.376 4.35 1.376 4.348 4.54.084 4.54.084-3.521 2.6c-1.936 1.428-3.525 2.81-3.531 3.07-.006.258.599 2.287 1.344 4.508s1.296 4.038 1.225 4.038-1.71-1.169-3.641-2.599c-1.932-1.429-3.6-2.599-3.708-2.599-.108 0-1.65 1.066-3.424 2.37-3.37 2.474-4.034 2.928-4.034 2.754zm-83.458-.463c.002-.125.612-2.08 1.356-4.347.834-2.538 1.248-4.246 1.08-4.449-.15-.18-1.87-1.49-3.82-2.912L41.7 26.34l4.748-.084 4.748-.084 1.286-4.124c.708-2.269 1.387-4.019 1.509-3.89.123.13.762 1.954 1.42 4.056l1.197 3.821 4.828.085 4.828.085-3.882 2.92c-2.135 1.606-3.823 3.081-3.751 3.28.779 2.123 2.706 8.215 2.623 8.293-.06.056-1.656-1.053-3.55-2.465-1.891-1.412-3.587-2.566-3.768-2.566-.181 0-1.9 1.17-3.82 2.597-1.918 1.427-3.488 2.493-3.487 2.367zm41.575-10.234c0-.059.619-1.953 1.376-4.209.757-2.256 1.372-4.245 1.367-4.42-.005-.175-1.621-1.488-3.592-2.917l-3.584-2.599 4.487-.085 4.487-.085 1.478-4.432L95.7 7.217l1.366 4.433 1.366 4.433 4.532.084 4.532.084-3.521 2.6c-1.936 1.428-3.525 2.757-3.531 2.953-.006.195.592 2.222 1.328 4.504.736 2.282 1.183 4.062.994 3.955-.19-.107-1.804-1.274-3.588-2.593-1.784-1.32-3.348-2.399-3.475-2.399-.127 0-1.694 1.073-3.482 2.384-3.435 2.517-4.018 2.915-4.018 2.742z" fill="#ebc14a"/></svg>