<svg fill="#bac8d3" width="48" height="48" viewBox="0 0 192 192" xmlns="http://www.w3.org/2000/svg"><path d="M74 178.504A5.502 5.502 0 0168.496 184H13.504A5.504 5.504 0 018 178.496v-15.4a5.502 5.502 0 015.504-5.496h55A5.502 5.502 0 0174 163.104v15.4zM178.504 47.6A5.502 5.502 0 00184 42.096V13.512A5.504 5.504 0 00178.504 8h-165A5.504 5.504 0 008 13.504v120.992A5.504 5.504 0 0013.504 140h55A5.502 5.502 0 0074 134.496v-15.4a5.502 5.502 0 015.504-5.496h98.992a5.504 5.504 0 005.504-5.504V79.504a5.503 5.503 0 00-5.504-5.496H79.504a5.503 5.503 0 01-5.496-5.504v-15.4a5.502 5.502 0 015.504-5.496h98.992V47.6z"/></svg>