<svg width="48" height="48" viewBox="0 0 192 192" xmlns="http://www.w3.org/2000/svg"><path d="M8 60.8v70.4h176V60.8H8z" fill="#0058a3"/><path d="M11.41 96.66c0 17.05 35.42 31.24 84.48 31.24s84.48-14.19 84.48-31.24S145.06 65.42 96 65.42 11.41 79.61 11.41 96.66z" fill="#ffdb00"/><path d="M141.32 108.87h-13.09c.55-.66.99-1.43 1.21-2.2l7.81-21.34v-.11c.33-.66.44-1.43.44-2.2h22.11c-.11.66 0 1.21.33 1.76 0 .11.11.22.11.44.66 1.54 7.7 19.69 8.25 21.34.22.77.66 1.54 1.21 2.2h-16.5c0-.77-.11-1.54-.55-2.2 0 0-.22-.66-.66-1.43l-.11-.33h-9.57l-.11.44s-.33.77-.55 1.43l-.11.22c-.11.55-.22 1.32-.22 1.98zm5.72-17.16c-.11.55-.22 1.1-.44 1.65 0 .11-.33.88-.66 1.98-.44 1.1-.88 2.53-1.43 4.07h5.5l-2.31-5.94c-.33-.66-.55-1.21-.66-1.76zm-79.53 17.16H51.67c.33-.66.44-1.43.33-2.2V85.33c.11-.77-.11-1.54-.33-2.2h15.84c-.33.66-.44 1.43-.33 2.2v9.35s5.06-6.49 6.27-8.03c.44-.55 1.98-2.64 1.98-3.52h16.5c-1.32.99-2.42 2.09-3.41 3.3-.88 1.1-6.05 7.26-6.05 7.26s7.59 11.33 8.58 12.98c.55.77 1.21 1.54 1.87 2.2H73.78a7.996 7.996 0 00-1.54-3.41c-.77-1.1-4.73-7.04-5.17-7.7v9.02c0 .55.11 1.32.44 2.09zm58.74 0H95.56c.33-.66.44-1.43.33-2.2V85.33c.11-.77-.11-1.54-.33-2.2h30.58v7.15c-.66-.33-1.43-.44-2.2-.33h-12.87v3.41h12.43v5.5h-12.43v3.41h12.87c.77.11 1.54-.11 2.2-.33l.11 6.93zm-82.17 0H26.92c.33-.66.44-1.43.33-2.2V85.33c.11-.77-.11-1.54-.33-2.2h17.27c-.33.66-.44 1.43-.33 2.2v21.34c-.22.66 0 1.43.22 2.2zm122.65-20.24c-.99 0-1.87-.44-2.53-1.1-.66-.66-.99-1.54-.88-2.42v-.22c0-1.76 1.54-3.19 3.3-3.19h.22c1.87 0 3.3 1.54 3.3 3.41v.22c0 .88-.44 1.76-.99 2.31-.66.55-1.54.99-2.42.99zm-.22-6.27c-.66 0-1.32.33-1.87.88-.44.55-.77 1.21-.66 1.87v.22c0 1.43 1.21 2.64 2.75 2.64h.11c.77 0 1.43-.33 1.98-.88s.77-1.21.77-1.98V85c0-1.43-1.21-2.64-2.75-2.64h-.33zm-.44 4.73h-.66v-4.07h1.54c.77 0 1.32.55 1.32 1.32 0 .55-.33.99-.77 1.21l.88 1.54h-.66l-.77-1.43h-.88v1.43zm0-3.41v1.43h.88c.33 0 .66-.33.66-.66 0-.44-.33-.77-.66-.77h-.88z" fill="#0058a3"/></svg>