<svg width="48" height="48" viewBox="0 0 192 192" xmlns="http://www.w3.org/2000/svg"><path d="M19.515 30.074h5.845c11.295 2.022 16.525 17.295 7.911 25.272C25.229 63.938 9.78 58.664 8 47.193v-5.626c1.978-5.428 6.131-9.493 11.515-11.493zm-8.922 40.017c8.395-.11 16.789-.044 25.162.088-.286 30.59.088 61.157-.198 91.747H10.593c-.022-30.612-.044-61.223 0-91.835zm37.798 37.182c.857-20.833 20.349-38.325 41.094-37.27 9.889-.286 18.503 4.922 26.458 10.153 7.933-4.9 16.218-10.262 25.975-10.131 20.898-1.824 40.676 16.02 41.775 36.809.637 18.196-.022 36.435.308 54.631-8.395.22-16.789.33-25.162.088-.022-16.767.176-33.534-.022-50.279.198-5.999-3.011-12.086-8.548-14.679-8.9-4.791-21.404 2.198-21.338 12.482-.418 17.47-.198 34.963.022 52.455-8.153.044-16.306.154-24.458.396h-1.209c.505-16.855.264-33.732.176-50.609.308-6.549-3.516-13.251-9.933-15.295-8.79-3.626-19.866 3.362-19.932 12.987-.571 17.624.132 35.27-.33 52.916H48.149c.286-18.219-.286-36.458.242-54.654z" fill="#adbef5"/></svg>