<svg width="48" height="48" viewBox="0 0 192 192" xmlns="http://www.w3.org/2000/svg"><circle cx="87.65" cy="83.819" r="13.808" fill="#fdc02f"/><path d="M75.938 59.095a4.911 4.911 0 109.488-2.544L80.59 15.965c-1.536-5.732-7.423-9.129-13.152-7.597-5.736 1.536-9.129 7.427-7.597 13.156l16.097 37.571z" fill="#fdc02f"/><g fill="#284a51"><path d="M155.926 79.604c-1.22 4.327-2.887 8.519-4.933 12.542.942 2.274 1.791 4.601 2.447 7.049 8.489 31.669-10.376 64.338-42.049 72.834-31.673 8.481-64.346-10.384-72.834-42.057-7.338-27.388 5.81-55.494 29.982-68.102l-4.343-8.971C35.812 67.521 20.363 100.468 28.96 132.55c9.901 36.961 48.036 58.98 85.002 49.079 36.969-9.901 58.984-48.036 49.079-85.013a69.228 69.228 0 00-7.115-17.012z"/><path d="M93.224 55.204c16.217-.745 31.8 5.246 43.338 16.004a59.68 59.68 0 01-8.925 17.78 59.023 59.023 0 01-6.142 7.118c-.262.259-.537.51-.803.757a55.69 55.69 0 01-2.721 2.436c-.297.251-.594.506-.896.753a65.582 65.582 0 01-3.324 2.517c-.131.081-.247.17-.371.262a59.787 59.787 0 01-4.065 2.559c-.174.1-.359.189-.537.29a62.363 62.363 0 01-3.555 1.849 74.918 74.918 0 01-4.37 1.868c-.417.151-.822.317-1.235.467-1.343.483-2.71.907-4.092 1.293-.127.031-.247.077-.371.112-.046.008-.089.023-.131.031-13.117 3.49-27.164 2.366-39.552-3.181a4.96 4.96 0 00-4.636.305 4.968 4.968 0 00-2.359 3.999 47.458 47.458 0 001.575 14.48c6.786 25.331 32.924 40.416 58.258 33.63 13.21-3.54 23.374-11.573 29.407-23.231 6.651-12.862 6.454-26.199 4.868-30.488a4.957 4.957 0 00-4.088-3.2 4.936 4.936 0 00-4.709 2.181c-7.114 10.712-20.092 19.679-33.885 23.373a4.966 4.966 0 00-3.513 6.08 4.972 4.972 0 006.088 3.517c11.295-3.023 21.876-8.902 30.14-16.498-.741 3.443-2.003 7.288-4.053 11.083-4.81 8.894-12.484 14.812-22.825 17.587-20.042 5.377-40.714-6.574-46.083-26.608a37.447 37.447 0 01-.896-4.339c12.468 3.941 25.917 4.308 38.633.957h.019c.093-.019.197-.05.278-.066a78.452 78.452 0 005.192-1.633c.475-.166.934-.363 1.405-.537a68.466 68.466 0 003.779-1.563c.452-.205.911-.413 1.363-.625a76.056 76.056 0 004.1-2.108c.232-.131.471-.243.699-.378a70.675 70.675 0 004.756-2.992c.124-.081.247-.189.371-.274a63.82 63.82 0 003.945-2.976c.359-.286.706-.575 1.058-.884a70.533 70.533 0 003.154-2.818c.324-.305.652-.61.969-.919a70.574 70.574 0 007.157-8.292c.081-.116.189-.228.274-.347.054-.077.085-.151.135-.232 3.227-4.497 5.96-9.361 8.06-14.561.012.015.027.042.039.058a57.261 57.261 0 002.795-12.275c-.328-.359-.641-.73-.973-1.077a4.183 4.183 0 00-.425-.417c-13.7-13.939-32.974-21.772-53.043-20.756l.723 9.929z"/></g></svg>