<svg width="48" height="48" viewBox="0 0 192 192" xmlns="http://www.w3.org/2000/svg"><path fill="#ffb319" d="M8 45.103C8 24.612 24.612 8 45.103 8h101.794C167.388 8 184 24.612 184 45.103v101.794C184 167.388 167.388 184 146.897 184H45.103C24.612 184 8 167.388 8 146.897V45.103z"/><path fill="#191919" d="M110.361 136.972H80.81c-7.997 0-9.388-8.72-7.997-12.208.696-1.744 2.434-4.185 3.825-5.929 5.563 3.139 12.169 4.883 19.122 4.883 22.251 0 39.983-18.137 39.983-40.111 0-11.859-5.215-22.322-13.212-29.996l1.044-1.046c2.085-2.093 5.215-3.488 8.344-3.139l4.867.349V30.591h-8.344c-9.734 0-17.732 5.929-21.208 14.3-3.477-1.046-7.3-1.744-11.125-1.744-22.251 0-39.983 18.137-39.983 40.111 0 8.72 2.782 17.091 7.649 23.718-.696.698-1.738 1.395-2.434 1.744l-1.042 1.046c-7.997 7.673-11.821 17.439-9.736 28.601 1.044 5.929 6.259 12.208 11.474 15.695 3.477 2.442 7.996 3.488 12.515 3.488l33.377-1.396c3.825 0 7.301 1.744 9.386 5.232l4.173 8.022L142 162.433l-3.477-7.674c-5.215-10.812-15.993-17.787-28.162-17.787zM96.108 64.424c10.43 0 19.122 8.72 19.122 19.183s-8.692 19.183-19.122 19.183-19.122-8.72-19.122-19.183c-.001-10.813 8.343-19.183 19.122-19.183z"/></svg>