<svg fill="#080808" width="48" height="48" viewBox="0 0 192 192" xmlns="http://www.w3.org/2000/svg"><path d="M33.512 127.338h-5.658C16.934 127.338 8 118.37 8 107.409V39.053c14.096 0 25.512 11.459 25.512 25.609v62.676zm130.635 25.609h-5.658V64.662H184v68.356c0 11.06-8.934 19.929-19.853 19.929z"/><path d="M8 107.409v-5.58h50.774c14.096 0 25.248 11.459 25.248 25.609H27.853C16.934 127.338 8 118.47 8 107.409z"/><path d="M83.98 127.338h87.95v5.679c0 10.961-2.634 19.929-13.554 19.929h-48.985c-13.995.001-25.411-11.458-25.411-25.608zM58.731 39.053h105.415c10.919 0 19.853 8.968 19.853 19.929v5.679H84.243c-14.096.001-25.512-11.458-25.512-25.608z"/></svg>