<svg width="48" height="48" viewBox="0 0 192 192" xmlns="http://www.w3.org/2000/svg"><path d="M34.788 133.682c.357-.357 6.786 25.716 42.861 21.073-7.143-17.144-28.931-28.217-34.289-28.574 1.072-.714 7.143-5.358 8.215-6.072-1.429 4.643 19.287 23.931 35.36 18.573-4.286-12.858-21.787-23.931-26.431-24.288 1.786-1.072 3.929-2.5 5.715-3.572-1.072 2.5 14.287 17.501 30.36 16.073 0-7.858-17.501-22.502-20.716-21.43 1.786-.714 3.929-2.143 5-2.857 2.143 5.358 17.144 16.787 27.502 14.644-8.572-17.859-19.287-18.93-19.287-18.93l5-2.143c0 4.643 14.644 15.716 25.002 13.215-2.5-8.572-9.644-15.001-18.216-16.43l5.358-2.5c-.714 1.429 11.429 11.787 23.573 11.072-5.715-13.93-13.573-14.287-16.43-14.644 1.429-.714 3.215-1.786 5-2.5.714 1.786 7.143 10.715 22.502 8.572-3.215-6.429-9.286-10.715-16.43-11.43 2.143-1.429 3.929-1.786 5.358-2.857 1.072 1.429 5 9.644 20.716 6.429-2.5-5.358-7.501-9.286-13.573-10.358 1.429-.714 2.857-1.786 3.929-2.143 4.643 4.643 11.43 6.786 17.859 5.358-1.786-5-7.858-7.858-13.215-7.858 2.5-1.429 4.643-3.215 4.643-3.215.714 1.786 5.358 6.429 16.43 3.215-3.572-6.786-12.501-6.072-12.501-6.072 2.143-1.786 2.857-2.143 4.643-3.572 3.572 4.286 9.644 5.358 14.287 2.143-2.143-3.929-6.429-6.072-10.715-5.358l3.215-3.215c-.357 1.072 6.429 4.643 12.858 0-2.5-2.5-6.072-3.929-9.644-3.215.714-1.072.714-1.072 1.786-2.143 3.215 2.5 7.858 1.786 10.715-1.072a12.637 12.637 0 00-8.929-.357l2.143-3.215c2.857 2.143 6.786 1.072 8.929-1.786-2.5-1.072-5-1.429-7.501-.714.357-.714.714-1.072.714-1.786 11.072 1.429 7.143-11.429 4.643-18.573-41.431 62.865-96.435 18.575-163.941 57.864-3.215 8.215-4.286 16.787-3.572 25.716 0 1.072.357 2.5.357 3.572.357 3.572 1.429 7.143 2.5 10.715 1.429 3.929 2.857 6.429 4.286 10.358 1.072-.714 2.143-1.429 2.857-2.143-2.5-4.286-12.501-30.36 0-45.361 11.787-.357 13.215 33.931 11.429 37.503 0 0 5.715-3.572 7.858-5-2.5-1.072-11.429-30.717 3.572-42.861 0 0 13.573 5 7.858 36.432 2.143-1.429 5.358-2.857 8.572-4.286-1.786-2.857-10.715-25.359 3.929-37.146 7.858 3.215 7.501 27.859 4.286 33.217 2.5-1.072 5.358-2.5 7.858-3.572-4.643-2.143-4.286-25.359 3.572-31.431 8.572 8.215 6.429 21.787 4.286 27.859l6.429-2.857c-5.358-9.644-2.857-21.787 2.857-26.431 4.286 2.857 5.358 10.715 3.572 23.573 1.786-.714 2.857-1.429 4.643-1.786-1.072-2.143-3.929-15.358 3.572-22.859 6.786 3.215 4.286 18.216 3.929 19.644 0 0 3.929-1.429 3.929-1.786-1.429-2.857-2.143-13.93 3.929-19.287 2.5 1.786 5 6.786 2.857 16.43 1.429-.714 2.857-1.429 4.643-2.143-2.143-2.5-.714-12.144 2.5-16.073 3.572 1.429 5.358 10.001 3.929 12.858 1.072-.357 2.143-1.072 3.929-2.143-1.072-1.786-1.786-11.072 2.143-13.573 3.572 2.5 3.215 8.929 3.215 10.715 1.072-.714 4.286-2.143 4.286-2.143-2.857-3.572-2.143-8.572 1.429-11.43 3.929.714 3.929 7.858 3.572 8.572 1.429-1.072 3.929-2.857 5-3.572-3.572-.714-3.215-6.429-1.072-8.929 2.5.357 3.929 1.786 4.643 6.072.714-.714 2.857-2.5 3.572-3.215-2.5-.714-3.572-3.572-2.857-6.072.357-.714.714-1.429 1.429-1.786 2.143.714 3.929 2.5 4.286 5 1.072-1.072 1.786-1.786 2.5-2.857-2.143-1.786-2.5-4.643-1.429-6.786 1.786.357 3.572 1.786 3.929 3.572l1.786-2.857c-2.143-1.072-2.5-3.929-1.429-5.715a4.588 4.588 0 013.572 3.572C153.012 82.963 61.219 90.821 13 144.754c0 0-5 5.358-5 7.858v18.216h1.072c5.357-14.645 13.929-27.503 25.716-37.146"/></svg>