<svg width="48" height="48" viewBox="0 0 192 192" xmlns="http://www.w3.org/2000/svg"><g fill="#2e3b80"><path d="M97.51 19.153c-27.398 1.031-50.413 10.64-68.117 28.43-5.156 5.173-8.835 9.952-12.152 15.744-7.597 13.304-10.52 29.1-8.732 47.01 1.753 17.258 7.718 30.922 18.392 42.095 6.119 6.394 15.555 11.946 26.212 15.4 17.773 5.759 43.9 6.756 64.285 2.476 19.92-4.194 36.851-13.871 48.11-27.519 10.227-12.393 16.054-26.78 17.876-44.14 2.165-20.488-1.375-37.127-10.623-50.018-6.583-9.178-16.655-16.879-28.893-22.087-12.857-5.483-28.963-8.044-46.357-7.39zm21.348 16.415c11.482.894 21.28 3.54 29.479 8.01 10.347 5.62 16.93 13.011 20.093 22.568 2.2 6.635 2.716 14.8 1.46 23.394-2.13 14.73-9.831 26.985-22.155 35.27-9.626 6.463-21.039 10.227-35.408 11.671-3.661.361-13.802.516-18.134.258-18.598-1.083-32.176-5.879-40.753-14.387-7.46-7.408-11.654-16.827-12.634-28.395-.258-3.11-.12-9.952.258-12.29.464-2.887.962-4.915 1.822-7.545 3.025-9.196 8.955-16.982 18.22-23.875 10.072-7.494 21.674-12.135 35.15-14.06 6.79-.963 15.022-1.186 22.602-.619z"/><path d="M105.503 48.545c-11.808.825-22.156 5.397-29.925 13.218-6.652 6.704-9.814 15.006-9.419 24.683.258 5.86 1.22 10.158 3.214 14.335 4.641 9.746 13.27 15.108 26.883 16.707 5.002.584 12.72.498 17.498-.19 17.91-2.612 30.062-13.217 33.31-29.1.5-2.457.843-6.032.843-8.782v-2.39l-.55.103c-.31.07-1.496.31-2.63.55-1.667.361-2.699.482-5.432.55-12.736.361-20.162-3.867-23.273-13.235-1.478-4.469-1.684-10.21-.532-14.764.206-.843.31-1.565.24-1.616-.275-.172-8.078-.223-10.227-.069z"/></g></svg>