<svg width="48" height="48" viewBox="0 0 192 192" xmlns="http://www.w3.org/2000/svg"><path d="M11.995 119.97c-3.418-9.406-4.467-19.164-3.809-29.064 1.21-18.202 7.817-34.279 20.176-47.738 16.97-18.479 38.199-27.002 63.207-25.673 35.372 1.88 65.958 29.358 71.958 64.229 2.214 12.864 1.554 25.511-2.279 37.989-.106.344-.296.662-.447.992-.766-.697-.538-1.638-.596-2.5-.36-5.317-2.937-9.181-7.917-11.024-4.863-1.801-9.293-.789-13 3.034-.751.775-2.188 3.762-3.662 3.603.55-2.278.846-3.39 1.056-4.233 2.634-10.568 2.258-20.998-1.411-31.278-4.177-11.702-11.719-20.699-22.282-27.098-8.359-5.064-17.517-7.663-27.322-7.371-13.571.404-25.426 5.084-35.269 14.634-8.15 7.908-13.187 17.414-15.159 28.571-1.296 7.336-.833 14.609.808 21.838.177.779.327 1.751.536 2.777-1.143.433-1.878-.935-2.429-1.552-3.489-3.908-8.639-5.392-13.262-3.796-5.104 1.763-7.983 5.769-8.235 11.427-.035.789.129 1.659-.662 2.233z" fill="#19B855"/><path d="M159.91 123.271c-2.427 7.645-6.42 14.473-11.318 20.731-13.304 17-30.72 27.132-52.113 29.968-32.182 4.267-63.818-12.17-79.005-40.824-1.79-3.377-3.059-7.03-4.569-10.555-.881-4.21 1.476-9.372 5.216-11.806 6.364-4.142 15.049-2.634 19.231 3.18 1.999 3.543 3.523 7.332 5.821 10.734 7.742 11.459 18.283 19.059 31.729 22.018 18.062 3.975 34.03-.503 47.584-13.251 5.327-5.011 9.335-10.896 12.111-17.642a7.464 7.464 0 01.988-1.736c3.568-4.315 8.061-6.443 13.672-5.328 5.259 1.046 8.796 4.254 10.62 9.32.624 1.73.577 3.457.033 5.191zm24.09 32.7c-.05 7.057-5.662 12.648-12.724 12.676-7.003.027-12.818-5.852-12.773-12.913.046-7.23 5.82-12.831 13.126-12.732 6.962.094 12.421 5.816 12.371 12.969z" fill="#F7B516"/><path d="M37.471 114.176c-5.91-7.567-16.32-6.329-21.063-1.121-2.472 2.714-3.541 5.914-3.502 9.535l-.91-2.621c-.131-4.344.633-8.308 4.012-11.501 5.274-4.983 15.343-3.941 19.633 1.911.44.44.44.44.676.716.643 1.275.622 1.694 1.154 3.081zm122.439 9.095c-.119-6.726-2.893-11.145-8.339-13.281-5.545-2.176-11.482-.494-16.353 4.624.416-.895.768-1.405 1.438-2.411 2.164-2.181 4.005-4.693 7.149-5.738 8.702-2.894 17.14 3.64 16.981 12.24-.012.667.009 1.334.015 2.001l-.891 2.565z" fill="#299249"/></svg>