<svg width="48" height="48" viewBox="0 0 192 192" xmlns="http://www.w3.org/2000/svg"><path d="M132.402 113.571c-.352 0-.701.061-1.044.033-.35-.028-.695-.089-1.036-.145-.345-.056-.68-.159-1.014-.245a11.192 11.192 0 01-.996-.302c-.332-.117-.664-.222-.975-.371-.317-.148-.599-.358-.892-.538a9.257 9.257 0 01-1.658-1.279 8.51 8.51 0 01-.692-.801c-.222-.286-.478-.54-.656-.838-.185-.311-.311-.647-.449-.964-.148-.336-.315-.655-.41-.985a5.613 5.613 0 01-.232-2.112c.02-.313.102-.59.176-.831.184-.616.391-.742.673-.261.146.247.352.547.582.901.176.274.399.554.643.853.213.263.423.554.699.812.248.234.545.434.853.649.278.198.553.436.884.604.304.158.645.273.999.397.321.115.666.21 1.031.289.334.074.682.182 1.057.222.278.03.565-.019.84-.019.371 0 .723-.037 1.061-.089.367-.056.732-.067 1.057-.174.352-.115.679-.278.979-.443.326-.178.593-.423.855-.643.286-.239.558-.473.764-.743.226-.3.432-.604.556-.918.12-.316.212-.642.274-.973.074-.349.07-.686.067-1.005 0-.347-.019-.679-.096-.999a4.942 4.942 0 00-.308-.964 6.712 6.712 0 00-.502-.875c-.185-.274-.417-.519-.634-.784-.208-.256-.4-.536-.63-.788-.222-.247-.497-.449-.729-.695-.213-.23-.421-.465-.632-.699-.213-.232-.413-.477-.614-.716a12.674 12.674 0 01-.588-.738 9.525 9.525 0 01-.519-.786c-.159-.271-.323-.545-.443-.834a6.107 6.107 0 01-.273-.907 5.898 5.898 0 01-.18-1.088 5.778 5.778 0 01.085-1.099 5.82 5.82 0 01.247-1.074c.116-.35.262-.689.436-1.014.172-.315.434-.582.666-.877.208-.265.382-.564.625-.803.241-.234.514-.439.786-.645a8.53 8.53 0 01.844-.562c.289-.171.582-.347.89-.486.308-.139.636-.234.959-.339.319-.106.638-.224.972-.297.328-.072.662-.148 1.001-.184.334-.037.677-.006 1.016-.006.089 0 .18.032.271.033.334.009.656-.032.96-.004.336.03.649.115.946.163.337.056.651.108.944.184.33.085.649.135.929.241.324.121.616.263.875.406.308.167.547.386.775.566.282.222.549.408.729.621.228.273.4.584.543.89.148.317.26.651.311.99a3.51 3.51 0 01-.039 1.033c-.048.323-.106.617-.247.849a1.58 1.58 0 01-.666.575 1.931 1.931 0 01-.855.158 2.961 2.961 0 01-1.166-.211 2.183 2.183 0 01-.714-.499 4.007 4.007 0 01-.519-.697c-.204-.323-.408-.66-.753-.949a3.145 3.145 0 00-1.077-.547 3.941 3.941 0 00-1.2-.195c-.297 0-.58.033-.844.106-.277.067-.542.18-.782.334a2.087 2.087 0 00-.569.634 1.908 1.908 0 00-.263 1.079c.011.349.128.701.313 1.066.108.208.282.426.506.686.167.197.337.434.558.66.189.195.367.426.586.645.224.224.493.436.74.69.224.232.471.464.706.719.223.241.413.523.638.784.215.252.413.523.623.794.204.263.421.523.612.805.189.276.389.549.56.844.169.289.308.597.454.905.145.302.319.597.436.916.117.315.206.643.291.973.083.323.122.66.171.999.046.328.05.664.059 1.009.009.33.063.669.033 1.012-.028.33-.065.667-.132 1.009-.063.323-.182.645-.284.977a8.397 8.397 0 01-.352.921c-.13.304-.248.612-.412.894a8.98 8.98 0 01-1.912 2.236c-.247.215-.482.451-.747.642-.267.191-.578.315-.86.48-.284.167-.569.319-.864.462-.297.141-.59.286-.894.404-.308.119-.601.273-.914.369-.315.096-.645.13-.964.202-.321.074-.634.189-.955.237-.326.05-.66.024-.983.05-.324.023-.651.032-.977.028m-84.553 2.374c-.376 0-.753.033-1.112-.043a5.024 5.024 0 01-1.051-.375 4.878 4.878 0 01-.931-.606 4.76 4.76 0 01-.788-.779 5.395 5.395 0 01-.597-.871c-.158-.304-.245-.649-.358-.996a7.98 7.98 0 01-.263-1.022 10.234 10.234 0 01-.145-1.048c-.028-.339-.026-.692-.026-1.057 0-.341-.052-.697-.026-1.061.024-.343.098-.69.145-1.049.044-.343.046-.703.111-1.061.059-.339.13-.69.21-1.044.072-.319.167-.638.241-.964.076-.319.18-.636.26-.962.078-.317.148-.642.234-.964.082-.319.193-.63.278-.953.087-.315.13-.649.221-.97.087-.317.159-.642.25-.964.093-.315.226-.623.321-.942.095-.317.159-.645.256-.964.098-.315.252-.616.352-.931.098-.315.172-.642.274-.957l.308-.947c.106-.315.26-.612.365-.927.108-.315.159-.649.269-.964.111-.313.336-1.029.419-1.352.18-.699.289-.623-.375-.584-.037.002-.699.011-.736.009a5.59 5.59 0 01-1.012-.156c-.334-.091-.671-.172-.985-.313a7.112 7.112 0 01-.899-.512c-.297-.185-.553-.417-.812-.634a8.134 8.134 0 01-.972-1.068c-.334-.46-.297-.451 0-.751.375-.376.96-.723 1.305-.909.289-.158.612-.31.953-.473.304-.145.63-.278.975-.428.311-.135.636-.278.977-.413.319-.13.649-.26.992-.389.323-.122.651-.263.996-.388.326-.115.667-.208 1.014-.324.33-.111 1.315-.449 1.659-.56.316-.096.574-.325.708-.627.148-.315.445-1.098.591-1.402.148-.313.321-.612.469-.914.156-.315.313-.619.464-.918.159-.315.297-.63.451-.927.165-.315.352-.604.508-.896.171-.317.308-.632.467-.916.178-.319.33-.629.493-.901.195-.326.417-.591.582-.842.189-.289.412-.543.617-.801.215-.271.393-.564.623-.801.239-.248.515-.447.766-.664.261-.222.519-.439.792-.63.28-.198.54-.421.829-.586.295-.166.597-.319.905-.458.313-.145.643-.226.955-.341.324-.117.63-.274.946-.362.334-.093.673-.148.994-.213.343-.069.677-.133.999-.174.352-.044.692-.033 1.01-.056.362-.02.951-.108 1.409-.024.551.1.649.221.376.627-.165.247-.491.807-.708 1.138-.171.265-.371.547-.571.864-.172.274-.358.567-.551.881-.174.278-.365.567-.554.879-.172.284-.337.588-.523.899l-.527.892c-.171.291-.352.588-.53.896-.169.293-.365.58-.541.89-.167.295-.319.608-.491.916-.167.297-.569 1.131-.753 1.437-.375.627-.033.612.293.543s1.205-.33 1.531-.397c.326-.065.649-.146.977-.21s.662-.08.99-.141c.328-.059.658-.102.985-.159.33-.059.653-.139.981-.193.328-.056.655-.132.983-.185.328-.052.66-.082.99-.13.33-.052.653-.145.983-.191.332-.048.664-.082.994-.126.33-.045.666-.059.996-.1.332-.043.664-.056.994-.095.334-.039.656-.139.986-.174.334-.037.664-.082.992-.113.334-.033.667-.026.999-.056.332-.032.666-.046.994-.074.334-.026.664-.085.996-.109.334-.024.667-.03.999-.05.334-.02.667-.028.996-.045.334-.017.667-.019.996-.03.336-.013.667-.063.998-.072.334-.009.666.05.994.046.334-.006.664-.007.992-.007.332 0 .666-.015 1.003-.009.332.006.666-.041 1.001-.03.332.009.664.074.998.089.334.013.669-.026 1.005-.006.334.022.664.108.996.135.334.026.669.026 1.003.059.334.033.662.104.994.143.334.041.675.011 1.007.059.334.046.664.096.994.15.332.056.66.124.986.189.332.065.649.176.975.25.328.074.656.145.977.23.328.085.658.145.977.241.324.098.64.215.953.324.321.111.632.232.942.356.315.124.603.3.905.438.609.276 1.2.59 1.771.938.287.18.575.352.84.549.273.202.556.388.803.608.252.222.46.491.686.736.23.247.439.506.638.773.202.267.404.538.543.842.271.599-.07.495-.371.323-.287-.167-.617-.271-.925-.425-.297-.148-.582-.341-.897-.478a21.435 21.435 0 00-.942-.389c-.311-.119-.649-.185-.973-.297-.319-.104-.63-.245-.96-.341a26.488 26.488 0 00-.983-.267c-.326-.08-.651-.185-.988-.258-.328-.07-.664-.13-1.003-.191-.33-.059-.669-.085-1.01-.137-.332-.05-.667-.106-1.007-.148-.334-.041-.673-.056-1.016-.089-.334-.033-.673-.048-1.016-.074-.334-.026-.671-.082-1.014-.1-.337-.019-.677-.013-1.02-.026-.337-.013-.679-.009-1.023-.015-.336-.006-.677-.043-1.02-.043-.343 0-.686.05-1.031.056-.343.006-.686-.054-1.031-.043-.343.011-.686.022-1.029.037-.345.017-.686.044-1.029.067-.686.041-1.37.094-2.054.158-.343.03-.688.041-1.029.074-.343.035-.68.115-1.02.152-.345.037-.682.104-1.02.146-.345.041-.692.056-1.031.1-.343.046-.69.067-1.029.117-.341.048-.679.13-1.016.18-.343.054-.679.13-1.016.185-.343.056-.692.048-1.027.108-.343.059-.673.159-1.009.221-.341.063-.679.119-1.012.182-.341.067-.682.109-1.016.176l-1.009.204c-.339.072-.667.172-.999.245-.341.074-.686.111-1.012.185-.341.076-.667.185-.996.263-.339.08-.68.13-1.007.208-.339.083-.658.226-.981.306-.321.082-.662.141-1.01.234-.321.085-.643.219-.99.315-.321.089-.662.15-1.007.248-.321.093-.662.159-1.005.26-.323.095-.649.217-.99.319-.323.096-.655.193-.996.297-.323.098-1.311.389-1.645.519-.541.208-.588.397-.738.705-.126.254-.226.541-.352.797-.148.302-.311.567-.404.766-.148.313-.26.642-.402.949-.146.315-.315.617-.456.925-.145.315-.263.64-.4.951-.141.317-.241.649-.375.962-.137.317-.31.617-.443.933-.133.319-.241.649-.371.964-.13.321-.293.627-.417.946-.126.321-.235.647-.356.966-.122.323-.213.654-.33.975-.117.324-.273.634-.386.957-.111.324-.2.658-.31.983-.109.326-.208.655-.313.983-.104.324-.219.649-.319.977-.098.328-.226.647-.323.977-.096.328-.145.671-.237 1.003-.093.33-.161.667-.248 1.001-.093.345-.247.662-.326.988-.087.349-.133.695-.208 1.023-.08.352-.135.695-.198 1.022-.07.356-.145.693-.197 1.02-.059.362-.098.705-.137 1.031-.041.365-.13.705-.145 1.027-.019.376-.006.725.013 1.042.022.384.141.714.217 1.014.096.38.178.714.36.96.146.197.315.371.53.467.482.211.454.441.271.538a3.44 3.44 0 01-.662.25 4.754 4.754 0 01-1.257.139v-.007M69.19 93.132c-.323 0-.638.135-.964.254a3.945 3.945 0 00-.89.438c-.261.176-.541.362-.797.604-.243.23-.472.474-.686.731-.208.247-.389.528-.588.814-.185.263-.41.519-.588.814-.342.575-.652 1.17-.927 1.78-.135.297-.282.599-.412.916-.122.302-.182.64-.297.959-.111.31-.26.614-.363.938-.1.313-.145.649-.237.975-.091.317-.178.642-.26.97-.08.323-.176.643-.247.975-.076.354-.167.693-.222 1.023-.061.362-.098.71-.135 1.038-.041.371-.093.716-.104 1.044-.011.376.043.723.07 1.046.035.384.115.716.206 1.02.111.371.226.693.423.938.321.399.742.567 1.248.567.313 0 .658-.022 1.01-.174.312-.151.607-.334.881-.547.26-.189.523-.413.788-.669.237-.226.512-.445.749-.719.217-.25.386-.562.601-.851.198-.269.382-.564.569-.871.176-.287.412-.556.575-.871.159-.302.295-.627.439-.949.141-.315.23-.655.36-.983.126-.321.282-.636.397-.966.111-.33.247-.655.345-.99.1-.334.171-.679.256-1.014.087-.341.128-.69.198-1.029.074-.345.161-.686.217-1.022.057-.354.141-.697.176-1.038.038-.348.065-.696.08-1.046.015-.365-.022-.718-.037-1.048-.019-.371-.019-.727-.076-1.044-.072-.376-.232-.695-.365-.977a1.9 1.9 0 00-.501-.686 1.307 1.307 0 00-.784-.306c-.058-.011-.053-.044-.108-.044m-6.49 22.861c-.362 0-.721.052-1.07.004a7.345 7.345 0 01-1.044-.241c-.341-.1-.664-.252-.988-.402a7.495 7.495 0 01-.936-.51c-.295-.191-.597-.378-.875-.614-.254-.213-.458-.475-.682-.708a9.059 9.059 0 01-1.201-1.544 9.199 9.199 0 01-.451-.871c-.139-.293-.324-.571-.434-.883-.108-.308-.161-.634-.239-.957-.074-.315-.189-.629-.237-.957a11.159 11.159 0 01-.096-.983c-.019-.324 0-.655.007-.986.007-.324.054-.649.087-.981.029-.327.07-.653.122-.977.056-.319.148-.632.224-.957.076-.315.119-.643.217-.964.093-.308.18-.629.297-.942.117-.321.278-.619.399-.925.128-.317.226-.642.356-.944.137-.313.33-.593.471-.89.145-.31.269-.623.419-.916.158-.302.315-.601.477-.886.169-.299.384-.562.556-.842.182-.291.313-.606.499-.877.195-.284.38-.566.578-.827.206-.274.473-.489.684-.742.221-.263.426-.525.649-.764.235-.25.436-.525.671-.749.248-.237.525-.432.775-.642.263-.222.541-.406.805-.599.278-.204.538-.41.814-.584.291-.185.562-.386.849-.538.304-.163.617-.287.912-.417.319-.139.642-.228.946-.334.328-.117.649-.213.959-.297.339-.087.656-.195.968-.25.352-.061.686-.065.996-.093.369-.035.699-.111.992-.111.165 0 .328.015.491.022.352.015.705.074 1.053.156.696.154 1.362.42 1.971.79.3.182.606.371.886.597.273.222.519.484.764.747.241.256.486.519.695.812.191.265.343.56.504.849.159.286.317.575.447.881.13.299.26.603.362.921.098.31.113.645.185.972.07.317.197.629.241.96.043.321.05.653.069.986.019.324.022.653.019.986-.004.324 0 .654-.024.988-.024.324-.087.649-.132.983-.043.321-.065.651-.126.979-.059.319-.108.649-.185.975-.074.315-.208.623-.299.946-.095.33-.228.649-.343.975-.115.326-.182.669-.315.99-.132.317-.315.614-.464.927-.152.31-.297.621-.464.925-.167.302-.299.627-.48.92-.183.293-.374.582-.571.866-.197.286-.438.538-.647.812-.208.274-.38.582-.601.845-.222.265-.471.51-.705.762-.235.256-.467.512-.714.753-.248.241-.53.445-.788.673-.26.23-.497.486-.764.699-.274.215-.567.4-.845.597-.286.202-.588.369-.879.549-.297.182-.575.389-.875.549-.31.163-.629.3-.94.436-.63.279-1.286.496-1.958.649a9.694 9.694 0 01-1.012.204c-.347.043-.69.019-1.032.019m25.761.055c-.36 0-.719.056-1.07.011a8.715 8.715 0 01-1.049-.217c-.347-.087-.677-.226-1.007-.356a8.399 8.399 0 01-.966-.452c-.313-.172-.627-.339-.916-.551-.286-.211-.527-.478-.786-.725a8.878 8.878 0 01-1.294-1.567 9.156 9.156 0 01-.464-.855c-.145-.289-.334-.562-.451-.87-.111-.3-.174-.625-.26-.942-.085-.31-.208-.617-.267-.942a12.153 12.153 0 01-.133-.97c-.033-.319-.032-.649-.043-.979-.007-.319.019-.645.032-.977.013-.321.024-.645.056-.973.033-.321.102-.64.154-.968.05-.317.065-.647.133-.97.072-.341.13-.684.215-1.016.085-.337.219-.66.317-.988.1-.334.174-.675.287-.999.111-.328.289-.632.415-.951.128-.324.235-.653.376-.966.141-.315.287-.63.443-.938.156-.31.363-.59.532-.888.171-.302.297-.63.478-.92.185-.293.371-.588.567-.868.2-.284.465-.515.679-.784.215-.274.421-.549.649-.807.228-.26.426-.547.667-.792.245-.247.519-.458.775-.686.26-.234.538-.434.808-.647.271-.215.53-.439.812-.634.286-.198.554-.417.849-.593.297-.178.612-.321.918-.477.31-.156.636-.265.951-.399.319-.132.64-.252.964-.36.328-.109.647-.241.981-.323.334-.082.679-.111 1.018-.167.339-.056.673-.161 1.016-.189.344-.024.689-.035 1.035-.032.076 0 .076.011.154.013a6.55 6.55 0 012.145.358c.349.119.692.25 1.007.426.319.178.61.408.89.638.282.23.558.471.797.751.234.273.423.588.612.907.363.59.632 1.233.797 1.906.076.336.057.688.083 1.035.024.341.095.686.07 1.033a7.511 7.511 0 01-.174 1.023 7.333 7.333 0 01-.293.992 8.099 8.099 0 01-.397.959c-.178.33-.387.643-.623.934-.256.33-.499.625-.788.794-.534.31-1.064.306-1.064.306a1.83 1.83 0 01-.823-.234c-.248-.122-.517-.248-.731-.469-.193-.2-.33-.464-.477-.732a3.226 3.226 0 01-.326-.812c-.069-.3-.137-.597-.106-.877a1.98 1.98 0 01.297-.838c.228-.356.402-.712.438-1.083.035-.395-.095-.768-.287-1.122a2.056 2.056 0 00-.871-.871 2.634 2.634 0 00-1.218-.271c-.26 0-.593-.009-.983.1-.278.08-.567.239-.899.415-.263.141-.556.293-.847.515-.241.185-.512.382-.769.634-.219.215-.413.488-.642.76-.2.241-.415.493-.621.779a16.6 16.6 0 00-.575.864c-.185.295-.369.588-.536.89-.167.306-.308.623-.456.934-.149.313-.288.63-.419.951-.132.321-.26.643-.373.97-.115.328-.245.653-.339.983-.096.337-.158.679-.232 1.014-.076.343-.122.686-.176 1.023-.054.349-.074.695-.102 1.035-.026.344-.037.689-.033 1.035 0 .356-.02.701.013 1.038.037.352.056.705.13 1.029.078.349.217.671.339.983.133.334.306.63.486.909.195.297.382.59.63.816.256.235.538.449.845.601.3.15.642.241.988.31.33.065.667.074.994.074.349.006.698-.023 1.042-.087.345-.074.664-.222.983-.352.324-.135.638-.284.936-.464.3-.182.603-.358.875-.571.282-.219.567-.43.816-.662.267-.247.471-.541.701-.784.26-.273.488-.541.699-.775.951-1.053 1.201-1.094 1.144-.117-.015.25-.056.551-.145.888a12.638 12.638 0 01-.653 1.776c-.124.278-.282.571-.451.884-.152.276-.286.586-.477.877-.174.267-.419.501-.63.771-.203.261-.417.513-.643.755-.222.246-.457.481-.703.705-.243.213-.471.464-.745.66-.265.189-.571.326-.866.495-.282.163-.551.363-.862.502-.297.133-.63.195-.953.302-.306.102-.617.219-.949.297-.343.078-.692.102-1.038.143a8.13 8.13 0 01-1.037.056m-67.534 1.265c-.349 0-.699.067-1.044.048-.349-.019-.695-.067-1.038-.106-.347-.037-.686-.115-1.027-.172a19.805 19.805 0 01-1.022-.198c-.343-.078-.686-.139-1.014-.235-.339-.1-.655-.256-.975-.375a13.8 13.8 0 01-.96-.393 11.582 11.582 0 01-.923-.469c-.3-.177-.592-.369-.873-.575-.289-.204-.606-.369-.866-.597-.267-.232-.489-.504-.725-.76-.241-.26-.506-.495-.712-.773a9.137 9.137 0 01-.58-.879c-.178-.306-.319-.63-.458-.949-.141-.323-.239-.66-.339-.994a8.477 8.477 0 01-.25-1.02c-.059-.345-.069-.695-.083-1.046-.015-.349-.056-.699-.024-1.049.03-.349.061-.701.135-1.046.074-.339.208-.667.326-1.001.121-.345.232-.686.391-.986.169-.321.408-.586.616-.864.213-.287.423-.571.669-.816.254-.248.521-.482.801-.688.286-.213.608-.36.912-.532.31-.174.599-.384.92-.519.324-.14.654-.265.99-.373.347-.108.708-.121 1.042-.191.36-.074.705-.148 1.038-.184.375-.041.727-.117 1.046-.109 1.092.024.927.36.384.606-.289.133-.527.384-.794.597-.248.2-.467.449-.705.695-.221.23-.454.464-.653.738-.189.26-.397.519-.556.821a7.738 7.738 0 00-.412.909c-.111.297-.174.625-.258.959-.074.308-.174.629-.222.972-.048.371-.009.742 0 1.103.007.735.136 1.464.384 2.156a6.109 6.109 0 001.131 1.875c.217.25.464.464.718.677.252.213.504.423.784.595s.582.304.886.434c.3.13.601.267.921.354.315.085.64.137.97.182.323.043.651.046.985.046.33 0 .671.048 1.01.004.326-.041.643-.176.975-.26.319-.083.645-.165.964-.289.314-.121.621-.259.92-.413.291-.154.569-.341.853-.534.274-.182.562-.356.829-.575.254-.21.482-.456.729-.699.234-.23.445-.488.671-.749.213-.248.462-.482.666-.76.195-.263.412-.525.597-.816.174-.278.297-.599.462-.901.158-.289.352-.567.501-.879.143-.297.271-.608.404-.927.126-.302.204-.634.321-.957.111-.31.23-.625.334-.953.1-.315.241-.625.334-.957.087-.317.115-.658.195-.992.074-.324.172-.649.241-.985.065-.326.117-.66.174-1.001.059-.341.152-.686.191-1.042.039-.347.026-.705.048-1.061.02-.35.061-.703.067-1.061.007-.349.033-.705.03-1.061-.006-.352-.059-.705-.074-1.061-.013-.352-.017-.705-.039-1.059-.022-.352-.048-.706-.074-1.061-.028-.352-.048-.706-.08-1.059-.032-.352-.08-.705-.113-1.057l-.104-1.057c-.033-.334-.061-.669-.093-1.001-.032-.334-.035-.671-.065-1.007-.03-.334-.082-.667-.111-1.001-.026-.334-.067-.667-.089-1.001-.024-.334-.063-.669-.08-1.003-.017-.337-.039-.673-.046-1.007-.011-.337.024-.673.024-1.007 0-.339.041-.673.05-1.005.011-.339-.011-.675.013-1.007.026-.339.039-.675.08-1.005.041-.337.135-.662.195-.988.059-.334.143-.656.222-.977.083-.328.152-.656.256-.972.108-.321.204-.642.337-.946.132-.31.3-.601.464-.894.159-.291.3-.601.491-.875.196-.273.407-.535.632-.784.219-.248.473-.467.723-.697.247-.222.515-.413.779-.614.261-.202.499-.441.779-.617.278-.178.562-.352.855-.506.293-.152.612-.26.916-.386.304-.128.619-.23.934-.334.313-.1.623-.222.946-.3.319-.074.649-.124.977-.176.324-.05.655-.078.985-.102.328-.024.658-.024.992-.024.345 0 .686-.028 1.02-.002.343.026.671.13 1.001.182.341.054.671.119.996.198.336.082.664.161.979.271.326.111.66.191.962.332.315.145.591.352.871.525.297.182.61.33.866.54.271.219.473.501.693.745.232.26.456.512.629.797.176.297.289.612.397.931.108.323.248.64.278.981.026.289.015.586-.039.864a3.229 3.229 0 01-.289.814c-.126.25-.326.464-.523.677a3.275 3.275 0 01-.76.63c-.28.18-.584.32-.903.417a4.005 4.005 0 01-1.763.037c-.25-.052-.486-.171-.731-.269-.488-.195-.697-.399-.777-.667-.089-.304-.006-.643.104-1.057.08-.306.148-.643.156-.988a1.695 1.695 0 00-.282-.931 2.316 2.316 0 00-.658-.738 3.067 3.067 0 00-.894-.436 3.48 3.48 0 00-.986-.158 4.01 4.01 0 00-.964.135 4.42 4.42 0 00-.907.35c-.28.145-.515.373-.773.58-.247.198-.514.384-.731.634a6.149 6.149 0 00-.608.834c-.167.273-.282.599-.426.94-.13.297-.286.604-.389.957a9.876 9.876 0 00-.239 1.007c-.059.321-.135.66-.169 1.022-.03.345-.046.69-.05 1.036-.007.33.026.675.041 1.036.015.33.032.675.067 1.033.033.334.098.673.148 1.027.048.324.113.651.167.985.056.324.078.658.137.99.056.324.137.649.2.981.059.323.133.649.197.983.061.321.087.653.148.979.061.323.167.64.226.968.057.323.05.66.104.986.056.324.106.649.156.977.05.326.111.651.154.979.044.326.087.655.126.983.037.328.078.658.108.988.03.328.037.66.056.99.022.33.082.66.093.992.011.33.043.66.043.992-.002.33-.039.662-.052.994-.013.33-.059.658-.087.99-.026.328-.03.66-.072.99-.041.328-.067.66-.124.986-.056.326-.184.638-.256.964-.072.321-.113.649-.204.972-.089.326-.193.645-.293.962-.102.321-.232.63-.347.942-.115.314-.236.625-.363.934-.13.313-.237.63-.378.931-.143.308-.326.59-.482.883-.158.297-.289.606-.46.892-.171.289-.375.556-.56.834s-.328.588-.528.853c-.2.271-.43.515-.643.771-.215.258-.402.538-.63.784-.226.245-.486.462-.727.693-.241.232-.506.434-.76.653-.252.219-.493.449-.758.656-.261.204-.534.397-.808.59-.273.191-.566.352-.851.532-.28.176-.562.356-.855.523-.296.164-.596.318-.901.464-.304.148-.621.265-.934.393-.311.13-.614.28-.934.389-.319.111-.649.182-.977.274-.324.091-.643.211-.973.284-.33.074-.667.108-1.001.161-.334.056-.664.124-1.001.159-.336.037-.671.106-1.01.122-.336.019-.677-.015-1.016-.015-.02-.002 0-.037 0-.037m106.465 4.519c-.367 0-.734.063-1.098.037-.367-.028-.731-.089-1.09-.143-.363-.056-.718-.154-1.072-.235-.356-.081-.71-.176-1.059-.284-.324-.102-.649-.191-.964-.317-.311-.13-.595-.315-.896-.467a13.36 13.36 0 01-1.732-1.038c-.273-.197-.53-.413-.794-.627-.26-.213-.558-.384-.807-.614-.245-.23-.458-.497-.692-.742-.234-.243-.501-.458-.721-.716a20.945 20.945 0 01-.642-.786c-.204-.267-.389-.553-.586-.829-.193-.276-.362-.571-.543-.857-.18-.286-.367-.567-.538-.86-.169-.291-.308-.601-.467-.899-.158-.299-.352-.58-.497-.884-.148-.304-.306-.604-.443-.914-.135-.311-.226-.64-.35-.955-.124-.315-.276-.621-.389-.938-.111-.321-.163-.662-.263-.983-.104-.323-.226-.64-.315-.964a27.81 27.81 0 01-.256-.983c-.078-.334-.122-1.239-.271-1.539-.167-.334-.21-.417-.584-.041-.239.239-.773.834-.975 1.094-.21.265-.445.504-.643.768-.204.267-.425.519-.617.786-.197.271-.371.556-.558.829-.189.276-.345.575-.527.849-.184.278-.384.545-.56.827-.176.284-.38.549-.549.834-.167.287-.334.577-.495.87-.159.287-.286.599-.441.894-.154.293-.339.573-.489.871-.148.297-.237.623-.382.927-.141.297-.393.929-.553 1.227-.334.627-.347.862-.916.627-.271-.111-.784-.564-.973-.832a3.294 3.294 0 01-.404-.909 5.906 5.906 0 01-.23-.962c-.043-.308-.037-.642-.048-.99-.007-.315-.019-.649 0-.992.017-.317.026-.649.065-.988.037-.319.154-.636.21-.972.056-.319.046-.658.119-.988.069-.317.169-.634.254-.96.083-.315.18-.634.278-.955.096-.313.18-.636.291-.951.113-.324.26-.636.373-.959.115-.324.202-.656.317-.979.117-.323.215-.653.332-.973.119-.323.282-.627.399-.949.121-.321.269-.63.389-.951.119-.323.184-.666.304-.985.121-.321.286-.625.408-.944.122-.321.234-.645.358-.964.124-.319.204-.656.328-.973.126-.321.26-.636.386-.953.128-.319.3-.617.426-.934.13-.319.206-.658.334-.972.13-.319.284-.627.413-.94.132-.319.254-.638.386-.951.133-.315.306-.614.439-.927.135-.315.23-.647.365-.959.137-.315.3-.617.436-.927.139-.317.3-.619.439-.927.141-.315.243-.645.384-.953.143-.315.299-.621.441-.927l.434-.929c.148-.313.306-.617.451-.92.15-.313.286-.627.434-.929.154-.311.304-.619.456-.92.156-.31.315-.612.469-.909.161-.31.345-.599.501-.894.165-.308.308-.617.467-.909.169-.306.321-.612.486-.899.18-.313.352-.621.556-.901.202-.29.42-.568.653-.834.237-.267.514-.491.769-.725.263-.241.556-.438.834-.645.286-.213.554-.443.849-.623.306-.185.608-.373.916-.527.323-.159.662-.26.983-.389.334-.133.671-.234.996-.334.349-.111.68-.226 1.007-.304.363-.087.705-.178 1.027-.234a8.08 8.08 0 011.046-.119c1.068-.033.901.133.491.788-.156.247-.371.515-.582.851-.167.261-.371.54-.569.86-.167.271-.295.597-.486.91-.167.278-.337.577-.523.888-.167.282-.375.556-.558.868-.167.284-.352.575-.53.884-.167.286-.306.601-.482.909-.167.289-.347.58-.521.888-.165.289-.341.584-.514.892-.163.293-.343.586-.514.894-.161.295-.293.616-.462.923-.161.297-.382.565-.551.875l-.489.909c-.159.299-.31.61-.475.92-.159.299-.274.629-.439.938-.158.299-.363.58-.527.89-.158.3-.267.63-.426.942-.158.3-.371.577-.532.888-.156.3-.289.619-.447.931-.156.302-.343.593-.501.907-.156.304-.247.643-.404.957-.154.304-.321.608-.464.927-.343.756-.343 1.09-.044.755.232-.258.495-.478.727-.725.235-.252.467-.502.705-.743.241-.247.478-.495.721-.729.248-.241.484-.486.734-.712.256-.234.489-.486.745-.705.265-.222.558-.404.821-.612.273-.217.547-.419.818-.619.278-.204.567-.389.845-.578.287-.193.567-.388.853-.564.29-.179.585-.35.884-.514.304-.167.578-.378.883-.523.311-.148.645-.241.955-.367.321-.13.642-.247.96-.352.326-.111.64-.254.964-.337.336-.085.679-.115 1.009-.174.341-.059.677-.1 1.012-.13.341-.032.68-.019 1.018-.019.391 0 .779-.011 1.163.057.881.161.808.417.547.619-.269.21-.714.575-.973.779-.269.211-.523.432-.782.638-.267.21-.551.393-.81.599-.265.211-.514.438-.771.645-.265.211-.519.43-.775.638-.263.213-.545.399-.799.608-.265.215-.493.464-.747.675-.263.215-.564.378-.816.59l-.775.643c-.258.219-.506.445-.756.658l-.76.656c-.258.222-.506.445-.755.664-.254.224-.519.432-.764.653-.254.226-.471.482-.716.705-.25.228-.478.475-.719.699-.25.232-.514.438-.753.664-.247.234-.708.658-.94.89-.458.462-.482.701-.375 1.337.056.339.146.933.215 1.257.074.334.126.669.204.992.082.334.165.662.252.983.089.33.211.647.308.964.1.328.167.662.274.973.111.326.258.63.376.94.121.323.217.647.347.951.135.315.328.599.469.897.148.31.271.625.426.916.159.306.363.577.53.862.174.297.324.599.506.875.189.287.358.582.554.847.204.278.43.527.64.782.219.265.438.519.662.762.234.25.452.508.692.736.25.235.508.452.762.664.263.219.525.432.79.627.278.202.545.41.825.586.289.182.599.323.89.48.302.161.59.339.89.477.311.141.638.234.946.35.321.121.63.256.946.352.328.1.662.163.983.241.334.08.669.104.992.161.341.059.667.148.992.185.343.037.679.039 1.001.057.349.019.682.067 1.003.067.334 0 .656-.024.966-.039.337-.019.658-.074.962-.104.341-.035.667-.035.962-.08.356-.054.671-.135.946-.193.723-.152.931-.026.536.68-.15.269-.397.493-.64.745-.217.224-.428.478-.701.693-.247.195-.506.404-.794.586-.269.169-.588.273-.89.426-.282.148-.566.317-.875.449-.295.124-.597.258-.912.365-.312.102-.627.194-.946.274a15.76 15.76 0 01-.959.234c-.315.063-.649.056-.979.1-.321.043-.645.087-.975.111-.326.02-.653.02-.983.02m25.575-7.57c-.388.07-.74.211-1.087.274-.393.074-.762.122-1.096.185-.371.072-.729.121-1.062.206-.369.093-.716.197-1.038.304-.365.121-.692.276-1.001.412-.356.154-.703.273-.988.441a6.035 6.035 0 00-.884.63 3.492 3.492 0 00-.71.823c-.215.356-.323.723-.291 1.042.03.315.228.56.46.771.204.182.452.354.781.443.265.07.573.056.907.056.287 0 .595-.006.921-.063.289-.048.595-.096.907-.189.286-.083.575-.197.875-.315.328-.133.658-.26.964-.432.308-.169.578-.399.866-.608.278-.206.534-.445.794-.688.252-.237.523-.46.756-.734.224-.261.412-.56.621-.855.197-.282.445-.541.621-.858.528-.947.488-1.114-.365-1.02-.482.053-.477.088-.951.175m-5.926 9.017c-.475 0-.957.05-1.43 0a7.429 7.429 0 01-.946-.176c-.321-.074-.616-.2-.905-.315a5.657 5.657 0 01-.853-.426 4.812 4.812 0 01-.781-.556c-.237-.222-.408-.497-.582-.76a3.858 3.858 0 01-.647-1.771 4.237 4.237 0 01.039-1.031c.048-.328.067-.679.193-1.022.113-.31.299-.608.482-.925.167-.284.317-.603.543-.89.204-.256.439-.519.695-.775.235-.235.508-.454.788-.684.256-.211.547-.4.845-.606.274-.191.558-.389.87-.575.287-.169.603-.315.921-.478.297-.156.59-.349.918-.497.306-.139.617-.297.949-.428.315-.126.654-.211.99-.33.319-.115.638-.26.979-.367.308-.096.634-.137.946-.235.308-.093.608-.217.923-.313l.931-.284c.308-.093.632-.135.949-.228.306-.091.601-.239.918-.33.308-.089.959-.297 1.279-.376.556-.139.488-.158.751-.753a9.21 9.21 0 00.4-1.064c.093-.323.213-.629.306-.927.102-.326.185-.649.289-.934-.022-.111-.091-.132-.202-.1-.254.25-.519.462-.777.684-.271.234-.564.425-.834.627a12.67 12.67 0 01-.857.593c-.304.191-.588.393-.89.543-.321.161-.656.26-.973.371-.339.117-.656.267-.986.33-.343.061-.69.091-1.038.089a4.6 4.6 0 01-1.116-.145 4.394 4.394 0 01-1.967-1.044 5.105 5.105 0 01-.755-.84 6.189 6.189 0 01-.486-.899 7.046 7.046 0 01-.382-.947c-.096-.319-.143-.658-.204-1.001a9.589 9.589 0 01-.13-1.012c-.02-.334-.045-.675-.037-1.023.011-.334.102-.667.139-1.012.037-.332.013-.679.074-1.02.059-.33.154-.658.237-.994.08-.326.178-.653.278-.985.102-.321.195-.649.315-.975.121-.319.278-.63.413-.949.133-.315.248-.643.399-.957.145-.311.282-.63.441-.938.159-.306.367-.586.54-.886.171-.3.373-.58.556-.873.182-.297.317-.617.51-.903.193-.289.43-.545.632-.823.206-.28.406-.562.619-.829.219-.273.402-.571.629-.827.23-.263.471-.514.708-.758.243-.25.525-.456.775-.686.26-.239.484-.508.747-.719.276-.221.569-.408.847-.597.284-.197.578-.38.881-.547.311-.169.643-.276.955-.395.332-.13.649-.269.977-.337a5.15 5.15 0 011.029-.082c.15 0 .445.072.228.486-.137.26-.551.988-.725 1.324l-.462.899c-.145.286-.308.582-.464.897-.146.293-.282.604-.436.916-.145.297-.289.603-.438.914-.145.299-.293.603-.438.912-.143.304-.31.599-.451.909-.139.308-.256.627-.393.936-.135.31-.254.627-.386.936-.132.315-.245.636-.371.946-.126.319-.241.636-.36.947-.122.323-.274.627-.384.936-.121.349-.26.671-.352.992-.1.358-.145.708-.208 1.029a7.973 7.973 0 00-.122 1.04c-.026.389-.059.738-.011 1.048.063.389.176.731.358.988.168.224.392.4.649.51.235.106.51.139.808.139.332 0 .697-.046 1.077-.174.324-.108.64-.299.979-.488a8.31 8.31 0 00.923-.588c.284-.213.584-.426.857-.684.263-.247.543-.501.784-.782.113-.319.172-.66.286-.966.119-.319.228-.634.347-.94.124-.315.284-.612.408-.914.128-.315.267-.616.397-.916.135-.311.237-.63.371-.927.143-.31.297-.604.438-.897.148-.308.306-.601.452-.89.156-.304.323-.593.478-.877.165-.3.293-.612.456-.89.174-.297.402-.549.575-.821.184-.293.363-.571.545-.836.195-.286.373-.564.565-.82.206-.278.371-.571.575-.816.219-.269.477-.486.693-.719.235-.256.426-.532.656-.751.254-.241.545-.413.79-.612.273-.222.521-.443.781-.617.293-.198.593-.336.868-.48.317-.167.591-.367.877-.473.313-.116.635-.208.962-.274.376-.074.716-.072.99-.093.797-.059.781.213.63.527-.15.315-.508 1.187-.654 1.502-.148.319-.308.629-.452.944-.148.319-.297.634-.438.949-.145.319-.33.619-.469.934-.143.321-.278.642-.415.959-.141.321-.269.645-.404.964-.137.321-.256.649-.389.968-.137.324-.241.662-.371.983-.135.324-.31.63-.441.949-.13.326-.267.649-.397.97-.13.324-.271.643-.399.964-.126.326-.241.654-.367.975l-.371.975c-.126.328-.189.677-.313 1.001-.122.328-.293.634-.413.959-.122.326-.247.651-.365.975-.122.328-.197.671-.315.996-.121.328-.28.638-.399.96-.119.328-.241.651-.36.973-.104.287-.235.56-.337.842-.106.287-.204.575-.306.857-.106.286-.278.877-.371 1.163-.167.512-.082.731.627.543.334-.089.953-.31 1.283-.4.334-.093.664-.2.992-.293.336-.096.677-.159 1.005-.254.334-.098.651-.241.979-.339.334-.102.682-.137 1.009-.239.334-.102.664-.204.988-.31.334-.106.656-.226.979-.334a56.482 56.482 0 001.947-.703c.326-.124.656-.232.97-.358.324-.13.627-.306.938-.441.321-.141.623-.308.931-.452.315-.15.64-.276.94-.432.311-.163.627-.306.92-.475.304-.176.584-.38.868-.565.295-.189.564-.404.836-.604.282-.208.593-.371.851-.591.265-.228.493-.491.732-.732.245-.242.478-.496.699-.76.223-.267.447-.53.638-.816.191-.286.371-.582.532-.888.158-.302.402-.269.395.067-.009.345 0 .686-.043 1.02-.044.339-.137.666-.217.996-.078.33-.117.673-.232.996-.115.317-.273.621-.421.931-.145.302-.269.625-.445.92-.174.287-.391.554-.597.834-.198.267-.432.514-.658.777-.219.252-.432.519-.677.764-.241.24-.49.472-.745.695-.248.222-.527.419-.797.634-.261.204-.527.417-.808.619-.271.193-.556.376-.845.566-.28.182-.578.339-.875.517-.287.171-.564.369-.866.536-.291.159-.604.289-.912.447-.297.152-.584.337-.896.486-.302.143-.623.258-.936.397-.308.135-.608.293-.927.425-.308.13-.608.295-.929.421-.311.121-.645.204-.968.321-.315.117-.627.256-.951.371-.317.109-.653.18-.979.289-.319.104-.638.222-.964.324-.323.1-.638.23-.968.328-.321.095-.658.148-.99.241-.323.093-.645.206-.977.297-.324.087-.653.18-.986.267-.428.111-.855.228-1.279.352-.66.198-.853.26-1.083.877-.146.395-.545 1.17-.716 1.52-.148.304-.297.617-.473.921-.178.296-.366.585-.564.868-.193.278-.389.564-.606.838-.211.267-.48.491-.712.749-.228.254-.456.51-.705.753-.245.237-.452.523-.716.749-.26.222-.567.389-.845.597-.549.415-1.125.793-1.724 1.131-.3.167-.616.302-.931.449a14.29 14.29 0 01-.949.397c-.319.124-.625.287-.957.389-.328.098-.658.204-.998.278-.334.076-.675.126-1.02.178-.336.05-.684.033-1.031.057a20.1 20.1 0 01-1.024.028"/></svg>