<svg width="48" height="48" viewBox="0 0 192 192" xmlns="http://www.w3.org/2000/svg"><path d="M178.798 54.997c-8.848-17.069-38.891-21.052-64.261-15.738l-16.466 3.352-10.491 2.768h-.146l-.146-.583c1.627-2.843 4.673-6.628 5.101-10.2l-21.712-5.975a38981.13 38981.13 0 01-4.955 12.968c-3.578 8.298-8.247 15.869-13.406 22.586-1.648 2.146-3.478 4.861-5.829 6.265l-.437.584c1.12 1.284 12.928 7.969 14.863 8.452l9.034-9.617 2.768-3.497 9.909-4.225.291.437c-3.887 7.539-10.598 18.164-16.903 24.627v.291l8.743 7.868h.291l8.889-8.597 4.372-4.662 7.993-.023-.038 13.863s-20.323.004-30.686.004v10.615l30.724.02s-.015 23.119-.015 25.938c-1.824.477-4.182.044-5.645-.291-9.571-2.192-8.045-9.014-6.995-19.088H62.08c-2.495 7.722-1.256 18.966 1.603 23.606 2.359 3.828 3.991 6.481 9.034 8.743 3.877 1.738 8.782 1.895 14.426 1.894 16.224-.002 29.5-2.833 40.218-8.305 3.171-1.62 6.361-3.128 8.888-5.392h.584c.519 2.155 2.088 10.135 3.351 11.22l16.903-7.285-11.512-28.416c-1.3-.227-13.472 3.662-14.135 4.518l2.477 9.617c-3.389 2.41-7.563 4.998-12.094 6.12-.883-.942-.437-4.262-.437-5.975v-17.066l30.18.017-.016-10.634-30.077-.006-.004-13.733 30.081.016V71.319l-53.04.001s-.109.004-.291-.437c2.612-3.537 5.528-6.648 7.286-11.074l-.147-.291-8.305-2.186-.29-.729 15.154-4.808c14.603-4.526 38.351-7.474 45.026 6.12 2.649 5.393 1.895 14.653 1.894 22.586v40.363c.001 10.958 1.1 18.187-4.885 24.687-4.978 4.695-10.863 5.4-15.013 5.33-4.151-.07-9.703-1.692-15.219-2.915h-.146c-.772 2.237-2.813 9.867-3.034 12.387 4.317 1.013 9.218 1.686 13.962 2.477 4.484.747 10.594.673 14.845.137 17.525-2.211 25.532-7.986 30.619-20.537 6.26-20.004 4.741-76.824-1.168-87.433zM42.232 58.786c17.828-3.847 15.6-28.227-5.246-27.832-1.214.244-2.428.486-3.643.729-4.496 1.594-8.156 4.848-9.763 9.326-3.842 10.708 8.039 20.067 18.652 17.777zm3.774 23.145c-3.011-2.907-6.208-5.818-8.843-7.845-2.504-1.926-9.145-8.219-11.949-8.889l-9.471 15.009 5.245 3.205c4.27 2.887 8.803 5.495 12.841 7.992 3.259 2.241 5.931 4.641 7.268 7.6 2.273 4.748-.291 10.448-2.331 13.551-5.548 8.443-13.09 15.422-20.109 22.44C12.974 140.68 8 145.051 8 145.051s3.031 1.748 4.391 2.623c8.54 5.277 18.671 12.32 19.672 12.094 6.273-15.004 14.239-27.998 19.526-44.153 2.009-6.136 4.715-15.29 2.478-22.878-1.333-4.513-4.555-7.424-8.061-10.806z" fill="#ff4300"/></svg>