<svg width="48" height="48" viewBox="0 0 192 192" xmlns="http://www.w3.org/2000/svg"><linearGradient id="a" gradientUnits="userSpaceOnUse" x1="1582.899" y1="-265.101" x2="865.101" y2="-982.899" gradientTransform="matrix(.25 0 0 -.25 -210 -60)"><stop offset="0" stop-color="#57019b"/><stop offset="1" stop-color="#e700c0"/></linearGradient><path d="M184 146.897C184 167.388 167.388 184 146.897 184H45.103C24.612 184 8 167.388 8 146.897V45.103C8 24.612 24.612 8 45.103 8h101.794C167.388 8 184 24.612 184 45.103v101.794z" fill="url(#a)"/><path d="M47.823 125.504L32.019 66.475h10.373l12.137 45.334 13.018-45.334h9.665l13.065 45.586 12.199-45.57 10.373-.016-15.819 59.029-12.027-.016-12.624-44.09-12.624 44.106zm94.46-9.098a8.28 8.28 0 000-16.544H126.7v16.544h15.583zM126.7 75.574v15.505h13.742a7.76 7.76 0 000-15.505H126.7zm33.276 33.056a15.745 15.745 0 01-5.179 12.058 17.751 17.751 0 01-12.593 4.832h-25.186V66.491h23.423a17.506 17.506 0 0112.247 4.722 15.111 15.111 0 015.037 11.633 14.168 14.168 0 01-5.982 12.042 15.066 15.066 0 018.233 13.726v.016z" fill="#fff"/></svg>