<svg xmlns="http://www.w3.org/2000/svg" xmlns:xlink="http://www.w3.org/1999/xlink" width="38" height="32" fill="none" xmlns:v="https://vecta.io/nano"><style><![CDATA[.B{opacity:.08}.C{fill:#f9b02c}.D{fill:#181a1b}]]></style><g class="C"><path d="M27.632 16.032v4.727c0 2.139-5.973 3.868-13.335 3.858S.948 22.851.952 20.715v-4.727l26.68.044z"/><path d="M27.608 21.724v4.727c0 2.143-5.973 3.868-13.332 3.858S.952 28.549.955 26.407V21.68l26.653.044z"/></g><path d="M27.608 21.724v4.727c0 2.143-5.973 3.868-13.332 3.858S.952 28.549.955 26.407V21.68l26.653.044z" class="B D"/><path d="M27.354 21.572c.004-2.123-5.904-3.854-13.196-3.867S.953 19.403.949 21.526s5.904 3.854 13.196 3.867 13.206-1.698 13.209-3.821z" class="C"/><path d="M27.632 16.032v4.727c0 2.139-5.973 3.868-13.335 3.858S.948 22.851.952 20.715v-4.727l26.68.044z" class="B D"/><g class="C"><use xlink:href="#B"/><use xlink:href="#C"/><path d="M27.361 15.935c.004-2.123-5.904-3.854-13.196-3.867S.96 13.766.956 15.889s5.904 3.854 13.196 3.867 13.206-1.698 13.209-3.821z"/></g><use xlink:href="#B" class="B D"/><path d="M26.412 10.336c.004-2.123-5.904-3.854-13.196-3.867S.01 8.167.007 10.29s5.904 3.854 13.196 3.867 13.206-1.698 13.209-3.821z" class="C"/><g class="D"><use xlink:href="#C" class="B"/><use xlink:href="#D" class="B"/><path d="M20.528 11.39s-10.36 3.161-8.697 18.847c0 0 6.751.228 9.956-.598 2.866-.733-1.26-18.249-1.26-18.249z" class="B"/></g><g class="C"><path d="M27.637 4.696C27.64 2.573 21.674.842 14.312.829S.977 2.527.973 4.65s5.962 3.854 13.325 3.867 13.335-1.698 13.339-3.821z"/><use xlink:href="#D"/></g><g class="B D"><use xlink:href="#D" x="0.482" y="-2.982"/></g><use xlink:href="#D" fill="#c8850e"/><path d="M27.523 29.925c5.508 0 9.972-4.554 9.972-10.172S33.031 9.581 27.523 9.581s-9.972 4.554-9.972 10.172 4.465 10.172 9.972 10.172z" fill="#da9417"/><use xlink:href="#D" x="0.482" y="-2.982" class="C"/><path d="M27.911 13.487c.278 0 .367.095.367.38v.594c1.002.105 1.864.757 2.241 1.691.146.292.082.452-.244.598l-.598.268c-.278.136-.414.071-.57-.221-.255-.622-.89-1.002-1.559-.937-1.032 0-1.508.306-1.508.998.051.435.401.778.839.815a5.88 5.88 0 0 0 .876.136c.554.027 1.097.132 1.62.316a2.23 2.23 0 0 1 .716.39 2.35 2.35 0 0 1 .645 1.701c0 1.328-.89 2.228-2.459 2.459v.635c0 .279-.085.377-.367.377h-.669c-.278 0-.377-.095-.377-.377v-.621c-1.117-.075-2.078-.815-2.435-1.875-.095-.194-.014-.431.18-.526a.48.48 0 0 1 .098-.034l.598-.221c.302-.109.438-.034.57.268.265.689.815 1.032 1.64 1.032 1.121 0 1.678-.343 1.678-1.07a.74.74 0 0 0-.523-.754 4.14 4.14 0 0 0-1.202-.231 5.48 5.48 0 0 1-1.63-.343 1.96 1.96 0 0 1-1.362-2.068c0-1.314.829-2.194 2.384-2.411v-.594c0-.282.095-.38.377-.38h.669l.003.003z" fill="#fff"/><defs ><path id="B" d="M26.658 10.382v4.727c0 2.143-5.973 3.868-13.335 3.858S-.003 17.207.001 15.061v-4.727l26.657.044v.003z"/><path id="C" d="M27.632 4.691v4.717c0 2.139-5.973 3.868-13.335 3.854S.972 11.502.975 9.363V4.636l26.657.054z"/><path id="D" d="M27.109 31.195a9.9 9.9 0 0 0 9.895-9.895 9.9 9.9 0 0 0-9.895-9.895 9.9 9.9 0 0 0-9.895 9.895 9.9 9.9 0 0 0 9.895 9.895z"/></defs></svg>