<svg xmlns="http://www.w3.org/2000/svg" xmlns:xlink="http://www.w3.org/1999/xlink" viewBox="0 0 202.9 182.5"><ellipse cx="107.8" cy="158.4" rx="95.1" ry="24.1" fill="#f6f6f6"/><path d="M22.319 86.299l6.13-3.167 14.917 28.873-6.13 3.167z" fill="#909ba0"/><path d="M45.2 123h0c-2 1-4.2.7-4.9-.8l-8.7-16.6 7.2-3.9 8.6 16.8c.7 1.5-.2 3.5-2.2 4.5z" fill="#2e4661"/><path d="M26.9 94.8l.5 1.2 9 2.6-4.1-8.1z" opacity=".12" fill="#272525"/><circle cx="20.8" cy="75.1" r="20.8" fill="#59595b"/><circle cx="20.8" cy="75.1" r="17.9" fill="#b3d1e2"/><g fill="#fff"><path d="M10.1 67.9c2.8-5 8.7-7.5 14.2-6.1s9.4 6.6 9.4 12.3c0 1.6 2.5 1.7 2.5.1 0-6.6-4.1-12.5-10.4-14.6-6.1-2.1-13 .2-16.9 5.3-.4.5-.7 1-1 1.6-.7 1.4 1.4 2.8 2.2 1.4h0z" opacity=".22"/><circle cx="34.2" cy="78.9" r="1.6" opacity=".31"/></g><path d="M31.8 105.5l6.9-3.7c.2-.1.3-.4.2-.7v-.1c-.1-.3-.5-.4-.7-.3l-6.8 3.8c-.3.1-.3.5-.2.7h0c.1.4.4.5.6.3z" fill="#a36652"/><path d="M35.8 84.1c-2.2 3.7-5.7 6.5-9.8 7.8-4 1.3-8.5 1.1-12.4-.5-4-1.7-7.3-4.9-9.1-8.8-1.8-3.8-2.2-8.2-1.1-12.3 1.1-4.2 3.9-7.9 7.6-10.2 3.5-2.3 7.9-3.2 12-2.6 4.3.6 8.3 2.9 11.1 6.2a17.53 17.53 0 0 1 4.1 11.6c.1 3.1-.8 6.1-2.4 8.8-.3.5.5 1 .8.5 2.2-3.7 3-8.1 2.4-12.3a18.28 18.28 0 0 0-5.8-10.9c-3.2-3-7.4-4.7-11.7-5-4.2-.2-8.4 1-11.8 3.4-3.6 2.5-6.1 6.3-7.2 10.5-1.1 4.1-.7 8.4 1 12.3 1.7 4 4.9 7.2 8.7 9.1s8.2 2.4 12.4 1.5c5-1.1 9.4-4.3 12.1-8.7.2-.4-.6-.9-.9-.4z" fill="#6a8678"/><g fill="#ff7f32"><path d="M70.3 118.9c-1-1.2-1.7-1.5-10.4-6.1-4.8-2.6-6.1-3.9-9.2-4.6-2.4-.5-4.4-.5-6.8-.4-4.7.1-6.1.7-6.8 1.1s-2.2 1.3-3 3.2a6.14 6.14 0 0 0 1 6.2c1.5 1.8 3.9 2.7 6.3 2.2a15.67 15.67 0 0 1 8 .1c1.9.6 3.3 1.5 6.2 3.4 2.4 1.5 4.2 3 5.5 4 1 .6 2 1.2 3 1.9.5.5.9.8 1.3 1.1.7.6 1.3 1 1.5 1.2.3.2.7.5.7.5.2.1.2.1.7.4a1.38 1.38 0 0 1 .4.3s.1.1.2.1c.2.1.5.3.9.5 2.4 1.1 5 .2 5.1-.2v-.1c0-.1 0-.2.1-.5l.1-.4c.1-1 .2-2 .2-3.1.4-4.6 1-8.5 1.4-11.2.4-2.6.7-4 .7-4s-.8 3.5-3.7 17.9c.6-8-2-11.9-3.4-13.5z"/><path d="M137.4 118.7C124.7 101 121 101.6 117 88.1s.2-28.6.2-28.6c1.1-3.1 1.8-5.8 2.2-7.9.3-1.6 1.2-6.2.7-18.8h0c-1.3-11.8-6-22.8-13.4-31.7h0c-.3-.5-.9-.9-1.6-1.1-1.3-.3-2.6.6-2.9 1.9-.1.5 0 1 0 1.1.7 3.6.7 7.5-.1 11.3-.5 2.6-1.4 5.1-2.5 7.4-.6-.2-1.2-.4-1.8-.5-.4-.1-.9-.3-1.3-.4-1.2-.3-2.4-.6-3.7-.8-1.8-.4-3.7-.6-5.5-.8h-.4c-.7-.1-1.4-.1-2.2-.2-2.6-6.4-7.3-11.8-13.4-15.2.1.1-.3-.3-.7-.3a1.74 1.74 0 0 0-2.1 1.4c-.1.3 0 .5 0 .8 1.6 4.4 2.4 9.1 2.6 14V22v.3c0 .7-.1 1.4-.1 2 0 .3-.1.7-.1 1 0 .5-.1 1-.2 1.5-.1.9-.3 1.8-.4 2.7l-.6 2.5c-.1.3-.2.6-.2.9 0 .1-.1.3-.1.4-.1.4-.2.8-.3 1.1-.1.4-.2.7-.4 1.1-.1.2-.2.5-.2.7-.1.2-.1.4-.2.6-.1.4-.3.8-.5 1.1-.1.3-.3.7-.4 1 0 0 0 .1-.1.1l-.6 1.2c-.2.3-.3.7-.5 1l-.6 1.2c-.2.3-.3.6-.5.9-.2.4-.5.8-.7 1.2-.2.3-.3.6-.5.8-.3.4-.5.8-.8 1.2-.2.3-.3.5-.5.8l-.9 1.2c-.2.2-.4.5-.6.7-.3.4-.6.8-1 1.2-.2.2-.4.4-.6.7-.3.4-.7.7-1 1.1l-.6.6c-.4.4-.7.7-1.1 1l-.6.6c-.4.3-.7.7-1.1 1-.2.2-.5.4-.7.6-.4.3-.7.6-1.1.9-.3.2-.5.4-.8.6-.1.1-.2.2-.3.2.1-.1.3-.2.4-.3 1.7 2.4 2.2 8.3 2.2 8.3 4.8-1.2 9.4-3 13.5-5.7 1.8-1.2 3.4-2.5 5-3.9l.3-.3c.7-.6 1.3-1.3 2-1.9l.4-.4c.7-.7 1.3-1.5 2-2.3l.1-.1c.7-.8 1.3-1.7 1.9-2.6a.76.76 0 0 0 .2-.4c.5-.7 1-1.5 1.4-2.2.2-.3.3-.5.5-.8.4-.7.7-1.4 1.1-2.1.1-.3.3-.6.4-.8.4-1 .9-1.9 1.3-2.9 2.1-5.7 8.1-9.2 14.2-8l1.2.3c.1 0 .3.1.4.1.3.1.5.2.8.3.2.1.3.2.5.2l.6.3c.2.1.4.2.5.3.2.1.3.2.5.3s.4.3.6.4c.1.1.3.2.4.3.2.2.4.3.6.5l.3.3.6.6c.1.1.2.2.2.3.2.2.4.5.6.7l.2.2c.2.3.4.5.5.8 0 .1.1.1.1.2.2.3.3.6.5.9 0 0 0 .1.1.1.1.3.3.7.4 1v.1c.1.4.2.7.3 1.1s.2.8.2 1.1h0c.2 1.4.2 2.9-.1 4.3v.1c-.2 1.4-.4 2.9-.7 4.3-.6 3.1-1.4 6-2.5 8.9-9.6.1-22 .7-22.4 2.8-.8 3.5-3.8 15.8-7 24s2 35 2 35 4 38.2 5.8 47.2c.2.8 2.7 1.8 2.7 1.8h45.8c5.4 0 13.6-4.4 15.2-11.8 1.4-11.1-2.4-28.1-10.6-39.6z"/><path d="M88.4 90.7l-18 70.3s-8.1-1.7-10 3.3.8 6 .8 6h16.5S80 170 81 168s22-66.3 22-66.3l-.6-18.6-14 7.6z"/><path d="M70.3 122.2c-2.3.6-4 2.4-4.1 4.3-.3 2.7 2.7 4.5 3.6 5.1 2.3 1.4 4.6 1.3 5.3 1.2.6 15.5-2.1 22.7-4.8 26.4-.7 1-3 3.9-2 6.1.9 2.2 5.2 3.7 5.7 2.8 1-2 13.5-74.8 13.5-74.8l-5.8-32.1a117.03 117.03 0 0 0-9.9 31.2c-2.2 11.8-2.2 22-1.5 29.8z"/></g><g fill="#fff"><path d="M105.9 59.7s-7.7 10.1-13.4 20.4-11.8 43.5-11.8 43.5-5.8-20.5-4.2-35.5c1.7-15 7.7-27.3 7.7-27.3l21.7-1.1z"/><path d="M109.1 45.8s0-.1 0 0a13.11 13.11 0 0 0 .1-4.4h0c-.1-.4-.1-.8-.2-1.1l-.3-1.1v-.1c-.1-.3-.3-.7-.4-1 0 0 0-.1-.1-.1-.1-.3-.3-.6-.5-.9 0-.1-.1-.1-.1-.2l-.5-.8-.2-.2c-.2-.2-.4-.5-.6-.7-.1-.1-.2-.2-.2-.3l-.6-.6-.3-.3c-.2-.2-.4-.3-.6-.5-.1-.1-.3-.2-.4-.3-.2-.1-.4-.3-.6-.4s-.3-.2-.5-.3-.4-.2-.5-.3l-.6-.3c-.2-.1-.3-.2-.5-.2-.2-.1-.5-.2-.8-.3-.1 0-.3-.1-.4-.1l-1.2-.3c-6.2-1.2-12.1 2.3-14.2 8-.4 1-.8 2-1.3 2.9-.1.3-.3.6-.4.8-.3.7-.7 1.4-1.1 2.1-.1.3-.3.5-.5.8-.4.8-.9 1.5-1.4 2.2a.76.76 0 0 0-.2.4c-.6.9-1.3 1.8-1.9 2.6l-.1.1c-.6.8-1.3 1.5-2 2.3l-.4.4c-.6.7-1.3 1.3-2 1.9l-.3.3c-1.6 1.4-3.3 2.7-5 3.9-4.1 2.7-8.7 4.8-13.5 6v.1c6.4.8 13.6.7 20.3.1 11.8-1 9.4-2.4 17.6-2.5 9.5-.1 11.6-1.8 12.7-3 .2-.3.4-.5.5-.7.2-.7.5-1.3.7-2 .7-2 1.1-3.7 1.4-4.9.2-1 .4-1.7.5-2.7a29.02 29.02 0 0 1 .6-4.3z"/></g><path d="M87.2 64.3c-11 1.9-22 2.5-33.3 1.4-.1 0-.1.2 0 .2 10.8 1.7 22.1 1.7 32.9-.3.1-.5.3-.9.4-1.3z" fill="#d6d6d6"/><path d="M52.7 57.7c-1.6 1.2-3.2 2.2-4.9 3.2h0c-.5.3-.9.9-1.1 1.6-.3 1.3.6 2.6 1.9 2.8.1 0-.1 0 0 0 .7.2 1.7.4 2.4.5 1.3.3 2.6 0 3.9.2.5-3.2-.4-5.9-2.2-8.3z"/><path d="M101.2 103.5L83 161.6l-1.4 4.4c2.8 4.3 5.4 4.3 5.4 4.3s-3.1-.9-3.1-5.6 6.2-5.1 6.2-5.1l18.8-.1s-18.4.8-17.7-14.2c0-17.2 24.2-25.8 24.2-25.8s-8 1.8-16.2 8.5-5.5 5.2-5.5 5.2l7.5-29.7zm-20.5 20.1L71 161.2l3.2 2.3c-1.1-.9-2.9-1.9-5.3-2.3-1.2-.2-2.4-.4-3.8.2-.3.1-2.1.9-3 2.7-.3.7-.4 1.3-.5 1.7-.1.8-.3 1.7.1 2.7.1.4.5 1.1 1.3 1.8h-1.6c-.2-.1-.4-.3-.7-.5-1.4-1.5-.8-4.8.5-6.7 1.6-2.2 4.7-3.1 7.9-2.4l9.6-45.2 2 8.1z" fill="#f26522"/><path d="M142.2 25.3c-.2 1 .1 1.9.7 2.6 17.1 20.3 24.8 48.1 18.5 76-3.6 16-11.4 29.9-21.9 41l-1.1 24.3c25.8-7.5 46.8-30.4 53.2-58.4 8.4-37.1-11.8-74-46.1-87.6-1.5-.5-3 .5-3.3 2.1zm3.4 2.8c-.2-.3-.2-.6-.2-1 .2-.7.9-1.2 1.6-1 .1 0 .1.1.2.1 13.1 5.3 23.4 12.7 31.2 23.7-3.6 6.5-9.9 10.2-17.4 10.1-3.2-11.4-7.9-22.8-15.4-31.9h0 0z" fill="#ff7f32"/><path d="M147.2 26.2c-.1 0-.1-.1-.2-.1-.7-.2-1.4.3-1.6 1-.1.4 0 .7.2 1h0c7.4 9 12.2 20.4 15.4 31.8 7.5.1 13.8-3.6 17.4-10.1-7.7-10.9-18.1-18.4-31.2-23.6h0z" fill="#fff"/><path d="M157.8 130.1c5.5-17.6 4.8-33.9 5.6-39 0 0-.1.3-.2.7-.3 4-.9 8-1.9 12-2.8 12.5-8.2 23.8-15.5 33.4 2.4 7.5-.1 19.8-.1 19.8s6.6-9.3 12.1-26.9z" fill="#f26522"/><path d="M97.9 44c-.3-.5-.5-.8-.8-1.1-.1-.4-.3-.7-.5-1-.6-.6-1.2-.9-1.9-.9s-1.4.3-1.9.9c-.2.3-.4.6-.5 1a4.44 4.44 0 0 0-.8 1.1c-.3-.5-.4-1-.4-1.5.2-.5.4-1 .8-1.4.7-.8 1.7-1.4 2.9-1.4 1.1 0 2.2.6 2.9 1.4.3.4.6.9.8 1.4-.2.5-.3 1.1-.6 1.5zm5.2 11.8c-.7.3-1.5.3-2.2.2-.8-.1-1.5-.5-2.1-1s-1.1-1.1-1.4-1.8a4.22 4.22 0 0 1-.3-2.2c.6 1.4 1.3 2.4 2.3 3.2 1 .9 2.2 1.4 3.7 1.6z"/><path d="M98.7 53.8c-.2 1.7-1.2 3.1-2.3 4.4s-2.4 2.3-3.7 3.2c-.7.5-1.4.8-2.1 1.2l-2.2 1c-1.5.6-3.1 1-4.7 1.1l-.1-.1c2.9-1.2 5.6-2.7 8.2-4.5l3.7-2.8c1.1-1.1 2.3-2.2 2.9-3.6l.3.1z"/><path d="M96.5 62.6c-2.7 1.1-5.9 2.1-9.7 2.9-2.2.4-4.2.7-6.1.8l-.3-.6 6.8-1.4 9.3-1.7z" fill="#d6d6d6"/><g fill="#f26522"><use xlink:href="#B"/><use xlink:href="#B" x="2.4" y="3.7"/></g><defs ><path id="B" d="M34.1 115.5c0-.7.2-1.5.5-2.2.4-.7.9-1.2 1.6-1.7.7-.4 1.4-.7 2.2-.7.8-.1 1.5.1 2.2.4-1.5.1-2.7.4-3.8 1.1-1.1.8-2 1.8-2.7 3.1z"/></defs></svg>