<svg xmlns="http://www.w3.org/2000/svg" viewBox="0 0 292 243.6" xmlns:v="https://vecta.io/nano"><path d="M93.2 82v.2l7.4.6-7.2-.8h-.2z" fill="#fff"/><path d="M93.3 81.7h0c.5-3.7-.5-7.4-2.7-10.3h0a64.1 64.1 0 0 1-6.1 4h0c-.7.4-1.2 1.1-1.3 1.9-.3 1.6 2.4 3.5 2.4 3.5.9.2 2.1.4 3 .6 1.1.2 2.2.2 3.3.2.4.1.9.1 1.4.1z"/><ellipse cx="160.8" cy="211.1" rx="131.2" ry="32.5" fill="#f6f6f6"/><path d="M226.5 121.4c0-.2.1-.4.1-.6 0 .2-.1.4-.1.6zm.5-3.8v-.3.3zm-1.1 7.4c0-.2.1-.5.1-.7-.1.3-.1.5-.1.7z" fill="#ff7f32"/><path d="M207.6 32.4h0c-.1 0-.2 0-.2-.1-.9-.2-1.8.4-2 1.3h0a1.64 1.64 0 0 0 .2 1.2h0 0v.1c9.2 11.2 15.1 25.3 19.1 39.4 9 .2 17.3-4.6 21.6-12.6-9.7-13.5-22.5-22.8-38.7-29.3z" fill="#fff"/><path d="M139.5 53.2c.2-.4.4-.8.7-1.2 1-1.3 2.8-1.5 4.1-.5.2.2.4.3.5.5.3.4.5.8.7 1.2.4.4.8.9 1 1.4.3-.6.5-1.2.5-1.9-.2-.6-.6-1.2-1-1.7-1.5-2-4.4-2.3-6.3-.7-.3.2-.5.5-.7.7-.4.5-.7 1.1-1 1.7 0 .7.2 1.3.5 1.9.2-.6.6-1 1-1.4z"/><path d="M126.6 82.4c6.2-.4 12.3-1.9 17.9-4.5L133.1 80c0-.1.1-.2.1-.2-.8.1-1.5.2-2.3.4-.2 0-.4.1-.6.1-11.9 1.9-23.9 2.4-35.9 1.4-.3 0-.5 0-.8-.1h-.2v.1c-.5-.1-1-.1-1.5-.1 0 .1 0 .1.1.1h0c.5.1 1 .1 1.5.2l7.2.8c8.1.7 16.2.6 24.3-.3h.4c.3.1.8 0 1.2 0z" fill="#d6d6d6"/><path d="M137.5 77.8l2.6-1.5c1.7-1.1 3.2-2.5 4.6-4 1.2-1.3 2-2.8 2.6-4.4.1.1.2.2.4.3.8.6 1.6 1 2.6 1.2.9.2 1.9.1 2.7-.2-3.4-.4-6.3-2.7-7.4-5.9-.1.9 0 1.9.4 2.7.2.6.6 1.1 1 1.5-.9 1.4-2 2.6-3.2 3.7-1.4 1.3-3 2.4-4.6 3.5-3.2 2.2-6.6 4-10.2 5.5l.1.2c.4 0 .9-.1 1.3-.1.2 0 .4-.1.6-.1 1.4-.2 2.7-.6 3.9-1.1.8-.4 1.7-.8 2.6-1.3z"/><path d="M61.6 113.2l-4.3-8.6-2.7 15.5 38.1 6.7 8.6-9.1-4-9.1-35.7 4.6zm33.3 4.9c-.7 0-1.3-.6-1.3-1.3s.6-1.3 1.3-1.3 1.3.6 1.3 1.3-.6 1.3-1.3 1.3h0 0z" fill="#9d2b2c"/><path d="M72.6 98.6c-.9.3-1.3 1.2-1.1 2.1.2.7 1 1.2 1.8 1.1.9-.3 1.3-1.2 1.1-2.1-.2-.7-1-1.1-1.8-1.1zm10.1 4.7c-.8.2-1.3 1-1.1 1.8v.2c.1.8.8 1.4 1.7 1.3s1.4-.8 1.3-1.7c0-.1 0-.2-.1-.3-.1-.8-.8-1.4-1.7-1.4 0 .1 0 .1-.1.1zm10.8-15.2l-12.4 2.6-16.6 3.5-8.8 1.9 4.3 20.4 37.9-8 4.6-11.6-9-8.8zm-23.6 12.8c-.4-1.7.7-3.4 2.5-3.8 1.7-.4 3.4.7 3.8 2.5.3 1.7-.9 3.4-2.6 3.7s-3.3-.7-3.7-2.4zm5.9 8.6c-.3.1-.6-.1-.7-.4v-.3l4.8-12.9a.78.78 0 0 1 .4-.4c.3-.1.6.1.7.5v.3l-4.8 12.9c-.1.2-.2.3-.4.3h0zm7.9-1.6c-1.6.4-3.3-.5-3.7-2.1 0-.1 0-.2-.1-.2a3.11 3.11 0 0 1 2.4-3.8c1.8-.4 3.4.6 3.8 2.4.5 1.6-.6 3.3-2.4 3.7h0zm11.7-8.1c-.7 0-1.3-.6-1.3-1.3s.6-1.3 1.3-1.3 1.3.6 1.3 1.3h0c0 .8-.6 1.3-1.3 1.3h0z" fill="#e21e26"/><path d="M73.6 103.3c-1.6.4-3.3-.5-3.7-2.1 0-.1 0-.2-.1-.2-.4-1.7.7-3.4 2.5-3.8 1.7-.4 3.4.7 3.8 2.5.4 1.6-.6 3.2-2.2 3.6h-.3zm-.3-1.4c.9-.3 1.3-1.2 1.1-2.1-.2-.8-1-1.2-1.8-1.1-.9.3-1.3 1.2-1.1 2.1.3.7 1.1 1.1 1.8 1.1zm2.9 7.3a.78.78 0 0 1-.4.4c-.3.1-.6-.1-.7-.4v-.3L79.9 96a.78.78 0 0 1 .4-.4c.3-.1.6.1.7.5v.3l-4.8 12.8zm7.5-1.3c-1.6.4-3.3-.5-3.7-2.1 0-.1 0-.2-.1-.2-.4-1.7.6-3.4 2.3-3.8s3.4.6 3.8 2.3c.6 1.7-.5 3.4-2.3 3.8h0zm-.3-1.4c.8-.2 1.3-.9 1.2-1.7v-.2c-.1-.8-.8-1.4-1.7-1.3s-1.4.8-1.3 1.7c0 .1 0 .2.1.3.1.8.8 1.4 1.7 1.2-.1 0 0 0 0 0h0zm40.4 41l1.4 5.6s7.6-41.1 14.7-53.9c5-8.8 10.5-17.2 16.6-25.2 1.4-3.7 2.4-7.4 3.2-11.3.3-1.8.6-3.6.8-5.3v-.1c.3-1.8.4-3.6.1-5.4h0l-.3-1.4h0c-.1-.5-.2-.9-.4-1.3v-.1c-.2-.4-.3-.8-.5-1.2 0-.1 0-.1-.1-.2-.2-.4-.4-.8-.6-1.1 0-.1-.1-.1-.1-.2-.2-.3-.4-.7-.6-1-.1-.1-.1-.2-.2-.3-.2-.3-.4-.6-.7-.9l-.3-.3c-.2-.3-.5-.5-.7-.7-.1-.1-.2-.2-.4-.3-.2-.2-.5-.4-.7-.6-.2-.1-.3-.2-.5-.4s-.5-.3-.7-.5c-.2-.1-.4-.2-.6-.4-.2-.1-.4-.3-.7-.4s-.5-.2-.7-.4l-.6-.3-.9-.3c-.2-.1-.3-.1-.5-.2-.5-.1-1-.3-1.5-.4-7.5-1.5-15 2.7-17.6 9.9-.5 1.2-1 2.4-1.6 3.6-.2.3-.3.7-.5 1-.4.9-.9 1.7-1.3 2.5-.2.3-.4.7-.6 1-.5.9-1.1 1.9-1.7 2.8-.1.2-.2.3-.3.5l-2.4 3.2c0 .1-.1.1-.1.2-.8 1-1.6 1.9-2.4 2.8l-.5.5-2.4 2.4c-.1.1-.3.2-.4.4-6.3 5.7-13.8 9.8-21.9 11.9 12 1 24 .5 35.9-1.4-.4.1-.8.1-1.3.1l-.1-.2c3.6-1.5 7-3.3 10.2-5.5 1.6-1 3.2-2.2 4.6-3.5 1.2-1.1 2.3-2.3 3.2-3.7-.4-.5-.7-1-1-1.5-.4-.9-.5-1.8-.4-2.7 1.2 3.2 4 5.5 7.4 5.9-.9.3-1.8.4-2.7.2a6.82 6.82 0 0 1-2.6-1.2c-.1-.1-.3-.2-.4-.3-.5 1.6-1.4 3.1-2.6 4.4-1.3 1.5-2.9 2.9-4.6 4-.8.6-1.7 1-2.6 1.5a15.95 15.95 0 0 1-2.7 1.2c-1.3.5-2.6.9-3.9 1.1.8-.1 1.5-.2 2.3-.4 0 .1-.1.2-.1.2l11.4-2.1c-5.6 2.6-11.7 4.1-17.9 4.5a117.01 117.01 0 0 0-6.5 26.7c-1.6 13.3 1.6 30 3.6 38.5zm22.7-92.9c-.3-.5-.6-1-1-1.4-.1-.4-.4-.9-.7-1.2-1-1.3-2.8-1.5-4.1-.5-.2.2-.4.3-.5.5-.3.4-.5.8-.7 1.2-.4.4-.8.9-1 1.4-.3-.6-.5-1.2-.5-1.9.2-.6.5-1.2 1-1.7 1.5-2 4.4-2.3 6.3-.7.3.2.5.5.7.7.4.5.7 1.1 1 1.7 0 .6-.2 1.3-.5 1.9z" fill="#fff"/><g fill="#f26522"><path d="M133.5 204.7c0-5.8 5.7-2.8 5.7-2.8l31.7-1.6c-4.6-.1-19.4-5.2-18.6-21.3 0-21.4 30.6-37 30.6-37s-24 3.9-34.2 12.3c-3.8 3.1-2.8 2.9-3.7 3.8l7.4-36-27.6 76.8 1.6 6.7c.1.1.1.2.2.2 3.1 4.6 5.9 5.1 6.4 5.1h.1s.4-.3.4-6.2z"/><path d="M160.2 197.6h-1.1 1.1zm-54.4 3.6c5.5-1.2 13.8 2.7 13.8 2.7l-2.6-4.4 8.1-46.5-1.4-5.6-1.2-4.8-1.2 7.1h-1.1l-1.7 10.6-.3 5.6-.9-.5c-.2.9.5 2 .3 2.8l-5.7 30.7s-10-2.2-12 5.8l1.1 1c-.2 1.4 1 1.1.9 1.4-.1.2-.8.1-.8.1l-1.1.4v-.5c.1.1-.8-4.2 5.8-5.9z"/></g><path d="M205.5 28.5c-1.9-.3-3.8.9-4.2 2.8-.2 1.1.1 2.3.9 3.2 18.6 22 27.7 50.5 25.2 79.2h0l.2-.9c-1 6.3-2.9 26.1-9.7 48s-10.1 27.4-10.1 27.4c.5-6.1-.1-12.3-1.9-18.2h0c-2.2-8.2-5.7-15.9-10.5-22.9-15.7-21.9-20.2-21.2-25.2-37.9-4.9-16.7.2-35.3.3-35.4h.2c3.6-10.6 4.8-21.9 3.5-33h0c0-.3-.1-.6-.1-.9l-.3-2.3c-2.1-13.3-7.7-25.8-16.3-36.2h0c-.9-1.4-2.8-1.8-4.2-.9-.7.4-1.2 1.1-1.3 2-.1.4-.1.9.1 1.3 1.5 7.9.4 16-3.2 23.2-.7-.2-1.5-.4-2.3-.6-.5-.2-1.1-.3-1.6-.5-1.5-.4-3-.7-4.6-1-2.3-.4-4.6-.8-6.8-1h-.4c-.9-.1-1.8-.2-2.7-.2-1.5-3.7-3.7-7.2-6.3-10.3a1.38 1.38 0 0 1-.3-.4c-2.8-3.3-6.2-6-10-8.1-.3-.2-.6-.4-.9-.4-1.2-.2-2.4.6-2.6 1.8-.1.3 0 .7 0 1 2 5.6 3 11.4 3.2 17.3h0v2.8.4c0 .8-.1 1.7-.1 2.5 0 .4-.1.8-.1 1.3-.1.6-.1 1.3-.2 1.9-.1 1.1-.3 2.3-.5 3.4-.2 1-.4 2.1-.7 3.1-.1.4-.2.7-.3 1.1 0 .2-.1.3-.1.5-.1.5-.3.9-.4 1.4-.1.4-.3.9-.4 1.3-.1.3-.2.6-.3.8-.1.3-.2.5-.3.8-.2.5-.4.9-.6 1.4-.2.4-.3.8-.5 1.2 0 .1 0 .1-.1.2-.2.5-.5 1-.7 1.5-.2.4-.4.8-.6 1.3-.3.5-.5 1-.8 1.5-.2.4-.4.8-.6 1.1l-.9 1.5c-.2.3-.4.7-.6 1-.3.5-.7 1-1 1.5-.2.3-.4.6-.7.9-.4.5-.7 1-1.1 1.5-.2.3-.4.6-.7.9-.4.5-.8 1-1.2 1.4-.2.3-.5.5-.7.8-.4.5-.8.9-1.3 1.4-.2.3-.5.5-.7.8l-1.3 1.3c-.3.2-.5.5-.8.7-.5.4-.9.8-1.4 1.2-.3.2-.6.5-.9.7l-1.4 1.1c-.3.2-.6.5-1 .7-.1.1-.3.2-.4.3.2-.1.4-.2.5-.4h0c2.2 2.9 3.2 6.6 2.7 10.2h.2c5.9-1.4 11.4-3.8 16.5-7 2.2-1.5 4.3-3.1 6.2-4.8.1-.1.3-.2.4-.4l2.4-2.4.5-.5c.8-.9 1.6-1.8 2.4-2.8 0-.1.1-.1.1-.2.8-1 1.6-2.1 2.4-3.2.1-.2.2-.3.3-.5.6-.9 1.2-1.8 1.7-2.8.2-.3.4-.7.6-1 .5-.8.9-1.7 1.3-2.5.2-.3.3-.7.5-1 .5-1.2 1.1-2.4 1.6-3.6 2.6-7.2 10.1-11.4 17.6-9.9.5.1 1 .2 1.5.4.2.1.3.1.5.2l.9.3.6.3c.2.1.5.2.7.4s.5.3.7.4.4.2.6.4.5.3.7.5c.2.1.3.2.5.4s.5.4.7.6c.1.1.3.2.4.3l.7.7.3.3c.2.3.5.6.7.9.1.1.1.2.2.3.2.3.4.7.6 1 0 .1.1.1.1.2.2.4.4.7.6 1.1 0 .1 0 .1.1.2.2.4.4.8.5 1.2v.1c.2.4.3.9.4 1.3h0l.3 1.4h0c.3 1.8.3 3.6-.1 5.4v.1c-.2 1.8-.5 3.6-.8 5.3-.7 3.8-1.8 7.6-3.2 11.3-6.1 8-11.6 16.5-16.6 25.2-7 12.8-14.7 53.9-14.7 53.9l-12 46.5 3.9 2.9s-5.8-3.8-11.3-2.6c-6.6 1.7-6.3 7.3-6.3 7.3 0 3.4 1.7 3.8 1.7 3.8h20.4c1.7-.3 3.3-1.4 4.1-2.9.1-.2.4-1 .8-2.2-.1-.1-.1-.2-.2-.2l1.7-5.5 22.5-72-8.9 36.2c.9-.9 2.8-2.6 6.6-5.7 5.9-4.9 12.7-8.5 20.1-10.5 0 0-30 10.5-30 31.9-.8 16.1 16.2 17.5 20.8 17.5h1.1-1.1l-22.1.1s-7.7.5-7.7 6.3 3.9 7 3.9 7h-.1.1 56.7c2.4-.1 4.8-.6 7-1.6 31.9-9.3 57.9-37.6 65.8-72.4 10.2-45.2-13.9-91.2-57-108.5zm19.2 45.8c-4-14.1-9.9-28.2-19.1-39.4v-.1h0 0c-.2-.4-.3-.8-.2-1.2.2-.9 1.1-1.5 2-1.3h0c.1 0 .1.1.2.1h0c16.2 6.5 29 15.8 38.7 29.3-4.3 8-12.6 12.8-21.6 12.6h0z" fill="#ff7f32"/><path d="M205.8 194.6s8-11.6 14.9-33.4 5.9-42 7-48.3l-.2.9h0l-.4 3.6v.3l-.4 3.2c0 .2-.1.4-.1.6l-.5 2.9c0 .2-.1.5-.1.7l-.7 3.6-.8 3.3-.3 1.1-.6 2.3c-.1.4-.2.8-.4 1.2l-.7 2.2c-.1.4-.2.7-.4 1.1-.3 1-.7 2-1.1 3-.2.4-.3.9-.5 1.3-.2.6-.5 1.2-.7 1.7s-.4 1.1-.7 1.6l-.6 1.4-.8 1.7c-.2.3-.3.7-.5 1l-3.4 6.5c-.1.2-.2.3-.3.5l-1.3 2.2c-.1.1-.1.2-.2.3a112.17 112.17 0 0 1-6.2 9.1h0c3.1 9.1 0 24.4 0 24.4z" fill="#f26522"/><path d="M119.4 160.4h0l2-10.6h0l1.3-6.7 1.1 4.4c-2-8.5-5.2-25.2-3.7-38.4a117.01 117.01 0 0 1 6.5-26.7c-.4 0-.8.1-1.2.1h-.4c-3.8 10.8-11.6 34.4-14.6 53.6-.1.6-.1 1.2-.2 1.7-.3 1.6-.9 3-1.6 4.4-4.8-2.5-8.9-4.5-12.2-6.1-9.6-4.7-13.7-6.3-19.1-6.6-5.7-.2-7.7 1.3-8.6 2.2-1.6 1.7-2.4 4-2.4 6.3-.1 3 1.1 6 3.2 8.1 4.9 4.8 11.1-.3 20.2 3.4 5.1 2 5.1 4.5 12.7 10.2 4.8 3.6 10 6.6 15.6 8.8.2-.9.3-1.7.5-2.6.1-1.8.5-3.6.9-5.5zm-48.6-27.6a1.54 1.54 0 0 1 1.5 1.5 1.54 1.54 0 0 1-1.5 1.5 1.54 1.54 0 0 1-1.5-1.5h0c-.1-.8.6-1.5 1.5-1.5h0 0zm-.9 8.2a1.54 1.54 0 0 1-1.5-1.5 1.54 1.54 0 0 1 1.5-1.5 1.54 1.54 0 0 1 1.5 1.5h0c.1.8-.6 1.5-1.5 1.5h0zm3.1 4.1a1.54 1.54 0 0 1-1.5-1.5 1.54 1.54 0 0 1 1.5-1.5 1.54 1.54 0 0 1 1.5 1.5h0a1.47 1.47 0 0 1-1.5 1.5h0zm7.2-2.6c-3.6 0-6.5-1.8-6.5-4.1s2.9-4.1 6.5-4.1 6.5 1.8 6.5 4.1-2.9 4.1-6.5 4.1h0z" fill="#ff7f32"/><path d="M68.1 130.7c-.1.1-.1.1 0 0h0 0z" fill="#f9aa3c"/><g fill="#ffc2c5"><ellipse cx="80.2" cy="138.4" rx="6.5" ry="4.1"/><path d="M70.8 135.9a1.54 1.54 0 0 0 1.5-1.5 1.54 1.54 0 0 0-1.5-1.5 1.54 1.54 0 0 0-1.5 1.5h0c-.1.8.6 1.5 1.5 1.5h0zm-.9 2a1.54 1.54 0 0 0-1.5 1.5 1.54 1.54 0 0 0 1.5 1.5 1.54 1.54 0 0 0 1.5-1.5h0c.1-.8-.6-1.5-1.5-1.5zM73 142a1.54 1.54 0 0 0-1.5 1.5A1.54 1.54 0 0 0 73 145a1.54 1.54 0 0 0 1.5-1.5h0A1.47 1.47 0 0 0 73 142z"/></g><linearGradient id="A" gradientUnits="userSpaceOnUse" x1="9.306" y1="136.775" x2="56.692" y2="169.531"><stop offset="0" stop-color="#71cc16"/><stop offset=".225" stop-color="#65c714"/><stop offset=".627" stop-color="#46b90f"/><stop offset="1" stop-color="#24a90a"/></linearGradient><circle cx="28.8" cy="150.3" r="28.8" fill="url(#A)"/><path d="M28.8 179.6C12.9 179.6 0 166.7 0 150.8S12.9 122 28.8 122s28.8 12.9 28.8 28.8h0c0 15.9-12.9 28.8-28.8 28.8zm0-55.7c-14.8 0-26.9 12-26.9 26.9s12 26.9 26.9 26.9c14.8 0 26.9-12 26.9-26.9s-12-26.9-26.9-26.9h0z" fill="#49c00f"/><path d="M44 136.8c-1.7-1.7-5.1-2-6.8 0l-8.4 10.4-4 4.9c-.5.6-1 1.5-1.6 2.3l-.4-.4-2.7-2.8c-4.3-4.4-11.1 2.3-6.8 6.8 2.2 2.3 4.5 5.5 7.5 6.7 3.3 1.3 6.2-.3 8.3-2.8 5-6 9.8-12.2 14.7-18.3 1.9-2 2.2-4.8.2-6.8z" fill="#fff"/><path d="M37.1 125.4c-6.3-2.7-23.6-3.3-32.4 13.8 8.2-9.9 17.2-14.9 32.4-13.8z" fill="#bdde23"/><path d="M23.1 176.9c14.6-1.1 24.7-9.6 31.8-19.9-1.1 6.4-5.5 12.3-10.7 16-6.3 4.1-13.9 5.5-21.1 3.9" fill="#15a208"/></svg>