<svg xmlns="http://www.w3.org/2000/svg" viewBox="0 0 316.8 250.1"><ellipse cx="182.9" cy="216.9" rx="134" ry="33.2" fill="#f2f1f1"/><path d="M180.9 59.8l11.4 8.8-4 15.5s-10.5.7-10.9.1c-1.2-2.9-2.3-6-3.1-9 0-.9 6.6-15.4 6.6-15.4zm49.9-23.4c.6 2.4 5.3 6.7 5.7 7.1l5.7 11.2 11.6 25.7 15.6-5.2 6.6-10.1c-2.5-3.5-5.4-6.8-8.6-9.7-1.9-1.7-3.8-3.3-5.9-4.7L251 42.1l-10.8-5.8-7.5-3.2c-.9.3-1.7 1-2 1.9 0 .5 0 .9.1 1.4z" fill="#fff"/><g fill="#ff7f32"><path d="M197.2 77.5s-5.3 19.1-.3 36.3 9.8 16.4 25.8 38.9c10.4 14.5 15.2 36 13.5 50.5-2.1 9.3-12.4 14.9-19.3 14.9h-58.1s-3.2-1.3-3.4-2.3c-2.3-11.4-7.3-59.8-7.3-59.8s-6.7-33.9-2.5-44.4 7.9-26 8.9-30.4c.9-4.6 42.7-3.7 42.7-3.7z"/><path d="M194.7 37h0C190 22.8 181.4 10.3 169.9.9h0c-.6-.6-1.4-.9-2.2-.9a3.12 3.12 0 0 0-3.1 3.1 3.08 3.08 0 0 0 .3 1.3c1.8 4.5 2.8 9.3 2.8 14.2 0 3.3-.4 6.6-1.2 9.8-.8-.1-1.6-.1-2.4-.2-.6 0-1.2-.1-1.7-.1-1.6-.1-3.2-.1-4.8-.1-2.4 0-4.7.1-7.1.4-.2 0-.3 0-.5.1l-2.7.3c-4.9-7.3-12.1-12.8-20.5-15.5-.3-.2-.7-.2-1-.2a2.26 2.26 0 0 0-2.3 2.3 1.93 1.93 0 0 0 .3 1c3.1 5.2 5.4 10.8 6.7 16.7h0l.6 2.8c0 .1.1.3.1.4.1.8.3 1.7.4 2.6.1.4.1.9.1 1.3.1.7.1 1.3.2 2 .1 1.2.1 2.3.1 3.5 0 1.1 0 2.2-.1 3.3 0 .4-.1.8-.1 1.2v.5c0 .5-.1 1-.1 1.5s-.1.9-.2 1.4c0 .3-.1.6-.1.9s-.1.6-.1.8l-.3 1.5-.3 1.4v.2c-.1.5-.3 1.1-.4 1.6l-.3 1.4c-.2.6-.3 1.1-.5 1.7-.1.4-.3.9-.4 1.3-.2.6-.4 1.1-.6 1.7-.1.4-.3.8-.4 1.2-.2.6-.5 1.1-.7 1.7-.2.4-.3.7-.5 1.1-.3.6-.5 1.1-.8 1.7-.2.3-.3.7-.5 1-.3.6-.6 1.1-.9 1.7-.2.3-.4.6-.5 1-.3.6-.7 1.1-1 1.6l-.6.9a15.26 15.26 0 0 1-1.1 1.6l-.6.9c-.4.5-.8 1-1.1 1.5-.2.3-.5.6-.7.9-.4.5-.8.9-1.2 1.4-.3.3-.5.6-.8.9a1.38 1.38 0 0 0-.3.4c.1-.2.3-.3.5-.5 2.8 2.6 4.8 9.8 4.8 9.8 5.7-2.6 10.9-6.1 15.3-10.5 1.9-1.9 3.7-4 5.3-6.1.1-.2.2-.3.3-.5.7-.9 1.3-1.9 2-2.9.1-.2.3-.4.4-.6.7-1.1 1.3-2.2 1.9-3.3 0-.1.1-.1.1-.2.6-1.2 1.2-2.5 1.7-3.7.1-.2.1-.4.2-.5l1.2-3.1c.1-.4.2-.7.4-1.1.3-.9.6-1.9.8-2.8.1-.4.2-.8.3-1.1.3-1.3.7-2.6.9-3.9 1.2-7.7 7.8-13.5 15.7-13.5.5 0 1.1 0 1.6.1.2 0 .4.1.6.1.3 0 .7.1 1 .1.2 0 .5.1.7.2.3.1.5.1.8.2s.5.2.8.3c.2.1.5.2.7.2.3.1.5.2.8.4l.6.3c.3.2.6.3.8.5.1.1.3.2.4.3l.9.6.3.3c.3.2.6.5.9.7.1.1.2.1.3.2.3.3.6.6.8.9l.2.2c.3.3.6.7.8 1l.1.1.8 1.1s0 .1.1.1c.2.4.5.8.7 1.3h0c.2.4.4.9.6 1.4h0c.6 1.7 1 3.6 1 5.4v.1a50.68 50.68 0 0 1 .3 5.5c0 4.1.8 16-2.6 17.2l15.1-1.8c.4-3.4 1.4-13.5 1.4-17-.6-8.6-1.9-16.5-4.4-24.1zm-34.1 80l-22.8 89.2s-10.3-2.1-12.7 4.2 1.1 7.6 1.1 7.6h20.9c1.8-.3 3.3-1.4 4.2-3 1.3-2.5 27.9-84.1 27.9-84.1l-.7-23.6-17.9 9.7z"/><path d="M135.5 141.3c-4.1 26.3-7 64.9-7 64.9s-10.3-2.1-12.7 4.2 1.1 7.6 1.1 7.6h20.9c1.8-.3 3.3-1.4 4.2-3 1.3-2.5 17.1-94.9 17.1-94.9l-6.6-39.7c.2 0-12.8 34.6-17 60.9z"/></g><g fill="#fff"><path d="M183.5 77.4c-6.5 8.3-12.4 17-17.7 26.2-7.2 13.1-15 55.2-15 55.2s-7.4-26-5.3-45 12-38.5 12-38.5l26 2.1z"/><path d="M184.4 56v-.1c0-1.8-.4-3.7-1-5.4h0l-.6-1.4h0l-.7-1.3s0-.1-.1-.1a4.44 4.44 0 0 0-.8-1.1l-.1-.1c-.3-.3-.5-.7-.8-1l-.2-.2c-.3-.3-.6-.6-.8-.9-.1-.1-.2-.2-.3-.2-.3-.3-.6-.5-.9-.7l-.3-.3-.9-.6c-.1-.1-.3-.2-.4-.3-.3-.2-.6-.3-.8-.5l-.6-.3c-.3-.1-.5-.3-.8-.4-.2-.1-.5-.2-.7-.2l-.8-.3c-.3-.1-.5-.1-.8-.2-.2-.1-.5-.1-.7-.2-.3-.1-.7-.1-1-.1-.2 0-.4-.1-.6-.1-.5 0-1.1-.1-1.6-.1-7.8.1-14.5 5.8-15.6 13.5-.2 1.3-.6 2.6-.9 3.9-.1.4-.2.8-.3 1.1-.2.9-.5 1.9-.8 2.8-.1.4-.2.7-.4 1.1-.4 1.1-.7 2.1-1.2 3.1-.1.2-.1.4-.2.5-.5 1.3-1.1 2.5-1.7 3.7 0 .1-.1.1-.1.2-.6 1.1-1.2 2.2-1.9 3.3-.1.2-.3.4-.4.6-.6 1-1.3 1.9-2 2.9-.1.2-.2.3-.3.5-1.6 2.2-3.4 4.2-5.3 6.1-4.4 4.5-9.6 8.1-15.3 10.8v.2c16.3-1.2 35.4-7.8 46.4-12.5s15.3-8.6 15.3-8.6a79.46 79.46 0 0 0 .9-11.9c.3-1.5.2-3.3.1-5.2z"/></g><path d="M161.5 84.6c-13.1 5.2-26.9 8.6-41 10.1-.1 0-.1.3 0 .2 14-.6 27.8-3.5 40.8-8.7.1-.5.1-1.1.2-1.6z" fill="#d6d6d6"/><path d="M117.1 84.9c-1.7 1.9-3.4 3.6-5.3 5.2h0c-.6.6-.9 1.4-.9 2.2 0 1.7 1.4 3.1 3.1 3 .1 0-.1 0 0 0h3.1c1.7 0 3.2-.6 4.9-.7-.3-3.7-2.1-7.2-4.9-9.7z"/><path d="M176.8 133.2l-23 73.7-1.8 5.6c3.6 5.5 6.9 5.5 6.9 5.5s-4-1.2-4-7.1c0-6 7.9-6.5 7.9-6.5l23.8-.1s-23.4 1.1-22.4-18c0-21.9 30.8-32.7 30.8-32.7-7.6 2.1-14.6 5.7-20.6 10.8-10.5 8.6-7 6.7-7 6.7l9.4-37.9zm-26 25.5l-12.3 47.7 4 3s-6-3.9-11.6-2.6c-6.8 1.7-6.8 11.3-6.8 11.3h-.3c.1-2.2.4-4.4 1-6.5 2.1-8.1 11.3-5.7 11.3-5.7l12.2-57.3 2.5 10.1z" fill="#f26522"/><path d="M228.7 34c-.2 1.2.1 2.4.9 3.3 22.5 26.6 31.2 62.3 23.5 96.4-4.4 19.5-14 37.5-27.8 52l-1.4 30.8c32.7-9.5 59.4-38.6 67.4-74.1C301.9 96 277.2 48.8 233 31.2c-1.9-.4-3.8.9-4.3 2.8zm4.4 3.6c-.2-.4-.3-.8-.2-1.3.2-.9 1.1-1.5 2-1.3.1 0 .1.1.2.1 16.6 6.7 29.7 16.1 39.6 30-4.3 8.1-12.9 13.1-22.1 12.9-4-14.4-10-28.8-19.5-40.4.1.1 0 .1 0 0h0 0z" fill="#ff7f32"/><path d="M248.6 167c7-22.4 6.1-43 7.1-49.5 0 0-.1.3-.2.9-.4 5.1-1.2 10.2-2.4 15.3-3.5 15.4-10.2 29.8-19.6 42.4 3 9.5-.1 25.2-.1 25.2s8.2-12 15.2-34.3z" fill="#f26522"/><path d="M172.5 80.4c-5.6 4.1-11.9 7-18.6 8.5-.2-.3-.4-.5-.6-.7" fill="#d6d6d6"/><path d="M173.9 77.6c-.5-1.5-2.5-2.1-4.4-1.4s-3 2.4-2.5 3.9 2.5 2.1 4.4 1.4c2-.7 3.1-2.4 2.5-3.9zm-9.4-20.1c-1 .6-1.4 1.9-.8 2.9s1.9 1.4 2.9.8 1.4-1.9.8-2.9c-.6-1.1-1.9-1.4-2.9-.8z"/><path d="M167.5 53c-3.1-.8-6.2 1.1-6.9 4.1-.1.3.1.7.4.8h0c.3.1.7-.1.8-.4h0c.6-2.4 3-3.8 5.4-3.3 1.1.3 2 1.1 2.4 2.1.5 1.1.6 2.4.2 3.6-.1.3.1.7.4.8h.2c.3 0 .5-.2.6-.5.5-1.5.4-3.1-.3-4.5-.6-1.2-1.8-2.2-3.2-2.7z" stroke="#000" stroke-width=".5" stroke-miterlimit="10"/><path d="M95.2 80.3l.2-.2c0-.1-.2-.5-2.4-.9-1-.2-2-.5-3-.8-4.4-1.7-5.6-4.4-5.9-5.9-2.7 1.9-5.6 3.5-8.8 4.9 8.5 4.6 18.2 4.1 19.9 2.9z" fill="#fff"/><g fill="#3b3030"><path d="M93.1 78.6c-1-.2-2-.4-2.9-.8-4.5-1.8-5.5-4.5-5.7-5.7-.1 0-.1.1-.2.1.3 1.3 1.4 4.1 5.8 5.8 1 .4 2 .6 3 .8 8.7 1.6-6 5.3-18.1-1.5-.1 0-.2.1-.3.1 5.4 3.1 11.3 4 15.5 4 2.7 0 4.7-.4 5.4-.9.4-.3.4-.5.4-.7-.2-.4-1.1-.8-2.9-1.2z"/><path d="M90 78.3c1 .4 2 .6 3 .8 2.3.4 2.4.9 2.4.9 0 .1-.1.1-.2.2-1.7 1.2-11.4 1.8-20-3-.1 0-.2.1-.3.1 12 6.7 26.8 3.1 18.1 1.5-1-.2-2-.4-3-.8-4.4-1.7-5.5-4.5-5.8-5.8l-.2.2c.4 1.5 1.6 4.2 6 5.9z"/></g><g fill="#fff"><path d="M73.3 76.4c.1-.1.2-.1.3-.1l.1.1 10.2-4.9v-.1c0-.1.1-.2.2-.2s.2.1.2.2v.1c9.2-6.6 14.9-15.8 14.9-25.9 0-20-22.1-36.2-49.3-36.2C22.9 9.5.8 25.7.8 45.7S22.9 81.9 50 81.9c8.8 0 17-1.7 24.1-4.6-.3-.2-.5-.3-.8-.5 0-.1-.1-.3 0-.4z"/><path d="M83.9 71.6l-10.2 4.9.9.6c3.4-1.4 6.5-3.1 9.2-5.1.2-.2.1-.4.1-.4z"/><path d="M84.4 71.5c0-.1-.1-.2-.2-.2s-.2.1-.2.2v.1l.2-.1v.3c.1-.1.2-.1.2-.2v-.1zm-10.6 4.9l-.1-.1c-.1-.1-.3 0-.3.1-.1.1 0 .3.1.3l.8.5c.1 0 .2-.1.3-.1l-.9-.6.1-.1z"/><path d="M84.2 71.5l-.2.1v.3c.1-.1.2-.1.2-.2v-.2zm-10.7 5l.9.6c.1 0 .2-.1.3-.1l-.9-.6-.3.1z"/></g><path d="M49.9 82.2C22.6 82.2.5 65.9.5 45.7S22.6 9.2 49.9 9.2s49.4 16.3 49.4 36.5c0 10.3-5.7 19.5-14.9 26.2v.2c9.4-6.7 15.3-16.1 15.3-26.5C99.8 25.4 77.5 9 50 9S.3 25.4.3 45.7 22.6 82.4 50 82.4c9 0 17.4-1.8 24.7-4.8-.1 0-.1-.1-.2-.1-7.2 3-15.6 4.7-24.6 4.7z" fill="#3b3030"/><path d="M75.2 77.3c3.2-1.4 6.1-3 8.8-4.9v-.2a48.62 48.62 0 0 1-9 5c.1 0 .2.1.2.1z" fill="#fff"/><g fill="#3b3030"><path d="M84.2 72v.2c.1 0 .1-.1.2-.1v-.2s-.1.1-.2.1zm-9.4 5.3c-.1 0-.2.1-.3.1.1 0 .1.1.2.1s.2-.1.3-.1c-.1 0-.2-.1-.2-.1z"/><path d="M84 72.2v.2l.2-.2V72c0 .1-.1.1-.2.2zm-8.9 5c-.1 0-.2.1-.3.1.1 0 .1.1.2.1s.2-.1.3-.1c-.1 0-.2-.1-.2-.1zM50 81.9C22.8 81.9.7 65.7.7 45.7S22.9 9.5 50 9.5c27.2 0 49.3 16.2 49.3 36.2 0 10.1-5.7 19.3-14.9 25.9v.3c9.2-6.6 14.9-15.9 14.9-26.2 0-20.2-22.1-36.5-49.4-36.5S.5 25.6.5 45.7c0 20.2 22.1 36.5 49.4 36.5 8.9 0 17.3-1.8 24.6-4.8-.1-.1-.2-.1-.3-.2-7.2 3-15.4 4.7-24.2 4.7z"/></g><path d="M74.7 77c.1.1.2.1.3.2 3.2-1.4 6.2-3.1 9-5v-.3c-2.8 2-5.9 3.7-9.3 5.1z" fill="#fff"/><g fill="#3b3030"><path d="M84.2 71.7v.3l.2-.2v-.3c-.1.1-.1.2-.2.2zm-10 5.5c.1.1.2.1.3.2.1 0 .2-.1.3-.1-.1-.1-.2-.1-.3-.2-.1 0-.2.1-.3.1z"/><path d="M84 71.9v.3l.2-.2v-.3c-.1.1-.2.1-.2.2zM74.7 77c-.1 0-.2.1-.3.1.1.1.2.1.3.2.1 0 .2-.1.3-.1-.1-.1-.2-.1-.3-.2z"/></g><path d="M37.3 40.9l-2.8 10.9h-2.6L30.4 46c0-.1-.1-.3-.1-.5s-.1-.5-.2-.7c-.1-.3-.1-.5-.1-.7s-.1-.4-.1-.6c0 .1 0 .3-.1.6 0 .2-.1.5-.1.7s-.1.5-.2.7-.1.4-.1.5l-1.5 5.7h-2.6l-2.8-10.9h2.3l1.4 6c.1.2.1.5.2.9s.1.7.2 1.1.1.7.1.9c0-.3.1-.6.1-.9.1-.4.1-.7.2-1s.1-.6.2-.8l1.6-6.1H31l1.6 6.1c.1.2.1.4.2.8.1.3.1.7.2 1 .1.4.1.7.1.9 0-.3.1-.6.1-.9.1-.4.1-.7.2-1.1s.1-.7.2-.9l1.4-6h2.3zm3.3-.8v2.4 1.2c0 .4 0 .6-.1.8h.1c.3-.4.6-.7 1-.9s.9-.3 1.4-.3c.9 0 1.6.2 2.2.7s.8 1.3.8 2.3v5.5h-2.3v-4.9c0-1.2-.4-1.8-1.3-1.8-.7 0-1.2.2-1.4.7-.3.5-.4 1.2-.4 2v3.9h-2.3V40.1h2.3zm11.1 3.2c1.1 0 2 .2 2.6.7s.9 1.2.9 2.2v5.6h-1.6l-.4-1.1h-.1c-.4.4-.7.8-1.1 1s-.9.3-1.6.3-1.4-.2-1.9-.6-.7-1.1-.7-2 .3-1.5.9-2c.6-.4 1.6-.7 2.8-.7H53v-.4c0-.4-.1-.8-.3-1s-.5-.3-1-.3c-.4 0-.8.1-1.2.2s-.8.3-1.2.4l-.8-1.6a5.27 5.27 0 0 1 1.5-.5c.5-.2 1.1-.2 1.7-.2zm1.2 4.6H52c-.7 0-1.2.2-1.5.4s-.4.6-.4 1c0 .3.1.6.3.7s.5.2.8.2c.5 0 .9-.1 1.2-.4s.5-.7.5-1.2v-.7zm8 2.2c.3 0 .5 0 .7-.1.2 0 .5-.1.7-.2v1.7c-.2.1-.5.2-.9.3s-.8.1-1.2.1c-.5 0-.9-.1-1.3-.2-.4-.2-.7-.4-.9-.8s-.3-1-.3-1.7v-4h-1.1v-1l1.3-.8.7-1.8h1.5v1.8h2.3v1.7h-2.3v4c0 .3.1.6.3.7 0 .2.2.3.5.3zm7.7-1.9v-.6c0-.5.1-.9.3-1.3s.6-.7 1.1-1.1c.5-.3.8-.6 1-.9.2-.2.3-.5.3-.9 0-.3-.1-.6-.4-.7-.2-.2-.6-.3-1-.3s-.9.1-1.3.2-.8.3-1.3.5l-.8-1.6c.5-.3 1-.5 1.6-.7s1.2-.3 1.9-.3c1.1 0 1.9.3 2.5.8s.9 1.2.9 1.9c0 .4-.1.8-.2 1.1s-.3.6-.6.9-.6.5-1 .8c-.3.2-.5.4-.7.6-.2.1-.3.3-.3.4-.1.1-.1.3-.1.5v.4h-1.9zm-.2 2.5c0-.5.1-.8.4-1s.6-.3.9-.3c.4 0 .7.1.9.3.3.2.4.5.4 1 0 .4-.1.8-.4 1s-.6.3-.9.3c-.4 0-.7-.1-.9-.3-.3-.2-.4-.5-.4-1zm6.2 0c0-.5.1-.8.4-1s.6-.3.9-.3c.4 0 .7.1.9.3.3.2.4.5.4 1 0 .4-.1.8-.4 1s-.6.3-.9.3c-.4 0-.7-.1-.9-.3-.3-.2-.4-.5-.4-1zm2.2-2.5H75l-.4-7.3h2.6l-.4 7.3z" enable-background="new" fill="#3b3030"/></svg>