<svg xmlns="http://www.w3.org/2000/svg" viewBox="0 0 775.7 481.2"><style><![CDATA[.S{enable-background:new}.T{fill:#54b636}]]></style><ellipse cx="385.1" cy="454.4" rx="363.3" ry="26.8" fill="#f3f3f3" class="S"/><g fill="#ff7f32"><path d="M625.2 319.3c-34-47.5-43.9-46-54.6-82.3s.5-76.7.5-76.7c3-8.3 4.8-15.5 6-21.2.9-4.2 3.2-16.6 2-50.4l-.1-.1c-3.7-31.7-16.5-61.2-36.2-85.3h0c-.9-1.4-2.4-2.5-4.2-2.8-3.5-.7-7 1.6-7.7 5.2-.3 1.3.1 2.7.1 2.9 1.8 9.8 1.9 20.1-.2 30.4-1.4 7.1-3.7 13.7-6.7 19.9-1.6-.5-3.3-.9-4.9-1.4-1.2-.3-2.4-.7-3.5-1l-9.9-2.3c-4.9-1-9.9-1.7-14.8-2.2-.3 0-.6 0-1-.1-1.9-.2-3.9-.3-5.8-.5-7-17.1-19.6-31.6-36-40.7.4.3-.7-.7-2-.9-2.6-.5-5.2 1.2-5.7 3.8-.1.7-.1 1.5.1 2.1 4.2 11.9 6.6 24.6 6.9 37.5v6.1.9l-.3 5.5c-.1.9-.2 1.8-.2 2.7-.1 1.4-.3 2.8-.4 4.1a103.28 103.28 0 0 1-1.2 7.4c-.4 2.3-.9 4.5-1.5 6.7-.2.8-.4 1.6-.7 2.4-.1.4-.2.7-.3 1.1l-.9 3.1c-.3 1-.6 1.9-1 2.8l-.6 1.8c-.2.6-.4 1.1-.6 1.7l-1.2 3.1c-.4.9-.7 1.8-1.1 2.7-.1.1-.1.2-.2.4l-1.5 3.2c-.4.9-.8 1.8-1.3 2.7-.6 1.1-1.2 2.2-1.7 3.3-.4.8-.9 1.7-1.3 2.5-.6 1.1-1.3 2.2-2 3.3l-1.4 2.3c-.7 1.1-1.5 2.2-2.2 3.3-.5.7-.9 1.4-1.4 2.1l-2.4 3.2c-.5.6-1 1.3-1.5 1.9-.9 1.1-1.7 2.1-2.6 3.1l-1.5 1.8c-.9 1-1.8 2-2.8 3-.5.6-1.1 1.1-1.6 1.7-.9 1-1.9 1.9-2.9 2.8-.6.5-1.1 1.1-1.7 1.6-1 .9-2 1.8-3 2.6-.6.5-1.2 1.1-1.9 1.6l-3 2.4c-.7.5-1.4 1.1-2.1 1.6l-.9.6c.4-.3.8-.5 1.1-.8 4.7 6.6 5.9 22.4 5.9 22.3 13-3.2 25.2-8 36.2-15.4 4.7-3.2 9.2-6.7 13.5-10.5.3-.3.6-.5.9-.8 1.8-1.7 3.6-3.4 5.3-5.2.4-.4.7-.7 1-1.1l5.3-6a1.38 1.38 0 0 0 .3-.4c1.8-2.3 3.5-4.6 5.2-7 .2-.3.4-.7.7-1 1.3-2 2.6-4 3.7-6 .4-.7.8-1.4 1.2-2.2 1-1.8 1.9-3.6 2.8-5.5.4-.7.7-1.5 1.1-2.2 1.2-2.6 2.5-5.1 3.4-7.8C490 91.2 506 81.8 522.5 85c1.1.2 2.2.5 3.3.8.4.1.7.3 1.1.4.7.2 1.4.5 2 .7.5.2.9.4 1.4.6a11.94 11.94 0 0 1 1.6.8l1.5.9c.4.3.9.5 1.3.8.5.3 1 .7 1.5 1.1.3.3.7.5 1 .8.5.4 1 .9 1.5 1.4.3.2.6.5.8.7.5.5 1 1.1 1.5 1.6.2.2.4.4.6.7.5.6 1 1.2 1.5 1.9.1.2.3.4.4.6.5.7 1 1.4 1.4 2.2.1.2.2.3.3.5.5.8.9 1.6 1.3 2.4.1.1.1.2.2.3.4.9.8 1.8 1.1 2.7 0 .1.1.1.1.2.3.9.6 1.9.9 2.9v.1a15.47 15.47 0 0 1 .6 3.1h0c.6 3.8.6 7.7-.2 11.7 0 .1 0 .1-.1.2-.5 3.9-1 7.7-1.8 11.6-1.6 8.2-3.9 16.2-6.7 23.8-25.8.4-58.9 1.9-60.1 7.6-2 9.4-10.1 42.3-18.8 64.4s5.4 93.9 5.4 93.9 10.7 102.5 15.4 126.6c.4 2.3 7.3 4.9 7.3 4.9h122.9c14.6 0 36.5-11.9 40.9-31.6 3.6-30.8-6.4-76.2-28.4-107z"/><path d="M493.7 244l-48.3 188.8s-21.7-4.5-26.8 8.9 2.2 16.1 2.2 16.1h44.3s6.3-.9 8.9-6.3c2.7-5.4 59.1-178 59.1-178l-1.6-49.9-37.8 20.4z"/><path d="M440.7 295.4c-8.7 55.7-14.8 137.3-14.8 137.3s-21.7-4.5-26.8 8.9 2.2 16.1 2.2 16.1h44.3s6.3-.9 8.9-6.3c2.7-5.4 36.2-200.9 36.2-200.9l-13.9-84.1c.1.2-27.4 73.3-36.1 129z"/></g><g fill="#fff"><path d="M540.6 160.9s-20.7 27-35.9 54.7-31.8 116.8-31.8 116.8-15.7-55-11.2-95.3 20.6-73.4 20.6-73.4l58.3-2.8z"/><path d="M549.2 124.9c0-.1 0-.1.1-.2.8-4 .8-7.9.2-11.7h0l-.6-3.1v-.1c-.3-1-.5-1.9-.9-2.9 0-.1-.1-.1-.1-.2-.3-.9-.7-1.8-1.1-2.7-.1-.1-.1-.2-.2-.3-.4-.8-.8-1.6-1.3-2.4-.1-.2-.2-.3-.3-.5-.4-.7-.9-1.5-1.4-2.2-.1-.2-.3-.4-.4-.6-.5-.6-1-1.3-1.5-1.9-.2-.2-.4-.4-.6-.7-.5-.6-1-1.1-1.5-1.6-.3-.3-.5-.5-.8-.7-.5-.5-1-.9-1.5-1.4-.3-.3-.7-.5-1-.8-.5-.4-1-.8-1.5-1.1-.4-.3-.9-.5-1.3-.8l-1.5-.9c-.5-.3-1.1-.5-1.6-.8-.5-.2-.9-.4-1.4-.6-.7-.3-1.3-.5-2-.7-.4-.1-.7-.3-1.1-.4-1.1-.3-2.2-.6-3.3-.8-16.5-3.2-32.5 6.2-38.1 21.5-1 2.7-2.3 5.2-3.4 7.8-.3.8-.7 1.5-1.1 2.2-.9 1.9-1.8 3.7-2.8 5.5-.4.7-.8 1.4-1.2 2.2-1.2 2.1-2.4 4.1-3.7 6-.2.3-.4.7-.7 1-1.6 2.4-3.4 4.7-5.2 7-.1.1-.2.2-.3.4-1.7 2.1-3.4 4.1-5.3 6-.3.4-.7.7-1 1.1-1.7 1.8-3.5 3.5-5.3 5.2-.3.3-.6.5-.9.8-4.2 3.8-8.7 7.3-13.5 10.5-11 7.3-23.3 12.8-36.3 16v.4c34.4 4.5 76.8-1.3 101.6-6.5 24.8-5.1 35.3-11.3 35.3-11.3 2.9-7.8 5.2-16 6.9-24.4.6-3.6 1.1-7.5 1.6-11.3z"/></g><path d="M490.1 173.6c-29.4 5.1-59.1 6.8-89.3 3.7-.3 0-.4.5-.1.5 29 4.5 59.3 4.6 88.4-.9.3-1.2.6-2.3 1-3.3z" fill="#d6d6d6"/><path d="M397.8 155.4c-4.2 3.1-8.6 6-13.2 8.6h0c-1.4.9-2.5 2.4-2.9 4.2-.7 3.5 1.6 6.9 5.1 7.6.2 0-.2 0 0 0 1.9.5 4.5 1 6.5 1.4 3.4.7 7 .1 10.4.5 1.2-8.6-1.2-15.8-5.9-22.3z"/><path d="M527.9 278.3l-48.7 156-3.7 11.9c7.6 11.6 14.5 11.6 14.5 11.6s-8.4-2.5-8.4-15.1 16.8-13.8 16.8-13.8l50.4-.2s-49.4 2.2-47.4-38c0-46.3 65.1-69.1 65.1-69.1s-21.5 4.7-43.6 22.8-14.8 14.1-14.8 14.1l19.8-80.2zm-55 54l-26.1 100.9 8.5 6.3s-12.6-8.3-24.5-5.6c-14.3 3.6-14.4 23.8-14.4 23.8h-.7s.2-8.2 2-13.8c4.5-17.2 23.8-12.1 23.8-12.1l25.8-121.2 5.6 21.7z" fill="#f26522"/><path d="M637.9 68.4c-.6 2.6.3 5.1 1.9 6.9 45.9 54.5 66.7 129.1 49.7 203.9-9.7 42.9-30.6 80.4-58.8 110.1l-2.9 65.1c69.2-20.1 125.7-81.6 142.7-156.9C793.1 198 738.9 99 647 62.3c-4.2-.7-8.2 1.9-9.1 6.1zm9.3 7.6c-.5-.8-.7-1.7-.4-2.6.4-2 2.4-3.2 4.3-2.7.2 0 .3.1.4.2 0 0 0-.1.1-.1 35 14.1 62.8 34.2 83.8 63.6-9.7 17.4-26.6 27.4-46.8 27.2-8.7-30.6-21.5-61.1-41.3-85.4 0-.1-.1-.1-.1-.2h0z" fill="#ff7f32"/><path d="M651.5 70.8a.76.76 0 0 0-.4-.2c-2-.4-3.9.8-4.3 2.7-.2.9 0 1.9.4 2.6h0l.1.1c19.8 24.3 32.6 54.8 41.3 85.4 20.2.2 37-9.8 46.8-27.2-21-29.3-48.8-49.3-83.9-63.4z" fill="#fff"/><path d="M679.9 349.8c14.8-47.3 12.8-91.1 15.1-104.7 0 0-.2.7-.5 1.9-.9 10.7-2.5 21.5-5 32.3-7.6 33.6-22.1 63.9-41.6 89.7 6.4 20.1-.3 53.3-.3 53.3s17.5-25.2 32.3-72.5z" fill="#f26522"/><path d="M519.1 118.7c-.7-1.2-1.4-2.2-2.3-3-.3-1-.8-1.9-1.4-2.6-1.3-1.5-3.1-2.5-5-2.5s-3.7.9-5 2.5c-.6.8-1.1 1.7-1.5 2.6-.8.8-1.5 1.8-2.3 3-.7-1.2-1-2.6-1-4.2.5-1.3 1.2-2.6 2.1-3.7 1.8-2.2 4.7-3.7 7.7-3.7s5.9 1.5 7.7 3.7c.9 1.1 1.6 2.4 2.1 3.7-.1 1.6-.4 3-1.1 4.2zm13.9 31.7c-1.8.8-3.9.9-6 .5-2-.4-4-1.3-5.6-2.6s-2.9-3-3.7-4.9-1.1-4-.8-5.9c1.5 3.6 3.5 6.5 6.2 8.7 2.7 2.3 6 3.6 9.9 4.2z"/><path d="M521.1 145.4c-.6 4.6-3.3 8.4-6.1 11.8-2.9 3.4-6.3 6.2-9.9 8.6-1.8 1.2-3.7 2.3-5.5 3.4-2 .9-3.8 2-5.9 2.7-4 1.6-8.2 2.8-12.7 3l-.1-.4c7.8-3.1 15.1-7.3 22.1-12 3.5-2.3 6.9-4.8 10-7.6 3-2.8 6-5.9 7.8-9.6l.3.1z"/><path d="M514.7 169.4c-13.2 5.9-27.6 9.5-42.2 9.8-.3-.6-.6-1.2-.9-1.7" fill="#d6d6d6"/><path d="M34.7 118.4L22 111.9l-12.7 6.8 2.3-14.1-10.4-9.9 14.2-2.3 6.2-12.9 6.5 12.8 14.2 1.9-10.2 10.1zM394.6 77l-12.8-6.5-12.6 6.8 2.3-14.2-10.4-9.9 14.2-2.2 6.2-12.9 6.5 12.7 14.2 1.9L392 62.9zM75.2 244.7l-8-4.1-8 4.3 1.5-9-6.6-6.2 8.9-1.4 3.9-8.2 4.1 8.1 9 1.2-6.4 6.4z" fill="#ffb125" class="S"/><g class="T S"><circle cx="32.6" cy="190.7" r="4.8"/><circle cx="95.7" cy="35.8" r="4.8"/></g><path d="M128.1 229.7l-34.5 24.1 249.1 19.5-64-56.9-150.6 13.3zm-5.1-33.3l-48.6-28.3 277.2-37.2-95.7 48.8L134 198.9z" fill="#bcbcbc" class="S"/><path d="M93.6 253.9l17.1 156.7 4.4 41h205.7l21.9-178.3z" fill="#f4f4f4" class="S"/><path d="M244.5 451.6l-59 .2 6.1-190.3 58.9 4.6-6 185.5z" fill="#e5161e" class="S"/><path d="M110.8 412l4.4 39.8h70.6l.6-23.9c-11.8-.2-26.3-1.4-42.6-5.2-12.8-3-23.9-6.8-33-10.7z" fill="#dbdbdb" class="S"/><path d="M186.2 423.6l-.8 28.3 58.5-.2.9-14.6.7-15.7a69.07 69.07 0 0 1-32.5 7.9c-11.9-.2-21.2-3.4-26.8-5.7z" fill="#c6101e" class="S"/><path d="M244 451.6h76.8l8.1-65.3c-8 7.2-19.5 16-34.8 23.5-19.2 9.4-36.7 13-48.8 14.5l-1.3 27.3z" fill="#dbdbdb" class="S"/><path d="M135.9 240.4l-15.6-17 24.5-18.6-5.4-4.9-5.6-24 26.1-2.7 6.2-18.6h27.2l57.1-5.4 14.1-6.4 4.9 22.4 12.9 9.4 17.3 3.5-7.3 24.3 8.6 14 10.8 10.2-15.9 15.4-4.6 16.2 3.5 1.9 2.7 9.7-14.3-1.2-83.6-74.3z" fill="#3ca01c" class="S"/><path d="M147.5 258.1l-23.4-9.3 17.3-25.9-14.6-24.6 26.8-13.3v-26.8h28l3.9-5 65-8.7 8.7 16.6h28.4l-1.3 28.8 25.2 14.7-16.2 25.2 14 24.1-26.4 14.7-135.4-10.5z" class="S T"/><path d="M71.7 123.1l2.7 45 277.2-37.2-13.5-48.8z" fill="#fff"/><g fill="#e5e5e5"><path d="M72.9 142.8l114.3-6.1 1.6 16.1-114.4 15.3-1.5-25.3z" class="S"/><path d="M347 114.2l-107.6 15.1 3.8 16.2 108.4-14.6z"/></g><path d="M118.6 115.9c-5.7-1.8-9.6-6.2-9.6-10.9-.1-6.1 6.5-9.8 8.4-10.8 4.4-2.4 8.6-2.5 15.9-2.2 6.5.3 15 .9 25.2 2.2-1.9-.5-14.4-4.3-17.6-14.9-.6-2-1.7-5.5.1-8 3.8-5.4 17.3-1.7 23.1-.1a67.1 67.1 0 0 1 18.6 8.4c-18.8-14.7-26.2-33.5-20.8-43.4 1.8-3.2 5.8-7.1 10.8-9.4 0 0 7.8-3.7 17-1.9 13.1 2.5 24.7 22.5 26.4 49.3-1.8-13.6 4.6-24.8 13.2-27.2 5.1-1.4 10.7.2 14.3 3.2 7.7 6.4 8.9 20.8 1.1 34.5 12.6-15.4 25.7-22.5 31.5-18.9 3.7 2.3 4.6 8.8 4.6 12.4-.1 7.9-5.3 12.8-6.2 13.6l-156 24.1z" fill="#e5161e" class="S"/><path d="M184.1 105.8l4.6 47 55.7-7.5-9.5-47.3-50.8 7.8z" fill="#c6101e" class="S"/><path d="M343.7 207.7l-8.1-4.1-7.9 4.3 1.4-9-6.5-6.2 8.9-1.4 3.9-8.2 4.1 8.1 8.9 1.2-6.4 6.4z" fill="#ffb125" class="S"/><circle cx="369.5" cy="152.4" r="4.8" class="S T"/><path d="M208.7 222.5v-2.9c0-2.5.5-4.7 1.6-6.6s3-3.8 5.9-6c2.8-2 4.6-3.6 5.5-4.8s1.3-2.6 1.3-4.1c0-1.7-.6-3-1.9-3.9s-3-1.3-5.3-1.3c-3.9 0-8.4 1.3-13.5 3.9l-4.3-8.6c5.9-3.3 12.1-4.9 18.6-4.9 5.4 0 9.7 1.3 12.9 3.9s4.8 6.1 4.8 10.4c0 2.9-.7 5.4-2 7.5s-3.8 4.5-7.5 7.1c-2.5 1.9-4.1 3.3-4.8 4.3s-1 2.2-1 3.8v2.4h-10.3zm-1.2 13.4c0-2.2.6-3.9 1.8-5s2.9-1.7 5.2-1.7c2.2 0 3.9.6 5.1 1.7 1.2 1.2 1.8 2.8 1.8 5 0 2.1-.6 3.7-1.8 4.9s-2.9 1.8-5 1.8c-2.2 0-3.9-.6-5.1-1.8-1.4-1.1-2-2.7-2-4.9z" fill="#fff"/></svg>