<?xml version="1.0" encoding="utf-8"?>
<!-- Generator: Adobe Illustrator 25.3.1, SVG Export Plug-In . SVG Version: 6.00 Build 0)  -->
<svg version="1.1" id="Warstwa_1" xmlns="http://www.w3.org/2000/svg" xmlns:xlink="http://www.w3.org/1999/xlink" x="0px" y="0px"
	 viewBox="0 0 220 150.6" style="enable-background:new 0 0 220 150.6;" xml:space="preserve">
<style type="text/css">
	.st0{fill:#F3F3F3;}
	.st1{fill:#FF7F32;}
	.st2{fill:#FFFFFF;}
	.st3{fill:#D6D6D6;}
	.st4{fill:#F26522;}
	.st5{fill:#FA8A00;}
	.st6{fill:#FFCA00;}
	.st7{fill:#FFE700;}
	.st8{fill:#FF9F00;}
	.st9{fill:#FFE300;}
</style>
<g transform="translate(76.205 37.669)">
	<ellipse class="st0" cx="33.8" cy="91.8" rx="110" ry="21.1"/>
</g>
<g transform="translate(1542.46 68.01)">
	<path class="st1" d="M-1380.7,28.6c-10.3-14.4-13.3-13.9-16.5-24.9s0.2-23.2,0.2-23.2c0.8-2.1,1.4-4.2,1.8-6.4
		c0.3-1.3,1-5,0.6-15.3l0,0c-1.1-9.5-4.9-18.4-11-25.8l0,0c-0.3-0.4-0.7-0.8-1.3-0.8c-1.1-0.2-2.1,0.5-2.3,1.6c0,0.3,0,0.6,0,0.9
		c0.6,3,0.5,6.2-0.1,9.2c-0.4,2.1-1.1,4.1-2,6c-0.5-0.2-1-0.3-1.5-0.4c-0.4-0.1-0.7-0.2-1.1-0.3c-1-0.2-2-0.5-3-0.7
		c-1.5-0.3-3-0.5-4.5-0.7c-0.1,0-0.2,0-0.3,0c-0.6-0.1-1.2-0.1-1.8-0.2c-2.1-5.2-6-9.6-10.9-12.3c-0.2-0.1-0.4-0.2-0.6-0.3
		c-0.8-0.2-1.6,0.4-1.7,1.2c0,0.2,0,0.4,0,0.6c1.3,3.7,2,7.5,2.1,11.4l0,0v2.1c0,0.5-0.1,1.1-0.1,1.7c0,0.3-0.1,0.5-0.1,0.8
		c0,0.4-0.1,0.8-0.1,1.2c-0.1,0.7-0.2,1.5-0.4,2.2c-0.1,0.7-0.3,1.4-0.5,2c-0.1,0.2-0.1,0.5-0.2,0.7c0,0.1-0.1,0.2-0.1,0.3
		c-0.1,0.3-0.2,0.6-0.3,0.9c-0.1,0.3-0.2,0.6-0.3,0.8l-0.2,0.5c-0.1,0.2-0.1,0.3-0.2,0.5c-0.1,0.3-0.2,0.6-0.4,0.9
		c-0.1,0.3-0.2,0.5-0.3,0.8c0,0,0,0.1-0.1,0.1c-0.2,0.3-0.3,0.6-0.5,1c-0.1,0.3-0.2,0.5-0.4,0.8c-0.2,0.3-0.4,0.7-0.5,1
		c-0.1,0.2-0.3,0.5-0.4,0.8c-0.2,0.3-0.4,0.7-0.6,1c-0.2,0.2-0.3,0.5-0.4,0.7c-0.2,0.3-0.5,0.7-0.7,1c-0.2,0.2-0.3,0.4-0.4,0.6
		c-0.2,0.3-0.5,0.6-0.7,1c-0.2,0.2-0.3,0.4-0.5,0.6c-0.3,0.3-0.5,0.6-0.8,0.9l-0.5,0.5c-0.3,0.3-0.5,0.6-0.8,0.9
		c-0.2,0.2-0.3,0.3-0.5,0.5c-0.3,0.3-0.6,0.6-0.9,0.8c-0.2,0.2-0.3,0.3-0.5,0.5c-0.3,0.3-0.6,0.5-0.9,0.8c-0.2,0.2-0.4,0.3-0.6,0.5
		l-0.9,0.7c-0.2,0.2-0.4,0.3-0.6,0.5l-0.3,0.2c0.1-0.1,0.2-0.2,0.3-0.2c1.4,2,1.8,6.8,1.8,6.8c3.9-0.9,7.6-2.5,11-4.7
		c1.4-1,2.8-2,4.1-3.2c0.1-0.1,0.2-0.2,0.3-0.2c0.5-0.5,1.1-1,1.6-1.6c0.1-0.1,0.2-0.2,0.3-0.3c0.5-0.6,1.1-1.2,1.6-1.8
		c0,0,0.1-0.1,0.1-0.1c0.5-0.7,1.1-1.4,1.6-2.1c0.1-0.1,0.1-0.2,0.2-0.3c0.4-0.6,0.8-1.2,1.1-1.8c0.1-0.2,0.2-0.4,0.4-0.7
		c0.3-0.5,0.6-1.1,0.8-1.7c0.1-0.2,0.2-0.5,0.3-0.7c0.4-0.8,0.7-1.6,1-2.4c1.7-4.7,6.6-7.5,11.6-6.6c0.3,0.1,0.7,0.2,1,0.2
		c0.1,0,0.2,0.1,0.3,0.1c0.2,0.1,0.4,0.2,0.6,0.2c0.2,0.1,0.3,0.1,0.4,0.2c0.2,0.1,0.3,0.1,0.5,0.2l0.5,0.3c0.1,0.1,0.3,0.2,0.4,0.2
		c0.2,0.1,0.3,0.2,0.5,0.3c0.1,0.1,0.2,0.2,0.3,0.2c0.2,0.1,0.3,0.3,0.5,0.4c0.1,0.1,0.2,0.1,0.2,0.2c0.2,0.2,0.3,0.3,0.5,0.5
		c0.1,0.1,0.1,0.1,0.2,0.2c0.2,0.2,0.3,0.4,0.5,0.6c0,0.1,0.1,0.1,0.1,0.2c0.2,0.2,0.3,0.4,0.4,0.7c0,0.1,0.1,0.1,0.1,0.2
		c0.2,0.2,0.3,0.5,0.4,0.7c0,0,0,0.1,0.1,0.1c0.1,0.3,0.2,0.5,0.3,0.8c0,0,0,0,0,0.1c0.1,0.3,0.2,0.6,0.3,0.9v0
		c0.1,0.3,0.2,0.6,0.2,0.9l0,0c0.2,1.2,0.2,2.4-0.1,3.5c0,0,0,0,0,0.1c-0.2,1.2-0.3,2.3-0.5,3.5c-0.5,2.5-1.2,4.9-2,7.2
		c-7.8,0.1-17.8,0.6-18.2,2.3c-1.5,6.6-3.4,13.1-5.7,19.5c-2.6,6.7,1.6,28.4,1.6,28.4s3.2,31,4.7,38.3c0.1,0.7,2.2,1.5,2.2,1.5h37.2
		c4.4,0,11.1-3.6,12.4-9.6C-1371,51.7-1374.1,37.9-1380.7,28.6z"/>
	<path class="st1" d="M-1420.5,5.8l-14.6,57.2c0,0-6.6-1.4-8.1,2.7c-1.5,4.1,0.7,4.9,0.7,4.9h13.4c1.1-0.2,2.1-0.9,2.7-1.9
		c0.8-1.6,17.9-53.9,17.9-53.9l-0.5-15.1L-1420.5,5.8z"/>
	<path class="st1" d="M-1436.6,21.3c-2.6,16.9-4.5,41.6-4.5,41.6s-6.6-1.4-8.1,2.7c-1.5,4.1,0.7,4.9,0.7,4.9h13.4
		c1.1-0.2,2.1-0.9,2.7-1.9c0.8-1.6,11-60.8,11-60.8l-4.2-25.5C-1425.6-17.7-1434,4.5-1436.6,21.3z"/>
	<path class="st2" d="M-1406.3-19.4c-4,5.3-7.6,10.8-10.9,16.6c-4.6,8.4-9.6,35.4-9.6,35.4s-4.8-16.7-3.4-28.9
		c0.9-7.7,3-15.2,6.2-22.2L-1406.3-19.4z"/>
	<path class="st2" d="M-1403.7-30.3C-1403.7-30.3-1403.7-30.3-1403.7-30.3c0.3-1.2,0.3-2.4,0.1-3.6l0,0c-0.1-0.3-0.1-0.6-0.2-0.9v0
		c-0.1-0.3-0.2-0.6-0.3-0.9c0,0,0,0,0-0.1c-0.1-0.3-0.2-0.5-0.3-0.8c0,0,0-0.1-0.1-0.1c-0.1-0.2-0.2-0.5-0.4-0.7
		c0-0.1-0.1-0.1-0.1-0.2c-0.1-0.2-0.3-0.5-0.4-0.7c0-0.1-0.1-0.1-0.1-0.2c-0.2-0.2-0.3-0.4-0.5-0.6c-0.1-0.1-0.1-0.1-0.2-0.2
		c-0.2-0.2-0.3-0.3-0.5-0.5c-0.1-0.1-0.2-0.2-0.2-0.2c-0.2-0.2-0.3-0.3-0.5-0.4c-0.1-0.1-0.2-0.2-0.3-0.2c-0.1-0.1-0.3-0.2-0.5-0.3
		c-0.1-0.1-0.3-0.2-0.4-0.2l-0.5-0.3c-0.2-0.1-0.3-0.2-0.5-0.2c-0.2-0.1-0.3-0.1-0.4-0.2c-0.2-0.1-0.4-0.2-0.6-0.2
		c-0.1,0-0.2-0.1-0.3-0.1c-0.3-0.1-0.7-0.2-1-0.2c-4.9-1-9.8,1.8-11.5,6.5c-0.3,0.8-0.7,1.6-1,2.4c-0.1,0.2-0.2,0.5-0.3,0.7
		c-0.3,0.6-0.5,1.1-0.8,1.7c-0.1,0.2-0.2,0.4-0.4,0.7c-0.4,0.6-0.7,1.2-1.1,1.8c-0.1,0.1-0.1,0.2-0.2,0.3c-0.5,0.7-1,1.4-1.6,2.1
		c0,0-0.1,0.1-0.1,0.1c-0.5,0.6-1,1.2-1.6,1.8c-0.1,0.1-0.2,0.2-0.3,0.3c-0.5,0.5-1.1,1.1-1.6,1.6c-0.1,0.1-0.2,0.2-0.3,0.2
		c-4.3,3.9-9.5,6.6-15.1,8v0.1c10.4,1.4,23.3-0.4,30.8-2c7.5-1.5,10.7-3.4,10.7-3.4c0.9-2.4,1.6-4.9,2.1-7.4
		C-1404-28-1403.9-29.1-1403.7-30.3z"/>
	<path class="st3" d="M-1421.6-15.5c-8.9,1.6-18,2-27,1.1c-0.1,0-0.1,0.2,0,0.2c8.9,1.4,17.9,1.3,26.8-0.3
		C-1421.9-14.9-1421.8-15.2-1421.6-15.5z"/>
	<path d="M-1449.6-21.1c-1.3,0.9-2.6,1.8-4,2.6l0,0c-0.4,0.3-0.8,0.7-0.9,1.3c-0.2,1.1,0.5,2.1,1.5,2.3l0,0c0.6,0.2,1.4,0.3,2,0.4
		c1,0.2,2.1,0,3.2,0.2C-1447.5-16.7-1448.1-19.1-1449.6-21.1z"/>
	<path class="st4" d="M-1410.2,16.2l-14.7,47.2l-1.1,3.6c2.3,3.5,4.4,3.5,4.4,3.5s-2.5-0.8-2.5-4.6s5.1-4.2,5.1-4.2l15.3-0.1
		c0,0-15,0.7-14.4-11.5c0-14,19.7-20.9,19.7-20.9c-4.8,1.3-9.3,3.7-13.2,6.9c-6.7,5.5-4.5,4.3-4.5,4.3L-1410.2,16.2z"/>
	<path class="st4" d="M-1426.8,32.5l-7.9,30.6l2.6,1.9c0,0-3.8-2.5-7.4-1.7c-4.3,1.1-4.4,7.2-4.4,7.2h-0.2c0-1.4,0.2-2.8,0.6-4.2
		c1.4-5.2,7.2-3.7,7.2-3.7l7.8-36.7L-1426.8,32.5z"/>
	<g transform="translate(74.567 18.719)">
		<path class="st1" d="M-1451.4-66.1c-0.2,0.7,0.1,1.5,0.6,2.1c23.4,27.8,22.2,68.7-2.8,95.1l-0.9,19.7c21-6.1,38.1-24.7,43.2-47.5
			c6.7-29.7-9.1-59.9-37.4-71.2C-1449.9-68.2-1451.2-67.4-1451.4-66.1z M-1448.6-63.8c-0.2-0.2-0.2-0.5-0.1-0.8
			c0.1-0.6,0.7-0.9,1.2-0.8c0,0,0,0,0.1,0c0,0,0.1,0,0.1,0.1c0,0,0,0,0,0l0,0c10.6,4.3,19,10.4,25.4,19.3c-2.8,5.2-8.3,8.4-14.2,8.2
			C-1438.7-47.2-1442.6-56.4-1448.6-63.8C-1448.6-63.8-1448.6-63.8-1448.6-63.8L-1448.6-63.8z"/>
		<g transform="translate(5.73 2.525)">
			<path class="st2" d="M-1453-67.9c0,0-0.1-0.1-0.1-0.1c-0.6-0.1-1.2,0.2-1.3,0.8c-0.1,0.3,0,0.5,0.1,0.8l0,0l0,0
				c6,7.4,9.9,16.6,12.5,25.9c5.9,0.2,11.4-3,14.2-8.2C-1434-57.6-1442.4-63.7-1453-67.9L-1453-67.9z"/>
		</g>
	</g>
	<path class="st4" d="M-1364.2,37.8c4.5-14.3,3.9-27.6,4.6-31.7c0,0-0.1,0.2-0.2,0.6c-0.3,3.3-0.8,6.6-1.5,9.8
		c-2.2,9.8-6.5,19.1-12.6,27.2c1.9,6.1-0.1,16.1-0.1,16.1S-1368.6,52.1-1364.2,37.8z"/>
	<path d="M-1412.9-32.2c-0.2-0.3-0.4-0.6-0.7-0.9c-0.1-0.3-0.2-0.6-0.4-0.8c-0.4-0.5-0.9-0.7-1.5-0.8c-0.6,0-1.2,0.3-1.5,0.8
		c-0.2,0.2-0.3,0.5-0.5,0.8c-0.3,0.3-0.5,0.6-0.7,0.9c-0.2-0.4-0.3-0.8-0.3-1.3c0.2-0.4,0.4-0.8,0.6-1.1c1-1.3,2.9-1.5,4.2-0.5
		c0.2,0.1,0.3,0.3,0.5,0.5c0.3,0.3,0.5,0.7,0.6,1.1C-1412.5-33-1412.6-32.6-1412.9-32.2z"/>
	<path d="M-1408.6-22.6c-0.6,0.2-1.2,0.3-1.8,0.2c-0.6-0.1-1.2-0.4-1.7-0.8c-0.5-0.4-0.9-0.9-1.1-1.5c-0.2-0.6-0.3-1.2-0.2-1.8
		c0.4,1,1,1.9,1.9,2.6C-1410.8-23.1-1409.7-22.7-1408.6-22.6z"/>
	<path d="M-1412.2-24.1c-0.3,1.3-0.9,2.6-1.8,3.6c-0.9,1-1.9,1.9-3,2.6c-0.5,0.4-1.1,0.7-1.7,1c-0.6,0.3-1.2,0.6-1.8,0.8
		c-1.2,0.5-2.5,0.8-3.8,0.9l0-0.1c2.4-1,4.6-2.2,6.7-3.6c1.1-0.7,2.1-1.5,3-2.3C-1413.7-22-1412.9-23-1412.2-24.1L-1412.2-24.1z"/>
	<path class="st3" d="M-1414.2-16.8c-4,1.8-8.4,2.8-12.8,3c-0.1-0.2-0.2-0.4-0.3-0.5"/>
</g>
<g transform="translate(0 9.8)">
	<rect x="65" y="108.2" class="st5" width="2.8" height="4"/>
	<rect x="32" y="108.2" class="st5" width="2.8" height="4"/>
</g>
<ellipse class="st5" cx="49.9" cy="122.1" rx="17.9" ry="9.8"/>
<ellipse class="st6" cx="49.9" cy="118" rx="17.9" ry="9.8"/>
<ellipse class="st5" cx="49.9" cy="118" rx="14.5" ry="6.9"/>
<ellipse class="st7" cx="49.9" cy="118.2" rx="14.5" ry="6.7"/>
<ellipse class="st8" cx="49.9" cy="118" rx="14.5" ry="6.4"/>
<path class="st6" d="M48.7,116.9c-2.1,1.1-2.8,1.3-3.3,1.1c-0.5-0.1-0.7-0.6,0.2-1.4c0.7-0.6,1.5-1.1,2.4-1.5l0.7-0.3l-1.7-1.3
	l-0.7,0.3c-0.9,0.4-1.7,0.8-2.5,1.4l-1.9-0.5l-2,1.7L42,117c-1.1,1.5-0.7,2.9,1.2,3.4c2.4,0.7,5-0.5,7.3-1.8c1.9-1.1,2.7-1.1,3.2-1
	c0.8,0.2,0.8,0.9,0,1.8c-0.8,0.8-1.8,1.5-2.8,1.9l-0.8,0.4l2.1,1.6l0.7-0.3c1.2-0.5,2.2-1.2,3.1-2.1l2.3,0.6l1.7-2l-2.4-0.6
	c0.9-1.8-0.3-3-2-3.4C53,114.8,50.6,115.9,48.7,116.9z"/>
<g transform="translate(9.422 5.313)">
	<path class="st2" d="M48.1,113.6c0.6-1,0.3-2.3-0.7-2.9c0,0,0,0-0.1,0l-2.5,2.4c-0.1,0.4-0.3,0.7-0.6,1c-0.6,0.6-1.3,1.1-2.1,1.5
		l-1.1,1.1l1.6,1.2l0.7-0.3c0.5-0.2,1-0.5,1.4-0.8l3.4-3.3L48.1,113.6z"/>
	<path class="st2" d="M39.3,111.6c-0.9,0.6-1.8,0.9-2.8,1.2l-2.4,2.3c2.4,0.6,4.8-0.6,7-1.8c0.5-0.3,1.1-0.6,1.6-0.8l2.6-2.5
		C43.1,109.9,41.1,110.5,39.3,111.6z"/>
	<path class="st2" d="M36.2,111.3c0.4-0.4,0.9-0.7,1.4-1l1.2-1.1l-1.2-0.9l-0.3,0.1l-5.2,5c0.1,0.6,0.4,1.1,1,1.4l2.6-2.5
		C35.7,111.8,35.9,111.5,36.2,111.3z"/>
</g>
<g transform="translate(3.807 0.09)">
	<path class="st9" d="M47.8,111.1l2.8-2.7l0,0c-0.7-0.1-1.4-0.2-2.2-0.2l-3,2.8C46.2,111.1,47,111.1,47.8,111.1z"/>
	<path class="st9" d="M47.6,124.8c-1.3,0.1-2.6,0-3.9,0l-2.7,2.6c0.1,0,0.3,0.1,0.4,0.1c0.5,0.1,1.1,0.1,1.6,0.2
		c0.5,0,1,0.1,1.5,0.1h0L47.6,124.8z"/>
	<path class="st9" d="M35.7,122.7c-0.5-0.3-1-0.5-1.5-0.9L32,124l0,0c0.5,0.3,0.9,0.6,1.4,0.9l0,0L35.7,122.7z"/>
	<path class="st9" d="M38.8,126.9l2.5-2.4c-1.6-0.3-3.1-0.7-4.6-1.3l-2.3,2.2l0,0C35.8,126,37.3,126.5,38.8,126.9z"/>
	<path class="st9" d="M56,112.9c0.9,0.4,1.7,0.9,2.4,1.4l2.2-2.1c-0.3-0.3-0.7-0.5-1.1-0.8l0,0c-0.4-0.2-0.8-0.5-1.3-0.7L56,112.9z"
		/>
	<path class="st9" d="M49.8,111.3c1.4,0.2,2.8,0.5,4.2,0.9l2.3-2.3c-1.5-0.6-3.1-1-4.6-1.3l-2.7,2.6
		C49.3,111.2,49.6,111.3,49.8,111.3z"/>
</g>
<g transform="translate(0 9.8)">
	<rect x="65" y="103.1" class="st5" width="2.8" height="4"/>
	<rect x="32" y="103.1" class="st5" width="2.8" height="4"/>
</g>
<ellipse class="st5" cx="49.9" cy="116.9" rx="17.9" ry="9.8"/>
<ellipse class="st6" cx="49.9" cy="112.9" rx="17.9" ry="9.8"/>
<ellipse class="st5" cx="49.9" cy="112.9" rx="14.5" ry="6.9"/>
<ellipse class="st7" cx="49.9" cy="113.1" rx="14.5" ry="6.7"/>
<ellipse class="st8" cx="49.9" cy="112.8" rx="14.5" ry="6.4"/>
<path class="st6" d="M48.7,111.7c-2.1,1.1-2.8,1.3-3.3,1.1c-0.5-0.1-0.7-0.6,0.2-1.4c0.7-0.6,1.5-1.1,2.4-1.5l0.7-0.3l-1.7-1.3
	l-0.7,0.3c-0.9,0.4-1.7,0.8-2.5,1.4l-1.9-0.5l-2,1.7l2.1,0.6c-1.1,1.5-0.7,2.9,1.2,3.4c2.4,0.7,5-0.5,7.3-1.8c1.9-1.1,2.7-1.1,3.2-1
	c0.8,0.2,0.8,0.9,0,1.8c-0.8,0.8-1.8,1.5-2.8,1.9l-0.8,0.4l2.1,1.6l0.7-0.3c1.2-0.5,2.2-1.2,3.1-2.1l2.3,0.6l1.7-2l-2.4-0.6
	c0.9-1.8-0.3-3-2-3.4C53,109.7,50.6,110.7,48.7,111.7z"/>
<g transform="translate(9.422 5.313)">
	<path class="st2" d="M48.1,108.4c0.6-1,0.3-2.3-0.7-2.9c0,0,0,0-0.1,0l-2.5,2.4c-0.1,0.4-0.3,0.7-0.6,1c-0.6,0.6-1.3,1.1-2.1,1.5
		l-1.1,1.1l1.6,1.2l0.7-0.3c0.5-0.2,1-0.5,1.4-0.8l3.4-3.3L48.1,108.4z"/>
	<path class="st2" d="M39.3,106.4c-0.9,0.6-1.8,0.9-2.8,1.2l-2.4,2.3c2.4,0.6,4.8-0.6,7-1.8c0.5-0.3,1.1-0.6,1.6-0.8l2.6-2.5
		C43.1,104.7,41.1,105.3,39.3,106.4z"/>
	<path class="st2" d="M36.2,106.1c0.4-0.4,0.9-0.7,1.4-1l1.2-1.1l-1.2-0.9l-0.3,0.1l-5.2,5c0.1,0.6,0.4,1.1,1,1.4l2.6-2.5
		C35.7,106.7,35.9,106.3,36.2,106.1z"/>
</g>
<g transform="translate(3.807 0.09)">
	<path class="st9" d="M47.8,105.9l2.8-2.7l0,0c-0.7-0.1-1.4-0.2-2.2-0.2l-3,2.8C46.2,105.9,47,105.9,47.8,105.9z"/>
	<path class="st9" d="M47.6,119.6c-1.3,0.1-2.6,0-3.9,0l-2.7,2.6c0.1,0,0.3,0.1,0.4,0.1c0.5,0.1,1.1,0.1,1.6,0.2
		c0.5,0,1,0.1,1.5,0.1h0L47.6,119.6z"/>
	<path class="st9" d="M35.7,117.5c-0.5-0.3-1-0.5-1.5-0.9l-2.2,2.1l0,0c0.5,0.3,0.9,0.6,1.4,0.9l0,0L35.7,117.5z"/>
	<path class="st9" d="M38.8,121.7l2.5-2.4c-1.6-0.3-3.1-0.7-4.6-1.3l-2.3,2.2l0,0C35.8,120.8,37.3,121.3,38.8,121.7z"/>
	<path class="st9" d="M56,107.8c0.9,0.4,1.7,0.9,2.4,1.4l2.2-2.1c-0.3-0.3-0.7-0.5-1.1-0.8l0,0c-0.4-0.2-0.8-0.5-1.3-0.7L56,107.8z"
		/>
	<path class="st9" d="M49.8,106.1c1.4,0.2,2.8,0.5,4.2,0.9l2.3-2.3c-1.5-0.6-3.1-1-4.6-1.3l-2.7,2.6
		C49.3,106.1,49.6,106.1,49.8,106.1z"/>
</g>
<g transform="translate(0 9.8)">
	<rect x="65" y="97.9" class="st5" width="2.8" height="4"/>
	<rect x="32" y="97.9" class="st5" width="2.8" height="4"/>
</g>
<ellipse class="st5" cx="49.9" cy="111.7" rx="17.9" ry="9.8"/>
<ellipse class="st6" cx="49.9" cy="107.7" rx="17.9" ry="9.8"/>
<ellipse class="st5" cx="49.9" cy="107.7" rx="14.5" ry="6.9"/>
<ellipse class="st7" cx="49.9" cy="107.8" rx="14.5" ry="6.7"/>
<ellipse class="st8" cx="49.9" cy="107.6" rx="14.5" ry="6.4"/>
<path class="st6" d="M48.7,106.5c-2.1,1.1-2.8,1.3-3.3,1.1c-0.5-0.1-0.7-0.6,0.2-1.4c0.7-0.6,1.5-1.1,2.4-1.5l0.7-0.3l-1.7-1.3
	l-0.7,0.3c-0.9,0.4-1.7,0.8-2.5,1.4l-1.9-0.5l-2,1.7l2.1,0.6c-1.1,1.5-0.7,2.9,1.2,3.4c2.4,0.7,5-0.5,7.3-1.8c1.9-1.1,2.7-1.1,3.2-1
	c0.8,0.2,0.8,0.9,0,1.8c-0.8,0.8-1.8,1.5-2.8,1.9l-0.8,0.4l2.1,1.6l0.7-0.3c1.2-0.5,2.2-1.2,3.1-2.1l2.3,0.6l1.7-2l-2.4-0.6
	c0.9-1.8-0.3-3-2-3.4C53,104.5,50.6,105.5,48.7,106.5z"/>
<g transform="translate(9.422 5.313)">
	<path class="st2" d="M48.1,103.2c0.6-1,0.3-2.3-0.7-2.9c0,0,0,0-0.1,0l-2.5,2.4c-0.1,0.4-0.3,0.7-0.6,1c-0.6,0.6-1.3,1.1-2.1,1.5
		l-1.1,1.1l1.6,1.2l0.7-0.3c0.5-0.2,1-0.5,1.4-0.8l3.4-3.3L48.1,103.2z"/>
	<path class="st2" d="M39.3,101.2c-0.9,0.6-1.8,0.9-2.8,1.2l-2.4,2.3c2.4,0.6,4.8-0.6,7-1.8c0.5-0.3,1.1-0.6,1.6-0.8l2.6-2.5
		C43.1,99.5,41.1,100.1,39.3,101.2z"/>
	<path class="st2" d="M36.2,100.9c0.4-0.4,0.9-0.7,1.4-1l1.2-1.1l-1.2-0.9L37.2,98l-5.2,5c0.1,0.6,0.4,1.1,1,1.4l2.6-2.5
		C35.7,101.5,35.9,101.1,36.2,100.9z"/>
</g>
<g transform="translate(3.807 0.09)">
	<path class="st9" d="M47.8,100.7l2.8-2.7l0,0c-0.7-0.1-1.4-0.2-2.2-0.2l-3,2.8C46.2,100.7,47,100.7,47.8,100.7z"/>
	<path class="st9" d="M47.6,114.4c-1.3,0.1-2.6,0-3.9,0L41,117c0.1,0,0.3,0.1,0.4,0.1c0.5,0.1,1.1,0.1,1.6,0.2c0.5,0,1,0.1,1.5,0.1
		h0L47.6,114.4z"/>
	<path class="st9" d="M35.7,112.3c-0.5-0.3-1-0.5-1.5-0.9l-2.2,2.1l0,0c0.5,0.3,0.9,0.6,1.4,0.9l0,0L35.7,112.3z"/>
	<path class="st9" d="M38.8,116.5l2.5-2.4c-1.6-0.3-3.1-0.7-4.6-1.3l-2.3,2.2l0,0C35.8,115.6,37.3,116.1,38.8,116.5z"/>
	<path class="st9" d="M56,102.6c0.9,0.4,1.7,0.9,2.4,1.4l2.2-2.1c-0.3-0.3-0.7-0.5-1.1-0.8l0,0c-0.4-0.2-0.8-0.5-1.3-0.7L56,102.6z"
		/>
	<path class="st9" d="M49.8,100.9c1.4,0.2,2.8,0.5,4.2,0.9l2.3-2.3c-1.5-0.6-3.1-1-4.6-1.3l-2.7,2.6
		C49.3,100.9,49.6,100.9,49.8,100.9z"/>
</g>
<g transform="translate(0 9.8)">
	<rect x="65" y="92.7" class="st5" width="2.8" height="4"/>
	<rect x="32" y="92.7" class="st5" width="2.8" height="4"/>
</g>
<ellipse class="st5" cx="49.9" cy="106.5" rx="17.9" ry="9.8"/>
<ellipse class="st6" cx="49.9" cy="102.5" rx="17.9" ry="9.8"/>
<ellipse class="st5" cx="49.9" cy="102.5" rx="14.5" ry="6.9"/>
<ellipse class="st7" cx="49.9" cy="102.7" rx="14.5" ry="6.7"/>
<ellipse class="st8" cx="49.9" cy="102.4" rx="14.5" ry="6.4"/>
<path class="st6" d="M48.7,101.3c-2.1,1.1-2.8,1.3-3.3,1.1c-0.5-0.1-0.7-0.6,0.2-1.4c0.7-0.6,1.5-1.1,2.4-1.5l0.7-0.3L46.9,98
	l-0.7,0.3c-0.9,0.4-1.7,0.8-2.5,1.4l-1.9-0.5l-2,1.7l2.1,0.6c-1.1,1.5-0.7,2.9,1.2,3.4c2.4,0.7,5-0.5,7.3-1.8c1.9-1.1,2.7-1.1,3.2-1
	c0.8,0.2,0.8,0.9,0,1.8c-0.8,0.8-1.8,1.5-2.8,1.9l-0.8,0.4l2.1,1.6l0.7-0.3c1.2-0.5,2.2-1.2,3.1-2.1l2.3,0.6l1.7-2l-2.4-0.6
	c0.9-1.8-0.3-3-2-3.4C53,99.3,50.6,100.3,48.7,101.3z"/>
<g transform="translate(9.422 5.313)">
	<path class="st2" d="M48.1,98c0.6-1,0.3-2.3-0.7-2.9c0,0,0,0-0.1,0l-2.5,2.4c-0.1,0.4-0.3,0.7-0.6,1c-0.6,0.6-1.3,1.1-2.1,1.5
		l-1.1,1.1l1.6,1.2l0.7-0.3c0.5-0.2,1-0.5,1.4-0.8l3.4-3.3L48.1,98z"/>
	<path class="st2" d="M39.3,96c-0.9,0.6-1.8,0.9-2.8,1.2L34,99.5c2.4,0.6,4.8-0.6,7-1.8c0.5-0.3,1.1-0.6,1.6-0.8l2.6-2.5
		C43.1,94.3,41.1,94.9,39.3,96z"/>
	<path class="st2" d="M36.2,95.7c0.4-0.4,0.9-0.7,1.4-1l1.2-1.1l-1.2-0.9l-0.3,0.1l-5.2,5c0.1,0.6,0.4,1.1,1,1.4l2.6-2.5
		C35.7,96.3,35.9,95.9,36.2,95.7z"/>
</g>
<g transform="translate(3.807 0.09)">
	<path class="st9" d="M47.8,95.6l2.8-2.7l0,0c-0.7-0.1-1.4-0.2-2.2-0.2l-3,2.8C46.2,95.5,47,95.5,47.8,95.6z"/>
	<path class="st9" d="M47.6,109.2c-1.3,0.1-2.6,0-3.9,0l-2.7,2.6c0.1,0,0.3,0.1,0.4,0.1c0.5,0.1,1.1,0.1,1.6,0.2
		c0.5,0,1,0.1,1.5,0.1h0L47.6,109.2z"/>
	<path class="st9" d="M35.7,107.2c-0.5-0.3-1-0.5-1.5-0.9l-2.2,2.1l0,0c0.5,0.3,0.9,0.6,1.4,0.9l0,0L35.7,107.2z"/>
	<path class="st9" d="M38.8,111.3l2.5-2.4c-1.6-0.3-3.1-0.7-4.6-1.3l-2.3,2.2l0,0C35.8,110.4,37.3,110.9,38.8,111.3z"/>
	<path class="st9" d="M56,97.4c0.9,0.4,1.7,0.9,2.4,1.4l2.2-2.1c-0.3-0.3-0.7-0.5-1.1-0.8l0,0c-0.4-0.2-0.8-0.5-1.3-0.7L56,97.4z"/>
	<path class="st9" d="M49.8,95.7c1.4,0.2,2.8,0.5,4.2,0.9l2.3-2.3c-1.5-0.6-3.1-1-4.6-1.3l-2.7,2.6C49.3,95.7,49.6,95.7,49.8,95.7z"
		/>
</g>
<g transform="translate(0 9.8)">
	<rect x="65" y="87.5" class="st5" width="2.8" height="4"/>
	<rect x="32" y="87.5" class="st5" width="2.8" height="4"/>
</g>
<ellipse class="st5" cx="49.9" cy="101.3" rx="17.9" ry="9.8"/>
<ellipse class="st6" cx="49.9" cy="97.3" rx="17.9" ry="9.8"/>
<ellipse class="st5" cx="49.9" cy="97.3" rx="14.5" ry="6.9"/>
<ellipse class="st7" cx="49.9" cy="97.5" rx="14.5" ry="6.7"/>
<ellipse class="st8" cx="49.9" cy="97.2" rx="14.5" ry="6.4"/>
<path class="st6" d="M48.7,96.2c-2.1,1.1-2.8,1.3-3.3,1.1c-0.5-0.1-0.7-0.6,0.2-1.4c0.7-0.6,1.5-1.1,2.4-1.5l0.7-0.3l-1.7-1.3
	l-0.7,0.3c-0.9,0.4-1.7,0.8-2.5,1.4L41.9,94l-2,1.7l2.1,0.6c-1.1,1.5-0.7,2.9,1.2,3.4c2.4,0.7,5-0.5,7.3-1.8c1.9-1.1,2.7-1.1,3.2-1
	c0.8,0.2,0.8,0.9,0,1.8c-0.8,0.8-1.8,1.5-2.8,1.9l-0.8,0.4l2.1,1.6l0.7-0.3c1.2-0.5,2.2-1.2,3.1-2.1l2.3,0.6l1.7-2l-2.4-0.6
	c0.9-1.8-0.3-3-2-3.4C53,94.1,50.6,95.1,48.7,96.2z"/>
<g transform="translate(9.422 5.313)">
	<path class="st2" d="M48.1,92.8c0.6-1,0.3-2.3-0.7-2.9c0,0,0,0-0.1,0l-2.5,2.4c-0.1,0.4-0.3,0.7-0.6,1c-0.6,0.6-1.3,1.1-2.1,1.5
		L41.1,96l1.6,1.2l0.7-0.3c0.5-0.2,1-0.5,1.4-0.8l3.4-3.3L48.1,92.8z"/>
	<path class="st2" d="M39.3,90.8c-0.9,0.6-1.8,0.9-2.8,1.2L34,94.4c2.4,0.6,4.8-0.6,7-1.8c0.5-0.3,1.1-0.6,1.6-0.8l2.6-2.5
		C43.1,89.2,41.1,89.7,39.3,90.8z"/>
	<path class="st2" d="M36.2,90.6c0.4-0.4,0.9-0.7,1.4-1l1.2-1.1l-1.2-0.9l-0.3,0.1l-5.2,5c0.1,0.6,0.4,1.1,1,1.4l2.6-2.5
		C35.7,91.1,35.9,90.8,36.2,90.6z"/>
</g>
<g transform="translate(3.807 0.09)">
	<path class="st9" d="M47.8,90.4l2.8-2.7l0,0c-0.7-0.1-1.4-0.2-2.2-0.2l-3,2.8C46.2,90.3,47,90.3,47.8,90.4z"/>
	<path class="st9" d="M47.6,104.1c-1.3,0.1-2.6,0-3.9,0l-2.7,2.6c0.1,0,0.3,0.1,0.4,0.1c0.5,0.1,1.1,0.1,1.6,0.2
		c0.5,0,1,0.1,1.5,0.1h0L47.6,104.1z"/>
	<path class="st9" d="M35.7,102c-0.5-0.3-1-0.5-1.5-0.9l-2.2,2.1l0,0c0.5,0.3,0.9,0.6,1.4,0.9l0,0L35.7,102z"/>
	<path class="st9" d="M38.8,106.1l2.5-2.4c-1.6-0.3-3.1-0.7-4.6-1.3l-2.3,2.2l0,0C35.8,105.3,37.3,105.8,38.8,106.1z"/>
	<path class="st9" d="M56,92.2c0.9,0.4,1.7,0.9,2.4,1.4l2.2-2.1c-0.3-0.3-0.7-0.5-1.1-0.8l0,0c-0.4-0.2-0.8-0.5-1.3-0.7L56,92.2z"/>
	<path class="st9" d="M49.8,90.6c1.4,0.2,2.8,0.5,4.2,0.9l2.3-2.3c-1.5-0.6-3.1-1-4.6-1.3l-2.7,2.6C49.3,90.5,49.6,90.5,49.8,90.6z"
		/>
</g>
<g transform="translate(0 9.8)">
	<rect x="65" y="82.3" class="st5" width="2.8" height="4"/>
	<rect x="32" y="82.3" class="st5" width="2.8" height="4"/>
</g>
<ellipse class="st5" cx="49.9" cy="96.1" rx="17.9" ry="9.8"/>
<ellipse class="st6" cx="49.9" cy="92.1" rx="17.9" ry="9.8"/>
<ellipse class="st5" cx="49.9" cy="92.1" rx="14.5" ry="6.9"/>
<ellipse class="st7" cx="49.9" cy="92.3" rx="14.5" ry="6.7"/>
<ellipse class="st8" cx="49.9" cy="92" rx="14.5" ry="6.4"/>
<path class="st6" d="M48.7,91c-2.1,1.1-2.8,1.3-3.3,1.1c-0.5-0.1-0.7-0.6,0.2-1.4c0.7-0.6,1.5-1.1,2.4-1.5l0.7-0.3l-1.7-1.3
	l-0.7,0.3c-0.9,0.4-1.7,0.8-2.5,1.4l-1.9-0.5l-2,1.7L42,91c-1.1,1.5-0.7,2.9,1.2,3.4c2.4,0.7,5-0.5,7.3-1.8c1.9-1.1,2.7-1.1,3.2-1
	c0.8,0.2,0.8,0.9,0,1.8c-0.8,0.8-1.8,1.5-2.8,1.9L50,95.7l2.1,1.6l0.7-0.3c1.2-0.5,2.2-1.2,3.1-2.1l2.3,0.6l1.7-2l-2.4-0.6
	c0.9-1.8-0.3-3-2-3.4C53,88.9,50.6,89.9,48.7,91z"/>
<g transform="translate(9.422 5.313)">
	<path class="st9" d="M48.1,87.6c0.6-1,0.3-2.3-0.7-2.9c0,0,0,0-0.1,0l-2.5,2.4c-0.1,0.4-0.3,0.7-0.6,1c-0.6,0.6-1.3,1.1-2.1,1.5
		l-1.1,1.1l1.6,1.2l0.7-0.3c0.5-0.2,1-0.5,1.4-0.8l3.4-3.3L48.1,87.6z"/>
	<path class="st9" d="M39.3,85.6c-0.9,0.6-1.8,0.9-2.8,1.2L34,89.2c2.4,0.6,4.8-0.6,7-1.8c0.5-0.3,1.1-0.6,1.6-0.8l2.6-2.5
		C43.1,84,41.1,84.5,39.3,85.6z"/>
	<path class="st9" d="M36.2,85.3c0.4-0.4,0.9-0.7,1.4-1l1.2-1.1l-1.2-0.9l-0.3,0.1l-5.2,5c0.1,0.6,0.4,1.1,1,1.4l2.6-2.5
		C35.7,85.9,35.9,85.6,36.2,85.3z"/>
</g>
<g transform="translate(3.807 0.09)">
	<path class="st9" d="M47.8,85.2l2.8-2.7l0,0c-0.7-0.1-1.4-0.2-2.2-0.2l-3,2.8C46.2,85.1,47,85.1,47.8,85.2z"/>
	<path class="st9" d="M47.6,98.8c-1.3,0.1-2.6,0-3.9-0.1l-2.7,2.6c0.1,0,0.3,0.1,0.4,0.1c0.5,0.1,1.1,0.1,1.6,0.2
		c0.5,0,1,0.1,1.5,0.1h0L47.6,98.8z"/>
	<path class="st9" d="M35.7,96.8c-0.5-0.3-1-0.5-1.5-0.9L32,98l0,0c0.5,0.3,0.9,0.6,1.4,0.9l0,0L35.7,96.8z"/>
	<path class="st9" d="M38.8,100.9l2.5-2.4c-1.6-0.3-3.1-0.7-4.6-1.3l-2.3,2.2l0,0C35.8,100.1,37.3,100.6,38.8,100.9z"/>
	<path class="st9" d="M56,87c0.9,0.4,1.7,0.9,2.4,1.4l2.2-2.1c-0.3-0.3-0.7-0.5-1.1-0.8l0,0c-0.4-0.2-0.8-0.5-1.3-0.7L56,87z"/>
	<path class="st9" d="M49.8,85.4c1.4,0.2,2.8,0.5,4.2,0.9l2.3-2.3c-1.5-0.6-3.1-1-4.6-1.3l-2.7,2.6C49.3,85.3,49.6,85.3,49.8,85.4z"
		/>
</g>
<g transform="translate(0 9.8)">
	<rect x="87.1" y="114.9" class="st5" width="2.8" height="4"/>
	<rect x="54.1" y="114.9" class="st5" width="2.8" height="4"/>
</g>
<path class="st5" d="M72,119c23.4,0.1,23.4,19.5,0,19.6C48.6,138.5,48.6,119,72,119z"/>
<path class="st6" d="M72,114.9c23.4,0.1,23.4,19.5,0,19.6C48.6,134.5,48.6,115,72,114.9z"/>
<path class="st5" d="M72,117.9c18.9,0,18.9,13.7,0,13.8C53.1,131.6,53.1,117.9,72,117.9z"/>
<path class="st7" d="M72,118.2c18.9,0,18.9,13.4,0,13.4C53.1,131.6,53.1,118.3,72,118.2z"/>
<path class="st8" d="M72,118.2c18.9,0,18.9,12.9,0,12.9C53.1,131.1,53.1,118.3,72,118.2z"/>
<path class="st6" d="M70.8,123.6c-6,3.2-3.4-1.2,0-2.1l-1.7-1.3c-1.1,0.4-2.2,0.9-3.1,1.7l-1.9-0.5l-2,1.7l2.1,0.6
	c-1.1,1.5-0.7,2.9,1.2,3.4c3.1,1.4,7.9-3,10.4-2.7c2.1,1.3-2.4,3.6-3.6,4l2.1,1.6c1.4-0.5,2.7-1.3,3.8-2.4l2.3,0.6l1.7-2l-2.4-0.6
	C81.2,120.5,73,121.9,70.8,123.6z"/>
<g transform="translate(9.422 5.313)">
	<path class="st2" d="M70.2,120.3c0.6-1,0.3-2.3-0.7-2.9l-2.5,2.4c-0.5,1.7-2.7,2.3-3.7,3.6l1.6,1.2c1.7-0.3,4.3-3.2,5.5-4.3
		L70.2,120.3z"/>
	<path class="st2" d="M61.4,118.3c-0.9,0.6-1.8,0.9-2.8,1.2l-2.4,2.3c4,0.7,8.5-2.2,11.3-5.1C65.3,116.6,63.2,117.2,61.4,118.3z"/>
	<path class="st2" d="M58.3,118c0.8-0.6,1.9-1.4,2.6-2.1l-1.2-0.9l-0.3,0.1l-5.2,5c0.1,0.6,0.4,1.1,1,1.4l2.6-2.5
		C57.8,118.5,58,118.2,58.3,118z"/>
</g>
<g transform="translate(3.807 0.09)">
	<path class="st9" d="M69.9,117.8l2.8-2.7c-0.7-0.1-1.4-0.2-2.2-0.2l-3,2.8C68.3,117.8,69.1,117.8,69.9,117.8z"/>
	<path class="st9" d="M69.7,131.5c-1.3,0.1-2.6,0-3.9,0l-2.7,2.6c1.2,0.2,2.4,0.3,3.5,0.4L69.7,131.5z"/>
	<path class="st9" d="M57.8,129.4c-0.5-0.3-1-0.5-1.5-0.9l-2.2,2.1l0,0c0.5,0.3,0.9,0.6,1.4,0.9L57.8,129.4z"/>
	<path class="st9" d="M60.9,133.6l2.5-2.4c-1.6-0.3-3.1-0.7-4.6-1.3l-2.3,2.2l0,0C57.9,132.7,59.4,133.2,60.9,133.6z"/>
	<path class="st9" d="M78.1,119.6c0.9,0.4,1.7,0.9,2.4,1.4l2.2-2.1c-0.3-0.3-0.7-0.5-1.1-0.8h0c-0.4-0.2-0.8-0.5-1.3-0.7L78.1,119.6
		z"/>
	<path class="st9" d="M72,118c1.4,0.2,2.8,0.5,4.2,0.9l2.3-2.3c-1.5-0.6-3.1-1-4.6-1.3l-2.7,2.6C71.5,117.9,71.7,118,72,118z"/>
</g>
<g transform="translate(0 9.8)">
	<rect x="87.1" y="109.8" class="st5" width="2.8" height="4"/>
	<rect x="54.1" y="109.8" class="st5" width="2.8" height="4"/>
</g>
<ellipse class="st5" cx="72" cy="123.6" rx="17.9" ry="9.8"/>
<ellipse class="st6" cx="72" cy="119.6" rx="17.9" ry="9.8"/>
<ellipse class="st5" cx="72" cy="119.6" rx="14.5" ry="6.9"/>
<ellipse class="st7" cx="72" cy="119.8" rx="14.5" ry="6.7"/>
<ellipse class="st8" cx="72" cy="119.5" rx="14.5" ry="6.4"/>
<path class="st6" d="M70.8,118.4c-2.1,1.1-2.8,1.3-3.3,1.1c-0.5-0.1-0.7-0.6,0.2-1.4c0.7-0.6,1.5-1.1,2.4-1.5l0.7-0.3l-1.7-1.3
	l-0.7,0.3c-0.9,0.4-1.7,0.8-2.5,1.4l-1.9-0.5l-2,1.7l2.1,0.6c-1.1,1.5-0.7,2.9,1.2,3.4c2.4,0.7,5-0.5,7.3-1.8c1.9-1.1,2.7-1.1,3.2-1
	c0.8,0.2,0.8,0.9,0,1.8c-0.8,0.8-1.8,1.5-2.8,1.9l-0.8,0.4l2.1,1.6l0.7-0.3c1.2-0.5,2.2-1.2,3.1-2.1l2.3,0.6l1.7-2l-2.4-0.6
	c0.9-1.8-0.3-3-2-3.4C75.1,116.4,72.7,117.4,70.8,118.4z"/>
<g transform="translate(9.422 5.313)">
	<path class="st2" d="M70.2,115.1c0.6-1,0.3-2.3-0.7-2.9c0,0,0,0-0.1,0l-2.5,2.4c-0.1,0.4-0.3,0.7-0.6,1c-0.6,0.6-1.3,1.1-2.1,1.5
		l-1.1,1.1l1.6,1.2l0.7-0.3c0.5-0.2,1-0.5,1.4-0.8l3.4-3.3L70.2,115.1z"/>
	<path class="st2" d="M61.4,113.1c-0.9,0.6-1.8,0.9-2.8,1.2l-2.4,2.3c2.4,0.6,4.8-0.6,7-1.8c0.5-0.3,1.1-0.6,1.6-0.8l2.6-2.5
		C65.3,111.4,63.2,112,61.4,113.1z"/>
	<path class="st2" d="M58.3,112.8c0.4-0.4,0.9-0.7,1.4-1l1.2-1.1l-1.2-0.9l-0.3,0.1l-5.2,5c0.1,0.6,0.4,1.1,1,1.4l2.6-2.5
		C57.8,113.4,58,113,58.3,112.8z"/>
</g>
<g transform="translate(3.807 0.09)">
	<path class="st9" d="M69.9,112.7l2.8-2.7l0,0c-0.7-0.1-1.4-0.2-2.2-0.2l-3,2.8C68.3,112.6,69.1,112.6,69.9,112.7z"/>
	<path class="st9" d="M69.7,126.3c-1.3,0.1-2.6,0-3.9,0l-2.7,2.6c0.1,0,0.3,0.1,0.4,0.1c0.5,0.1,1.1,0.1,1.6,0.2
		c0.5,0,1,0.1,1.5,0.1h0L69.7,126.3z"/>
	<path class="st9" d="M57.8,124.3c-0.5-0.3-1-0.5-1.5-0.9l-2.2,2.1l0,0c0.5,0.3,0.9,0.6,1.4,0.9l0,0L57.8,124.3z"/>
	<path class="st9" d="M60.9,128.4l2.5-2.4c-1.6-0.3-3.1-0.7-4.6-1.3l-2.3,2.2l0,0C57.9,127.5,59.4,128,60.9,128.4z"/>
	<path class="st9" d="M78.1,114.5c0.9,0.4,1.7,0.9,2.4,1.4l2.2-2.1c-0.3-0.3-0.7-0.5-1.1-0.8h0c-0.4-0.2-0.8-0.5-1.3-0.7L78.1,114.5
		z"/>
	<path class="st9" d="M72,112.8c1.4,0.2,2.8,0.5,4.2,0.9l2.3-2.3c-1.5-0.6-3.1-1-4.6-1.3l-2.7,2.6C71.5,112.8,71.7,112.8,72,112.8z"
		/>
</g>
<g transform="translate(0 9.8)">
	<rect x="87.1" y="104.6" class="st5" width="2.8" height="4"/>
	<rect x="54.1" y="104.6" class="st5" width="2.8" height="4"/>
</g>
<ellipse class="st5" cx="72" cy="118.4" rx="17.9" ry="9.8"/>
<ellipse class="st6" cx="72" cy="114.4" rx="17.9" ry="9.8"/>
<ellipse class="st5" cx="72" cy="114.4" rx="14.5" ry="6.9"/>
<ellipse class="st7" cx="72" cy="114.5" rx="14.5" ry="6.7"/>
<ellipse class="st8" cx="72" cy="114.3" rx="14.5" ry="6.4"/>
<path class="st6" d="M70.8,113.2c-2.1,1.1-2.8,1.3-3.3,1.1c-0.5-0.1-0.7-0.6,0.2-1.4c0.7-0.6,1.5-1.1,2.4-1.5l0.7-0.3l-1.7-1.3
	l-0.7,0.3c-0.9,0.4-1.7,0.8-2.5,1.4l-1.9-0.5l-2,1.7l2.1,0.6c-1.1,1.5-0.7,2.9,1.2,3.4c2.4,0.7,5-0.5,7.3-1.8c1.9-1.1,2.7-1.1,3.2-1
	c0.8,0.2,0.8,0.9,0,1.8c-0.8,0.8-1.8,1.5-2.8,1.9l-0.8,0.4l2.1,1.6l0.7-0.3c1.2-0.5,2.2-1.2,3.1-2.1l2.3,0.6l1.7-2l-2.4-0.6
	c0.9-1.8-0.3-3-2-3.4C75.1,111.2,72.7,112.2,70.8,113.2z"/>
<g transform="translate(9.422 5.313)">
	<path class="st9" d="M70.2,109.9c0.6-1,0.3-2.3-0.7-2.9c0,0,0,0-0.1,0l-2.5,2.4c-0.1,0.4-0.3,0.7-0.6,1c-0.6,0.6-1.3,1.1-2.1,1.5
		l-1.1,1.1l1.6,1.2l0.7-0.3c0.5-0.2,1-0.5,1.4-0.8l3.4-3.3L70.2,109.9z"/>
	<path class="st9" d="M61.4,107.9c-0.9,0.6-1.8,0.9-2.8,1.2l-2.4,2.3c2.4,0.6,4.8-0.6,7-1.8c0.5-0.3,1.1-0.6,1.6-0.8l2.6-2.5
		C65.3,106.2,63.2,106.8,61.4,107.9z"/>
	<path class="st9" d="M58.3,107.6c0.4-0.4,0.9-0.7,1.4-1l1.2-1.1l-1.2-0.9l-0.3,0.1l-5.2,5c0.1,0.6,0.4,1.1,1,1.4l2.6-2.5
		C57.8,108.2,58,107.8,58.3,107.6z"/>
</g>
<g transform="translate(3.807 0.09)">
	<path class="st9" d="M69.9,107.4l2.8-2.7l0,0c-0.7-0.1-1.4-0.2-2.2-0.2l-3,2.8C68.3,107.4,69.1,107.4,69.9,107.4z"/>
	<path class="st9" d="M69.7,121.1c-1.3,0.1-2.6,0-3.9,0l-2.7,2.6c0.1,0,0.3,0.1,0.4,0.1c0.5,0.1,1.1,0.1,1.6,0.2
		c0.5,0,1,0.1,1.5,0.1h0L69.7,121.1z"/>
	<path class="st9" d="M57.8,119c-0.5-0.3-1-0.5-1.5-0.9l-2.2,2.1l0,0c0.5,0.3,0.9,0.6,1.4,0.9l0,0L57.8,119z"/>
	<path class="st9" d="M60.9,123.2l2.5-2.4c-1.6-0.3-3.1-0.7-4.6-1.3l-2.3,2.2l0,0C57.9,122.3,59.4,122.8,60.9,123.2z"/>
	<path class="st9" d="M78.1,109.3c0.9,0.4,1.7,0.9,2.4,1.4l2.2-2.1c-0.3-0.3-0.7-0.5-1.1-0.8h0c-0.4-0.2-0.8-0.5-1.3-0.7L78.1,109.3
		z"/>
	<path class="st9" d="M72,107.6c1.4,0.2,2.8,0.5,4.2,0.9l2.3-2.3c-1.5-0.6-3.1-1-4.6-1.3l-2.7,2.6C71.5,107.6,71.7,107.6,72,107.6z"
		/>
</g>
</svg>
