<svg xmlns="http://www.w3.org/2000/svg" xmlns:xlink="http://www.w3.org/1999/xlink" width="468.363" height="312.102" xmlns:v="https://vecta.io/nano"><style><![CDATA[.B{fill:#ffb93e}.C{fill:#ffa412}.D{fill:#c1272d}.E{fill:#e4151e}.F{fill:#f2f2f2}.G{fill:#cacaca}.H{fill:#4d4d4d}.I{fill:#139581}.J{fill:#22a08c}.K{fill:#f26522}]]></style><path d="M426.565 60.269H136.739c-6.5 0-11.827 4.884-11.827 10.85v175.772h313.479V71.119c0-5.966-5.323-10.85-11.826-10.85z" fill="#2b0747"/><rect width="292.323" height="176.194" rx="4.452" fill="#f7f7f7" x="134.234" y="70.696"/><path d="M96.683 258.36v1.87c0 1.028 3.011 1.872 6.69 1.872h356.21c3.679 0 6.691-.608 6.691-1.349v-1.351" fill="#929293"/><path fill="#e7e6e8" d="M94.941 244.831h373.421v14.11H94.941z"/><path d="M247.149 125.475h73.582v121.297h-73.582z" class="H"/><path fill="#fff" d="M254.421 133.566h59.039v40.146h-59.039z"/><path d="M254.427 179.095h4.064v15.58h-4.064z" class="D"/><path d="M176.92 162.484c2.314-2.083 5.438 1.2 7.058.733 3.956-1.674 6.565-.716 8.257 1.835 1.855-4.318 3.816-5.717 2.051-7.283-1.793-1.591-4.021-.955-5.756-2.517s-.694-2.806-1.186-4.079-2.43-.607-2.43-.607a12.9 12.9 0 0 0 .058-3.471c-.224-1.217-.726-1.559-.93-1.631h-.06c-.2.072-.706.414-.929 1.631-.137 1.154-.118 2.322.058 3.471 0 0-1.938-.665-2.43.607s.55 2.517-1.186 4.079-3.963.926-5.756 2.517c-1.657 1.47-.031 2.793 1.709 6.52.386-.68.884-1.29 1.472-1.805z" fill="#4e194b"/><path d="M184.942 198.238h8.013a62.72 62.72 0 0 0 1.822-10.008c.665-6.1-2.459-9.777-3.413-12.12s-1.1-6.364.781-10.847l.09-.209c-.582-2.722-2.124-5.114-8.141-2.182-1.62.463-4.59-2.893-7.174-.386-.571.532-1.067 1.139-1.473 1.805.144.308.288.63.431.972 1.88 4.484 1.736 8.5.781 10.847s-4.079 6.017-3.413 12.12a62.71 62.71 0 0 0 1.822 10.008h8.013" fill="#e10000"/><path d="M183.081 198.238v16.836a35.31 35.31 0 0 0-6.8 1.215c-2.677.892-.367 2.472 7.669 2.458h.12c8.035.014 10.346-1.566 7.668-2.458-2.222-.626-4.499-1.033-6.8-1.215v-16.836" fill="#4e194b"/><g fill="#ffb125"><use xlink:href="#B"/><use xlink:href="#B" x="147.181" y="8.324"/><path d="M361.474 144.445c1.118-1.022 2.575-1.595 4.09-1.607a5.5 5.5 0 0 1-5.7-5.7 5.5 5.5 0 0 1-5.7 5.7 5.5 5.5 0 0 1 5.7 5.7 6.13 6.13 0 0 1 1.61-4.093z"/></g><path d="M385.154 155.022a15.03 15.03 0 0 1-6.38 1.9h-.172-.173a15.03 15.03 0 0 1-6.38-1.9l-11.243 4.484 2.449 6.8 5.172-2.143v18.279h20.348v-18.279l5.173 2.145 2.449-6.8z" fill="#ae0018"/><path d="M371.227 163.013c2.386-2.147 5.607 1.233 7.277.756 4.079-1.726 6.768-.738 8.513 1.892 1.912-4.451 3.934-5.895 2.114-7.509-1.849-1.64-4.145-.984-5.935-2.595s-.716-2.893-1.223-4.205-2.505-.626-2.505-.626a13.3 13.3 0 0 0 .06-3.579c-.231-1.255-.749-1.607-.958-1.682h-.063c-.209.075-.728.427-.958 1.682a13.3 13.3 0 0 0 .06 3.579s-2-.686-2.505.626.567 2.595-1.223 4.205-4.086.954-5.935 2.595c-1.708 1.515-.032 2.88 1.762 6.723a7.19 7.19 0 0 1 1.519-1.862zm6.434 57.899c8.285.014 11.606-1.507 8.846-2.427a36.4 36.4 0 0 0-7.008-1.253v-39.743m-1.021 43.531c-8.285.014-10.667-1.615-7.906-2.535a36.4 36.4 0 0 1 7.009-1.253v-39.743h1.782v9.751" fill="#3a143b"/><path d="M385.154 155.022s-3.449 4.973-6.553 4.973h0c-3.1 0-6.553-4.973-6.553-4.973l-11.243 4.484 2.449 6.8 5.173-2.143v18.279h20.348v-18.279l5.173 2.145 2.449-6.8z" fill="#d9000d"/><path d="M331.742 128.86h73.157v91.271h-73.157zm66.948 6.209h-60.739v78.853h60.739z" class="H"/><path d="M328.721 220.134h79.198v7.854h-79.198z" class="D"/><use xlink:href="#C" class="I"/><use xlink:href="#C" x="9.293" class="J"/><use xlink:href="#D" class="I"/><path d="M352.748 210.78c-.788.017-1.523-.394-1.922-1.074s-.399-1.522 0-2.202 1.134-1.09 1.922-1.074h3.876v-11.054h-6.381c-.71 0-1.391-.282-1.893-.784s-.784-1.183-.784-1.893v18.474c.179 1.303 1.293 2.274 2.608 2.274h6.45v-2.668h-3.876z" fill="#e14c34"/><use xlink:href="#D" x="18.166" class="J"/><path d="M365.544 190.623a2.67 2.67 0 0 1 .139.85v1.227a2.68 2.68 0 0 1-2.677 2.677h-6.381v11.053h3.876c.788-.017 1.523.394 1.922 1.074s.399 1.522 0 2.202-1.134 1.09-1.922 1.074h-3.876v2.668h6.45c1.454 0 2.633-1.179 2.633-2.633v-19.276c0-.312-.055-.622-.164-.915zm-17.977.85v-.294a2.65 2.65 0 0 0-.025.359v19.277c0 .12.009.24.025.359v-19.7z" fill="#ee563d"/><path d="M365.544 190.623a2.68 2.68 0 0 0-2.539-1.827h-6.38v6.581h6.38a2.68 2.68 0 0 0 2.677-2.677v-1.227c0-.289-.046-.576-.138-.85z" fill="#2e313d"/><path d="M360.501 210.78c.788.017 1.523-.394 1.922-1.074s.399-1.522 0-2.202-1.134-1.09-1.922-1.074h-3.876v4.349zm-12.795-20.158a2.6 2.6 0 0 0-.139.557v.294a2.67 2.67 0 0 1 .139-.851z" class="J"/><path d="M350.243 188.796a2.68 2.68 0 0 0-2.677 2.677v1.227c0 .71.282 1.391.784 1.893s1.183.784 1.893.784h6.381v-6.581z" fill="#262834"/><path d="M350.574 208.605c0 .577.229 1.13.637 1.538s.961.637 1.538.637h3.876v-4.349h-3.876c-.577 0-1.13.229-1.538.636s-.637.961-.637 1.538z" class="I"/><path d="M362.613 208.087c-.036-.147-.087-.29-.153-.426h-11.67c-.066.136-.117.279-.153.426h9.938v.634c0 .103.083.186.186.186s.186-.083.186-.186v-.634z" fill="#ecedbe"/><path d="M351.505 188.796v15a.79.79 0 0 0 1.185.684.79.79 0 0 0 .395-.684v-15z" fill="#a9b214"/><path d="M361.744 202.824v-14.028h-1.58v14.706h0v.3a.79.79 0 0 0 1.185.684.79.79 0 0 0 .395-.684v-.972z" fill="#b4be1f"/><path d="M352.691 201.222h-.793a.88.88 0 0 0-.878.878v.767a.88.88 0 0 0 .878.878h.793a.88.88 0 0 0 .878-.878v-.767a.88.88 0 0 0-.878-.878zm.351 1.645a.35.35 0 0 1-.351.351h-.134v-.394c0-.145-.118-.263-.263-.263s-.263.118-.263.263v.394h-.134a.35.35 0 0 1-.351-.351v-.767a.35.35 0 0 1 .351-.351h.794a.35.35 0 0 1 .351.351v.767z" fill="#e0e1b3"/><path d="M361.351 201.222h-.793a.88.88 0 0 0-.878.878v.767a.88.88 0 0 0 .878.878h.793a.88.88 0 0 0 .878-.878v-.767a.88.88 0 0 0-.878-.878zm.351 1.645a.35.35 0 0 1-.351.351h-.129v-.394c0-.146-.118-.264-.264-.264s-.263.118-.264.264v.394h-.134a.35.35 0 0 1-.351-.351v-.767a.35.35 0 0 1 .351-.351h.793a.35.35 0 0 1 .351.351v.767z" fill="#ecedbe"/><g fill="#e2e2e2"><path d="M135.073 86.256l-.015.572c0 12.167 9.863 22.029 22.03 22.029s22.029-9.863 22.029-22.029c0-.191-.01-.381-.014-.572z"/><use xlink:href="#E"/><path d="M299.329 86.256l-.014.572c0 12.167 9.863 22.029 22.03 22.029s22.029-9.863 22.029-22.029c0-.191-.01-.381-.015-.572zm80.931 0l-.013.572a22.03 22.03 0 0 0 44.058 0l-.014-.572z"/></g><use xlink:href="#F" class="E"/><use xlink:href="#F" x="-32.2" class="F"/><use xlink:href="#F" x="-66.32" class="E"/><path d="M295.783.001h36.035v10.92h-36.035z" class="F"/><use xlink:href="#F" x="-134.56" class="E"/><use xlink:href="#F" x="-168.68" class="F"/><use xlink:href="#F" x="-202.799" class="E"/><path d="M159.304.001h36.035v10.92h-36.035z" class="F"/><use xlink:href="#F" x="-269.119" class="E"/><path d="M396.223 10.921h36.035q18.018 37.7 36.035 75.4H424.25q-14.014-37.701-28.027-75.4z" class="D"/><path d="M360.187 10.921h36.036q14.013 37.7 28.027 75.4h-44.043q-10.009-37.701-20.02-75.4z" class="G"/><path d="M329.115 10.921h36.035q10.01 37.7 20.02 75.4h-44.047q-6.008-37.701-12.008-75.4z" class="D"/><path d="M295.387 10.921h36.035q6.007 37.7 12.011 75.4h-44.046q-2-37.701-4-75.4z" class="G"/><path d="M261.664 10.921h36.039q2 37.7 4 75.4H257.66q2-37.701 4.004-75.4z" class="D"/><path d="M227.94 10.921h36.036q-2 37.7-4 75.4h-44.048q6.007-37.701 12.012-75.4z" class="G"/><path d="M194.211 10.921h36.034q-6.006 37.7-12.012 75.4h-44.039z" class="D"/><path d="M163.139 10.921h36.036l-20.02 75.4h-44.04q14.01-37.701 28.024-75.4z" class="G"/><path d="M127.103 10.921h36.035q-14.014 37.7-28.027 75.4H91.068q18.017-37.701 36.035-75.4z" class="D"/><g class="E"><path d="M91.014 86.256l-.014.572a22.03 22.03 0 0 0 44.058 0l-.014-.572zm83.327 0l-.015.572c0 12.167 9.863 22.029 22.029 22.029s22.029-9.863 22.029-22.029c0-.191-.01-.381-.014-.572z"/><use xlink:href="#E" x="41.663"/><path d="M340.991 86.256l-.013.572c0 12.167 9.863 22.029 22.029 22.029s22.029-9.863 22.029-22.029c0-.191-.01-.381-.015-.572zm83.327 0l-.014.572c0 12.167 9.863 22.029 22.029 22.029s22.029-9.863 22.029-22.029c0-.191-.01-.381-.014-.572z"/></g><path d="M159.794 128.86h73.157v91.271h-73.157zm66.948 6.209h-60.739v78.853h60.739z" class="H"/><path d="M156.773 220.134h79.198v7.854h-79.198z" class="D"/><path d="M64.118 262.016c-6.413-11.633-19.201-18.258-32.403-16.785S7.499 255.984 3.808 268.744s.667 26.488 11.043 34.781 24.727 9.52 36.36 3.107c15.884-8.756 21.663-28.731 12.907-44.616z" fill="#e2810e"/><path d="M49.936 307.299q-.607.37-1.234.716l-.425.229-.974.5c-16.016 7.877-35.39 1.522-43.629-14.311s-2.324-35.347 13.318-43.942q.631-.348 1.272-.665a36.4 36.4 0 0 1 1.251-.589 32.8 32.8 0 0 1 9.858-2.65 32.85 32.85 0 0 1 20.562 60.712z" class="B"/><path d="M33.079 309.535c-2.828-.002-5.642-.403-8.358-1.192a29.75 29.75 0 1 1 38.009-26.46 29.75 29.75 0 0 1-29.65 27.652zM8.395 293.182a28.14 28.14 0 1 0-2.387-21.4 27.95 27.95 0 0 0 2.387 21.395zm39.113-10.73l-.2-.472a8.62 8.62 0 0 0-1.992-2.846 8.9 8.9 0 0 0-3.136-1.845 15.01 15.01 0 0 0-3.984-.749q-2.2-.135-4.785-.062a23.09 23.09 0 0 1-2.733-.055 6.85 6.85 0 0 1-1.923-.421 3.37 3.37 0 0 1-1.284-.87 4.57 4.57 0 0 1-.816-1.346 4.99 4.99 0 0 1-.371-1.578c-.034-.506.045-1.014.233-1.485a3.64 3.64 0 0 1 .916-1.3c.491-.44 1.059-.785 1.675-1.019 1.142-.522 2.456-.51 3.588.034a6.08 6.08 0 0 1 2.712 3.395l6.692-2.716a12.51 12.51 0 0 0-2.191-3.632c-1.659-1.921-4.025-3.089-6.559-3.236a12.4 12.4 0 0 0-4.038.413l-1.9-4.666-3.7 1.5 1.868 4.6a13.9 13.9 0 0 0-3.4 2.419 10.39 10.39 0 0 0-2.143 2.988c-.497 1.058-.765 2.208-.787 3.376a9.89 9.89 0 0 0 2.91 6.934 8.76 8.76 0 0 0 3.132 1.834c1.289.422 2.631.665 3.986.723a47.11 47.11 0 0 0 4.8-.005c.869-.058 1.742-.052 2.61.018a6.8 6.8 0 0 1 1.913.425 3.62 3.62 0 0 1 1.339.909 4.94 4.94 0 0 1 .9 1.488 4.13 4.13 0 0 1 .32 1.586c0 .525-.123 1.042-.357 1.511a4.26 4.26 0 0 1-1.063 1.334 6.4 6.4 0 0 1-1.8 1.055 7.71 7.71 0 0 1-1.964.51 4.48 4.48 0 0 1-1.981-.2 4.61 4.61 0 0 1-1.808-1.17c-.64-.687-1.138-1.494-1.464-2.374l-6.689 2.716a11.55 11.55 0 0 0 2.631 4.091 9.5 9.5 0 0 0 3.466 2.162 10.6 10.6 0 0 0 3.938.568 16.7 16.7 0 0 0 4.057-.67l1.727 4.258 3.681-1.494-1.737-4.278a14.97 14.97 0 0 0 3.435-2.4 10.13 10.13 0 0 0 2.073-2.707l.118-.236a8.23 8.23 0 0 0 .807-3.358c.016-1.256-.23-2.501-.722-3.657z" class="C"/><g fill="#ff7f32"><path d="M74.224 246.026c-1.324-1.493-2.213-1.9-13.419-7.866-6.21-3.307-7.794-5.073-11.771-5.913-2.871-.545-5.797-.739-8.715-.577-6.011.119-7.824.935-8.711 1.466a8.51 8.51 0 0 0-3.808 4.157c-1.027 2.718-.529 5.777 1.308 8.029 1.953 2.356 5.049 3.438 8.045 2.812 3.363-.867 6.897-.813 10.232.157 2.384.726 4.279 1.951 7.968 4.374 3.024 1.985 5.409 3.792 7.029 5.077l3.871 2.393c.641.6 1.209 1.089 1.661 1.467.907.758 1.63 1.294 1.964 1.527a33.69 33.69 0 0 0 .866.583l.863.543.523.331.242.15h0a6.92 6.92 0 0 0 1.121.671c3.039 1.443 6.373.239 6.489-.267 0 0 .012-.048.031-.143l.144-.672.113-.533q.137-1.96.316-3.958a197.29 197.29 0 0 1 1.834-14.4l.9-5.174c-.048-.009-1 4.455-4.783 23.038.876-10.263-2.457-15.183-4.313-17.272z"/><path d="M160.491 245.791c-16.271-22.748-21.008-22.025-26.147-39.367s.262-36.714.262-36.714a72.07 72.07 0 0 0 2.859-10.127c.41-2 1.53-7.922.942-24.1l-.04-.033c-1.749-14.992-7.762-29.168-17.327-40.844v.005a3.12 3.12 0 0 0-5.679 1.116 3.38 3.38 0 0 0 .054 1.378 38.77 38.77 0 0 1-3.282 24.082c-.769-.244-1.558-.452-2.341-.673l-1.7-.489a82.83 82.83 0 0 0-4.74-1.08q-3.549-.69-7.078-1.051c-.153-.015-.306-.022-.459-.037a76.68 76.68 0 0 0-2.77-.222c-3.376-8.258-9.449-15.128-17.23-19.493-.279-.215-.602-.367-.945-.446-1.258-.241-2.473.583-2.716 1.841a2.27 2.27 0 0 0 .051 1.029c2.033 5.779 3.152 11.841 3.316 17.965h0c.023.97.019 1.944 0 2.92 0 .14-.005.279-.009.417-.024.871-.072 1.745-.135 2.621-.032.433-.075.867-.117 1.3l-.212 1.985c-.155 1.172-.331 2.346-.561 3.521q-.316 1.628-.721 3.215c-.1.38-.213.751-.317 1.129l-.152.536-.415 1.462c-.144.46-.308.907-.464 1.36l-.3.874-.275.8c-.185.493-.391.974-.587 1.459l-.527 1.292c-.026.059-.048.119-.073.179-.226.518-.471 1.021-.712 1.53-.207.438-.4.881-.622 1.312-.266.531-.551 1.047-.834 1.566l-.642 1.184c-.3.532-.626 1.051-.945 1.571l-.664 1.082c-.342.529-.7 1.047-1.059 1.565l-.68.983a59.86 59.86 0 0 1-1.159 1.535l-.708.912c-.406.506-.829 1-1.251 1.49l-.731.849c-.434.484-.881.957-1.33 1.427l-.775.805c-.453.457-.918.9-1.387 1.345l-.829.776c-.469.426-.947.84-1.427 1.25l-.9.759c-.475.389-.961.767-1.446 1.142l-.988.748c-.135.1-.274.194-.41.292.18-.13.367-.248.547-.38 2.239 3.141 2.833 10.723 2.839 10.665 6.162-1.424 12.029-3.913 17.336-7.353a55.8 55.8 0 0 0 6.45-5.023c.139-.126.274-.257.411-.384q1.3-1.2 2.519-2.481l.5-.529q1.3-1.4 2.513-2.894c.048-.06.1-.116.146-.176q1.3-1.624 2.478-3.355c.109-.161.209-.329.317-.491q.94-1.411 1.795-2.887c.2-.342.389-.689.581-1.035q.715-1.3 1.359-2.64l.514-1.067c.56-1.231 1.178-2.455 1.651-3.738 2.951-8.027 11.647-12.363 19.834-9.889.184.054.357.127.537.189.324.11.65.216.963.344.224.092.434.2.651.3.257.118.518.231.766.364s.469.274.7.412c.208.125.421.243.623.376.252.167.488.348.73.528.166.123.338.243.5.373.256.207.5.428.737.649.13.118.265.231.391.355.254.247.493.509.73.772.1.108.2.212.292.321.248.292.479.595.707.9.068.092.139.181.2.275.236.334.455.68.665 1.032l.132.217c.218.378.416.764.6 1.159.024.053.051.1.076.157a16.21 16.21 0 0 1 .522 1.274 2.32 2.32 0 0 0 .037.1q.239.676.418 1.377l.014.049q.183.723.3 1.463v.013c.294 1.85.263 3.738-.091 5.578-.006.033-.018.064-.024.1-.22 1.843-.484 3.689-.845 5.54-.76 3.881-1.826 7.696-3.187 11.409-12.354.171-28.2.924-28.785 3.656-.963 4.5-4.817 20.232-8.992 30.83s2.569 44.961 2.569 44.961 5.1 49.062 7.388 60.6c.213 1.08 3.492 2.364 3.492 2.364l58.812-.008c6.984 0 17.449-5.686 19.589-15.106 1.676-14.702-3.14-36.474-13.673-51.199z"/><path d="M97.577 209.743l-23.123 90.35s-10.383-2.14-12.846 4.283 1.071 7.708 1.071 7.708h21.2c1.804-.309 3.376-1.409 4.282-3 1.285-2.569 28.261-85.212 28.261-85.212L115.673 200z"/><path d="M74.207 250.245c-2.943.827-5.088 3.03-5.316 5.493-.324 3.519 3.444 5.782 4.592 6.505a10.65 10.65 0 0 0 6.8 1.526c.764 19.9-2.667 29.177-6.14 33.951-.911 1.251-3.811 4.952-2.632 7.832 1.157 2.831 6.708 4.781 7.332 3.533 1.285-2.569 17.342-96.131 17.342-96.131l-7.515-41.208a153.68 153.68 0 0 0-14.459 78.5z"/></g><g fill="#fff"><path d="M120 169.962a237.73 237.73 0 0 0-17.181 26.182c-7.28 13.274-15.2 55.88-15.2 55.88s-7.493-26.334-5.352-45.6c1.475-12.138 4.796-23.979 9.848-35.113z"/><path d="M124.128 152.082c.006-.033.018-.064.024-.1.354-1.84.385-3.728.091-5.578v-.013q-.116-.742-.3-1.463l-.014-.049q-.179-.7-.418-1.378l-.037-.1-.522-1.274-.076-.157-.6-1.159-.132-.217-.665-1.033-.2-.274-.707-.9-.292-.321-.73-.772-.391-.355-.737-.649-.5-.373-.73-.528-.623-.376-.7-.412-.766-.365-.651-.3-.963-.344-.537-.19-1.58-.391a16.17 16.17 0 0 0-18.261 10.28c-.473 1.283-1.091 2.508-1.651 3.738l-.514 1.068q-.647 1.341-1.359 2.64l-.581 1.035q-.856 1.474-1.795 2.887l-.317.491q-1.179 1.728-2.478 3.355l-.146.175q-1.206 1.5-2.514 2.9l-.5.529q-1.22 1.281-2.519 2.481l-.411.384c-6.774 6.13-14.963 10.482-23.833 12.667-.008.059 0 .116-.006.175 8.644.965 17.365 1.025 26.022.181 15.189-1.295 12.026-3.136 22.586-3.276 12.246-.163 14.878-2.27 16.258-3.885a7.81 7.81 0 0 0 .647-.874l.885-2.544c.744-2.053 1.34-4.156 1.784-6.293.277-1.346.46-2.231.613-3.5.201-1.661.355-3.151.846-5.543z"/></g><path d="M96.029 175.81a156.12 156.12 0 0 1-42.746 1.752c-.14-.014-.173.225-.033.247a126.13 126.13 0 0 0 42.294-.425c.105-.54.268-1.068.485-1.574z" fill="#d6d6d6"/><path d="M51.699 167.338a59.63 59.63 0 0 1-6.325 4.113h.006a3.1 3.1 0 0 0 1.078 5.656c.1.019-.1-.009 0 0l3.089.65c1.651.322 3.346.033 4.991.248a14.46 14.46 0 0 0-2.839-10.667z"/><path d="M113.951 226.175l-23.324 74.647-1.778 5.693c3.639 5.567 6.957 5.567 6.957 5.567s-4.014-1.178-4.014-7.226 8.029-6.584 8.029-6.584l24.14-.108s-23.658 1.071-22.7-18.2c0-22.159 31.152-33.079 31.152-33.079-7.661 2.099-14.781 5.823-20.875 10.919-10.6 8.671-7.065 6.744-7.065 6.744zm-26.335 25.85l-12.471 48.279 4.068 3a14.95 14.95 0 0 0-6.823-2.956 8.65 8.65 0 0 0-4.9.28 7.52 7.52 0 0 0-3.806 3.471c-.326.69-.548 1.425-.659 2.181a6.38 6.38 0 0 0 .067 3.405c.33.923.91 1.737 1.675 2.35l-2.094.048a3.37 3.37 0 0 1-.854-.656c-1.863-1.991-1.071-6.224.656-8.624 2.039-2.83 6.056-4.045 10.154-3.138l12.364-58.022z" class="K"/><path d="M166.58 125.693a3.74 3.74 0 0 0 .917 3.321c37.043 43.887 35.178 108.605-4.33 150.287l-1.369 31.173c33.126-9.627 60.158-39.051 68.306-75.082 10.611-46.964-14.465-94.68-59.164-112.577a3.79 3.79 0 0 0-4.36 2.878zm4.449 3.662a1.65 1.65 0 0 1 2.069-2.483c.014-.013.022-.023.036-.037 16.765 6.758 30.069 16.349 40.113 30.431-4.387 8.232-13.05 13.277-22.375 13.03-4.162-14.642-10.287-29.235-19.787-40.857-.015-.022-.035-.04-.049-.064l-.012-.014z" fill="#ff7f32"/><path d="M173.098 126.868c-.682-.263-1.457-.063-1.925.499s-.526 1.36-.144 1.984v.006l.012.013c.014.024.033.042.049.064 9.5 11.622 15.625 26.215 19.787 40.857 9.321.246 17.982-4.795 22.37-13.023-10.044-14.082-23.348-23.673-40.113-30.431-.014.013-.022.023-.036.031z" fill="#fff"/><path d="M186.691 260.376c7.065-22.641 6.146-43.593 7.226-50.1 0 .009-.087.34-.229.893a113.68 113.68 0 0 1-2.385 15.449 112.15 112.15 0 0 1-19.9 42.943c3.086 9.6-.126 25.5-.126 25.5s8.349-12.042 15.414-34.685z" class="K"/><path d="M109.724 149.791a6.96 6.96 0 0 0-1.087-1.436 3.73 3.73 0 0 0-.694-1.253 3.02 3.02 0 0 0-4.79 0 4.03 4.03 0 0 0-.7 1.25 6.3 6.3 0 0 0-1.078 1.439 4.17 4.17 0 0 1-.5-1.986 5.65 5.65 0 0 1 1-1.774c.889-1.125 2.243-1.78 3.676-1.78s2.787.656 3.676 1.78a6.01 6.01 0 0 1 1.007 1.771 4.02 4.02 0 0 1-.51 1.989zm6.654 15.191a4.99 4.99 0 0 1-2.849.248 6.13 6.13 0 0 1-4.465-3.574 5 5 0 0 1-.383-2.835 9.39 9.39 0 0 0 7.7 6.161z"/><path d="M110.693 162.382a11.27 11.27 0 0 1-2.906 5.65 24.3 24.3 0 0 1-4.727 4.121l-2.65 1.6-2.82 1.29c-1.933.814-3.991 1.293-6.085 1.416l-.066-.181c3.706-1.539 7.244-3.457 10.556-5.723 1.685-1.084 3.284-2.295 4.784-3.623a15.81 15.81 0 0 0 3.732-4.618z"/><path d="M107.966 173.716a67.7 67.7 0 0 1-20.205 4.709l-.448-.831 8.712-1.784z" fill="#d6d6d6"/><path d="M27.808 241.643a5 5 0 0 1 .692-2.775 6.13 6.13 0 0 1 4.83-3.062c.97-.09 1.945.105 2.806.56a9.39 9.39 0 0 0-8.328 5.277zm3.075 4.679a5 5 0 0 1 .692-2.775c1.006-1.755 2.814-2.9 4.83-3.062a5.01 5.01 0 0 1 2.806.56 9.39 9.39 0 0 0-8.328 5.277z" class="K"/><path d="M268.859 305.808l-.008 4.545c.001.344-.09.682-.265.978a1.6 1.6 0 0 1-.721.654 1.32 1.32 0 0 1-.281.089c-.089.019-.18.028-.271.028l-63.383-.15a1.65 1.65 0 0 1-1.529-1.665v-.09l.009-4.545v-.09c-.009-.872.664-1.599 1.534-1.658l63.384.151a1.36 1.36 0 0 1 .551.119 1.6 1.6 0 0 1 .718.657 1.91 1.91 0 0 1 .262.977z" class="B"/><g class="C"><path d="M237.723 312.033l-33.957-.081a1.58 1.58 0 0 1-1.364-1.665v-.09l.009-4.545v-.09c-.05-.827.549-1.551 1.37-1.658l29.787.071a15 15 0 0 0 4.155 8.058z"/><use xlink:href="#G"/><use xlink:href="#H"/><path d="M255.048 312.072l.023-8.049.72.002-.023 8.049z"/><use xlink:href="#I"/><use xlink:href="#I" x="-4.74" y="-0.012"/><use xlink:href="#J"/><use xlink:href="#I" x="-18.81" y="-0.045"/><path d="M225.681 312.003l.023-8.049.72.002-.023 8.049z"/><use xlink:href="#H" x="4.759" y="0.011"/><path d="M264.269 312.094l.016-8.048.72.001-.016 8.048zm1.478.004l.021-8.048.721.002-.021 8.048zm1.131-8.046l-.014 8.049h.45a1.34 1.34 0 0 0 .271-.027l.015-7.993a1.33 1.33 0 0 0-.271-.029z"/><use xlink:href="#K"/></g><path d="M262.097 297.743l-.008 4.545c.001.343-.09.681-.264.977a1.6 1.6 0 0 1-.721.654 1.36 1.36 0 0 1-.551.116l-63.384-.15c-.87-.062-1.541-.793-1.529-1.665v-.09l.008-4.545v-.09c-.009-.872.665-1.6 1.535-1.658l63.383.15.122.006c.017.001.035.003.052.006s.038.005.057.009l.041.008c.096.02.19.05.28.091l.04.019.039.019.077.043.044.028.039.027.072.052c.024.018.053.044.079.067l.059.055h0l.039.04c.039.042.076.085.111.131l.031.041c.01.013.019.028.029.042l.057.089c.175.298.266.638.263.983z" class="B"/><g class="C"><path d="M230.961 303.966l-33.957-.081a1.58 1.58 0 0 1-1.364-1.665v-.09l.008-4.545v-.09a1.58 1.58 0 0 1 1.371-1.658l29.786.071.041.2a14.89 14.89 0 0 0 4.115 7.858zm22.688.054l.02-8.048.72.002-.02 8.048z"/><use xlink:href="#J" x="12.65" y="-8.019"/><use xlink:href="#G" x="-12.125" y="-8.078"/><path d="M243.804 303.997l.024-8.049.72.002-.024 8.049zm-4.737-.011l.016-8.048.72.001-.016 8.048z"/><use xlink:href="#G" x="-28.614" y="-8.117"/><path d="M224.995 303.952l.02-8.048.72.002-.02 8.048zm-6.074-.014l.018-8.049.72.002-.018 8.049zm37.051.088l.016-8.048.72.001-.016 8.048z"/><use xlink:href="#I" x="6.937" y="-8.033"/><use xlink:href="#H" x="1.011" y="-8.047"/><path d="M260.112 295.987l-.015 8.049h.45a1.35 1.35 0 0 0 .271-.027l.014-7.992a1.29 1.29 0 0 0-.271-.029z"/><use xlink:href="#K" x="-6.762" y="-8.065"/></g><path d="M265.386 289.902l-.008 4.546a1.91 1.91 0 0 1-.265.977 1.6 1.6 0 0 1-.721.654c-.174.077-.362.117-.552.117l-63.384-.15a1.37 1.37 0 0 1-.707-.2 1.78 1.78 0 0 1-.817-1.387v-.078-.09l.008-4.545v-.09c-.009-.872.665-1.6 1.535-1.658l63.384.15a1.35 1.35 0 0 1 .271.029c.097.02.191.05.281.091a1.6 1.6 0 0 1 .718.657c.172.297.261.634.257.977z" class="B"/><path d="M234.25 296.125l-33.957-.081a1.13 1.13 0 0 1-.63-.2 1.82 1.82 0 0 1-.729-1.387v-.078-.09l.008-4.545v-.09a1.58 1.58 0 0 1 1.371-1.659l29.787.071c.51 2.953 1.884 5.688 3.948 7.86l.202.199z" class="C"/><path d="M266.919 281.857l-.008 4.545c.001.344-.09.682-.265.978a1.6 1.6 0 0 1-.721.654 1.3 1.3 0 0 1-.281.09 1.36 1.36 0 0 1-.27.028l-63.383-.151c-.87-.062-1.541-.793-1.529-1.665v-.09l.008-4.545v-.09c0-.801.567-1.491 1.353-1.646.06-.008.121-.012.182-.012l63.384.15a1.32 1.32 0 0 1 .27.029 1.3 1.3 0 0 1 .28.091 1.6 1.6 0 0 1 .719.658 1.91 1.91 0 0 1 .261.976z" class="B"/><path d="M235.783 288.079l-33.957-.081a1.58 1.58 0 0 1-1.365-1.665q0-.045 0-.09l.008-4.545v-.09a1.64 1.64 0 0 1 1.208-1.646.97.97 0 0 1 .162-.012l29.786.07v.013a15 15 0 0 0 4.158 8.046z" class="C"/><path d="M262.273 273.81l-.008 4.545c.001.344-.091.681-.265.977a1.6 1.6 0 0 1-.721.654 1.31 1.31 0 0 1-.281.09l-.089.015-.05.006h-.05-.082l-63.384-.15c-.87-.062-1.541-.793-1.529-1.665v-.09l.008-4.545v-.09-.074a1.71 1.71 0 0 1 1.152-1.531l.047-.013a1.35 1.35 0 0 1 .332-.04l63.383.15a.89.89 0 0 1 .137.007l.062.008h0l.071.014a1.29 1.29 0 0 1 .28.091 1.6 1.6 0 0 1 .719.657c.177.298.269.638.268.984z" class="B"/><path d="M231.137 280.032l-33.957-.081a1.58 1.58 0 0 1-1.364-1.664v-.09l.008-4.545v-.09-.074c.007-.683.429-1.293 1.065-1.542a.42.42 0 0 1 .058-.015 1.04 1.04 0 0 1 .242-.028l29.787.071c0 .019.007.038.011.057a14.98 14.98 0 0 0 4.13 7.988z" class="C"/><path d="M262.151 265.815l-.008 4.545a1.91 1.91 0 0 1-.264.977 1.6 1.6 0 0 1-.721.654c-.07.032-.144.057-.219.075h0a.55.55 0 0 1-.061.014c-.089.018-.179.027-.27.027l-63.383-.15a1.21 1.21 0 0 1-.2-.016.62.62 0 0 1-.076-.013 1.7 1.7 0 0 1-1.255-1.636v-.09l.008-4.545v-.09c-.009-.872.665-1.6 1.535-1.658l63.383.15c.041 0 .082 0 .121.006l.052.006c.019 0 .038 0 .057.009l.041.008a1.3 1.3 0 0 1 .281.091l.04.019.039.019.077.043.083.054.072.053.078.067.06.055h0l.039.04c.039.042.076.085.111.131a.52.52 0 0 1 .03.04l.03.043.057.089c.175.298.266.638.263.983z" class="B"/><path d="M231.019 272.041l-33.957-.081h-.08c-.029-.002-.058-.006-.087-.011a1.64 1.64 0 0 1-1.2-1.651v-.09l.008-4.545v-.09a1.58 1.58 0 0 1 1.371-1.658l29.786.071.041.2a14.94 14.94 0 0 0 4.054 7.8z" class="C"/><path d="M265.445 257.976l-.008 4.545c.001.343-.09.681-.264.977a1.6 1.6 0 0 1-.721.654 1.38 1.38 0 0 1-.552.117l-63.384-.151a1.37 1.37 0 0 1-.707-.2 1.78 1.78 0 0 1-.817-1.387c0-.026 0-.052-.005-.079s0-.06 0-.09l.008-4.545v-.09c-.009-.872.665-1.599 1.535-1.657l63.384.15c.19.001.378.042.551.12a1.6 1.6 0 0 1 .718.657 1.91 1.91 0 0 1 .262.979z" class="B"/><path d="M234.308 264.198l-33.957-.08a1.12 1.12 0 0 1-.63-.2 1.82 1.82 0 0 1-.729-1.386c0-.026 0-.052-.005-.079s0-.06 0-.09l.008-4.545v-.09a1.58 1.58 0 0 1 1.37-1.658l29.787.071a15.15 15.15 0 0 0 3.948 7.86l.208.197z" class="C"/><path d="M270.639 249.939l-.008 4.546c.001.344-.091.681-.265.977a1.6 1.6 0 0 1-.721.654 1.37 1.37 0 0 1-.551.117l-63.383-.151c-.87-.062-1.541-.793-1.529-1.665v-.09l.009-4.546v-.09a1.68 1.68 0 0 1 1.353-1.646 1.27 1.27 0 0 1 .182-.012l63.384.151c.091 0 .182.009.271.028a1.31 1.31 0 0 1 .28.091 1.6 1.6 0 0 1 .719.658c.172.297.262.635.259.978z" class="B"/><path d="M239.503 256.162l-33.957-.08a1.58 1.58 0 0 1-1.365-1.665v-.09l.009-4.546v-.09a1.64 1.64 0 0 1 1.208-1.646 1.02 1.02 0 0 1 .162-.012l29.787.071c.523 3.059 1.975 5.869 4.156 8.058z" class="C"/><path d="M262.332 241.883l-.008 4.545c.001.344-.09.682-.265.978a1.6 1.6 0 0 1-.721.654 1.31 1.31 0 0 1-.281.09l-.089.015-.071.008h-.035-.075l-63.384-.151c-.87-.062-1.541-.793-1.529-1.665v-.09l.008-4.545v-.09c-.008-.872.665-1.599 1.535-1.658l63.384.151h.081c.064.004.127.012.189.025a1.39 1.39 0 0 1 .414.159l.079.049.086.062.013.01.068.057a1.39 1.39 0 0 1 .152.152l.043.051.007.01a.41.41 0 0 1 .026.033v.007l.045.064.061.095c.176.298.269.638.267.984z" class="B"/><path d="M231.196 248.107l-33.957-.08a1.58 1.58 0 0 1-1.365-1.665v-.09l.008-4.545v-.09a1.58 1.58 0 0 1 1.371-1.659l29.787.071.039.186a14.9 14.9 0 0 0 4.1 7.86z" class="C"/><path d="M267.008 234.032l-.008 4.545a1.91 1.91 0 0 1-.265.977 1.6 1.6 0 0 1-.72.654c-.174.077-.361.117-.551.117l-63.383-.15a1.37 1.37 0 0 1-.685-.188c-.492-.304-.806-.828-.84-1.406v-.071-.09l.008-4.545v-.09a1.68 1.68 0 0 1 1.354-1.646 1.23 1.23 0 0 1 .181-.012l63.384.151a1.37 1.37 0 0 1 .551.119 1.61 1.61 0 0 1 .718.658 1.91 1.91 0 0 1 .256.977z" class="B"/><path d="M235.87 240.254l-33.957-.081c-.218-.002-.43-.067-.611-.188-.453-.328-.73-.847-.75-1.406v-.071-.09l.008-4.545v-.09a1.64 1.64 0 0 1 1.208-1.646c.054-.008.108-.012.162-.012l29.787.071a15.12 15.12 0 0 0 3.958 7.871q.096.095.195.187z" class="C"/><path d="M262.361 225.984l-.008 4.545a1.91 1.91 0 0 1-.264.977 1.6 1.6 0 0 1-.721.654 1.32 1.32 0 0 1-.281.089l-.089.015-.05.006h-.05-.082l-63.383-.151c-.87-.062-1.541-.793-1.529-1.665v-.09l.008-4.545v-.09c-.009-.872.664-1.599 1.534-1.658l63.384.151a1.37 1.37 0 0 1 .551.119 1.6 1.6 0 0 1 .718.657 1.91 1.91 0 0 1 .262.986z" class="B"/><g class="C"><path d="M231.225 232.207l-33.958-.08a1.58 1.58 0 0 1-1.364-1.665v-.09l.008-4.545v-.091a1.58 1.58 0 0 1 1.37-1.658l29.787.071a15.01 15.01 0 0 0 4.142 8.046z"/><use xlink:href="#G" x="-3.473" y="-15.907"/><use xlink:href="#J" x="15.94" y="-15.861"/><use xlink:href="#H" x="-6.396" y="-15.914"/><use xlink:href="#I" x="-3.473" y="-15.907"/><use xlink:href="#I" x="-8.213" y="-15.919"/><use xlink:href="#J" x="-3.473" y="-15.907"/><use xlink:href="#H" x="-29.689" y="-15.97"/><path d="M222.209 296.095l.021-8.048.72.002-.021 8.048zm37.051.088l.021-8.048.72.002-.021 8.048z"/><use xlink:href="#H" x="2.82" y="-15.893"/><use xlink:href="#J" x="23.714" y="-15.842"/><path d="M263.405 288.145l-.014 8.049h.45a1.33 1.33 0 0 0 .271-.028l.015-7.993a1.35 1.35 0 0 0-.271-.029z"/><use xlink:href="#L"/><path d="M236.621 288.081l.021-8.048.72.002-.021 8.048zm-6.802-.016l.017-8.049.721.002-.017 8.049z"/><use xlink:href="#H" x="-34.231" y="-24.029"/><path d="M261.516 288.14l.015-8.048h-.632c.034 0 .067-.009.1-.015l.014-7.993-.133-.021.015-7.8h.281l-.014 7.732a1.6 1.6 0 0 0 .721-.654l.011-6.5c-.139-.237-.335-.435-.571-.576h.252l.015-8.049h-.721l-.014 7.871a1.31 1.31 0 0 0-.23-.022h-.451l-.014 8.049h.133l-.015 7.991h.45.082l-.015 8.041z"/><use xlink:href="#H" x="4.353" y="-23.938"/><path d="M263.805 288.145l.024-8.049.72.002-.024 8.049zm1.134-8.046l-.015 8.049h.45a1.37 1.37 0 0 0 .271-.028l.014-7.992a1.29 1.29 0 0 0-.27-.029z"/><use xlink:href="#L" x="1.532" y="-8.045"/><path d="M254.55 280.087l.014-8.048h-.133l.014-7.991h-.72l-.015 8.049h.133l-.015 7.979h-.7l-.014 8.048h.72l.015-8.036zm-5.347-8.061h-.134l.015-7.991h-.72l-.015 8.049h.134l-.015 7.991h.177l-.014 8.036h.72l.014-8.048h-.177z"/><use xlink:href="#L" x="-3.112" y="-16.092"/><path d="M244.6 264.024h-.72l-.015 8.048h.133l-.014 7.979h-.08l-.015 8.048h.72l.015-8.036h.079l.015-8.049h-.133zm-4.739-.011h-.72l-.015 8.048h.134l-.014 7.991h.72l.015-8.049h-.133zm-7.266-.017h-.72l-.015 8.048h.133l-.014 7.991h.72l.014-8.049h-.133zm-6.801-.017h-.72l-.015 8.049h.134l-.015 7.991h.721l.014-8.048h-.133zm-6.078-.014h-.72l-.015 8.049h.134l-.015 7.991h.72l.014-8.049h-.133zm37.051.088h-.72l-.015 8.048h.133l-.015 7.979h-.1l-.015 8.049h.721l.014-8.036h.1l.015-8.049h-.134zm1.534.006h-.58l.014-7.85h-.72l-.015 8.049h.58l-.014 7.85h.133l-.014 7.991h.72l.015-8.049h-.133z"/><use xlink:href="#G" x="-5.853" y="-47.839"/><path d="M251.638 264.041h-.351l-.015 8.049h.133l-.014 7.991h.72l.015-8.049h-.133l.014-7.793h.351l.015-8.049h-.72z"/><use xlink:href="#G" x="-13.26" y="-47.856"/><path d="M242.412 264.217l.024-8.049.721.002-.024 8.049zm-7.265-.017l.018-8.049.72.002-.018 8.049zm-6.801-.016l.016-8.048.72.001-.016 8.048z"/><use xlink:href="#J" x="-16.293" y="-47.863"/><path d="M259.321 264.059h-.261l-.014 8.048h.133l-.014 7.979h-.675l-.015 8.048h.72l.015-8.036h.675l.014-8.048h-.133l.014-7.793h.26l.015-8.048h-.72z"/><use xlink:href="#I" x="11.765" y="-47.797"/><path d="M264.174 264.241l.015-7.992a1.3 1.3 0 0 0-.271-.029h-.45l-.015 8.049h.45a1.34 1.34 0 0 0 .271-.028zm.998-.743l.011-6.5a1.6 1.6 0 0 0-.718-.657l-.014 7.812a1.6 1.6 0 0 0 .721-.655z"/><use xlink:href="#G" x="1.78" y="-55.869"/><use xlink:href="#I" x="1.78" y="-55.87"/><path d="M247.607 256.181l.021-8.049.721.002-.021 8.049zm-7.265-.017l.018-8.049.72.002-.018 8.049z"/><use xlink:href="#H" x="-24.437" y="-55.932"/><path d="M227.464 256.133l.018-8.049.72.002-.018 8.049z"/><use xlink:href="#H" x="6.539" y="-55.859"/><use xlink:href="#H" x="8.073" y="-55.855"/><use xlink:href="#I" x="16.96" y="-55.834"/><path d="M268.658 248.182l-.014 8.049h.449c.091.001.182-.008.271-.027l.014-7.992c-.089-.018-.179-.028-.27-.028z"/><use xlink:href="#L" x="5.25" y="-39.963"/><path d="M253.887 248.16h.72l.015-8.049h-.7l.014-7.85h.7l.015-8.049h-.72l-.015 8.036h-.7l-.015 8.049h.7zm-2.441-.006l.02-8.048.72.002-.02 8.048z"/><use xlink:href="#H" x="-18.674" y="-63.955"/><use xlink:href="#H" x="-25.94" y="-63.972"/><use xlink:href="#H" x="-32.743" y="-63.988"/><path d="M219.156 248.077l.018-8.049.721.002-.018 8.049zm37.052.088h.638l-.015 8.036h.72l.015-8.048h-.638l.014-8.036h-.1l.014-7.85h.1l.015-8.048h-.72l-.014 8.036h-.1l-.015 8.049h.1zm1.534.004l.015-8.049.72.001-.015 8.049zm3.734-7.854h.127l.014-8.049h-.632c.033 0 .067-.009.1-.015l.015-7.993a1.29 1.29 0 0 0-.27-.029h-.45l-.014 8.049h.45.082l-.014 7.859h-.082-.45l-.015 8.036h-.394l.015-8.036h-.675l.014-7.85h.676l.015-8.049h-.72l-.015 8.036h-.675l-.015 8.049h.676l-.014 7.863h.548l-.015 8.036h.721l.014-8.037h.3a1.36 1.36 0 0 0 .27-.027l.014-7.835h.281l-.014 7.745a1.6 1.6 0 0 0 .721-.654l.012-6.5a1.63 1.63 0 0 0-.601-.599zm-24.765-.059l.015-8.049.72.001-.015 8.049z"/><use xlink:href="#J" x="-8.656" y="-71.793"/><use xlink:href="#H" x="-34.144" y="-71.854"/><path d="M262.414 240.317l.02-8.048.72.002-.02 8.048z"/><use xlink:href="#G" x="3.482" y="-71.764"/><path d="M265.025 232.275l-.014 8.049h.45a1.31 1.31 0 0 0 .271-.027l.014-7.993a1.33 1.33 0 0 0-.27-.029zm1.708 7.278l.012-6.5a1.6 1.6 0 0 0-.719-.657l-.014 7.813a1.6 1.6 0 0 0 .721-.656z"/><use xlink:href="#I" x="0.908" y="-79.807"/><path d="M249.288 224.201h-.72l-.015 8.049h.177l-.014 7.85h-.178l-.015 8.048h.72l.014-7.863h.178l.015-8.048h-.178zm-5.216 8.024h-.08l-.015 8.049h.08l-.014 7.863h.72l.014-8.049h-.079l.014-7.85h.08l.014-8.049h-.72z"/><use xlink:href="#J" x="0.768" y="-79.806"/><use xlink:href="#H" x="-25.911" y="-79.871"/><path d="M225.26 232.193l.016-8.049.721.001-.016 8.049zm-6.073-.014l.015-8.049.72.001-.015 8.049zm38.58.091l.023-8.049.72.002-.023 8.049z"/><use xlink:href="#K" x="-6.498" y="-79.824"/></g><defs ><path id="B" d="M207.072 147.814a8.96 8.96 0 0 1 5.976-2.348c-2.232.083-4.399-.767-5.979-2.346s-2.431-3.745-2.349-5.978c.082 2.232-.769 4.397-2.348 5.976s-3.744 2.43-5.976 2.348c2.232-.082 4.397.769 5.976 2.348s2.43 3.744 2.348 5.975a8.96 8.96 0 0 1 2.352-5.975z"/><path id="C" d="M353.214 192.7c0 .683-.553 1.236-1.236 1.236h0c-.683 0-1.236-.553-1.236-1.236v-5.339c0-.683.553-1.236 1.236-1.236h0c.683 0 1.236.553 1.236 1.236z"/><path id="D" d="M349.823 208.917c0 .582-.231 1.14-.643 1.551s-.97.643-1.551.643h-.176c-.582 0-1.14-.231-1.551-.643s-.643-.97-.643-1.551v-4.973c0-.582.231-1.14.643-1.551s.97-.643 1.551-.643h.176c.582 0 1.14.231 1.551.643s.643.97.643 1.551z"/><path id="E" d="M216.004 86.256l-.015.572c0 12.167 9.863 22.029 22.029 22.029s22.029-9.863 22.029-22.029c0-.191-.01-.381-.015-.572z"/><path id="F" d="M396.223.001h36.036v10.92h-36.036z"/><path id="G" d="M260.412 312.085l.02-8.049.72.002-.02 8.049z"/><path id="H" d="M257.975 312.08l.016-8.049.72.001-.016 8.049z"/><path id="I" d="M250.567 312.062l.021-8.049.72.002-.021 8.049z"/><path id="J" d="M238.562 312.033l.017-8.049.72.002-.017 8.049z"/><path id="K" d="M267.879 304.172l-.014 7.812a1.6 1.6 0 0 0 .721-.654l.012-6.5a1.6 1.6 0 0 0-.719-.658z"/><path id="L" d="M264.407 288.265l-.014 7.813a1.6 1.6 0 0 0 .721-.654l.012-6.5a1.6 1.6 0 0 0-.719-.659z"/></defs></svg>