<svg xmlns="http://www.w3.org/2000/svg" viewBox="0 0 271.2 245" xmlns:v="https://vecta.io/nano"><ellipse cx="140" cy="212.4" rx="131.2" ry="32.5" fill="#f6f6f6"/><path d="M183.3 35.3l5.5 8.3 4 6.2 3.5 6.2 3.6 7.7 3.3 9.6 4 8.8L224.1 72l2.7-8v-1.2l-7.5-9.2-16-13.7-17.6-7.8z" fill="#fff"/><g fill="#ff7f32"><path d="M150.5 75.5s-5.2 18.6-.3 35.3 9.5 16 25.1 37.9c10.1 14.2 14.8 35.1 13.1 49.2-2.1 9.1-12.1 14.5-18.8 14.5h-56.5s-3.2-1.2-3.4-2.3c-2.2-11.1-7.1-58.3-7.1-58.3s-6.5-33-2.5-43.2 7.7-25.3 8.6-29.6 41.8-3.5 41.8-3.5z"/><path d="M114.9 114l-22.2 86.9s-10-2.1-12.4 4.1 1 7.4 1 7.4h20.4c1.7-.3 3.2-1.4 4.1-2.9 1.2-2.5 27.2-81.9 27.2-81.9l-.7-23-17.4 9.4z"/><path d="M90.5 137.7c-4 25.6-6.8 63.2-6.8 63.2s-10-2.1-12.4 4.1 1 7.4 1 7.4h20.4c1.7-.3 3.2-1.4 4.1-2.9 1.2-2.5 16.7-92.4 16.7-92.4l-6.4-38.7c.1 0-12.6 33.6-16.6 59.3z"/></g><g fill="#fff"><path d="M137.1 75.4c-6.4 8.1-12.1 16.6-17.2 25.5-7 12.8-14.6 53.7-14.6 53.7s-7.2-25.3-5.1-43.8 11.7-37.5 11.7-37.5l25.2 2.1z"/><path d="M141.6 56.7c-.1-.4-.3-1.5-.8-2.7-1-2.3-2.8-3.6-3.9-4.3h0c-.2-.5-.4-.9-.6-1.3h0c-.2-.4-.4-.8-.7-1.2 0 0 0-.1-.1-.1-.2-.4-.5-.7-.7-1.1l-.1-.1c-.3-.3-.5-.7-.8-1l-.2-.2c-.3-.3-.5-.6-.8-.8-.1-.1-.2-.1-.2-.2-.3-.2-.5-.5-.8-.7-.1-.1-.2-.2-.3-.2-.3-.2-.5-.4-.8-.6-.1-.1-.3-.2-.4-.3l-.8-.5c-.2-.1-.4-.2-.5-.3-.3-.1-.5-.2-.8-.4-.2-.1-.4-.2-.7-.2-.2-.1-.5-.2-.7-.3-.3-.1-.5-.1-.8-.2-.2-.1-.4-.1-.7-.2s-.6-.1-1-.1c-.2 0-.4-.1-.5-.1-.5 0-1-.1-1.6-.1-7.6.1-14.1 5.6-15.2 13.2-.2 1.3-.5 2.6-.8 3.8-.1.4-.2.7-.3 1.1-.2.9-.5 1.8-.8 2.7-.1.4-.2.7-.3 1.1-.3 1-.7 2.1-1.1 3.1-.1.2-.1.4-.2.5-.5 1.2-1.1 2.4-1.7 3.6 0 .1-.1.1-.1.2L100 72c-.1.2-.2.4-.4.6-.6 1-1.2 1.9-1.9 2.8-.1.1-.2.3-.3.4-5.2 7.1-12.1 12.7-20 16.5v.2c10.4-1.4 18.5-3.3 23.9-4.8 6.9-1.9 13.1-4.2 15.1-5 4.3-1.6 3.8-1.6 6.2-2.4 11.7-4 15-1.7 17.6-5 1.9-2.3.9-4.5 1.7-15.6-.1-.3 0-1.5-.3-3z"/></g><path d="M115.8 82.5c-12.8 5.1-26.2 8.4-39.9 9.8-.1 0-.1.2 0 .2 13.6-.5 27.1-3.4 39.7-8.5 0-.5.1-1 .2-1.5z" fill="#d6d6d6"/><linearGradient id="A" gradientUnits="userSpaceOnUse" x1="5.806" y1="128.411" x2="56.573" y2="155.646"><stop offset="0" stop-color="#f84847"/><stop offset=".181" stop-color="#f43c3b"/><stop offset="1" stop-color="#e10909"/></linearGradient><circle cx="28.9" cy="140.8" r="28.8" fill="url(#A)"/><path d="M72.5 82.7c-1.6 1.8-3.3 3.5-5.2 5.1h0c-1.2 1.1-1.2 3-.1 4.2.6.6 1.4.9 2.2.9.1 0-.1 0 0 0h3c1.6 0 3.2-.6 4.8-.7a13.62 13.62 0 0 0-4.7-9.5z"/><path d="M130.6 129.8l-22.4 71.8-1.7 5.5c3.5 5.4 6.7 5.4 6.7 5.4s-3.9-1.1-3.9-6.9 7.7-6.3 7.7-6.3l23.2-.1s-22.7 1-21.8-17.5c0-21.3 30-31.8 30-31.8-7.4 2-14.2 5.6-20.1 10.5-10.2 8.3-6.8 6.5-6.8 6.5l9.1-37.1zm-25.3 24.9l-12 46.4 3.9 2.9s-5.8-3.8-11.3-2.6c-6.6 1.6-6.6 11-6.6 11H79c.1-2.1.4-4.3.9-6.3 2.1-7.9 11-5.6 11-5.6l11.9-55.8 2.5 10z" fill="#f26522"/><path d="M181.2 33.2c-.2 1.1.1 2.3.9 3.2 35.6 42.2 33.8 104.4-4.2 144.5l-1.3 30c31.9-9.3 57.8-37.5 65.7-72.2 10.2-45.2-13.9-91-56.9-108.2-1.9-.4-3.7.8-4.2 2.7zm4.3 3.5c-.2-.4-.3-.8-.2-1.2.2-.9 1.1-1.5 2-1.3h0c.1 0 .1.1.2.1h0c16.1 6.5 28.9 15.7 38.6 29.3-4.2 7.9-12.5 12.8-21.5 12.5-4-14.1-9.9-28.1-19.1-39.4.1.1 0 .1 0 0h0 0z" fill="#ff7f32"/><path d="M200.6 162.7c6.8-21.8 5.9-41.9 6.9-48.2 0 0-.1.3-.2.9-.4 5-1.2 10-2.3 14.9-3.4 15-9.9 29-19.1 41.3 3 9.2-.1 24.5-.1 24.5s8-11.6 14.8-33.4z" fill="#f26522"/><path d="M116 57.3c-.3 0-.5-.2-.6-.4-.1-.4-.2-.7-.2-1.1a4.62 4.62 0 0 1 4.3-5c2.5-.2 4.8 1.7 5 4.3 0 .3-.2.6-.6.6-.3 0-.6-.2-.6-.6-.2-1.9-1.8-3.3-3.7-3.2-1.9.2-3.3 1.8-3.2 3.7 0 .3.1.5.2.8s-.1.7-.4.8c-.1.1-.2.1-.2.1z"/><path d="M126.5 78.3c-5.4 3.9-11.6 6.8-18.1 8.3-.1-.1-.1-.2-.2-.3-.2-.4-.3-.7-.4-1" fill="#d6d6d6"/><path d="M28.9 169.7c-16 0-28.9-12.9-28.9-28.9 0-15.9 12.9-28.9 28.9-28.9 15.9 0 28.9 12.9 28.9 28.9-.1 15.9-13 28.9-28.9 28.9zm0-55.9c-14.9 0-27 12.1-27 27s12.1 27 27 27 27-12.1 27-27h0c-.1-14.9-12.1-26.9-27-27h0z" fill="#b1000e"/><path d="M37 115.3c-6.3-2.7-23.7-3.4-32.5 13.9 8.3-10 17.3-15 32.5-13.9z" fill="#ffabbf"/><path d="M23.1 167.1c14.7-1.1 24.8-9.6 31.8-20-1.1 6.5-5.5 12.4-10.8 16-6.1 4.2-13.8 5.7-21 4" fill="#d20000"/><path d="M148.1 36.1h0c-4.6-13.8-12.9-26-24.2-35.2-1.2-1.2-3-1.2-4.2-.1-.9.9-1.2 2.3-.6 3.4 3 7.4 3.5 15.6 1.5 23.4-.8-.1-1.6-.1-2.3-.2-.6 0-1.1-.1-1.7-.1-1.5-.1-3.1-.1-4.7-.1-2.3 0-4.6.1-6.9.4-.1 0-.3 0-.4.1l-2.7.3a38.69 38.69 0 0 0-20-15.1c-.3-.1-.6-.2-1-.2a2.22 2.22 0 0 0-2.2 2.2h0c0 .3.1.7.2 1 3 5.1 5.2 10.6 6.6 16.3l.6 2.8c0 .1 0 .3.1.4.1.8.3 1.7.4 2.5.1.4.1.8.1 1.2.1.6.1 1.3.2 1.9.1 1.1.1 2.3.1 3.4s0 2.1-.1 3.2c0 .4-.1.7-.1 1.1v.5c0 .5-.1 1-.1 1.5s-.1.9-.2 1.4c0 .3-.1.6-.1.9s-.1.5-.1.8l-.3 1.5c-.1.4-.2.9-.2 1.3v.2c-.1.5-.2 1.1-.4 1.6l-.3 1.4c-.1.6-.3 1.1-.5 1.6-.1.4-.2.8-.4 1.2-.2.6-.4 1.1-.6 1.7-.1.4-.3.8-.4 1.1-.2.6-.5 1.1-.7 1.7-.2.4-.3.7-.5 1.1-.3.6-.5 1.1-.8 1.7-.2.3-.3.7-.5 1-.3.6-.6 1.1-.9 1.6-.2.3-.3.6-.5.9-.3.5-.6 1.1-1 1.6l-.6.9c-.3.5-.7 1-1 1.5l-.6.9c-.4.5-.7 1-1.1 1.5-.2.3-.5.6-.7.9-.4.5-.8.9-1.1 1.4-.3.3-.5.6-.8.9-.1.1-.2.2-.3.4.1-.2.3-.3.4-.5 2.7 2.5 4.7 9.6 4.7 9.5 5.5-2.5 10.6-6 14.9-10.2 1.8-1.9 3.6-3.9 5.1-6 .1-.1.2-.3.3-.4.7-.9 1.3-1.9 1.9-2.8.1-.2.3-.4.4-.6.6-1 1.2-2.1 1.8-3.2 0-.1.1-.1.1-.2.6-1.2 1.2-2.4 1.7-3.6.1-.2.1-.3.2-.5.4-1 .8-2 1.1-3.1.1-.4.2-.7.3-1.1.3-.9.5-1.8.8-2.7.1-.4.2-.7.3-1.1.3-1.3.6-2.5.8-3.8 1.2-7.5 7.6-13.1 15.2-13.2.5 0 1 0 1.6.1.2 0 .4.1.5.1.3 0 .7.1 1 .1.2 0 .4.1.7.2s.5.1.8.2.5.2.7.3.4.1.7.2.5.2.8.4c.2.1.4.2.5.3.3.1.5.3.8.5.1.1.3.2.4.3.3.2.6.4.8.6.1.1.2.2.3.2.3.2.6.5.8.7.1.1.2.1.2.2l.8.8.2.2c.3.3.5.6.8 1l.1.1c.3.4.5.7.7 1.1 0 0 0 .1.1.1.2.4.5.8.7 1.2h0c.2.4.4.9.6 1.3h0c1.6 3.5 2.2 6.6 2.4 8.8.3 2.7.6 7.8-1.5 13.7-.9 2.4-1.9 4.3-2.7 5.7l15.2-2.4c.4-3.3 1.4-13.1 1.4-16.5.3-8.2-1-15.9-3.4-23.3z" fill="#ff7f32"/><path d="M36 124.6l-7.6 8.6-8.3-7.3c-4.7-4.1-11.5 2.9-6.7 7l8.6 7.6-7.3 8.3c-4.1 4.7 2.9 11.5 7 6.7l7.6-8.6 8.3 7.3c4.7 4.1 11.5-2.9 6.7-7l-8.6-7.6 7.3-8.3c4.1-4.7-2.9-11.5-7-6.7z" fill="#fff"/><path d="M118.5 79.8h0c.4 0 .6-.2.7-.5l-1.2-.2c0 .3.2.6.5.7z"/><path d="M118 79.1h0 0 0z"/><path d="M118 79.1h0 0 0zm1.2.2h0 0 0 0z"/><path d="M128.1 71.7c-4.8-.7-9.3 2.6-10.1 7.4.9-4.8 5.6-8 10.4-7.1l-.2.9a.78.78 0 0 0 .4-.4v-.1c.1-.4-.1-.7-.5-.7z"/><path d="M118 79.1h0 0l1.2.3h0 0c.7-4.2 4.6-7 8.7-6.4h.3l.2-.9c-4.8-1-9.4 2.2-10.4 7z"/></svg>