<svg xmlns="http://www.w3.org/2000/svg" xmlns:xlink="http://www.w3.org/1999/xlink" width="222.402" height="271.221" xmlns:v="https://vecta.io/nano"><style><![CDATA[.B{fill:#ffb93e}.C{fill:#ffa412}.D{fill:#f7cfac}.E{fill:#431313}]]></style><defs><linearGradient id="A" x1=".5" x2=".5" y2="1"><stop offset="0" stop-color="#6fcc15"/><stop offset="1" stop-color="#28ab0a"/></linearGradient><path id="B" d="M181.831 219.2v2.94a.9.9 0 0 1-.235.588c-.139.217-.346.382-.588.47H125.15a1.2 1.2 0 0 1-1.294-1.056h0v-2.94h0a1.2 1.2 0 0 1 1.294-1.058h55.858c.242.088.449.253.588.47a.9.9 0 0 1 .235.586z"/><path id="C" d="M174.423 218.024h.588v5.174h-.588z"/><path id="D" d="M181.596 218.612v4.233c-.139.217-.346.382-.588.47v-5.056c.247-.004.476.133.588.353z"/><path id="E" d="M175.952 214.026v2.94a.9.9 0 0 1-.235.588c-.139.217-.346.382-.588.47h-55.858a1.2 1.2 0 0 1-1.294-1.056h0v-2.94h0a1.2 1.2 0 0 1 1.294-1.058h56.094c.032-.001.062.011.084.034s.034.053.034.084h0c.352.468.469.703.469.938z"/><path id="F" d="M148.669 218.025h-29.634a1.16 1.16 0 0 1-1.176-1.057h0v-2.94h0a1.16 1.16 0 0 1 1.176-1.058h25.989v.118a8.98 8.98 0 0 0 3.645 4.937z"/><path id="G" d="M178.774 208.969v2.94a.9.9 0 0 1-.235.588c-.139.217-.346.382-.588.47h-55.858a.88.88 0 0 1-.588-.118c-.41-.134-.692-.51-.706-.941h0v-2.94h0a1.2 1.2 0 0 1 1.294-1.058h55.858c.242.088.449.253.588.47a.9.9 0 0 1 .235.589z"/><path id="H" d="M177.598 207.911v5.174h-.588v-5.174h.588z"/><path id="I" d="M178.538 208.382v4.234c-.139.217-.346.382-.588.47v-5.057c.247-.004.476.133.588.353z"/><path id="J" d="M178.538 187.802v4.233c-.139.217-.346.382-.588.47v-5.056a1 1 0 0 1 .588.353z"/><path id="K" d="M156.077 187.332h-29.634a1.16 1.16 0 0 1-1.176-1.057h0v-2.94h0c0-.588.47-.941 1.058-1.058h26.106a9.6 9.6 0 0 0 3.646 5.055z"/><path id="L" d="M179.831 172.397v4.233c-.139.217-.346.382-.588.47v-5.056a2.57 2.57 0 0 1 .588.353z"/><path id="M" d="M155.49 68.441a4.7 4.7 0 0 1-3.881-2.117c-.118-.235-.118-.47.118-.588s.47-.118.588.118a3.73 3.73 0 0 0 3.41 1.764c1.533-.083 2.85-1.117 3.293-2.587a.45.45 0 0 1 .582-.222.45.45 0 0 1 .241.575 4.7 4.7 0 0 1-4.116 3.175c0-.118-.117-.118-.235-.118z"/></defs><circle cx="111.201" cy="130.02" r="111.201" fill="#f2f1f1"/><use xlink:href="#B" class="B"/><g class="C"><path d="M154.666 223.199h-29.634a1.16 1.16 0 0 1-1.176-1.057h0v-2.94h0a1.16 1.16 0 0 1 1.176-1.058h25.989c.527 2.088 1.831 3.896 3.645 5.055z"/><use xlink:href="#C"/><use xlink:href="#C" x="-2.117"/><use xlink:href="#C" x="-4.704"/><use xlink:href="#C" x="-8.585"/><use xlink:href="#C" x="-12.7"/><use xlink:href="#C" x="-19.051"/><use xlink:href="#C" x="-25.048"/><use xlink:href="#C" x="-30.34"/><use xlink:href="#C" x="1.999"/><use xlink:href="#C" x="3.41"/><use xlink:href="#C" x="4.704"/><path d="M180.773 218.142v5.174h-.588v-5.174h.353c0-.118.117 0 .235 0z"/><use xlink:href="#D"/></g><use xlink:href="#E" class="B"/><g class="C"><use xlink:href="#F"/><use xlink:href="#C" x="-5.88" y="-5.174"/><use xlink:href="#C" x="-7.997" y="-5.174"/><use xlink:href="#C" x="-10.584" y="-5.174"/><use xlink:href="#C" x="-14.465" y="-5.174"/><use xlink:href="#C" x="-18.698" y="-5.174"/><use xlink:href="#C" x="-25.048" y="-5.174"/><use xlink:href="#C" x="-30.928" y="-5.174"/><use xlink:href="#C" x="-36.22" y="-5.174"/><use xlink:href="#C" x="-3.881" y="-5.174"/><use xlink:href="#C" x="-2.587" y="-5.174"/><use xlink:href="#C" x="-1.176" y="-5.174"/><path d="M174.776 212.968v5.174h-.588v-5.174h.353c.117-.118.117 0 .235 0zm.94.47v4.233c-.139.217-.346.382-.588.47v-5.056a1.07 1.07 0 0 1 .588.353z"/></g><use xlink:href="#G" class="B"/><g class="C"><path d="M151.491 213.085h-29.634a1.06 1.06 0 0 1-.588-.118.93.93 0 0 1-.588-.941h0v-3.058h0a1.16 1.16 0 0 1 1.176-1.058h25.989c.484 2.044 1.696 3.842 3.41 5.057.118.001.235.001.235.118z"/><use xlink:href="#C" x="-3.058" y="-10.113"/><use xlink:href="#C" x="-5.175" y="-10.113"/><use xlink:href="#C" x="-7.762" y="-10.113"/><use xlink:href="#C" x="-11.643" y="-10.113"/><use xlink:href="#C" x="-15.759" y="-10.113"/><use xlink:href="#C" x="-22.109" y="-10.113"/><use xlink:href="#C" x="-28.106" y="-10.113"/><use xlink:href="#C" x="-33.398" y="-10.113"/><use xlink:href="#C" x="-1.059" y="-10.113"/><use xlink:href="#C" x="0.352" y="-10.113"/><use xlink:href="#C" x="1.646" y="-10.113"/><use xlink:href="#H"/><use xlink:href="#I"/></g><path d="M180.067 203.795v2.94a.9.9 0 0 1-.235.588c-.139.217-.346.382-.588.47h-55.858a1.2 1.2 0 0 1-1.294-1.056h0v-2.94h0c0-.588.588-.941 1.176-1.058h55.976c.242.088.449.253.588.47a.9.9 0 0 1 .235.586z" class="B"/><g class="C"><path d="M152.902 207.912h-29.634a1.16 1.16 0 0 1-1.176-1.057h0v-2.94h0c0-.588.47-.941 1.058-1.058h26.106c.603 2.052 1.89 3.835 3.646 5.055z"/><use xlink:href="#C" x="-1.764" y="-15.287"/><use xlink:href="#C" x="-3.881" y="-15.287"/><use xlink:href="#C" x="-6.35" y="-15.287"/><use xlink:href="#C" x="-10.349" y="-15.287"/><use xlink:href="#C" x="-14.464" y="-15.287"/><use xlink:href="#C" x="-20.815" y="-15.287"/><use xlink:href="#C" x="-26.812" y="-15.287"/><use xlink:href="#C" x="-32.104" y="-15.287"/><use xlink:href="#C" x="0.353" y="-15.287"/><use xlink:href="#C" x="1.646" y="-15.287"/><use xlink:href="#C" x="2.94" y="-15.287"/><use xlink:href="#H" x="1.411" y="-5.174"/><use xlink:href="#I" x="1.294" y="-5.174"/></g><path d="M176.069 198.621v2.94a.9.9 0 0 1-.235.588c-.139.217-.346.382-.588.47h-55.858a1.2 1.2 0 0 1-1.294-1.058h0v-2.94h0c0-.47.47-.823 1.058-.941h55.976c.242.088.449.253.588.47.236 0 .353.236.353.471z" class="B"/><g class="C"><path d="M148.786 202.736h-29.634a1.16 1.16 0 0 1-1.176-1.058h0v-2.94h0a1.01 1.01 0 0 1 .941-.941h26.224c.658 1.993 1.935 3.723 3.645 4.939z"/><use xlink:href="#C" x="-5.763" y="-20.462"/><use xlink:href="#C" x="-7.88" y="-20.462"/><use xlink:href="#C" x="-10.467" y="-20.462"/><use xlink:href="#C" x="-14.348" y="-20.462"/><use xlink:href="#C" x="-18.581" y="-20.462"/><use xlink:href="#C" x="-24.931" y="-20.462"/><use xlink:href="#C" x="-30.811" y="-20.462"/><use xlink:href="#C" x="-36.103" y="-20.462"/><use xlink:href="#C" x="-3.764" y="-20.462"/><use xlink:href="#C" x="-2.47" y="-20.462"/><use xlink:href="#C" x="-1.177" y="-20.462"/><use xlink:href="#H" x="-2.705" y="-10.349"/><path d="M175.833 198.033v4.233c-.139.217-.346.382-.588.47v-5.056c.229.05.436.174.588.353z"/></g><path d="M175.951 193.564v2.942a.9.9 0 0 1-.235.588c-.139.217-.346.382-.588.47h-56.094c-.588-.118-1.058-.47-1.058-1.058h0v-2.94h0a1.2 1.2 0 0 1 1.294-1.06h56.206c.032-.001.062.011.084.034s.034.053.034.084h0a2.35 2.35 0 0 1 .357.94z" class="B"/><g class="C"><path d="M148.669 197.563h-29.87c-.588-.118-1.058-.47-1.058-1.058h0v-2.94h0a1.16 1.16 0 0 1 1.176-1.059h25.989v.118a10.44 10.44 0 0 0 3.763 4.939z"/><use xlink:href="#C" x="-5.88" y="-25.636"/><use xlink:href="#C" x="-7.997" y="-25.636"/><use xlink:href="#C" x="-10.584" y="-25.636"/><use xlink:href="#C" x="-14.465" y="-25.636"/><use xlink:href="#C" x="-18.698" y="-25.636"/><use xlink:href="#C" x="-25.048" y="-25.636"/><use xlink:href="#C" x="-30.928" y="-25.636"/><use xlink:href="#C" x="-36.22" y="-25.636"/><use xlink:href="#C" x="-3.881" y="-25.636"/><use xlink:href="#C" x="-2.587" y="-25.636"/><use xlink:href="#C" x="-1.176" y="-25.636"/><use xlink:href="#H" x="-2.822" y="-15.523"/><path d="M175.716 192.859v4.234c-.139.217-.346.382-.588.47v-5.057c.118 0 .353.235.588.353z"/></g><use xlink:href="#G" y="-20.462" class="B"/><g class="C"><path d="M151.491 192.506h-29.634a1.06 1.06 0 0 1-.588-.118.93.93 0 0 1-.588-.941h0v-2.94h0a1.16 1.16 0 0 1 1.176-1.058h25.989c.484 2.044 1.696 3.842 3.41 5.057.031-.032.073-.05.118-.05s.087.018.117.05z"/><use xlink:href="#C" x="-3.058" y="-30.693"/><use xlink:href="#C" x="-5.175" y="-30.693"/><use xlink:href="#C" x="-7.762" y="-30.693"/><use xlink:href="#C" x="-11.643" y="-30.693"/><use xlink:href="#C" x="-15.759" y="-30.693"/><use xlink:href="#C" x="-22.109" y="-30.693"/><use xlink:href="#C" x="-28.106" y="-30.693"/><use xlink:href="#C" x="-33.398" y="-30.693"/><use xlink:href="#C" x="-1.059" y="-30.693"/><use xlink:href="#C" x="0.352" y="-30.693"/><use xlink:href="#C" x="1.646" y="-30.693"/><use xlink:href="#H" y="-20.58"/><use xlink:href="#J"/></g><path d="M183.242 183.333v2.94a.9.9 0 0 1-.235.588c-.139.217-.346.382-.588.47h-55.858a1.2 1.2 0 0 1-1.294-1.056h0v-2.94h0c0-.588.588-.941 1.176-1.058h55.976c.242.088.449.253.588.47.235.116.235.351.235.586z" class="B"/><g class="C"><use xlink:href="#K"/><use xlink:href="#C" x="1.529" y="-35.867"/><use xlink:href="#C" x="-0.588" y="-35.867"/><use xlink:href="#C" x="-3.175" y="-35.867"/><use xlink:href="#C" x="-7.056" y="-35.867"/><use xlink:href="#C" x="-11.289" y="-35.867"/><use xlink:href="#C" x="-17.64" y="-35.867"/><use xlink:href="#C" x="-23.52" y="-35.867"/><use xlink:href="#C" x="-28.929" y="-35.867"/><use xlink:href="#C" x="3.528" y="-35.867"/><use xlink:href="#C" x="4.821" y="-35.867"/><use xlink:href="#C" x="6.115" y="-35.867"/><use xlink:href="#H" x="4.586" y="-25.754"/><use xlink:href="#J" x="4.469" y="-5.174"/></g><path d="M176.069 178.159v2.94a.9.9 0 0 1-.235.588c-.139.217-.346.382-.588.47H119.27a1.2 1.2 0 0 1-1.294-1.056h0v-2.94h0a1.2 1.2 0 0 1 1.294-1.058h56.329l.118.118h0v.118c.195.233.317.518.352.82z" class="B"/><g class="C"><path d="M148.786 182.158h-29.634a1.16 1.16 0 0 1-1.176-1.057h0v-2.94h0a1.16 1.16 0 0 1 1.176-1.058h25.989v.118a9.39 9.39 0 0 0 3.645 4.939z"/><use xlink:href="#C" x="-5.763" y="-41.041"/><use xlink:href="#C" x="-7.88" y="-41.041"/><use xlink:href="#C" x="-10.467" y="-41.041"/><use xlink:href="#C" x="-14.348" y="-41.041"/><use xlink:href="#C" x="-18.581" y="-41.041"/><use xlink:href="#C" x="-24.931" y="-41.041"/><use xlink:href="#C" x="-30.811" y="-41.041"/><use xlink:href="#C" x="-36.103" y="-41.041"/><use xlink:href="#C" x="-3.764" y="-41.041"/><use xlink:href="#C" x="-2.47" y="-41.041"/><use xlink:href="#C" x="-1.177" y="-41.041"/><use xlink:href="#H" x="-2.705" y="-30.928"/><path d="M175.833 177.454v4.234c-.139.217-.346.382-.588.47v-5.057c.118 0 .353.235.588.353z"/></g><path d="M180.067 173.102v2.94a.9.9 0 0 1-.235.588c-.139.217-.346.382-.588.47h-55.858a.88.88 0 0 1-.588-.118c-.41-.134-.692-.51-.706-.941h0v-2.94h0c0-.588.588-.941 1.176-1.058h55.976c.242.088.449.253.588.47a.9.9 0 0 1 .235.589z" class="B"/><g class="C"><path d="M152.902 177.101h-29.634a1.06 1.06 0 0 1-.588-.118 1.22 1.22 0 0 1-.706-.941h0v-2.94h0c0-.588.47-.941 1.058-1.058h26.106a8.37 8.37 0 0 0 3.528 5.057c.118-.118.118 0 .236 0z"/><use xlink:href="#C" x="-1.765" y="-46.098"/><use xlink:href="#C" x="-3.882" y="-46.098"/><use xlink:href="#C" x="-6.351" y="-46.098"/><use xlink:href="#C" x="-10.35" y="-46.098"/><use xlink:href="#C" x="-14.465" y="-46.098"/><use xlink:href="#C" x="-20.816" y="-46.098"/><use xlink:href="#C" x="-26.813" y="-46.098"/><use xlink:href="#C" x="-32.105" y="-46.098"/><use xlink:href="#C" x="0.352" y="-46.098"/><use xlink:href="#C" x="1.645" y="-46.098"/><use xlink:href="#C" x="2.939" y="-46.098"/><use xlink:href="#H" x="1.41" y="-35.985"/><use xlink:href="#L"/></g><use xlink:href="#B" y="-51.272" class="B"/><g class="C"><path d="M154.666 171.927h-29.634a1.16 1.16 0 0 1-1.176-1.057h0v-2.94h0a1.16 1.16 0 0 1 1.176-1.058h25.989c.526 2.088 1.83 3.897 3.645 5.057z"/><use xlink:href="#C" y="-51.272"/><use xlink:href="#C" x="-2.117" y="-51.272"/><use xlink:href="#C" x="-4.704" y="-51.272"/><use xlink:href="#C" x="-8.585" y="-51.272"/><use xlink:href="#C" x="-12.7" y="-51.272"/><use xlink:href="#C" x="-19.051" y="-51.272"/><use xlink:href="#C" x="-25.048" y="-51.272"/><use xlink:href="#C" x="-30.34" y="-51.272"/><use xlink:href="#C" x="1.999" y="-51.272"/><use xlink:href="#C" x="3.41" y="-51.272"/><use xlink:href="#C" x="4.704" y="-51.272"/><use xlink:href="#H" x="3.175" y="-41.159"/><use xlink:href="#L" x="1.765" y="-5.174"/></g><path d="M178.891 162.636v2.94a.9.9 0 0 1-.235.588c-.139.217-.346.382-.588.47H122.21a1.2 1.2 0 0 1-1.294-1.056h0v-2.94h0a1.2 1.2 0 0 1 1.294-1.058h55.858c.242.088.449.253.588.47.235.116.235.351.235.586z" class="B"/><g class="C"><path d="M151.726 166.635h-29.634a1.16 1.16 0 0 1-1.176-1.057h0v-2.94h0a1.16 1.16 0 0 1 1.176-1.058h25.989a9.6 9.6 0 0 0 3.645 5.055z"/><use xlink:href="#C" x="-2.823" y="-56.564"/><use xlink:href="#C" x="-4.94" y="-56.564"/><use xlink:href="#C" x="-7.527" y="-56.564"/><use xlink:href="#C" x="-11.408" y="-56.564"/><use xlink:href="#C" x="-15.641" y="-56.564"/><use xlink:href="#C" x="-21.991" y="-56.564"/><use xlink:href="#C" x="-27.871" y="-56.564"/><use xlink:href="#C" x="-33.163" y="-56.564"/><use xlink:href="#C" x="-0.824" y="-56.564"/><use xlink:href="#C" x="0.47" y="-56.564"/><use xlink:href="#C" x="1.763" y="-56.564"/><path d="M177.833 161.578v5.174h-.588v-5.174h.353c.117-.118.117 0 .235 0z"/><use xlink:href="#D" x="-2.94" y="-56.564"/></g><use xlink:href="#E" x="-2.94" y="-56.564" class="B"/><g class="C"><use xlink:href="#F" x="-2.822" y="-56.564"/><use xlink:href="#C" x="-8.819" y="-61.738"/><use xlink:href="#C" x="-10.936" y="-61.738"/><use xlink:href="#C" x="-13.523" y="-61.738"/><use xlink:href="#C" x="-17.404" y="-61.738"/><use xlink:href="#C" x="-21.519" y="-61.738"/><use xlink:href="#C" x="-27.87" y="-61.738"/><use xlink:href="#C" x="-33.867" y="-61.738"/><use xlink:href="#C" x="-39.159" y="-61.738"/><use xlink:href="#C" x="-6.702" y="-61.738"/><use xlink:href="#C" x="-5.409" y="-61.738"/><use xlink:href="#C" x="-4.115" y="-61.738"/><path d="M171.954 156.404v5.174h-.588v-5.174h.353c0-.118.117 0 .235 0z"/><use xlink:href="#D" x="-8.819" y="-61.738"/></g><path d="M175.834 152.405v2.942a.9.9 0 0 1-.235.588c-.139.217-.346.382-.588.47h-55.858a.88.88 0 0 1-.588-.118c-.41-.134-.692-.509-.706-.94h0v-2.94h0a1.2 1.2 0 0 1 1.294-1.06h55.858c.242.088.449.253.588.47.235.118.235.353.235.588z" class="B"/><g class="C"><path d="M148.669 156.522h-29.634a1.06 1.06 0 0 1-.588-.118.93.93 0 0 1-.588-.941h0v-2.94h0a1.16 1.16 0 0 1 1.176-1.058h25.989c.484 2.044 1.696 3.842 3.41 5.057.118-.118.118-.118.235 0z"/><use xlink:href="#C" x="-5.879" y="-66.677"/><use xlink:href="#C" x="-7.996" y="-66.677"/><use xlink:href="#C" x="-10.583" y="-66.677"/><use xlink:href="#C" x="-14.582" y="-66.677"/><use xlink:href="#C" x="-18.698" y="-66.677"/><use xlink:href="#C" x="-25.048" y="-66.677"/><use xlink:href="#C" x="-30.928" y="-66.677"/><use xlink:href="#C" x="-36.337" y="-66.677"/><use xlink:href="#C" x="-3.88" y="-66.677"/><use xlink:href="#C" x="-2.587" y="-66.677"/><use xlink:href="#C" x="-1.293" y="-66.677"/><use xlink:href="#H" x="-2.822" y="-56.564"/><path d="M175.599 151.817v4.23c-.139.217-.346.382-.588.47v-5.17c.242.088.449.253.588.47z"/></g><path d="M177.245 147.23v2.94a.9.9 0 0 1-.235.588c-.139.217-.346.382-.588.47h-55.858a1.2 1.2 0 0 1-1.294-1.056h0v-2.94h0c0-.588.588-.941 1.176-1.058h55.858c.242.088.449.253.588.47.22.112.357.339.353.586z" class="B"/><g class="C"><path d="M149.962 151.347h-29.634a1.16 1.16 0 0 1-1.176-1.057h0v-2.94h0c0-.588.47-.941 1.058-1.058h26.106a10.05 10.05 0 0 0 3.646 5.055z"/><use xlink:href="#C" x="-4.587" y="-71.852"/><use xlink:href="#C" x="-6.704" y="-71.852"/><use xlink:href="#C" x="-9.291" y="-71.852"/><use xlink:href="#C" x="-13.172" y="-71.852"/><use xlink:href="#C" x="-17.287" y="-71.852"/><use xlink:href="#C" x="-23.638" y="-71.852"/><use xlink:href="#C" x="-29.635" y="-71.852"/><use xlink:href="#C" x="-34.927" y="-71.852"/><use xlink:href="#C" x="-2.588" y="-71.852"/><use xlink:href="#C" x="-1.177" y="-71.852"/><use xlink:href="#C" x="0.117" y="-71.852"/><use xlink:href="#H" x="-1.529" y="-61.739"/><path d="M177.009 146.643v4.233c-.139.217-.346.382-.588.47v-5.056c.235 0 .353.118.588.353z"/></g><path d="M173.129 142.057v2.94a.9.9 0 0 1-.235.588c-.139.217-.346.382-.588.47h-55.858a1.2 1.2 0 0 1-1.294-1.058h0v-2.94h0c0-.47.47-.823 1.058-.941h56.094c.242.088.449.253.588.47.118 0 .235.236.235.471z" class="B"/><g class="C"><path d="M145.964 146.172H116.33a1.16 1.16 0 0 1-1.176-1.058h0v-2.94h0a1.01 1.01 0 0 1 .941-.941h26.224a9.18 9.18 0 0 0 3.645 4.939z"/><use xlink:href="#C" x="-8.702" y="-77.026"/><use xlink:href="#C" x="-10.819" y="-77.026"/><use xlink:href="#C" x="-13.406" y="-77.026"/><use xlink:href="#C" x="-17.287" y="-77.026"/><use xlink:href="#C" x="-21.402" y="-77.026"/><use xlink:href="#C" x="-27.753" y="-77.026"/><use xlink:href="#C" x="-33.75" y="-77.026"/><use xlink:href="#C" x="-39.042" y="-77.026"/><use xlink:href="#C" x="-6.585" y="-77.026"/><use xlink:href="#C" x="-5.292" y="-77.026"/><use xlink:href="#C" x="-3.998" y="-77.026"/><use xlink:href="#H" x="-5.527" y="-66.913"/><use xlink:href="#D" x="-8.702" y="-77.143"/></g><path d="M173.012 137v2.94a.9.9 0 0 1-.235.588c-.139.217-.346.382-.588.47h-56.094c-.588-.118-1.058-.47-1.058-1.058h0V137h0a1.2 1.2 0 0 1 1.294-1.058h56.206c.032-.001.062.011.084.034s.034.053.034.084h0a2.35 2.35 0 0 1 .357.94z" class="B"/><g class="C"><path d="M145.847 140.999h-29.87c-.588-.118-1.058-.47-1.058-1.058h0v-2.94h0a1.16 1.16 0 0 1 1.176-1.058h25.989v.118a10.44 10.44 0 0 0 3.763 4.939z"/><use xlink:href="#C" x="-8.82" y="-82.2"/><use xlink:href="#C" x="-10.937" y="-82.2"/><use xlink:href="#C" x="-13.524" y="-82.2"/><use xlink:href="#C" x="-17.405" y="-82.2"/><use xlink:href="#C" x="-21.52" y="-82.2"/><use xlink:href="#C" x="-27.871" y="-82.2"/><use xlink:href="#C" x="-33.868" y="-82.2"/><use xlink:href="#C" x="-39.16" y="-82.2"/><use xlink:href="#C" x="-6.703" y="-82.2"/><use xlink:href="#C" x="-5.41" y="-82.2"/><use xlink:href="#C" x="-4.116" y="-82.2"/><use xlink:href="#H" x="-5.645" y="-72.087"/><use xlink:href="#J" x="-5.762" y="-51.507"/></g><path d="M175.834 131.943v2.94a.9.9 0 0 1-.235.588c-.139.217-.346.382-.588.47h-55.858a.88.88 0 0 1-.588-.118c-.41-.134-.692-.51-.706-.941h0v-2.94h0a1.2 1.2 0 0 1 1.294-1.058h55.858c.242.088.449.253.588.47.235.119.235.354.235.589z" class="B"/><g class="C"><path d="M148.669 135.942h-29.634a1.06 1.06 0 0 1-.588-.118.93.93 0 0 1-.588-.941h0v-2.94h0a1.16 1.16 0 0 1 1.176-1.058h25.989c.484 2.044 1.696 3.842 3.41 5.057.118-.118.118 0 .235 0z"/><use xlink:href="#C" x="-5.879" y="-87.257"/><use xlink:href="#C" x="-7.996" y="-87.257"/><use xlink:href="#C" x="-10.583" y="-87.257"/><use xlink:href="#C" x="-14.582" y="-87.257"/><use xlink:href="#C" x="-18.698" y="-87.257"/><use xlink:href="#C" x="-25.048" y="-87.257"/><use xlink:href="#C" x="-30.928" y="-87.257"/><use xlink:href="#C" x="-36.337" y="-87.257"/><use xlink:href="#C" x="-3.88" y="-87.257"/><use xlink:href="#C" x="-2.587" y="-87.257"/><use xlink:href="#C" x="-1.293" y="-87.257"/><use xlink:href="#H" x="-2.822" y="-77.144"/><use xlink:href="#J" x="-2.939" y="-56.564"/></g><path d="M180.421 126.769v2.94a.9.9 0 0 1-.235.588c-.139.217-.346.382-.588.47H123.74a1.2 1.2 0 0 1-1.294-1.056h0v-2.94h0c0-.588.588-.941 1.176-1.058h55.976c.242.088.449.253.588.47a.9.9 0 0 1 .235.586z" class="B"/><g class="C"><use xlink:href="#K" x="-2.939" y="-56.564"/><use xlink:href="#C" x="-1.411" y="-92.431"/><use xlink:href="#C" x="-3.528" y="-92.431"/><use xlink:href="#C" x="-6.115" y="-92.431"/><use xlink:href="#C" x="-9.996" y="-92.431"/><use xlink:href="#C" x="-14.111" y="-92.431"/><use xlink:href="#C" x="-20.462" y="-92.431"/><use xlink:href="#C" x="-26.459" y="-92.431"/><use xlink:href="#C" x="-31.751" y="-92.431"/><use xlink:href="#C" x="0.588" y="-92.431"/><use xlink:href="#C" x="1.999" y="-92.431"/><use xlink:href="#C" x="3.293" y="-92.431"/><use xlink:href="#H" x="1.647" y="-82.318"/><use xlink:href="#J" x="1.647" y="-61.738"/></g><path d="M115.742 219.082v2.94a.9.9 0 0 1-.235.588c-.139.217-.346.382-.588.47H58.943a1.2 1.2 0 0 1-1.294-1.056h0v-2.94h0a1.2 1.2 0 0 1 1.294-1.058h55.858c.242.088.449.253.588.47.22.112.357.339.353.586z" class="B"/><g class="C"><path d="M88.459 223.081H58.825a1.16 1.16 0 0 1-1.176-1.057h0v-2.94h0a1.16 1.16 0 0 1 1.176-1.058h25.989a9.6 9.6 0 0 0 3.645 5.055z"/><use xlink:href="#C" x="-66.09" y="-0.118"/><use xlink:href="#C" x="-68.207" y="-0.118"/><use xlink:href="#C" x="-70.794" y="-0.118"/><use xlink:href="#C" x="-74.675" y="-0.118"/><use xlink:href="#C" x="-78.79" y="-0.118"/><use xlink:href="#C" x="-85.141" y="-0.118"/><use xlink:href="#C" x="-91.138" y="-0.118"/><use xlink:href="#C" x="-96.43" y="-0.118"/><use xlink:href="#C" x="-64.091" y="-0.118"/><use xlink:href="#C" x="-62.68" y="-0.118"/><use xlink:href="#C" x="-61.386" y="-0.118"/><use xlink:href="#H" x="-63.032" y="9.995"/><use xlink:href="#L" x="-64.325" y="45.98"/></g><path d="M109.745 213.908v2.94a.9.9 0 0 1-.235.588c-.139.217-.346.382-.588.47H53.064a1.2 1.2 0 0 1-1.294-1.056h0v-2.94h0a1.2 1.2 0 0 1 1.294-1.058h56.094c.032-.001.062.011.084.034s.034.053.034.084h0c.469.468.469.703.469.938z" class="B"/><g class="C"><path d="M82.58 217.907H52.946a1.16 1.16 0 0 1-1.176-1.057h0v-2.94h0a1.16 1.16 0 0 1 1.176-1.058h25.989v.118a9.39 9.39 0 0 0 3.645 4.937z"/><use xlink:href="#C" x="-71.969" y="-5.292"/><use xlink:href="#C" x="-74.086" y="-5.292"/><use xlink:href="#C" x="-76.673" y="-5.292"/><use xlink:href="#C" x="-80.554" y="-5.292"/><use xlink:href="#C" x="-84.787" y="-5.292"/><use xlink:href="#C" x="-91.137" y="-5.292"/><use xlink:href="#C" x="-97.017" y="-5.292"/><use xlink:href="#C" x="-102.309" y="-5.292"/><use xlink:href="#C" x="-69.97" y="-5.292"/><use xlink:href="#C" x="-68.676" y="-5.292"/><use xlink:href="#C" x="-67.383" y="-5.292"/><use xlink:href="#H" x="-68.911" y="4.821"/><use xlink:href="#L" x="-70.321" y="40.806"/></g><path d="M112.685 208.851v2.942a.9.9 0 0 1-.235.588c-.139.217-.346.382-.588.47H55.886a.88.88 0 0 1-.588-.118c-.41-.134-.692-.509-.706-.94h0v-2.94h0a1.2 1.2 0 0 1 1.294-1.06h55.858c.242.088.449.253.588.47.22.112.357.341.353.588z" class="B"/><g class="C"><path d="M85.402 212.85H55.768a1.06 1.06 0 0 1-.588-.118.93.93 0 0 1-.588-.939h0v-2.94h0a1.16 1.16 0 0 1 1.176-1.06h25.989c.484 2.044 1.696 3.842 3.41 5.057z"/><use xlink:href="#C" x="-69.147" y="-10.349"/><use xlink:href="#C" x="-71.264" y="-10.349"/><use xlink:href="#C" x="-73.851" y="-10.349"/><use xlink:href="#C" x="-77.732" y="-10.349"/><use xlink:href="#C" x="-81.847" y="-10.349"/><use xlink:href="#C" x="-88.198" y="-10.349"/><use xlink:href="#C" x="-94.195" y="-10.349"/><use xlink:href="#C" x="-99.487" y="-10.349"/><use xlink:href="#C" x="-67.148" y="-10.349"/><use xlink:href="#C" x="-65.737" y="-10.349"/><use xlink:href="#C" x="-64.443" y="-10.349"/><use xlink:href="#H" x="-66.089" y="-0.236"/><path d="M112.449 208.146v4.234c-.139.217-.346.382-.588.47v-5.057a2.57 2.57 0 0 1 .588.353z"/></g><path d="M113.978 203.677v2.94a.9.9 0 0 1-.235.588c-.139.217-.346.382-.588.47H57.179a1.2 1.2 0 0 1-1.294-1.056h0v-2.94h0c0-.588.588-.941 1.176-1.058h55.976c.242.088.449.253.588.47.22.112.357.339.353.586z" class="B"/><g class="C"><path d="M86.813 207.676H57.061a1.16 1.16 0 0 1-1.176-1.057h0v-2.94h0c0-.588.47-.941 1.058-1.058H83.05a9.29 9.29 0 0 0 3.763 5.055z"/><use xlink:href="#C" x="-67.854" y="-15.523"/><use xlink:href="#C" x="-69.971" y="-15.523"/><use xlink:href="#C" x="-72.558" y="-15.523"/><use xlink:href="#C" x="-76.439" y="-15.523"/><use xlink:href="#C" x="-80.554" y="-15.523"/><use xlink:href="#C" x="-86.905" y="-15.523"/><use xlink:href="#C" x="-92.902" y="-15.523"/><use xlink:href="#C" x="-98.194" y="-15.523"/><use xlink:href="#C" x="-65.737" y="-15.523"/><use xlink:href="#C" x="-64.444" y="-15.523"/><use xlink:href="#C" x="-63.15" y="-15.523"/><use xlink:href="#H" x="-64.679" y="-5.41"/><path d="M113.742 202.972v4.234c-.139.217-.346.382-.588.47v-5.057a2.57 2.57 0 0 1 .588.353z"/></g><path d="M109.862 198.503v2.94a.9.9 0 0 1-.235.588c-.139.217-.346.382-.588.47H53.181a1.2 1.2 0 0 1-1.294-1.058h0v-2.94h0c0-.47.47-.823 1.058-.941h56.094c.242.088.449.253.588.47.235 0 .235.236.235.471z" class="B"/><g class="C"><path d="M82.697 202.501H53.063a1.16 1.16 0 0 1-1.176-1.058h0v-2.94h0a1.01 1.01 0 0 1 .941-.941h26.224a9.39 9.39 0 0 0 3.646 4.939z"/><use xlink:href="#C" x="-71.851" y="-20.697"/><use xlink:href="#C" x="-73.968" y="-20.697"/><use xlink:href="#C" x="-76.555" y="-20.697"/><use xlink:href="#C" x="-80.436" y="-20.697"/><use xlink:href="#C" x="-84.669" y="-20.697"/><use xlink:href="#C" x="-91.02" y="-20.697"/><use xlink:href="#C" x="-96.9" y="-20.697"/><use xlink:href="#C" x="-102.309" y="-20.697"/><use xlink:href="#C" x="-69.852" y="-20.697"/><use xlink:href="#C" x="-68.559" y="-20.697"/><use xlink:href="#C" x="-67.265" y="-20.697"/><use xlink:href="#H" x="-68.794" y="-10.584"/><use xlink:href="#D" x="-71.969" y="-20.697"/></g><path d="M109.745 193.328v2.94a.9.9 0 0 1-.235.588c-.139.217-.346.382-.588.47H52.828c-.588-.118-1.058-.47-1.058-1.058h0v-2.94h0a1.2 1.2 0 0 1 1.294-1.058h56.206c.032-.001.062.011.084.034s.034.053.034.084h0a1.32 1.32 0 0 1 .357.94z" class="B"/><g class="C"><path d="M82.58 197.445H52.71c-.588-.118-1.058-.47-1.058-1.058h0v-2.94h0a1.16 1.16 0 0 1 1.176-1.058h25.989v.118c.755 1.973 2.061 3.688 3.763 4.939z"/><use xlink:href="#C" x="-71.969" y="-25.754"/><use xlink:href="#C" x="-74.086" y="-25.754"/><use xlink:href="#C" x="-76.673" y="-25.754"/><use xlink:href="#C" x="-80.554" y="-25.754"/><use xlink:href="#C" x="-84.787" y="-25.754"/><use xlink:href="#C" x="-91.137" y="-25.754"/><use xlink:href="#C" x="-97.017" y="-25.754"/><use xlink:href="#C" x="-102.309" y="-25.754"/><use xlink:href="#C" x="-69.97" y="-25.754"/><use xlink:href="#C" x="-68.676" y="-25.754"/><use xlink:href="#C" x="-67.383" y="-25.754"/><use xlink:href="#H" x="-68.911" y="-15.641"/><use xlink:href="#I" x="-69.028" y="-15.641"/></g><path d="M112.685 188.271v2.94a.9.9 0 0 1-.235.588c-.139.217-.346.382-.588.47H55.886a.88.88 0 0 1-.588-.118c-.41-.134-.692-.51-.706-.941h0v-2.94h0a1.2 1.2 0 0 1 1.294-1.058h55.858c.242.088.449.253.588.47.221.113.358.341.353.589z" class="B"/><g class="C"><path d="M85.402 192.388H55.768a1.06 1.06 0 0 1-.588-.118.93.93 0 0 1-.588-.941h0v-2.94h0a1.16 1.16 0 0 1 1.176-1.058h25.989c.484 2.044 1.696 3.842 3.41 5.057.118-.118.235-.118.235 0z"/><use xlink:href="#C" x="-69.147" y="-30.811"/><use xlink:href="#C" x="-71.264" y="-30.811"/><use xlink:href="#C" x="-73.851" y="-30.811"/><use xlink:href="#C" x="-77.732" y="-30.811"/><use xlink:href="#C" x="-81.847" y="-30.811"/><use xlink:href="#C" x="-88.198" y="-30.811"/><use xlink:href="#C" x="-94.195" y="-30.811"/><use xlink:href="#C" x="-99.487" y="-30.811"/><use xlink:href="#C" x="-67.148" y="-30.811"/><use xlink:href="#C" x="-65.737" y="-30.811"/><use xlink:href="#C" x="-64.443" y="-30.811"/><use xlink:href="#H" x="-66.089" y="-20.698"/><use xlink:href="#D" x="-69.147" y="-30.928"/></g><path d="M117.154 183.097v2.94a.9.9 0 0 1-.235.588c-.139.217-.346.382-.588.47H60.473a1.2 1.2 0 0 1-1.294-1.056h0v-2.94h0c0-.588.588-.941 1.176-1.058h55.976c.242.088.449.253.588.47.175.141.264.363.235.586z" class="B"/><g class="C"><path d="M89.989 187.213H60.237a1.16 1.16 0 0 1-1.176-1.058h0v-3.058h0c0-.588.47-.941 1.058-1.058h26.107a9.7 9.7 0 0 0 3.763 5.174z"/><use xlink:href="#C" x="-64.56" y="-35.985"/><use xlink:href="#C" x="-66.795" y="-35.985"/><use xlink:href="#C" x="-69.264" y="-35.985"/><use xlink:href="#C" x="-73.263" y="-35.985"/><use xlink:href="#C" x="-77.378" y="-35.985"/><use xlink:href="#C" x="-83.729" y="-35.985"/><use xlink:href="#C" x="-89.609" y="-35.985"/><use xlink:href="#C" x="-95.018" y="-35.985"/><use xlink:href="#C" x="-62.561" y="-35.985"/><use xlink:href="#C" x="-61.268" y="-35.985"/><use xlink:href="#C" x="-59.974" y="-35.985"/><use xlink:href="#H" x="-61.503" y="-25.872"/><use xlink:href="#D" x="-64.678" y="-36.102"/></g><path d="M109.862 177.923v2.94a.9.9 0 0 1-.235.588c-.139.217-.346.382-.588.47H53.181a1.2 1.2 0 0 1-1.294-1.056h0v-2.94h0a1.2 1.2 0 0 1 1.294-1.058h56.329l.118.118h0v.118a1.45 1.45 0 0 1 .234.82z" class="B"/><g class="C"><path d="M82.697 182.04H53.063a1.16 1.16 0 0 1-1.176-1.057h0v-2.94h0a1.16 1.16 0 0 1 1.176-1.058h25.989v.118a9.39 9.39 0 0 0 3.646 4.939z"/><use xlink:href="#C" x="-71.851" y="-41.159"/><use xlink:href="#C" x="-73.968" y="-41.159"/><use xlink:href="#C" x="-76.555" y="-41.159"/><use xlink:href="#C" x="-80.436" y="-41.159"/><use xlink:href="#C" x="-84.669" y="-41.159"/><use xlink:href="#C" x="-91.02" y="-41.159"/><use xlink:href="#C" x="-96.9" y="-41.159"/><use xlink:href="#C" x="-102.309" y="-41.159"/><use xlink:href="#C" x="-69.852" y="-41.159"/><use xlink:href="#C" x="-68.559" y="-41.159"/><use xlink:href="#C" x="-67.265" y="-41.159"/><use xlink:href="#H" x="-68.794" y="-31.046"/><use xlink:href="#D" x="-71.969" y="-41.276"/></g><path d="M113.979 172.866v2.94a.9.9 0 0 1-.235.588c-.139.217-.346.382-.588.47H57.18a.88.88 0 0 1-.588-.118c-.409-.133-.691-.508-.706-.938h0v-2.94h0c0-.588.588-.941 1.176-1.058h55.976c.242.088.449.253.588.47.235.234.353.351.353.586z" class="B"/><g class="C"><path d="M86.814 176.983H57.062a1.06 1.06 0 0 1-.588-.118 1.22 1.22 0 0 1-.706-.941h0v-2.94h0c0-.588.47-.941 1.058-1.058h26.107a8.37 8.37 0 0 0 3.528 5.057c.235-.118.235 0 .353 0z"/><use xlink:href="#C" x="-67.853" y="-46.216"/><use xlink:href="#C" x="-69.97" y="-46.216"/><use xlink:href="#C" x="-72.557" y="-46.216"/><use xlink:href="#C" x="-76.438" y="-46.216"/><use xlink:href="#C" x="-80.553" y="-46.216"/><use xlink:href="#C" x="-86.904" y="-46.216"/><use xlink:href="#C" x="-92.901" y="-46.216"/><use xlink:href="#C" x="-98.193" y="-46.216"/><use xlink:href="#C" x="-65.736" y="-46.216"/><use xlink:href="#C" x="-64.443" y="-46.216"/><use xlink:href="#C" x="-63.149" y="-46.216"/><use xlink:href="#H" x="-64.678" y="-36.103"/><use xlink:href="#I" x="-64.795" y="-36.103"/></g><path d="M115.742 167.692v2.942a.9.9 0 0 1-.235.588c-.139.217-.346.382-.588.47H58.943a1.2 1.2 0 0 1-1.294-1.058h0v-2.94h0a1.2 1.2 0 0 1 1.294-1.06h55.858c.242.088.449.253.588.47.179.152.303.359.353.588z" class="B"/><g class="C"><path d="M88.459 171.809H58.825a1.16 1.16 0 0 1-1.176-1.057h0v-2.94h0a1.16 1.16 0 0 1 1.176-1.058h25.989a9.6 9.6 0 0 0 3.646 5.057z"/><use xlink:href="#C" x="-66.09" y="-51.39"/><use xlink:href="#C" x="-68.207" y="-51.39"/><use xlink:href="#C" x="-70.794" y="-51.39"/><use xlink:href="#C" x="-74.675" y="-51.39"/><use xlink:href="#C" x="-78.79" y="-51.39"/><use xlink:href="#C" x="-85.141" y="-51.39"/><use xlink:href="#C" x="-91.138" y="-51.39"/><use xlink:href="#C" x="-96.43" y="-51.39"/><use xlink:href="#C" x="-64.091" y="-51.39"/><use xlink:href="#C" x="-62.68" y="-51.39"/><use xlink:href="#C" x="-61.386" y="-51.39"/><use xlink:href="#H" x="-63.032" y="-41.277"/><use xlink:href="#J" x="-63.032" y="-20.697"/></g><circle cx="31.281" cy="31.281" r="31.281" transform="matrix(.867 -.499 .499 .867 45.495 123.851)" fill="#e2810e"/><circle cx="31.281" cy="31.281" r="31.281" transform="matrix(.479 -.878 .878 .479 43.034 147.791)" class="B"/><path d="M85.519 164.165a28.51 28.51 0 1 1 20.109-8.349 28.1 28.1 0 0 1-20.109 8.349zm0-55.153c-14.808 0-26.812 12.004-26.812 26.812s12.004 26.812 26.812 26.812 26.812-12.004 26.812-26.812a26.8 26.8 0 0 0-26.812-26.812zm3.882 35.044a3.77 3.77 0 0 0-.118-1.646 3.98 3.98 0 0 0-.706-1.411c-.389-.481-.868-.881-1.411-1.176a17.06 17.06 0 0 0-2.117-1.176 25.46 25.46 0 0 1-4-2.234 10.26 10.26 0 0 1-2.94-2.47 7.57 7.57 0 0 1-1.764-2.94 9.56 9.56 0 0 1-.353-3.763c.082-1.167.445-2.296 1.058-3.293a8.89 8.89 0 0 1 2.234-2.47c.96-.695 2.037-1.213 3.179-1.529a13.84 13.84 0 0 1 4-.47l.588-4.7 3.763.47-.588 4.7c1.251.315 2.443.831 3.528 1.529a10.38 10.38 0 0 1 2.587 2.47 7.59 7.59 0 0 1 1.411 3.293 11.25 11.25 0 0 1 .118 4l-6.821-.823a5.7 5.7 0 0 0-.706-4.116 3.95 3.95 0 0 0-2.94-1.646 4.93 4.93 0 0 0-1.882.118 3.2 3.2 0 0 0-1.411.706 2.69 2.69 0 0 0-.823 1.176 5.82 5.82 0 0 0-.47 1.529 3.25 3.25 0 0 0 .118 1.529 2.8 2.8 0 0 0 .706 1.294c.389.481.868.881 1.411 1.176l2.234 1.294 4 2.234a12.14 12.14 0 0 1 2.94 2.47c.781.85 1.381 1.851 1.764 2.94a9.56 9.56 0 0 1 .349 3.753c-.083 1.203-.445 2.371-1.058 3.41a8.89 8.89 0 0 1-2.234 2.47 7.76 7.76 0 0 1-3.175 1.411 14.35 14.35 0 0 1-4 .47l-.47 4.351-3.763-.47.47-4.351a13.5 13.5 0 0 1-3.646-1.291c-1.137-.568-2.171-1.324-3.058-2.234a8.79 8.79 0 0 1-1.882-3.41 11.4 11.4 0 0 1-.353-4.586l6.821.823a6.78 6.78 0 0 0 .118 2.7 6.23 6.23 0 0 0 .941 1.764 4.48 4.48 0 0 0 1.529 1.058 8.81 8.81 0 0 0 1.882.47 5.7 5.7 0 0 0 2 0 5.91 5.91 0 0 0 1.529-.585c.403-.262.728-.627.941-1.058l.47-1.76z" class="C"/><path d="M74.23 120.066L43.773 91.255a15.98 15.98 0 0 1-3.528-3.175c-1.411-1.646-2.352-2.822-2.234-4.233.118-1.294 1.529-2.234 4.233-4 2.822-1.882 4.351-2.822 5.762-2.234.353.118 1.058.588 1.882 2.7.958 2.798 1.161 5.799.588 8.7l27.753 23.872-3.999 7.181z" class="D"/><path d="M105.629 168.399l2.352 6.821-1.176 59.5h5.762l4.469-62.209 3.41-.353 10.466 14.935-14.229 29.87 4.586 2.587 16.7-30.1a16.82 16.82 0 0 0 0-4.233 13 13 0 0 0-.823-3.528l-8.817-13.761.235-5.762-20.935 1.058z" fill="#207b99"/><path d="M106.335 231.783h7.173v3.293h-7.173zm10.669-17.991l6.706 3.149-1.4 2.981-6.706-3.149z" fill="#1c627b"/><path d="M133.617 105.837l18.11-36.1c-.757-.755-1.321-1.681-1.646-2.7-.302-1.03-.421-2.104-.353-3.175.118-.588.47-3.763 2.822-4.821 1.529-.706 2.94-.118 4.469.47 1.411.47 4.116 1.411 4.939 3.645 1.058 2.587-.588 6.468-4.233 8.937l-19.639 41.864-4.469-8.12z" class="D"/><path d="M79.875 110.188l-.353.588-6.232 10.938 19.639 9.525 10.231 37.865 26.694-6.7-5.292-38.572 14.229-8.349-6-10.466-20.812 10.228c-1.477 1.423-3.374 2.33-5.409 2.587a10.2 10.2 0 0 1-6.821-1.294l-5.645 1.294" fill="#ed421f"/><path d="M85.167 102.427l9.525 10.584 2.822-4.821-5.527-8.232c-2.234.94-4.586 1.763-6.82 2.469z" class="E"/><path d="M79.522 81.259a6.43 6.43 0 0 0-6.35.588c-1.5 1.199-2.369 3.019-2.357 4.939a16.17 16.17 0 0 0 1.764 8.349 17.41 17.41 0 0 0 9.173 8 9.47 9.47 0 0 0 7.644-.353c1.045-.6 1.962-1.399 2.7-2.352a71.03 71.03 0 0 1 5.057 9.525c1.058 2.234 1.882 4.469 2.7 6.585a8.82 8.82 0 0 0 5.174 2.94c1.225.205 2.483.083 3.646-.353a6.64 6.64 0 0 0 3.41-3.881l-1.176-5.88 13.524-.235 8.349-4.116 9.535-36.927-9.525 3.646-8-24.931-47.032 10.936 1.764 23.52zm27.283 153.817v.941a3.07 3.07 0 0 0 1.411 1.294c.488.184 1.009.264 1.529.235a3.18 3.18 0 0 0 1.76-.354 5.12 5.12 0 0 0 1.411-1.411v-.823l-6.111.118zm9.407-17.992a4.18 4.18 0 0 1-.47 1.058c-.039.587.127 1.168.47 1.646.235.353.706.47 1.411.823.553.288 1.149.486 1.764.588a3.3 3.3 0 0 0 2.117-1.058c.118-.118.118-.353.235-.47-1.764-.941-3.645-1.764-5.527-2.587z" class="D"/><path d="M106.805 236.017a4.22 4.22 0 0 0-1.882 1.529 3.06 3.06 0 0 0-.47 2.47h18.7a3.61 3.61 0 0 0-.47-1.764c-.823-1.058-2.117-1.176-3.881-1.411-1.411-.118-3.293-.47-5.762-.941-.72.981-1.843 1.585-3.058 1.646a4.16 4.16 0 0 1-3.177-1.529z" fill="#f4f4f4"/><path fill="#e2e2e2" d="M104.453 240.015h18.698v.941h-18.698z"/><path d="M113.743 235.193h1.176v3.41h-1.176zm2.352 0h1.176v3.41h-1.176z" fill="#6d4f44"/><path d="M115.86 218.024a3.57 3.57 0 0 0-2.234.706c-.696.505-1.162 1.266-1.294 2.116l17.4 6.585a2.88 2.88 0 0 0 .118-1.764c-.353-1.294-1.646-1.882-3.175-2.7-1.176-.588-2.94-1.646-5.057-2.94a3.76 3.76 0 0 1-5.762-2z" fill="#f4f4f4"/><path fill="#e2e2e2" d="M112.286 220.905l17.503 6.576-.331.881-17.503-6.576z"/><path d="M122.643 219.668l1.101.414-1.199 3.192-1.101-.414zm2.233.835l1.101.414-1.199 3.192-1.101-.414z" fill="#6d4f44"/><path d="M83.756 65.619l7.173-4.233-.47 5.409a44.36 44.36 0 0 0 9.055-3.175 46.14 46.14 0 0 0 7.644-4.7l.823 3.293c3.813-.481 7.492-1.72 10.819-3.645 3.112-1.842 5.831-4.28 8-7.173-.588-2.117-1.294-4.233-1.882-6.35l-40.343 9.638-4.7 4.939z" fill="#ecb589"/><path d="M47.301 55.388a46.85 46.85 0 0 0 7.761 17.169c4.226 5.688 9.645 10.384 15.876 13.759a5.8 5.8 0 0 1 1.529-3.646c1.731-1.796 4.361-2.397 6.7-1.529l9.643 12.465h1.646a122.27 122.27 0 0 0-2.94-17.4c-1.176-4.836-2.668-9.589-4.469-14.229l6-3.175c.353 1.764.588 3.528.941 5.409 2.822-.62 5.55-1.609 8.114-2.94a27.5 27.5 0 0 0 8.467-7.409l.706 5.88a30.99 30.99 0 0 0 9.525-3.646 30.5 30.5 0 0 0 11.289-12.348c2.739-5.209 4.038-11.055 3.763-16.934.235-11.054-4.233-20.7-12.112-24.7A19.59 19.59 0 0 0 110.686 0l1.646 11.76c-2.906-2.369-6.212-4.201-9.761-5.41a28.68 28.68 0 0 0-7.879-1.529l-.235 12.818-47.156 37.749z" class="E"/><path d="M113.978 86.904l12.818-2.94c.903 2.726 1.145 5.629.706 8.467-.353 2.234-.823 5.292-2.7 6-2.117.706-4.7-1.882-6.115-3.175-2.34-2.274-3.975-5.173-4.709-8.352z" fill="#dd9e73"/><path d="M108.804 172.75c-.13 0-.235-.105-.235-.235s.105-.235.235-.235c2.117 0 3.881-2.117 3.881-4.586 0-.084.045-.162.117-.204s.162-.042.235 0 .118.12.117.204c.105 1.25-.297 2.49-1.115 3.44a4.68 4.68 0 0 1-3.236 1.616zm19.286-5.763h0c-1.882 0-3.41-1.411-3.293-2.94.009-.126.109-.226.235-.235h0c.118 0 .235.118.235.353a2.53 2.53 0 0 0 2.7 2.352c.118 0 .235.118.235.353.123-.001.005.117-.112.117z" fill="#215d6d"/><path d="M117.036 112.658l18.11-4.116-2.117-3.763z" fill="#d33e1f"/><g fill="#dd9e73"><use xlink:href="#M"/><use xlink:href="#M" x="-110.071" y="19.874"/></g><path d="M107.981 77.849a.65.65 0 0 1-.588-.353c-.432-1.145-.39-2.415.118-3.528a3.81 3.81 0 0 1 2.352-2.117 4.19 4.19 0 0 1 4.821 1.764.59.59 0 0 1-.4.937.59.59 0 0 1-.541-.231c-.745-1.183-2.195-1.715-3.528-1.294-.727.276-1.317.824-1.646 1.529a3.3 3.3 0 0 0-.118 2.587.49.49 0 0 1 0 .441c-.07.139-.2.237-.353.265zm10.349-3.881a.65.65 0 0 1-.588-.353c-.432-1.145-.39-2.415.118-3.528a3.81 3.81 0 0 1 2.352-2.117 4.19 4.19 0 0 1 4.821 1.764.59.59 0 0 1-.384.975.59.59 0 0 1-.552-.269c-.745-1.183-2.195-1.715-3.528-1.294-.727.276-1.317.824-1.646 1.529a3.3 3.3 0 0 0-.118 2.587.49.49 0 0 1 0 .441c-.07.139-.2.237-.353.265z" class="E"/><path d="M168.591 134.006l-2.092 3.786 1.893 3.886-4.285-.9-3.089 2.989-.5-4.285-3.786-1.993 3.886-1.794.8-4.285 2.89 3.189zM38.06 35.758l-3.986 1.594-.9 4.185-2.79-3.288-4.285.5 2.292-3.687-1.788-3.987 4.185 1 3.288-2.79.3 4.285zm140.496 76.775l-3.288 1.594-.6 3.587-2.491-2.69-3.587.6 1.794-3.189-1.592-3.19 3.487.6 2.591-2.491.5 3.587zm15.153 8.768l1.893 1.694 2.391-.7-.9 2.292 1.3 2.192-2.491-.2-1.594 1.893-.6-2.391-2.292-.9 2.092-1.3zm-169.898-1.844l-2.89 3.189 1 4.185-3.986-1.794-3.687 2.192.5-4.285-3.193-2.789 4.185-.9 1.694-3.883 2.092 3.687z" fill="#ffb024"/><circle cx="111" cy="241.221" r="30" fill="url(#A)"/><path d="M105.952 257.514a4 4 0 0 1-2.828-1.171l-9.724-9.721a4 4 0 1 1 5.657-5.657l6.609 6.609 17.242-20.9a4 4 0 1 1 6.171 5.092l-20.044 24.292a4 4 0 0 1-2.894 1.45q-.094.006-.189.006z" fill="#fff"/></svg>