<svg xmlns="http://www.w3.org/2000/svg" width="18" height="22" fill="none" xmlns:v="https://vecta.io/nano"><path d="M17.262 16.719c-.31.715-.676 1.374-1.101 1.979-.579.825-1.053 1.396-1.418 1.714-.566.521-1.173.787-1.822.802-.466 0-1.029-.133-1.683-.402s-1.26-.401-1.812-.401c-.579 0-1.2.133-1.864.401s-1.201.409-1.61.423c-.623.027-1.244-.248-1.864-.824-.396-.345-.89-.936-1.483-1.774-.636-.895-1.159-1.932-1.568-3.115-.439-1.278-.659-2.515-.659-3.713 0-1.372.296-2.556.89-3.547.467-.797 1.088-1.425 1.865-1.886s1.617-.696 2.521-.711c.495 0 1.144.153 1.95.454s1.32.455 1.547.455c.169 0 .743-.179 1.715-.536.919-.331 1.695-.468 2.331-.414 1.723.139 3.017.818 3.877 2.041-1.541.933-2.303 2.241-2.287 3.918.014 1.306.488 2.394 1.419 3.257.422.401.894.71 1.418.93l-.361.949zM13.311 1.172c0 1.024-.374 1.98-1.12 2.865-.9 1.052-1.988 1.66-3.169 1.564-.015-.123-.024-.252-.024-.388 0-.983.428-2.035 1.188-2.895.379-.436.862-.798 1.447-1.087S12.77.79 13.289.763a3.71 3.71 0 0 1 .021.41h0z" fill="#fff"/></svg>