<?xml version="1.0" encoding="UTF-8"?>
<svg class="promo__icon" viewBox="0 0 70.9 70.9" xmlns="http://www.w3.org/2000/svg">
    <path d="M94.6 45.2c-2.4 0-4.5-1.1-5.9-3v8.1c0 .9-.7 1.6-1.7 1.6a1.58 1.58 0 0 1-1.6-1.6v-22c0-.9.7-1.6 1.7-1.6a1.58 1.58 0 0 1 1.6 1.6v1.2c1.3-1.8 3.5-3 5.9-3 4.7 0 8 3.5 8 9.4 0 5.7-3.3 9.3-8 9.3zm-1-15.9c-2 0-4.1 1.2-5 2.6v7.6c.9 1.4 3 2.7 5 2.7 3.4 0 5.4-2.7 5.4-6.5s-1.9-6.4-5.4-6.4zm20.5-7c0 1.2-.9 2.1-2.1 2.1s-2.1-1-2.1-2.1c0-1.2 1-2.2 2.1-2.2 1.3 0 2.1 1 2.1 2.2zm-2 22.6a1.58 1.58 0 0 1-1.6-1.6V28.2c0-.9.7-1.6 1.7-1.6a1.58 1.58 0 0 1 1.6 1.6v15.1c0 .9-.9 1.6-1.7 1.6zm24.5-1.9c-1.3 1.3-3.2 2.2-5.8 2.2-5.4 0-9.1-4-9.1-9.4 0-5.3 3.7-9.4 9.1-9.4 2.7 0 4.7 1 6 2.4.2.2.3.5.3.8a1.54 1.54 0 0 1-1.5 1.5c-.4 0-.7-.1-1-.4-1-.9-2.2-1.3-3.5-1.3-3.6 0-5.9 2.7-5.9 6.5s2.3 6.5 5.9 6.5c1.3 0 2.5-.4 3.5-1.3a1.93 1.93 0 0 1 1-.3c.8 0 1.6.6 1.6 1.4-.1.1-.3.5-.6.8zm16.2 2.2c-5.6 0-9-4.3-9-9.4s3.5-9.4 9-9.4c5.6 0 9.1 4.2 9.1 9.4s-3.5 9.4-9.1 9.4zm0-15.9c-3.6 0-5.6 3-5.6 6.5s2 6.5 5.6 6.5 5.6-3 5.6-6.5-2-6.5-5.6-6.5zm31.5 15.6a1.58 1.58 0 0 1-1.6-1.6v-1.2c-1.4 1.8-3.5 3-5.9 3-4.6 0-8-3.5-8-9.4 0-5.8 3.3-9.4 8-9.4 2.3 0 4.5 1.1 5.9 3v-8.1c0-.9.7-1.6 1.7-1.6a1.58 1.58 0 0 1 1.6 1.6v22c-.1 1-.7 1.7-1.7 1.7zm-1.7-13c-.9-1.4-3-2.7-5-2.7-3.3 0-5.4 2.7-5.4 6.5 0 3.7 2.1 6.5 5.4 6.5 2.1 0 4.1-1.2 5-2.6v-7.7zm16.2-9.6c0 1.2-.9 2.1-2.1 2.1s-2.1-1-2.1-2.1c0-1.2 1-2.2 2.1-2.2s2.1 1 2.1 2.2zm-2.2 22.6a1.58 1.58 0 0 1-1.6-1.6V28.2c0-.9.7-1.6 1.7-1.6a1.58 1.58 0 0 1 1.6 1.6v15.1c0 .9-.7 1.6-1.7 1.6zM28.4 31c-.6.7-1.3 1.3-2 1.9-.2.2-.3.5-.3.8a1.11 1.11 0 0 0 1.1 1.1h1.1c.6 0 1.2 0 1.8-.1-.1-1.4-.7-2.8-1.7-3.7z"/>
    <path d="M57 13.7c-1.7-5.3-4.8-9.9-9-13.3-.2-.2-.5-.3-.8-.3a1.11 1.11 0 0 0-1.1 1.1c0 .3.2.6.1.5.6 1.6 1 3.4 1 5.2 0 1.2-.2 2.4-.5 3.6-.3 0-.6-.1-.9-.1-.2 0-.4 0-.6-.1-.6 0-1.2-.1-1.8-.1-.9 0-1.7 0-2.6.1h-.2c-.3 0-.7.1-1 .1-1.8-2.7-4.4-4.7-7.5-5.7.1 0-.1-.1-.4-.1-.5 0-.8.4-.8.8 0 .1 0 .3.1.4a21.56 21.56 0 0 1 2.4 6.1c.1.3.1.7.2 1v.1c.1.3.1.6.1.9v.5c0 .2 0 .5.1.7v3.6c0 .2 0 .3-.1.5v.6c0 .2-.1.4-.1.6s-.1.3-.1.5v.1c0 .2-.1.4-.1.6s-.1.3-.1.5c-.1.2-.1.4-.2.6 0 .2-.1.3-.1.5-.1.2-.1.4-.2.6-.1.1-.1.3-.2.4l-.3.6c-.1.1-.1.3-.2.4l-.3.6c-.1.1-.1.2-.2.4l-.3.6c-.1.1-.1.2-.2.4s-.2.4-.4.6c-.1.1-.1.2-.2.3-.1.2-.3.4-.4.6-.1.1-.2.2-.2.3-.1.2-.3.4-.4.5l-.3.3c-.1.2-.3.3-.4.5l-.2.2c1 1 1.7 2.3 1.8 3.8v-.1c2.1-1 4-2.3 5.6-3.9.7-.7 1.3-1.4 1.9-2.2 0-.1.1-.1.1-.2.3-.3.5-.7.7-1.1 0-.1.1-.1.1-.2.2-.4.5-.8.7-1.2v-.1c.2-.4.4-.9.6-1.4 0-.1.1-.1.1-.2.2-.4.3-.8.4-1.1 0-.1.1-.3.1-.4.1-.3.2-.7.3-1 0-.1.1-.3.1-.4l.3-1.4c.4-2.8 2.9-4.9 5.8-4.9h.8c.1 0 .2 0 .4.1.1 0 .2 0 .3.1.1 0 .2 0 .3.1.1 0 .2.1.3.1s.2.1.2.1c.1 0 .2.1.3.1s.1.1.2.1c.1.1.2.1.3.2.1 0 .1.1.2.1.1.1.2.1.3.2l.9.9c.1.1.2.2.3.4v.1c.1.1.2.3.3.4s.2.3.2.5c.1.2.1.3.2.5.2.6.4 1.3.4 2s.1 1.3.1 2c0 1.5-.1 2.9-.4 4.4l5.2-1.1c.2-1.2.3-2.5.3-3.8 0-2.7-.5-5.6-1.3-8.3z" fill="#ff7f32"/>
    <path d="M53 20.8c0-.7-.1-1.4-.4-2-.1-.2-.1-.3-.2-.5s-.2-.3-.2-.5c-.1-.1-.2-.3-.3-.4v-.1c-.1-.1-.2-.3-.3-.4l-.9-.9c-.1-.1-.2-.2-.3-.2s-.1-.1-.2-.1c-.1-.1-.2-.1-.3-.2-.1 0-.1-.1-.2-.1s-.2-.1-.3-.1-.2-.1-.2-.1c-.1 0-.2-.1-.3-.1s-.2-.1-.3-.1-.2 0-.3-.1c-.1 0-.2 0-.4-.1h-.8c-2.9 0-5.3 2.1-5.8 4.9l-.3 1.4c0 .1-.1.3-.1.4l-.3 1c0 .1-.1.3-.1.4-.1.4-.3.8-.4 1.1 0 .1-.1.1-.1.2l-.6 1.4v.1c-.2.4-.4.8-.7 1.2 0 .1-.1.1-.1.2-.2.4-.5.7-.7 1.1 0 .1-.1.1-.1.2-.6.8-1.2 1.5-1.9 2.2-1.6 1.6-3.5 2.9-5.6 3.9v.1c6-.4 11.5-2.6 15.9-6.1 0 0 .5-.3 1.2-1 .8-.7 1.4-1.4 1.8-1.8-1.1-.8-1.3-2-1.3-2s.7 1 1.7 1.6c.9.7 2.2.7 2.2.7s-1.1.5-2.4-.2c-.1.3-.3.6-.5 1-.6.9-.9 1.2-1.1 1.4l5.2-1.1c.2-1.4.4-2.9.4-4.4-.3-.6-.3-1.2-.4-1.9zm-7.6.7a1.58 1.58 0 0 1-1.6-1.6 1.58 1.58 0 1 1 3.2 0 1.58 1.58 0 0 1-1.6 1.6z" fill="#fff"/>
    <circle cx="45.4" cy="19.9" r="1.6"/>
    <path d="M49.4 25.5c-.9-.7-1.7-1.6-1.7-1.6s.2 1.2 1.3 2l-1.8 1.8c-.7.7-1.2 1-1.2 1l1.5-.3s.4-.3 1.1-1.4a4.67 4.67 0 0 0 .5-1c1.3.8 2.4.2 2.4.2s-1.2 0-2.1-.7z" fill="transparent"/>
    <path d="M23.3 54.9l-5-10.1L15 63l44.8 7.9 10.1-10.6-4.7-10.7-41.9 5.3zm39.1 5.8a1.58 1.58 0 1 1 0-3.2 1.58 1.58 0 0 1 1.6 1.6c0 .9-.9 1.6-1.6 1.6z" fill="#9e2a2b"/>
    <path d="M36.1 37.9c-1 .2-1.6 1.1-1.3 2.3.2 1.1 1.1 1.7 2.1 1.5s1.5-1.1 1.3-2.2c-.2-1.3-1.1-1.9-2.1-1.6zM48 43.3c-1 .2-1.5 1.1-1.3 2.3s1.1 1.7 2.1 1.5 1.6-1.1 1.3-2.2c-.2-1.2-1.1-1.8-2.1-1.6zm12.6-17.8L46 28.6c-4.9 3.9-11 6.2-17.7 6.2h-1.1a1.11 1.11 0 0 1-1.1-1.1c0-.3.1-.6.3-.8l.1-.1L16.1 35l5.1 24 44.5-9.5 5.4-13.7-10.5-10.3zM33 40.6c-.4-2 .7-3.9 2.9-4.4s4 .8 4.4 2.8-.7 3.8-2.9 4.3-4-.7-4.4-2.7zm6.9 10.1c-.4.1-.8-.1-.9-.5v-.4l5.7-15.1c.1-.2.3-.4.5-.4.4-.1.8.2.9.5v.4l-5.7 15.1c-.1.2-.4.3-.5.4zm9.2-1.9c-2.2.5-4-.8-4.4-2.8s.7-3.9 2.9-4.4 4 .8 4.4 2.8c.5 2-.6 3.9-2.9 4.4zm13.8-9.5a1.58 1.58 0 0 1-1.6-1.6 1.6 1.6 0 1 1 3.2 0 1.58 1.58 0 0 1-1.6 1.6z" fill="#e5161e"/>
    <path d="M37.4 43.3c-2.2.5-4-.8-4.4-2.8s.7-3.9 2.9-4.4 4 .8 4.4 2.8c.3 2.1-.8 3.9-2.9 4.4zm-.4-1.7c1-.2 1.5-1.1 1.3-2.2-.3-1.2-1.1-1.8-2.1-1.6s-1.6 1.1-1.3 2.3 1.1 1.7 2.1 1.5zm3.4 8.6c-.1.2-.3.4-.5.4-.4.1-.8-.1-.9-.5v-.4l5.7-15.1c.1-.2.3-.4.5-.4.4-.1.8.2.9.5v.4l-5.7 15.1zm8.7-1.4c-2.2.5-4-.8-4.4-2.8s.7-3.9 2.9-4.4 4 .8 4.4 2.8c.5 2-.6 3.9-2.9 4.4zm-.2-1.7c1-.2 1.6-1.1 1.3-2.2-.3-1.2-1.1-1.8-2.1-1.6s-1.5 1.1-1.3 2.3c.2 1.1 1.1 1.7 2.1 1.5zM25.5 2c.1-.1.2-.2.2-.4a.47.47 0 0 0-.5-.5h-.1C19.6 2 14.9 4 10.9 7.6c.8 2.9 3 4.9 5.9 5.5C19 9 21.9 5 25.5 2c0 .1 0 .1 0 0z" fill="#fff"/>
    <path d="M26 .1C11.5 2.4.3 15.1.3 30.3c0 11.5 6.4 21.6 15.8 26.8l1.6-8.8c-3.1-5.3-4.9-11.4-4.9-18 0-11.5 5.5-21.7 14-28.1.2-.2.4-.6.4-.9 0-.7-.5-1.2-1.2-1.2zM25.5 2c0 .1 0 .1 0 0-3.7 2.9-6.6 6.9-8.9 11.1-2.9-.6-5.1-2.6-5.9-5.5C14.7 4 19.4 2 25 1.1h.1a.47.47 0 0 1 .5.5c.2.2.1.3-.1.4z" fill="#ff7f32"/>
</svg>
