<svg width="128" height="96" fill="none" xmlns="http://www.w3.org/2000/svg"><path d="M38.092 73.711c19.526 0 35.355-15.83 35.355-35.355C73.447 18.828 57.618 3 38.092 3 18.566 3 2.736 18.83 2.736 38.355c0 19.527 15.83 35.356 35.356 35.356z" fill="#F4F5F5"/><path d="M16.91 41.19h4.395a17.03 17.03 0 0 0 5.945 10.282c7.252 5.99 17.986 4.966 23.976-2.285a1.419 1.419 0 1 0-2.188-1.805 14.155 14.155 0 0 1-10.944 5.159 14.193 14.193 0 0 1-13.903-11.35h3.876a.71.71 0 0 0 .545-1.163l-5.579-6.697a.71.71 0 0 0-1.09 0l-5.578 6.697a.71.71 0 0 0 .545 1.163zM25.16 29.582c.62.478 1.51.363 1.99-.257a14.193 14.193 0 0 1 8.096-4.866c7.679-1.572 15.178 3.378 16.75 11.057h-3.875a.71.71 0 0 0-.545 1.164l5.578 6.696a.71.71 0 0 0 1.09 0l5.578-6.696a.71.71 0 0 0-.544-1.164h-4.396a17.03 17.03 0 0 0-5.944-10.28c-7.252-5.99-17.987-4.967-23.976 2.284-.02.024-.04.047-.059.072a1.419 1.419 0 0 0 .257 1.99z" fill="#CACDCE"/><path d="M53.464 71.174v6.271c0 2.839-7.863 5.132-17.554 5.118-9.692-.013-17.573-2.343-17.568-5.176v-6.272l35.122.059z" fill="#F9B02C"/><path d="M53.434 78.724v6.271c0 2.843-7.863 5.132-17.55 5.118-9.687-.013-17.54-2.334-17.536-5.177v-6.271l35.086.059z" fill="#F9B02C"/><path opacity=".08" d="M53.434 78.724v6.271c0 2.843-7.863 5.132-17.55 5.118-9.687-.013-17.54-2.334-17.536-5.177v-6.271l35.086.059z" fill="#000"/><path d="M53.099 78.524c.005-2.817-7.772-5.114-17.371-5.131-9.599-.017-17.384 2.253-17.39 5.07-.004 2.816 7.773 5.113 17.372 5.13 9.599.017 17.384-2.253 17.389-5.07z" fill="#F9B02C"/><path opacity=".08" d="M53.464 71.174v6.271c0 2.839-7.863 5.132-17.554 5.118-9.692-.013-17.573-2.343-17.568-5.176v-6.272l35.122.059z" fill="#000"/><path d="M52.18 63.677v6.272c0 2.843-7.862 5.131-17.554 5.118-9.691-.014-17.54-2.334-17.536-5.181v-6.272l35.09.059v.004z" fill="#F9B02C"/><path d="M53.464 56.126v6.258c0 2.838-7.863 5.131-17.554 5.113-9.692-.018-17.541-2.334-17.537-5.172v-6.271l35.091.072z" fill="#F9B02C"/><path d="M53.109 71.044c.005-2.816-7.773-5.114-17.372-5.13-9.598-.017-17.383 2.252-17.388 5.069-.005 2.817 7.772 5.114 17.37 5.13 9.6.017 17.385-2.252 17.39-5.069z" fill="#F9B02C"/><path opacity=".08" d="M52.18 63.677v6.272c0 2.843-7.862 5.131-17.554 5.118-9.691-.014-17.54-2.334-17.536-5.181v-6.272l35.09.059v.004z" fill="#000"/><path d="M51.859 63.616c.005-2.816-7.773-5.113-17.372-5.13-9.598-.017-17.383 2.253-17.388 5.07-.005 2.816 7.772 5.113 17.37 5.13 9.6.017 17.385-2.253 17.39-5.07z" fill="#F9B02C"/><path opacity=".08" d="M53.464 56.126v6.258c0 2.838-7.863 5.131-17.554 5.113-9.692-.018-17.541-2.334-17.537-5.172v-6.271l35.091.072z" fill="#000"/><path opacity=".08" d="M52.774 91.29c7.194 0 13.026-5.878 13.026-13.128 0-7.251-5.832-13.129-13.026-13.129s-13.026 5.878-13.026 13.129c0 7.25 5.832 13.128 13.026 13.128z" fill="#000"/><path opacity=".08" d="M44.114 65.015s-13.639 4.194-11.448 25.004c0 0 8.886.302 13.106-.793 3.773-.973-1.658-24.211-1.658-24.211z" fill="#000"/><path d="M53.47 56.134c.005-2.817-7.849-5.114-17.541-5.131-9.693-.017-17.554 2.252-17.559 5.069-.005 2.816 7.849 5.114 17.541 5.13 9.693.018 17.554-2.252 17.559-5.068zM52.774 91.29c7.194 0 13.026-5.878 13.026-13.128 0-7.251-5.832-13.129-13.026-13.129s-13.026 5.878-13.026 13.129c0 7.25 5.832 13.128 13.026 13.128z" fill="#F9B02C"/><path d="M53.409 87.333c7.194 0 13.026-5.878 13.026-13.128 0-7.251-5.832-13.129-13.026-13.129s-13.026 5.878-13.026 13.129c0 7.25 5.832 13.128 13.026 13.128z" fill="#000" opacity=".08"/><path d="M52.774 91.29c7.194 0 13.026-5.878 13.026-13.128 0-7.251-5.832-13.129-13.026-13.129s-13.026 5.878-13.026 13.129c0 7.25 5.832 13.128 13.026 13.128z" fill="#C8850E"/><path d="M53.32 89.605c7.25 0 13.128-6.042 13.128-13.496 0-7.453-5.877-13.495-13.127-13.495-7.25 0-13.128 6.042-13.128 13.495 0 7.454 5.878 13.496 13.128 13.496z" fill="#DA9417"/><path d="M53.41 87.334c7.195 0 13.027-5.878 13.027-13.128 0-7.251-5.832-13.129-13.026-13.129s-13.026 5.878-13.026 13.129c0 7.25 5.832 13.128 13.026 13.128z" fill="#F9B02C"/><path d="M53.831 67.796c.367 0 .483.127.483.505v.788a3.593 3.593 0 0 1 2.95 2.244c.193.388.108.6-.321.793l-.787.356c-.367.18-.545.095-.751-.293a2.007 2.007 0 0 0-2.052-1.243c-1.359 0-1.985.405-1.985 1.324a1.223 1.223 0 0 0 1.105 1.082c.38.09.764.148 1.153.18a7.493 7.493 0 0 1 2.132.419c.344.112.662.288.943.518a3.13 3.13 0 0 1 .85 2.257c0 1.762-1.172 2.956-3.237 3.262v.842c0 .37-.111.5-.483.5h-.88c-.367 0-.496-.126-.496-.5v-.824a3.641 3.641 0 0 1-3.205-2.487.526.526 0 0 1 .366-.743l.787-.293c.398-.144.577-.045.75.356.35.914 1.074 1.37 2.16 1.37 1.475 0 2.208-.456 2.208-1.42a.983.983 0 0 0-.688-1 5.417 5.417 0 0 0-1.583-.306 7.161 7.161 0 0 1-2.145-.456 2.6 2.6 0 0 1-1.793-2.743c0-1.744 1.09-2.91 3.138-3.199v-.788c0-.374.125-.505.496-.505h.881l.005.004z" fill="#fff"/><path d="M90.518 40.936s-2.057 6.892-.226 13.12c1.83 6.227 3.52 5.969 9.314 14.138 3.753 5.286 5.469 13.105 4.874 18.382-.764 3.382-4.49 5.425-6.98 5.425H76.547s-1.167-.461-1.245-.849c-.814-4.142-2.631-21.763-2.631-21.763s-2.403-12.34-.916-16.145c1.488-3.806 2.86-9.457 3.204-11.071.343-1.615 15.559-1.237 15.559-1.237z" fill="#FF7F32"/><path d="m91.739 28.583-.014-.014a28.426 28.426 0 0 0-6.174-14.665 1.114 1.114 0 0 0-2.028.402c-.055.286.041.59.014.475.311 1.688.32 3.46-.027 5.25a14.144 14.144 0 0 1-1.14 3.418c-.275-.088-.554-.162-.833-.24-.201-.056-.403-.12-.604-.176a28.217 28.217 0 0 0-4.21-.765l-.166-.014c-.33-.033-.659-.06-.988-.079a14.133 14.133 0 0 0-6.138-6.997c.06.046-.128-.12-.339-.162a.828.828 0 0 0-.97.66.828.828 0 0 0 .018.369 21.317 21.317 0 0 1 1.181 6.453c.01.35.005.697 0 1.047v.148c-.009.314-.027.627-.046.941l-.04.466c-.024.235-.046.475-.074.715a20.098 20.098 0 0 1-.458 2.417c-.032.138-.078.272-.114.406l-.055.194c-.05.175-.096.35-.147.526-.05.166-.11.327-.164.489-.037.106-.069.207-.105.313l-.097.286c-.064.175-.137.35-.21.526l-.188.466-.027.065c-.083.184-.17.369-.252.548-.073.157-.146.319-.22.471-.096.19-.197.374-.297.563-.078.143-.151.286-.229.424-.11.19-.224.379-.339.563-.078.13-.155.258-.238.387-.123.19-.252.379-.375.563-.082.12-.16.236-.243.355-.132.19-.274.37-.412.554-.082.11-.164.221-.251.328-.147.18-.298.36-.444.535l-.261.304c-.156.175-.316.346-.471.512l-.275.29c-.16.167-.33.324-.495.485-.096.092-.196.19-.297.277-.165.152-.339.3-.508.447-.105.093-.21.185-.32.272a22.279 22.279 0 0 1-.87.678l-.146.107c.064-.046.132-.088.196-.139.797 1.13 1.012 3.852 1.012 3.829 2.22-.554 4.298-1.38 6.174-2.639a20.115 20.115 0 0 0 2.298-1.803c.05-.046.096-.093.146-.139.307-.286.609-.585.897-.89.06-.064.12-.124.179-.19.311-.336.608-.682.897-1.037.018-.023.036-.041.05-.065.307-.387.604-.793.883-1.204.042-.06.074-.12.115-.175.224-.337.435-.682.64-1.038.07-.124.138-.249.207-.373.169-.31.33-.628.485-.946.06-.13.123-.254.183-.383.201-.443.421-.881.586-1.342.96-2.63 3.689-4.244 6.504-3.69.192.036.38.082.563.138.063.018.128.046.192.069.114.041.233.078.343.125.078.032.156.073.233.11.092.042.183.083.275.13.087.046.165.096.252.147.073.046.15.088.224.134.091.06.174.124.26.189.06.046.12.088.18.134.09.074.178.152.26.23.046.042.096.083.138.13.091.087.173.184.26.276.037.037.07.074.106.116.087.106.17.212.251.322.023.033.05.065.074.097.082.12.16.245.238.37.013.027.032.05.045.078.078.134.147.272.216.415l.027.055c.069.148.128.305.188.457 0 .014.009.023.013.037.055.161.106.328.151.493v.019a5.804 5.804 0 0 1 .078 2.532c0 .014-.004.024-.009.037a27.44 27.44 0 0 1-.302 1.989 27.202 27.202 0 0 1-1.167 4.193l5.325-.029c.393-1.176.652-2.449.895-3.699.567-2.929.659-5.84.334-8.653h-.01zM77.193 55.25l-8.238 32.442s-3.698-.77-4.577 1.536.38 2.768.38 2.768h7.552s1.066-.152 1.524-1.075c.458-.923 10.07-30.597 10.07-30.597l-.266-8.571-6.445 3.496z" fill="#FF7F32"/><path d="M75.09 77.083c.459-.923 1.603-20.68 1.603-20.68l-2.367-14.452s-4.69 12.57-6.178 22.142c-1.488 9.572 2.06 9.766 2.06 9.766" fill="#FF7F32"/><path d="M85.179 40.963s-3.529 4.636-6.124 9.401C76.46 55.129 73.64 70.43 73.64 70.43s-2.668-9.456-1.908-16.376c.76-6.92 3.51-12.607 3.51-12.607l9.937-.484z" fill="#fff"/><path d="M86.653 34.778s.004-.023.009-.037a5.78 5.78 0 0 0 .032-2.002 6.805 6.805 0 0 0-.106-.53v-.019a6.195 6.195 0 0 0-.155-.493c0-.014-.01-.023-.014-.037a5.027 5.027 0 0 0-.188-.457l-.027-.055a5.88 5.88 0 0 0-.215-.415c-.014-.028-.032-.051-.046-.079a4.619 4.619 0 0 0-.238-.369c-.023-.032-.05-.064-.073-.097a8.656 8.656 0 0 0-.252-.323 1.238 1.238 0 0 0-.105-.115 3.71 3.71 0 0 0-.261-.277c-.046-.046-.092-.083-.137-.129-.087-.078-.174-.157-.261-.23-.06-.047-.12-.088-.179-.134-.087-.065-.17-.13-.26-.19-.074-.046-.147-.092-.225-.133-.082-.05-.165-.102-.252-.148s-.183-.087-.274-.129c-.078-.037-.151-.074-.234-.11-.11-.047-.228-.084-.343-.125l-.192-.07a5.586 5.586 0 0 0-.563-.138c-2.815-.553-5.543 1.066-6.504 3.69-.17.462-.389.9-.586 1.343-.06.13-.123.254-.183.383a20.27 20.27 0 0 1-.485.945l-.206.374c-.201.35-.416.697-.64 1.038-.037.06-.074.12-.115.175-.28.415-.572.817-.883 1.204-.019.023-.037.042-.05.065a17.67 17.67 0 0 1-1.076 1.227c-.289.304-.59.604-.897.89l-.147.139a19.585 19.585 0 0 1-8.49 4.548v.064c5.858.77 13.09-.226 17.319-1.111 4.229-.886 6.023-1.947 6.023-1.947a26.834 26.834 0 0 0 1.167-4.193c.128-.664.225-1.329.302-1.988l.01-.005z" fill="#fff"/><path d="M76.603 43.058c-5.005 1.077-10.052 1.435-15.185.775-.05-.006-.059.096-.013.108 4.936.956 10.079.968 15.02-.188.036-.24.096-.478.173-.7l.005.005z" fill="#D6D6D6"/><path d="M60.843 40.023c-.718.54-1.469 1.033-2.252 1.476-.247.156-.43.41-.49.72-.118.603.875 1.31.875 1.31-.037 0 0 0 0 0 .33.078.764.165 1.098.234.586.116 1.195.014 1.78.088.188-1.462-.214-2.703-1.01-3.828z" fill="#000"/><path d="m83.274 61.045-8.153 26.674-.619 2.034c1.27 1.987 2.433 1.987 2.433 1.987s-1.4-.422-1.4-2.58c0-2.157 2.805-2.35 2.805-2.35l8.436-.037s-8.27.381-7.933-6.504c0-7.918 10.887-11.82 10.887-11.82s-3.592.803-7.295 3.902c-3.704 3.098-2.47 2.41-2.47 2.41l3.314-13.716h-.005zM73.97 70.583l-4.604 17.28 1.503 1.072s-2.233-1.416-4.325-.957c-2.527.612-2.427 2.704-2.427 2.704h-.119s.119 0 .237-.975c.792-2.952 4.685-2.069 4.685-2.069l4.088-20.77.967 3.715h-.005z" fill="#F26522"/><path d="M101.772 25.067c-.1.448.046.877.325 1.19a40.634 40.634 0 0 1 8.481 35.05c-1.652 7.37-5.208 13.81-10.028 18.916l-.489 11.196c11.803-3.455 21.433-14.023 24.335-26.962 3.84-17.114-5.41-34.122-21.081-40.428a1.353 1.353 0 0 0-1.552 1.034l.009.004zm1.584 1.315a.623.623 0 0 1 .664-.927c.027.004.045.023.073.032l.014-.014c5.972 2.427 10.714 5.872 14.293 10.928-1.657 2.998-4.536 4.714-7.973 4.677-1.483-5.258-3.666-10.498-7.048-14.668-.005-.01-.014-.014-.019-.023v-.01l-.004.005z" fill="#FF7F32"/><path d="M104.098 25.491c-.027-.009-.046-.027-.073-.032a.615.615 0 0 0-.737.47.652.652 0 0 0 .073.457v.01l.023.023c3.382 4.174 5.565 9.415 7.048 14.669 3.438.036 6.317-1.684 7.973-4.678-3.579-5.056-8.32-8.501-14.293-10.928l-.014.014v-.005z" fill="#fff"/><path d="M109.272 73.576c2.457-8.053 2.135-15.506 2.511-17.823l-.081.32a41.25 41.25 0 0 1-.831 5.497 40.303 40.303 0 0 1-6.92 15.278c1.072 3.413-.045 9.07-.045 9.07s2.904-4.286 5.361-12.338l.005-.004z" fill="#F26522"/><path d="M81.683 33.525c-.184.23-.695.295-.695.295s-.517.082-.82.082c-.307 0-.742-.082-.742-.082s-.444-.133-.556-.298a1.029 1.029 0 0 1-.169-.569c.074-.183.186-.356.338-.506.29-.3.753-.513 1.237-.51.485 0 .948.206 1.238.51.152.15.26.323.338.506 0 .205-.024.39-.169.572z" fill="#000"/><path d="M80.802 42.523c-2.249.955-4.7 1.53-7.19 1.587a1.57 1.57 0 0 0-.16-.281" fill="#D6D6D6"/><path d="M83.423 39.206s-.045.032-.125.068a.865.865 0 0 1-.35.073c-.146 0-.324-.031-.5-.12a1.597 1.597 0 0 1-.518-.422 2.767 2.767 0 0 1-.215-.314 2.225 2.225 0 0 1-.17-.355c-.098-.24-.16-.49-.188-.71a2.744 2.744 0 0 1-.014-.725s.07.277.201.621c.066.172.15.366.25.548.05.094.108.183.167.272.06.094.115.167.188.25a2.303 2.303 0 0 0 1.278.81l-.004.004z" fill="#000"/><path d="M81.847 38.307s-.004.16-.077.414a4.125 4.125 0 0 1-.447.986 4.875 4.875 0 0 1-.405.587c-.16.193-.319.405-.515.592-.19.193-.391.385-.6.568l-.333.264-.323.246c-.224.163-.474.313-.702.457-.227.149-.473.27-.705.385-.233.12-.465.216-.684.303a5.829 5.829 0 0 1-.633.221c-.797.25-1.375.25-1.375.25l-.023-.067s.497-.202 1.216-.577a22.888 22.888 0 0 0 2.528-1.564c.897-.611 1.726-1.323 2.263-1.949.269-.312.465-.591.587-.798.123-.207.169-.337.169-.337l.064.024-.005-.005z" fill="#000"/><path d="M71.243 74.804c-4.472-.642-5.218-6.275-9.094-9.743-1.826-1.635-3.139-.841-5.24-1.37-2.1-.794-3.126-2.38-2.362-4.043.52-1.132 1.575-1.779 3.15-1.779 1.621 0 4.247.887 5.632 1.779.937.462 9.071 9.115 9.071 9.115" fill="#FF7F32"/><path d="M55.585 59.722a2.27 2.27 0 0 0-.58 1.056c.974-1.123 2.46-1.683 3.94-1.32a2.07 2.07 0 0 0-1.072-.481 2.46 2.46 0 0 0-2.288.745zM58.688 60.663a2.46 2.46 0 0 0-2.288.745c-.291.31-.48.645-.58 1.056.923-1.135 2.449-1.631 3.94-1.32a2.07 2.07 0 0 0-1.072-.48z" fill="#CB5C19"/></svg>