<svg width="17" height="17" viewBox="0 0 17 17" fill="none" xmlns="http://www.w3.org/2000/svg">
<path d="M8.5 1.72656C7.16034 1.72656 5.85077 2.12382 4.73688 2.86809C3.623 3.61237 2.75483 4.67023 2.24216 5.90792C1.7295 7.1456 1.59536 8.50751 1.85672 9.82143C2.11807 11.1354 2.76318 12.3423 3.71046 13.2895C4.65774 14.2368 5.86465 14.8819 7.17857 15.1433C8.49249 15.4046 9.8544 15.2705 11.0921 14.7578C12.3298 14.2452 13.3876 13.377 14.1319 12.2631C14.8762 11.1492 15.2734 9.83966 15.2734 8.5C15.2699 6.70465 14.5552 4.98384 13.2857 3.71433C12.0162 2.44483 10.2954 1.73007 8.5 1.72656V1.72656ZM8.5 14.4766C7.31795 14.4766 6.16244 14.126 5.1796 13.4693C4.19676 12.8126 3.43073 11.8792 2.97838 10.7871C2.52603 9.69506 2.40767 8.49337 2.63828 7.33403C2.86889 6.17469 3.4381 5.10977 4.27394 4.27393C5.10977 3.43809 6.17469 2.86888 7.33403 2.63828C8.49337 2.40767 9.69506 2.52602 10.7871 2.97838C11.8792 3.43073 12.8126 4.19676 13.4693 5.1796C14.126 6.16244 14.4766 7.31795 14.4766 8.5C14.4748 10.0845 13.8446 11.6037 12.7241 12.7241C11.6037 13.8446 10.0845 14.4748 8.5 14.4766ZM5.44532 7.17188C5.44532 7.04054 5.48426 6.91215 5.55723 6.80294C5.6302 6.69374 5.73391 6.60862 5.85525 6.55836C5.97659 6.5081 6.11011 6.49495 6.23893 6.52057C6.36775 6.5462 6.48607 6.60944 6.57894 6.70231C6.67181 6.79518 6.73506 6.91351 6.76068 7.04232C6.7863 7.17114 6.77315 7.30466 6.72289 7.426C6.67263 7.54734 6.58752 7.65105 6.47831 7.72402C6.36911 7.79699 6.24072 7.83594 6.10938 7.83594C5.93326 7.83594 5.76435 7.76597 5.63981 7.64144C5.51528 7.5169 5.44532 7.348 5.44532 7.17188V7.17188ZM10.2266 7.17188C10.2266 7.04054 10.2655 6.91215 10.3385 6.80294C10.4114 6.69374 10.5152 6.60862 10.6365 6.55836C10.7578 6.5081 10.8914 6.49495 11.0202 6.52057C11.149 6.5462 11.2673 6.60944 11.3602 6.70231C11.4531 6.79518 11.5163 6.91351 11.5419 7.04232C11.5676 7.17114 11.5544 7.30466 11.5041 7.426C11.4539 7.54734 11.3688 7.65105 11.2596 7.72402C11.1504 7.79699 11.022 7.83594 10.8906 7.83594C10.7145 7.83594 10.5456 7.76597 10.4211 7.64144C10.2965 7.5169 10.2266 7.348 10.2266 7.17188V7.17188ZM11.6078 11.4883C11.634 11.5336 11.651 11.5837 11.6578 11.6356C11.6647 11.6875 11.6612 11.7403 11.6476 11.7908C11.6341 11.8414 11.6107 11.8888 11.5788 11.9303C11.5469 11.9718 11.5071 12.0067 11.4617 12.0328C11.4004 12.0659 11.3322 12.0841 11.2625 12.0859C11.1925 12.086 11.1238 12.0676 11.0631 12.0326C11.0025 11.9976 10.9522 11.9473 10.9172 11.8867C10.6726 11.4619 10.3204 11.109 9.89608 10.8636C9.47173 10.6183 8.99019 10.4891 8.5 10.4891C8.00981 10.4891 7.52828 10.6183 7.10392 10.8636C6.67956 11.109 6.32737 11.4619 6.08282 11.8867C6.05733 11.9328 6.02284 11.9732 5.98139 12.0056C5.93994 12.038 5.89239 12.0617 5.84157 12.0754C5.79075 12.089 5.7377 12.0923 5.68559 12.085C5.63349 12.0776 5.58339 12.0599 5.53828 12.0328C5.49292 12.0067 5.45314 11.9718 5.42124 11.9303C5.38934 11.8888 5.36594 11.8414 5.35237 11.7908C5.3388 11.7403 5.33534 11.6875 5.34217 11.6356C5.349 11.5837 5.366 11.5336 5.39219 11.4883C5.70797 10.9438 6.16127 10.4918 6.7067 10.1776C7.25213 9.86334 7.87054 9.69796 8.5 9.69796C9.12946 9.69796 9.74788 9.86334 10.2933 10.1776C10.8387 10.4918 11.292 10.9438 11.6078 11.4883V11.4883Z" fill="black"/>
</svg>
